<?xml version="1.0" encoding="utf-8" standalone="no"?>
<!DOCTYPE svg PUBLIC "-//W3C//DTD SVG 1.1//EN"
  "http://www.w3.org/Graphics/SVG/1.1/DTD/svg11.dtd">
<!-- Created with matplotlib (https://matplotlib.org/) -->
<svg height="340.446625pt" version="1.1" viewBox="0 0 392.836875 340.446625" width="392.836875pt" xmlns="http://www.w3.org/2000/svg" xmlns:xlink="http://www.w3.org/1999/xlink">
 <metadata>
  <rdf:RDF xmlns:cc="http://creativecommons.org/ns#" xmlns:dc="http://purl.org/dc/elements/1.1/" xmlns:rdf="http://www.w3.org/1999/02/22-rdf-syntax-ns#">
   <cc:Work>
    <dc:type rdf:resource="http://purl.org/dc/dcmitype/StillImage"/>
    <dc:date>2020-10-29T16:13:14.749838</dc:date>
    <dc:format>image/svg+xml</dc:format>
    <dc:creator>
     <cc:Agent>
      <dc:title>Matplotlib v3.3.1, https://matplotlib.org/</dc:title>
     </cc:Agent>
    </dc:creator>
   </cc:Work>
  </rdf:RDF>
 </metadata>
 <defs>
  <style type="text/css">*{stroke-linecap:butt;stroke-linejoin:round;}</style>
 </defs>
 <g id="figure_1">
  <g id="patch_1">
   <path d="M 0 340.446625 
L 392.836875 340.446625 
L 392.836875 0 
L 0 0 
z
" style="fill:none;"/>
  </g>
  <g id="axes_1">
   <g id="patch_2">
    <path d="M 50.836875 244.317187 
L 385.636875 244.317187 
L 385.636875 26.877187 
L 50.836875 26.877187 
z
" style="fill:#ffffff;"/>
   </g>
   <g id="patch_3">
    <path clip-path="url(#pf8566f135c)" d="M 66.055057 244.317187 
L 66.93791 244.317187 
L 66.93791 243.161898 
L 66.055057 243.161898 
z
" style="fill:#1a89f4;"/>
   </g>
   <g id="patch_4">
    <path clip-path="url(#pf8566f135c)" d="M 67.158623 244.317187 
L 68.041476 244.317187 
L 68.041476 244.317187 
L 67.158623 244.317187 
z
" style="fill:#1a89f4;"/>
   </g>
   <g id="patch_5">
    <path clip-path="url(#pf8566f135c)" d="M 68.26219 244.317187 
L 69.145043 244.317187 
L 69.145043 244.028365 
L 68.26219 244.028365 
z
" style="fill:#1a89f4;"/>
   </g>
   <g id="patch_6">
    <path clip-path="url(#pf8566f135c)" d="M 69.365756 244.317187 
L 70.248609 244.317187 
L 70.248609 244.317187 
L 69.365756 244.317187 
z
" style="fill:#1a89f4;"/>
   </g>
   <g id="patch_7">
    <path clip-path="url(#pf8566f135c)" d="M 70.469323 244.317187 
L 71.352176 244.317187 
L 71.352176 243.161898 
L 70.469323 243.161898 
z
" style="fill:#1a89f4;"/>
   </g>
   <g id="patch_8">
    <path clip-path="url(#pf8566f135c)" d="M 71.572889 244.317187 
L 72.455742 244.317187 
L 72.455742 244.317187 
L 71.572889 244.317187 
z
" style="fill:#1a89f4;"/>
   </g>
   <g id="patch_9">
    <path clip-path="url(#pf8566f135c)" d="M 72.676456 244.317187 
L 73.559309 244.317187 
L 73.559309 244.317187 
L 72.676456 244.317187 
z
" style="fill:#1a89f4;"/>
   </g>
   <g id="patch_10">
    <path clip-path="url(#pf8566f135c)" d="M 73.780022 244.317187 
L 74.662875 244.317187 
L 74.662875 244.028365 
L 73.780022 244.028365 
z
" style="fill:#1a89f4;"/>
   </g>
   <g id="patch_11">
    <path clip-path="url(#pf8566f135c)" d="M 74.883589 244.317187 
L 75.766442 244.317187 
L 75.766442 243.739543 
L 74.883589 243.739543 
z
" style="fill:#1a89f4;"/>
   </g>
   <g id="patch_12">
    <path clip-path="url(#pf8566f135c)" d="M 75.987155 244.317187 
L 76.870008 244.317187 
L 76.870008 244.317187 
L 75.987155 244.317187 
z
" style="fill:#1a89f4;"/>
   </g>
   <g id="patch_13">
    <path clip-path="url(#pf8566f135c)" d="M 77.090722 244.317187 
L 77.973575 244.317187 
L 77.973575 244.028365 
L 77.090722 244.028365 
z
" style="fill:#1a89f4;"/>
   </g>
   <g id="patch_14">
    <path clip-path="url(#pf8566f135c)" d="M 78.194288 244.317187 
L 79.077141 244.317187 
L 79.077141 244.028365 
L 78.194288 244.028365 
z
" style="fill:#1a89f4;"/>
   </g>
   <g id="patch_15">
    <path clip-path="url(#pf8566f135c)" d="M 79.297855 244.317187 
L 80.180708 244.317187 
L 80.180708 244.028365 
L 79.297855 244.028365 
z
" style="fill:#1a89f4;"/>
   </g>
   <g id="patch_16">
    <path clip-path="url(#pf8566f135c)" d="M 80.401421 244.317187 
L 81.284274 244.317187 
L 81.284274 244.317187 
L 80.401421 244.317187 
z
" style="fill:#1a89f4;"/>
   </g>
   <g id="patch_17">
    <path clip-path="url(#pf8566f135c)" d="M 81.504988 244.317187 
L 82.387841 244.317187 
L 82.387841 244.317187 
L 81.504988 244.317187 
z
" style="fill:#1a89f4;"/>
   </g>
   <g id="patch_18">
    <path clip-path="url(#pf8566f135c)" d="M 82.608554 244.317187 
L 83.491407 244.317187 
L 83.491407 244.317187 
L 82.608554 244.317187 
z
" style="fill:#1a89f4;"/>
   </g>
   <g id="patch_19">
    <path clip-path="url(#pf8566f135c)" d="M 83.712121 244.317187 
L 84.594974 244.317187 
L 84.594974 244.317187 
L 83.712121 244.317187 
z
" style="fill:#1a89f4;"/>
   </g>
   <g id="patch_20">
    <path clip-path="url(#pf8566f135c)" d="M 84.815687 244.317187 
L 85.69854 244.317187 
L 85.69854 244.317187 
L 84.815687 244.317187 
z
" style="fill:#1a89f4;"/>
   </g>
   <g id="patch_21">
    <path clip-path="url(#pf8566f135c)" d="M 85.919254 244.317187 
L 86.802107 244.317187 
L 86.802107 244.317187 
L 85.919254 244.317187 
z
" style="fill:#1a89f4;"/>
   </g>
   <g id="patch_22">
    <path clip-path="url(#pf8566f135c)" d="M 87.02282 244.317187 
L 87.905673 244.317187 
L 87.905673 244.317187 
L 87.02282 244.317187 
z
" style="fill:#1a89f4;"/>
   </g>
   <g id="patch_23">
    <path clip-path="url(#pf8566f135c)" d="M 88.126387 244.317187 
L 89.00924 244.317187 
L 89.00924 244.317187 
L 88.126387 244.317187 
z
" style="fill:#1a89f4;"/>
   </g>
   <g id="patch_24">
    <path clip-path="url(#pf8566f135c)" d="M 89.229953 244.317187 
L 90.112806 244.317187 
L 90.112806 244.317187 
L 89.229953 244.317187 
z
" style="fill:#1a89f4;"/>
   </g>
   <g id="patch_25">
    <path clip-path="url(#pf8566f135c)" d="M 90.333519 244.317187 
L 91.216373 244.317187 
L 91.216373 244.317187 
L 90.333519 244.317187 
z
" style="fill:#1a89f4;"/>
   </g>
   <g id="patch_26">
    <path clip-path="url(#pf8566f135c)" d="M 91.437086 244.317187 
L 92.319939 244.317187 
L 92.319939 244.317187 
L 91.437086 244.317187 
z
" style="fill:#1a89f4;"/>
   </g>
   <g id="patch_27">
    <path clip-path="url(#pf8566f135c)" d="M 92.540652 244.317187 
L 93.423506 244.317187 
L 93.423506 244.317187 
L 92.540652 244.317187 
z
" style="fill:#1a89f4;"/>
   </g>
   <g id="patch_28">
    <path clip-path="url(#pf8566f135c)" d="M 93.644219 244.317187 
L 94.527072 244.317187 
L 94.527072 244.317187 
L 93.644219 244.317187 
z
" style="fill:#1a89f4;"/>
   </g>
   <g id="patch_29">
    <path clip-path="url(#pf8566f135c)" d="M 94.747785 244.317187 
L 95.630639 244.317187 
L 95.630639 244.317187 
L 94.747785 244.317187 
z
" style="fill:#1a89f4;"/>
   </g>
   <g id="patch_30">
    <path clip-path="url(#pf8566f135c)" d="M 95.851352 244.317187 
L 96.734205 244.317187 
L 96.734205 243.161898 
L 95.851352 243.161898 
z
" style="fill:#1a89f4;"/>
   </g>
   <g id="patch_31">
    <path clip-path="url(#pf8566f135c)" d="M 96.954918 244.317187 
L 97.837772 244.317187 
L 97.837772 244.028365 
L 96.954918 244.028365 
z
" style="fill:#1a89f4;"/>
   </g>
   <g id="patch_32">
    <path clip-path="url(#pf8566f135c)" d="M 98.058485 244.317187 
L 98.941338 244.317187 
L 98.941338 244.317187 
L 98.058485 244.317187 
z
" style="fill:#1a89f4;"/>
   </g>
   <g id="patch_33">
    <path clip-path="url(#pf8566f135c)" d="M 99.162051 244.317187 
L 100.044905 244.317187 
L 100.044905 244.317187 
L 99.162051 244.317187 
z
" style="fill:#1a89f4;"/>
   </g>
   <g id="patch_34">
    <path clip-path="url(#pf8566f135c)" d="M 100.265618 244.317187 
L 101.148471 244.317187 
L 101.148471 244.317187 
L 100.265618 244.317187 
z
" style="fill:#1a89f4;"/>
   </g>
   <g id="patch_35">
    <path clip-path="url(#pf8566f135c)" d="M 101.369184 244.317187 
L 102.252038 244.317187 
L 102.252038 244.317187 
L 101.369184 244.317187 
z
" style="fill:#1a89f4;"/>
   </g>
   <g id="patch_36">
    <path clip-path="url(#pf8566f135c)" d="M 102.472751 244.317187 
L 103.355604 244.317187 
L 103.355604 243.45072 
L 102.472751 243.45072 
z
" style="fill:#1a89f4;"/>
   </g>
   <g id="patch_37">
    <path clip-path="url(#pf8566f135c)" d="M 103.576317 244.317187 
L 104.45917 244.317187 
L 104.45917 243.739543 
L 103.576317 243.739543 
z
" style="fill:#1a89f4;"/>
   </g>
   <g id="patch_38">
    <path clip-path="url(#pf8566f135c)" d="M 104.679884 244.317187 
L 105.562737 244.317187 
L 105.562737 244.317187 
L 104.679884 244.317187 
z
" style="fill:#1a89f4;"/>
   </g>
   <g id="patch_39">
    <path clip-path="url(#pf8566f135c)" d="M 105.78345 244.317187 
L 106.666303 244.317187 
L 106.666303 243.45072 
L 105.78345 243.45072 
z
" style="fill:#1a89f4;"/>
   </g>
   <g id="patch_40">
    <path clip-path="url(#pf8566f135c)" d="M 106.887017 244.317187 
L 107.76987 244.317187 
L 107.76987 243.161898 
L 106.887017 243.161898 
z
" style="fill:#1a89f4;"/>
   </g>
   <g id="patch_41">
    <path clip-path="url(#pf8566f135c)" d="M 107.990583 244.317187 
L 108.873436 244.317187 
L 108.873436 242.006608 
L 107.990583 242.006608 
z
" style="fill:#1a89f4;"/>
   </g>
   <g id="patch_42">
    <path clip-path="url(#pf8566f135c)" d="M 109.09415 244.317187 
L 109.977003 244.317187 
L 109.977003 241.14014 
L 109.09415 241.14014 
z
" style="fill:#1a89f4;"/>
   </g>
   <g id="patch_43">
    <path clip-path="url(#pf8566f135c)" d="M 110.197716 244.317187 
L 111.080569 244.317187 
L 111.080569 242.006608 
L 110.197716 242.006608 
z
" style="fill:#1a89f4;"/>
   </g>
   <g id="patch_44">
    <path clip-path="url(#pf8566f135c)" d="M 111.301283 244.317187 
L 112.184136 244.317187 
L 112.184136 243.161898 
L 111.301283 243.161898 
z
" style="fill:#1a89f4;"/>
   </g>
   <g id="patch_45">
    <path clip-path="url(#pf8566f135c)" d="M 112.404849 244.317187 
L 113.287702 244.317187 
L 113.287702 241.428963 
L 112.404849 241.428963 
z
" style="fill:#1a89f4;"/>
   </g>
   <g id="patch_46">
    <path clip-path="url(#pf8566f135c)" d="M 113.508416 244.317187 
L 114.391269 244.317187 
L 114.391269 242.29543 
L 113.508416 242.29543 
z
" style="fill:#1a89f4;"/>
   </g>
   <g id="patch_47">
    <path clip-path="url(#pf8566f135c)" d="M 114.611982 244.317187 
L 115.494835 244.317187 
L 115.494835 240.851318 
L 114.611982 240.851318 
z
" style="fill:#1a89f4;"/>
   </g>
   <g id="patch_48">
    <path clip-path="url(#pf8566f135c)" d="M 115.715549 244.317187 
L 116.598402 244.317187 
L 116.598402 238.540738 
L 115.715549 238.540738 
z
" style="fill:#1a89f4;"/>
   </g>
   <g id="patch_49">
    <path clip-path="url(#pf8566f135c)" d="M 116.819115 244.317187 
L 117.701968 244.317187 
L 117.701968 239.98485 
L 116.819115 239.98485 
z
" style="fill:#1a89f4;"/>
   </g>
   <g id="patch_50">
    <path clip-path="url(#pf8566f135c)" d="M 117.922682 244.317187 
L 118.805535 244.317187 
L 118.805535 235.652513 
L 117.922682 235.652513 
z
" style="fill:#1a89f4;"/>
   </g>
   <g id="patch_51">
    <path clip-path="url(#pf8566f135c)" d="M 119.026248 244.317187 
L 119.909101 244.317187 
L 119.909101 232.475466 
L 119.026248 232.475466 
z
" style="fill:#1a89f4;"/>
   </g>
   <g id="patch_52">
    <path clip-path="url(#pf8566f135c)" d="M 120.129815 244.317187 
L 121.012668 244.317187 
L 121.012668 229.587241 
L 120.129815 229.587241 
z
" style="fill:#1a89f4;"/>
   </g>
   <g id="patch_53">
    <path clip-path="url(#pf8566f135c)" d="M 121.233381 244.317187 
L 122.116234 244.317187 
L 122.116234 230.453709 
L 121.233381 230.453709 
z
" style="fill:#1a89f4;"/>
   </g>
   <g id="patch_54">
    <path clip-path="url(#pf8566f135c)" d="M 122.336948 244.317187 
L 123.219801 244.317187 
L 123.219801 221.500212 
L 122.336948 221.500212 
z
" style="fill:#1a89f4;"/>
   </g>
   <g id="patch_55">
    <path clip-path="url(#pf8566f135c)" d="M 123.440514 244.317187 
L 124.323367 244.317187 
L 124.323367 221.789034 
L 123.440514 221.789034 
z
" style="fill:#1a89f4;"/>
   </g>
   <g id="patch_56">
    <path clip-path="url(#pf8566f135c)" d="M 124.54408 244.317187 
L 125.426934 244.317187 
L 125.426934 211.680248 
L 124.54408 211.680248 
z
" style="fill:#1a89f4;"/>
   </g>
   <g id="patch_57">
    <path clip-path="url(#pf8566f135c)" d="M 125.647647 244.317187 
L 126.5305 244.317187 
L 126.5305 203.304396 
L 125.647647 203.304396 
z
" style="fill:#1a89f4;"/>
   </g>
   <g id="patch_58">
    <path clip-path="url(#pf8566f135c)" d="M 126.751213 244.317187 
L 127.634067 244.317187 
L 127.634067 204.459686 
L 126.751213 204.459686 
z
" style="fill:#1a89f4;"/>
   </g>
   <g id="patch_59">
    <path clip-path="url(#pf8566f135c)" d="M 127.85478 244.317187 
L 128.737633 244.317187 
L 128.737633 179.332131 
L 127.85478 179.332131 
z
" style="fill:#1a89f4;"/>
   </g>
   <g id="patch_60">
    <path clip-path="url(#pf8566f135c)" d="M 128.958346 244.317187 
L 129.8412 244.317187 
L 129.8412 163.446895 
L 128.958346 163.446895 
z
" style="fill:#1a89f4;"/>
   </g>
   <g id="patch_61">
    <path clip-path="url(#pf8566f135c)" d="M 130.061913 244.317187 
L 130.944766 244.317187 
L 130.944766 149.583416 
L 130.061913 149.583416 
z
" style="fill:#1a89f4;"/>
   </g>
   <g id="patch_62">
    <path clip-path="url(#pf8566f135c)" d="M 131.165479 244.317187 
L 132.048333 244.317187 
L 132.048333 137.452872 
L 131.165479 137.452872 
z
" style="fill:#1a89f4;"/>
   </g>
   <g id="patch_63">
    <path clip-path="url(#pf8566f135c)" d="M 132.269046 244.317187 
L 133.151899 244.317187 
L 133.151899 134.564647 
L 132.269046 134.564647 
z
" style="fill:#1a89f4;"/>
   </g>
   <g id="patch_64">
    <path clip-path="url(#pf8566f135c)" d="M 133.372612 244.317187 
L 134.255466 244.317187 
L 134.255466 134.85347 
L 133.372612 134.85347 
z
" style="fill:#1a89f4;"/>
   </g>
   <g id="patch_65">
    <path clip-path="url(#pf8566f135c)" d="M 134.476179 244.317187 
L 135.359032 244.317187 
L 135.359032 137.164049 
L 134.476179 137.164049 
z
" style="fill:#1a89f4;"/>
   </g>
   <g id="patch_66">
    <path clip-path="url(#pf8566f135c)" d="M 135.579745 244.317187 
L 136.462599 244.317187 
L 136.462599 111.458849 
L 135.579745 111.458849 
z
" style="fill:#1a89f4;"/>
   </g>
   <g id="patch_67">
    <path clip-path="url(#pf8566f135c)" d="M 136.683312 244.317187 
L 137.566165 244.317187 
L 137.566165 144.962256 
L 136.683312 144.962256 
z
" style="fill:#1a89f4;"/>
   </g>
   <g id="patch_68">
    <path clip-path="url(#pf8566f135c)" d="M 137.786878 244.317187 
L 138.669731 244.317187 
L 138.669731 167.490409 
L 137.786878 167.490409 
z
" style="fill:#1a89f4;"/>
   </g>
   <g id="patch_69">
    <path clip-path="url(#pf8566f135c)" d="M 138.890445 244.317187 
L 139.773298 244.317187 
L 139.773298 154.493398 
L 138.890445 154.493398 
z
" style="fill:#1a89f4;"/>
   </g>
   <g id="patch_70">
    <path clip-path="url(#pf8566f135c)" d="M 139.994011 244.317187 
L 140.876864 244.317187 
L 140.876864 156.803978 
L 139.994011 156.803978 
z
" style="fill:#1a89f4;"/>
   </g>
   <g id="patch_71">
    <path clip-path="url(#pf8566f135c)" d="M 141.097578 244.317187 
L 141.980431 244.317187 
L 141.980431 165.468652 
L 141.097578 165.468652 
z
" style="fill:#1a89f4;"/>
   </g>
   <g id="patch_72">
    <path clip-path="url(#pf8566f135c)" d="M 142.201144 244.317187 
L 143.083997 244.317187 
L 143.083997 179.332131 
L 142.201144 179.332131 
z
" style="fill:#1a89f4;"/>
   </g>
   <g id="patch_73">
    <path clip-path="url(#pf8566f135c)" d="M 143.304711 244.317187 
L 144.187564 244.317187 
L 144.187564 189.440917 
L 143.304711 189.440917 
z
" style="fill:#1a89f4;"/>
   </g>
   <g id="patch_74">
    <path clip-path="url(#pf8566f135c)" d="M 144.408277 244.317187 
L 145.29113 244.317187 
L 145.29113 203.593219 
L 144.408277 203.593219 
z
" style="fill:#1a89f4;"/>
   </g>
   <g id="patch_75">
    <path clip-path="url(#pf8566f135c)" d="M 145.511844 244.317187 
L 146.394697 244.317187 
L 146.394697 213.702005 
L 145.511844 213.702005 
z
" style="fill:#1a89f4;"/>
   </g>
   <g id="patch_76">
    <path clip-path="url(#pf8566f135c)" d="M 146.61541 244.317187 
L 147.498263 244.317187 
L 147.498263 209.947313 
L 146.61541 209.947313 
z
" style="fill:#1a89f4;"/>
   </g>
   <g id="patch_77">
    <path clip-path="url(#pf8566f135c)" d="M 147.718977 244.317187 
L 148.60183 244.317187 
L 148.60183 213.990828 
L 147.718977 213.990828 
z
" style="fill:#1a89f4;"/>
   </g>
   <g id="patch_78">
    <path clip-path="url(#pf8566f135c)" d="M 148.822543 244.317187 
L 149.705396 244.317187 
L 149.705396 219.767277 
L 148.822543 219.767277 
z
" style="fill:#1a89f4;"/>
   </g>
   <g id="patch_79">
    <path clip-path="url(#pf8566f135c)" d="M 149.92611 244.317187 
L 150.808963 244.317187 
L 150.808963 213.702005 
L 149.92611 213.702005 
z
" style="fill:#1a89f4;"/>
   </g>
   <g id="patch_80">
    <path clip-path="url(#pf8566f135c)" d="M 151.029676 244.317187 
L 151.912529 244.317187 
L 151.912529 218.90081 
L 151.029676 218.90081 
z
" style="fill:#1a89f4;"/>
   </g>
   <g id="patch_81">
    <path clip-path="url(#pf8566f135c)" d="M 152.133243 244.317187 
L 153.016096 244.317187 
L 153.016096 237.963093 
L 152.133243 237.963093 
z
" style="fill:#1a89f4;"/>
   </g>
   <g id="patch_82">
    <path clip-path="url(#pf8566f135c)" d="M 153.236809 244.317187 
L 154.119662 244.317187 
L 154.119662 232.475466 
L 153.236809 232.475466 
z
" style="fill:#1a89f4;"/>
   </g>
   <g id="patch_83">
    <path clip-path="url(#pf8566f135c)" d="M 154.340376 244.317187 
L 155.223229 244.317187 
L 155.223229 230.164886 
L 154.340376 230.164886 
z
" style="fill:#1a89f4;"/>
   </g>
   <g id="patch_84">
    <path clip-path="url(#pf8566f135c)" d="M 155.443942 244.317187 
L 156.326795 244.317187 
L 156.326795 179.909776 
L 155.443942 179.909776 
z
" style="fill:#1a89f4;"/>
   </g>
   <g id="patch_85">
    <path clip-path="url(#pf8566f135c)" d="M 156.547509 244.317187 
L 157.430362 244.317187 
L 157.430362 235.652513 
L 156.547509 235.652513 
z
" style="fill:#1a89f4;"/>
   </g>
   <g id="patch_86">
    <path clip-path="url(#pf8566f135c)" d="M 157.651075 244.317187 
L 158.533928 244.317187 
L 158.533928 230.742531 
L 157.651075 230.742531 
z
" style="fill:#1a89f4;"/>
   </g>
   <g id="patch_87">
    <path clip-path="url(#pf8566f135c)" d="M 158.754641 244.317187 
L 159.637495 244.317187 
L 159.637495 232.186644 
L 158.754641 232.186644 
z
" style="fill:#1a89f4;"/>
   </g>
   <g id="patch_88">
    <path clip-path="url(#pf8566f135c)" d="M 159.858208 244.317187 
L 160.741061 244.317187 
L 160.741061 231.608999 
L 159.858208 231.608999 
z
" style="fill:#1a89f4;"/>
   </g>
   <g id="patch_89">
    <path clip-path="url(#pf8566f135c)" d="M 160.961774 244.317187 
L 161.844628 244.317187 
L 161.844628 240.562495 
L 160.961774 240.562495 
z
" style="fill:#1a89f4;"/>
   </g>
   <g id="patch_90">
    <path clip-path="url(#pf8566f135c)" d="M 162.065341 244.317187 
L 162.948194 244.317187 
L 162.948194 237.963093 
L 162.065341 237.963093 
z
" style="fill:#1a89f4;"/>
   </g>
   <g id="patch_91">
    <path clip-path="url(#pf8566f135c)" d="M 163.168907 244.317187 
L 164.051761 244.317187 
L 164.051761 242.29543 
L 163.168907 242.29543 
z
" style="fill:#1a89f4;"/>
   </g>
   <g id="patch_92">
    <path clip-path="url(#pf8566f135c)" d="M 164.272474 244.317187 
L 165.155327 244.317187 
L 165.155327 242.006608 
L 164.272474 242.006608 
z
" style="fill:#1a89f4;"/>
   </g>
   <g id="patch_93">
    <path clip-path="url(#pf8566f135c)" d="M 165.37604 244.317187 
L 166.258894 244.317187 
L 166.258894 239.407205 
L 165.37604 239.407205 
z
" style="fill:#1a89f4;"/>
   </g>
   <g id="patch_94">
    <path clip-path="url(#pf8566f135c)" d="M 166.479607 244.317187 
L 167.36246 244.317187 
L 167.36246 239.118383 
L 166.479607 239.118383 
z
" style="fill:#1a89f4;"/>
   </g>
   <g id="patch_95">
    <path clip-path="url(#pf8566f135c)" d="M 167.583173 244.317187 
L 168.466027 244.317187 
L 168.466027 238.82956 
L 167.583173 238.82956 
z
" style="fill:#1a89f4;"/>
   </g>
   <g id="patch_96">
    <path clip-path="url(#pf8566f135c)" d="M 168.68674 244.317187 
L 169.569593 244.317187 
L 169.569593 242.29543 
L 168.68674 242.29543 
z
" style="fill:#1a89f4;"/>
   </g>
   <g id="patch_97">
    <path clip-path="url(#pf8566f135c)" d="M 169.790306 244.317187 
L 170.67316 244.317187 
L 170.67316 240.851318 
L 169.790306 240.851318 
z
" style="fill:#1a89f4;"/>
   </g>
   <g id="patch_98">
    <path clip-path="url(#pf8566f135c)" d="M 170.893873 244.317187 
L 171.776726 244.317187 
L 171.776726 240.562495 
L 170.893873 240.562495 
z
" style="fill:#1a89f4;"/>
   </g>
   <g id="patch_99">
    <path clip-path="url(#pf8566f135c)" d="M 171.997439 244.317187 
L 172.880292 244.317187 
L 172.880292 242.006608 
L 171.997439 242.006608 
z
" style="fill:#1a89f4;"/>
   </g>
   <g id="patch_100">
    <path clip-path="url(#pf8566f135c)" d="M 173.101006 244.317187 
L 173.983859 244.317187 
L 173.983859 240.562495 
L 173.101006 240.562495 
z
" style="fill:#1a89f4;"/>
   </g>
   <g id="patch_101">
    <path clip-path="url(#pf8566f135c)" d="M 174.204572 244.317187 
L 175.087425 244.317187 
L 175.087425 239.98485 
L 174.204572 239.98485 
z
" style="fill:#1a89f4;"/>
   </g>
   <g id="patch_102">
    <path clip-path="url(#pf8566f135c)" d="M 175.308139 244.317187 
L 176.190992 244.317187 
L 176.190992 239.118383 
L 175.308139 239.118383 
z
" style="fill:#1a89f4;"/>
   </g>
   <g id="patch_103">
    <path clip-path="url(#pf8566f135c)" d="M 176.411705 244.317187 
L 177.294558 244.317187 
L 177.294558 237.385448 
L 176.411705 237.385448 
z
" style="fill:#1a89f4;"/>
   </g>
   <g id="patch_104">
    <path clip-path="url(#pf8566f135c)" d="M 177.515272 244.317187 
L 178.398125 244.317187 
L 178.398125 236.807803 
L 177.515272 236.807803 
z
" style="fill:#1a89f4;"/>
   </g>
   <g id="patch_105">
    <path clip-path="url(#pf8566f135c)" d="M 178.618838 244.317187 
L 179.501691 244.317187 
L 179.501691 237.385448 
L 178.618838 237.385448 
z
" style="fill:#1a89f4;"/>
   </g>
   <g id="patch_106">
    <path clip-path="url(#pf8566f135c)" d="M 179.722405 244.317187 
L 180.605258 244.317187 
L 180.605258 237.963093 
L 179.722405 237.963093 
z
" style="fill:#1a89f4;"/>
   </g>
   <g id="patch_107">
    <path clip-path="url(#pf8566f135c)" d="M 180.825971 244.317187 
L 181.708824 244.317187 
L 181.708824 239.118383 
L 180.825971 239.118383 
z
" style="fill:#1a89f4;"/>
   </g>
   <g id="patch_108">
    <path clip-path="url(#pf8566f135c)" d="M 181.929538 244.317187 
L 182.812391 244.317187 
L 182.812391 240.273673 
L 181.929538 240.273673 
z
" style="fill:#1a89f4;"/>
   </g>
   <g id="patch_109">
    <path clip-path="url(#pf8566f135c)" d="M 183.033104 244.317187 
L 183.915957 244.317187 
L 183.915957 240.851318 
L 183.033104 240.851318 
z
" style="fill:#1a89f4;"/>
   </g>
   <g id="patch_110">
    <path clip-path="url(#pf8566f135c)" d="M 184.136671 244.317187 
L 185.019524 244.317187 
L 185.019524 242.29543 
L 184.136671 242.29543 
z
" style="fill:#1a89f4;"/>
   </g>
   <g id="patch_111">
    <path clip-path="url(#pf8566f135c)" d="M 185.240237 244.317187 
L 186.12309 244.317187 
L 186.12309 238.540738 
L 185.240237 238.540738 
z
" style="fill:#1a89f4;"/>
   </g>
   <g id="patch_112">
    <path clip-path="url(#pf8566f135c)" d="M 186.343804 244.317187 
L 187.226657 244.317187 
L 187.226657 241.14014 
L 186.343804 241.14014 
z
" style="fill:#1a89f4;"/>
   </g>
   <g id="patch_113">
    <path clip-path="url(#pf8566f135c)" d="M 187.44737 244.317187 
L 188.330223 244.317187 
L 188.330223 239.98485 
L 187.44737 239.98485 
z
" style="fill:#1a89f4;"/>
   </g>
   <g id="patch_114">
    <path clip-path="url(#pf8566f135c)" d="M 188.550937 244.317187 
L 189.43379 244.317187 
L 189.43379 235.363691 
L 188.550937 235.363691 
z
" style="fill:#1a89f4;"/>
   </g>
   <g id="patch_115">
    <path clip-path="url(#pf8566f135c)" d="M 189.654503 244.317187 
L 190.537356 244.317187 
L 190.537356 239.407205 
L 189.654503 239.407205 
z
" style="fill:#1a89f4;"/>
   </g>
   <g id="patch_116">
    <path clip-path="url(#pf8566f135c)" d="M 190.75807 244.317187 
L 191.640923 244.317187 
L 191.640923 242.006608 
L 190.75807 242.006608 
z
" style="fill:#1a89f4;"/>
   </g>
   <g id="patch_117">
    <path clip-path="url(#pf8566f135c)" d="M 191.861636 244.317187 
L 192.744489 244.317187 
L 192.744489 241.717785 
L 191.861636 241.717785 
z
" style="fill:#1a89f4;"/>
   </g>
   <g id="patch_118">
    <path clip-path="url(#pf8566f135c)" d="M 192.965203 244.317187 
L 193.848056 244.317187 
L 193.848056 242.006608 
L 192.965203 242.006608 
z
" style="fill:#1a89f4;"/>
   </g>
   <g id="patch_119">
    <path clip-path="url(#pf8566f135c)" d="M 194.068769 244.317187 
L 194.951622 244.317187 
L 194.951622 241.14014 
L 194.068769 241.14014 
z
" style="fill:#1a89f4;"/>
   </g>
   <g id="patch_120">
    <path clip-path="url(#pf8566f135c)" d="M 195.172335 244.317187 
L 196.055189 244.317187 
L 196.055189 243.739543 
L 195.172335 243.739543 
z
" style="fill:#1a89f4;"/>
   </g>
   <g id="patch_121">
    <path clip-path="url(#pf8566f135c)" d="M 196.275902 244.317187 
L 197.158755 244.317187 
L 197.158755 240.273673 
L 196.275902 240.273673 
z
" style="fill:#1a89f4;"/>
   </g>
   <g id="patch_122">
    <path clip-path="url(#pf8566f135c)" d="M 197.379468 244.317187 
L 198.262322 244.317187 
L 198.262322 240.562495 
L 197.379468 240.562495 
z
" style="fill:#1a89f4;"/>
   </g>
   <g id="patch_123">
    <path clip-path="url(#pf8566f135c)" d="M 198.483035 244.317187 
L 199.365888 244.317187 
L 199.365888 243.45072 
L 198.483035 243.45072 
z
" style="fill:#1a89f4;"/>
   </g>
   <g id="patch_124">
    <path clip-path="url(#pf8566f135c)" d="M 199.586601 244.317187 
L 200.469455 244.317187 
L 200.469455 243.161898 
L 199.586601 243.161898 
z
" style="fill:#1a89f4;"/>
   </g>
   <g id="patch_125">
    <path clip-path="url(#pf8566f135c)" d="M 200.690168 244.317187 
L 201.573021 244.317187 
L 201.573021 239.98485 
L 200.690168 239.98485 
z
" style="fill:#1a89f4;"/>
   </g>
   <g id="patch_126">
    <path clip-path="url(#pf8566f135c)" d="M 201.793734 244.317187 
L 202.676588 244.317187 
L 202.676588 242.584253 
L 201.793734 242.584253 
z
" style="fill:#1a89f4;"/>
   </g>
   <g id="patch_127">
    <path clip-path="url(#pf8566f135c)" d="M 202.897301 244.317187 
L 203.780154 244.317187 
L 203.780154 239.118383 
L 202.897301 239.118383 
z
" style="fill:#1a89f4;"/>
   </g>
   <g id="patch_128">
    <path clip-path="url(#pf8566f135c)" d="M 204.000867 244.317187 
L 204.883721 244.317187 
L 204.883721 239.696028 
L 204.000867 239.696028 
z
" style="fill:#1a89f4;"/>
   </g>
   <g id="patch_129">
    <path clip-path="url(#pf8566f135c)" d="M 205.104434 244.317187 
L 205.987287 244.317187 
L 205.987287 241.14014 
L 205.104434 241.14014 
z
" style="fill:#1a89f4;"/>
   </g>
   <g id="patch_130">
    <path clip-path="url(#pf8566f135c)" d="M 206.208 244.317187 
L 207.090854 244.317187 
L 207.090854 241.428963 
L 206.208 241.428963 
z
" style="fill:#1a89f4;"/>
   </g>
   <g id="patch_131">
    <path clip-path="url(#pf8566f135c)" d="M 207.311567 244.317187 
L 208.19442 244.317187 
L 208.19442 242.006608 
L 207.311567 242.006608 
z
" style="fill:#1a89f4;"/>
   </g>
   <g id="patch_132">
    <path clip-path="url(#pf8566f135c)" d="M 208.415133 244.317187 
L 209.297986 244.317187 
L 209.297986 239.407205 
L 208.415133 239.407205 
z
" style="fill:#1a89f4;"/>
   </g>
   <g id="patch_133">
    <path clip-path="url(#pf8566f135c)" d="M 209.5187 244.317187 
L 210.401553 244.317187 
L 210.401553 242.006608 
L 209.5187 242.006608 
z
" style="fill:#1a89f4;"/>
   </g>
   <g id="patch_134">
    <path clip-path="url(#pf8566f135c)" d="M 210.622266 244.317187 
L 211.505119 244.317187 
L 211.505119 241.14014 
L 210.622266 241.14014 
z
" style="fill:#1a89f4;"/>
   </g>
   <g id="patch_135">
    <path clip-path="url(#pf8566f135c)" d="M 211.725833 244.317187 
L 212.608686 244.317187 
L 212.608686 241.14014 
L 211.725833 241.14014 
z
" style="fill:#1a89f4;"/>
   </g>
   <g id="patch_136">
    <path clip-path="url(#pf8566f135c)" d="M 212.829399 244.317187 
L 213.712252 244.317187 
L 213.712252 243.739543 
L 212.829399 243.739543 
z
" style="fill:#1a89f4;"/>
   </g>
   <g id="patch_137">
    <path clip-path="url(#pf8566f135c)" d="M 213.932966 244.317187 
L 214.815819 244.317187 
L 214.815819 243.161898 
L 213.932966 243.161898 
z
" style="fill:#1a89f4;"/>
   </g>
   <g id="patch_138">
    <path clip-path="url(#pf8566f135c)" d="M 215.036532 244.317187 
L 215.919385 244.317187 
L 215.919385 242.584253 
L 215.036532 242.584253 
z
" style="fill:#1a89f4;"/>
   </g>
   <g id="patch_139">
    <path clip-path="url(#pf8566f135c)" d="M 216.140099 244.317187 
L 217.022952 244.317187 
L 217.022952 243.739543 
L 216.140099 243.739543 
z
" style="fill:#1a89f4;"/>
   </g>
   <g id="patch_140">
    <path clip-path="url(#pf8566f135c)" d="M 217.243665 244.317187 
L 218.126518 244.317187 
L 218.126518 242.29543 
L 217.243665 242.29543 
z
" style="fill:#1a89f4;"/>
   </g>
   <g id="patch_141">
    <path clip-path="url(#pf8566f135c)" d="M 218.347232 244.317187 
L 219.230085 244.317187 
L 219.230085 241.717785 
L 218.347232 241.717785 
z
" style="fill:#1a89f4;"/>
   </g>
   <g id="patch_142">
    <path clip-path="url(#pf8566f135c)" d="M 219.450798 244.317187 
L 220.333651 244.317187 
L 220.333651 243.161898 
L 219.450798 243.161898 
z
" style="fill:#1a89f4;"/>
   </g>
   <g id="patch_143">
    <path clip-path="url(#pf8566f135c)" d="M 220.554365 244.317187 
L 221.437218 244.317187 
L 221.437218 240.562495 
L 220.554365 240.562495 
z
" style="fill:#1a89f4;"/>
   </g>
   <g id="patch_144">
    <path clip-path="url(#pf8566f135c)" d="M 221.657931 244.317187 
L 222.540784 244.317187 
L 222.540784 239.118383 
L 221.657931 239.118383 
z
" style="fill:#1a89f4;"/>
   </g>
   <g id="patch_145">
    <path clip-path="url(#pf8566f135c)" d="M 222.761498 244.317187 
L 223.644351 244.317187 
L 223.644351 239.98485 
L 222.761498 239.98485 
z
" style="fill:#1a89f4;"/>
   </g>
   <g id="patch_146">
    <path clip-path="url(#pf8566f135c)" d="M 223.865064 244.317187 
L 224.747917 244.317187 
L 224.747917 240.851318 
L 223.865064 240.851318 
z
" style="fill:#1a89f4;"/>
   </g>
   <g id="patch_147">
    <path clip-path="url(#pf8566f135c)" d="M 224.968631 244.317187 
L 225.851484 244.317187 
L 225.851484 237.674271 
L 224.968631 237.674271 
z
" style="fill:#1a89f4;"/>
   </g>
   <g id="patch_148">
    <path clip-path="url(#pf8566f135c)" d="M 226.072197 244.317187 
L 226.95505 244.317187 
L 226.95505 238.251916 
L 226.072197 238.251916 
z
" style="fill:#1a89f4;"/>
   </g>
   <g id="patch_149">
    <path clip-path="url(#pf8566f135c)" d="M 227.175764 244.317187 
L 228.058617 244.317187 
L 228.058617 239.118383 
L 227.175764 239.118383 
z
" style="fill:#1a89f4;"/>
   </g>
   <g id="patch_150">
    <path clip-path="url(#pf8566f135c)" d="M 228.27933 244.317187 
L 229.162183 244.317187 
L 229.162183 236.807803 
L 228.27933 236.807803 
z
" style="fill:#1a89f4;"/>
   </g>
   <g id="patch_151">
    <path clip-path="url(#pf8566f135c)" d="M 229.382896 244.317187 
L 230.26575 244.317187 
L 230.26575 237.096626 
L 229.382896 237.096626 
z
" style="fill:#1a89f4;"/>
   </g>
   <g id="patch_152">
    <path clip-path="url(#pf8566f135c)" d="M 230.486463 244.317187 
L 231.369316 244.317187 
L 231.369316 240.562495 
L 230.486463 240.562495 
z
" style="fill:#1a89f4;"/>
   </g>
   <g id="patch_153">
    <path clip-path="url(#pf8566f135c)" d="M 231.590029 244.317187 
L 232.472883 244.317187 
L 232.472883 239.118383 
L 231.590029 239.118383 
z
" style="fill:#1a89f4;"/>
   </g>
   <g id="patch_154">
    <path clip-path="url(#pf8566f135c)" d="M 232.693596 244.317187 
L 233.576449 244.317187 
L 233.576449 235.941336 
L 232.693596 235.941336 
z
" style="fill:#1a89f4;"/>
   </g>
   <g id="patch_155">
    <path clip-path="url(#pf8566f135c)" d="M 233.797162 244.317187 
L 234.680016 244.317187 
L 234.680016 233.919578 
L 233.797162 233.919578 
z
" style="fill:#1a89f4;"/>
   </g>
   <g id="patch_156">
    <path clip-path="url(#pf8566f135c)" d="M 234.900729 244.317187 
L 235.783582 244.317187 
L 235.783582 233.630756 
L 234.900729 233.630756 
z
" style="fill:#1a89f4;"/>
   </g>
   <g id="patch_157">
    <path clip-path="url(#pf8566f135c)" d="M 236.004295 244.317187 
L 236.887149 244.317187 
L 236.887149 231.031354 
L 236.004295 231.031354 
z
" style="fill:#1a89f4;"/>
   </g>
   <g id="patch_158">
    <path clip-path="url(#pf8566f135c)" d="M 237.107862 244.317187 
L 237.990715 244.317187 
L 237.990715 231.320176 
L 237.107862 231.320176 
z
" style="fill:#1a89f4;"/>
   </g>
   <g id="patch_159">
    <path clip-path="url(#pf8566f135c)" d="M 238.211428 244.317187 
L 239.094282 244.317187 
L 239.094282 220.922567 
L 238.211428 220.922567 
z
" style="fill:#1a89f4;"/>
   </g>
   <g id="patch_160">
    <path clip-path="url(#pf8566f135c)" d="M 239.314995 244.317187 
L 240.197848 244.317187 
L 240.197848 224.966082 
L 239.314995 224.966082 
z
" style="fill:#1a89f4;"/>
   </g>
   <g id="patch_161">
    <path clip-path="url(#pf8566f135c)" d="M 240.418561 244.317187 
L 241.301415 244.317187 
L 241.301415 219.478455 
L 240.418561 219.478455 
z
" style="fill:#1a89f4;"/>
   </g>
   <g id="patch_162">
    <path clip-path="url(#pf8566f135c)" d="M 241.522128 244.317187 
L 242.404981 244.317187 
L 242.404981 220.922567 
L 241.522128 220.922567 
z
" style="fill:#1a89f4;"/>
   </g>
   <g id="patch_163">
    <path clip-path="url(#pf8566f135c)" d="M 242.625694 244.317187 
L 243.508547 244.317187 
L 243.508547 225.543727 
L 242.625694 225.543727 
z
" style="fill:#1a89f4;"/>
   </g>
   <g id="patch_164">
    <path clip-path="url(#pf8566f135c)" d="M 243.729261 244.317187 
L 244.612114 244.317187 
L 244.612114 213.702005 
L 243.729261 213.702005 
z
" style="fill:#1a89f4;"/>
   </g>
   <g id="patch_165">
    <path clip-path="url(#pf8566f135c)" d="M 244.832827 244.317187 
L 245.71568 244.317187 
L 245.71568 219.189632 
L 244.832827 219.189632 
z
" style="fill:#1a89f4;"/>
   </g>
   <g id="patch_166">
    <path clip-path="url(#pf8566f135c)" d="M 245.936394 244.317187 
L 246.819247 244.317187 
L 246.819247 204.748508 
L 245.936394 204.748508 
z
" style="fill:#1a89f4;"/>
   </g>
   <g id="patch_167">
    <path clip-path="url(#pf8566f135c)" d="M 247.03996 244.317187 
L 247.922813 244.317187 
L 247.922813 195.506189 
L 247.03996 195.506189 
z
" style="fill:#1a89f4;"/>
   </g>
   <g id="patch_168">
    <path clip-path="url(#pf8566f135c)" d="M 248.143527 244.317187 
L 249.02638 244.317187 
L 249.02638 206.770266 
L 248.143527 206.770266 
z
" style="fill:#1a89f4;"/>
   </g>
   <g id="patch_169">
    <path clip-path="url(#pf8566f135c)" d="M 249.247093 244.317187 
L 250.129946 244.317187 
L 250.129946 194.350899 
L 249.247093 194.350899 
z
" style="fill:#1a89f4;"/>
   </g>
   <g id="patch_170">
    <path clip-path="url(#pf8566f135c)" d="M 250.35066 244.317187 
L 251.233513 244.317187 
L 251.233513 157.670445 
L 250.35066 157.670445 
z
" style="fill:#1a89f4;"/>
   </g>
   <g id="patch_171">
    <path clip-path="url(#pf8566f135c)" d="M 251.454226 244.317187 
L 252.337079 244.317187 
L 252.337079 188.863272 
L 251.454226 188.863272 
z
" style="fill:#1a89f4;"/>
   </g>
   <g id="patch_172">
    <path clip-path="url(#pf8566f135c)" d="M 252.557793 244.317187 
L 253.440646 244.317187 
L 253.440646 173.844504 
L 252.557793 173.844504 
z
" style="fill:#1a89f4;"/>
   </g>
   <g id="patch_173">
    <path clip-path="url(#pf8566f135c)" d="M 253.661359 244.317187 
L 254.544212 244.317187 
L 254.544212 191.462675 
L 253.661359 191.462675 
z
" style="fill:#1a89f4;"/>
   </g>
   <g id="patch_174">
    <path clip-path="url(#pf8566f135c)" d="M 254.764926 244.317187 
L 255.647779 244.317187 
L 255.647779 166.046297 
L 254.764926 166.046297 
z
" style="fill:#1a89f4;"/>
   </g>
   <g id="patch_175">
    <path clip-path="url(#pf8566f135c)" d="M 255.868492 244.317187 
L 256.751345 244.317187 
L 256.751345 173.844504 
L 255.868492 173.844504 
z
" style="fill:#1a89f4;"/>
   </g>
   <g id="patch_176">
    <path clip-path="url(#pf8566f135c)" d="M 256.972059 244.317187 
L 257.854912 244.317187 
L 257.854912 153.338108 
L 256.972059 153.338108 
z
" style="fill:#1a89f4;"/>
   </g>
   <g id="patch_177">
    <path clip-path="url(#pf8566f135c)" d="M 258.075625 244.317187 
L 258.958478 244.317187 
L 258.958478 121.567636 
L 258.075625 121.567636 
z
" style="fill:#1a89f4;"/>
   </g>
   <g id="patch_178">
    <path clip-path="url(#pf8566f135c)" d="M 259.179192 244.317187 
L 260.062045 244.317187 
L 260.062045 185.397403 
L 259.179192 185.397403 
z
" style="fill:#1a89f4;"/>
   </g>
   <g id="patch_179">
    <path clip-path="url(#pf8566f135c)" d="M 260.282758 244.317187 
L 261.165611 244.317187 
L 261.165611 140.052274 
L 260.282758 140.052274 
z
" style="fill:#1a89f4;"/>
   </g>
   <g id="patch_180">
    <path clip-path="url(#pf8566f135c)" d="M 261.386325 244.317187 
L 262.269178 244.317187 
L 262.269178 166.912764 
L 261.386325 166.912764 
z
" style="fill:#1a89f4;"/>
   </g>
   <g id="patch_181">
    <path clip-path="url(#pf8566f135c)" d="M 262.489891 244.317187 
L 263.372744 244.317187 
L 263.372744 140.918742 
L 262.489891 140.918742 
z
" style="fill:#1a89f4;"/>
   </g>
   <g id="patch_182">
    <path clip-path="url(#pf8566f135c)" d="M 263.593458 244.317187 
L 264.476311 244.317187 
L 264.476311 109.148269 
L 263.593458 109.148269 
z
" style="fill:#1a89f4;"/>
   </g>
   <g id="patch_183">
    <path clip-path="url(#pf8566f135c)" d="M 264.697024 244.317187 
L 265.579877 244.317187 
L 265.579877 126.76644 
L 264.697024 126.76644 
z
" style="fill:#1a89f4;"/>
   </g>
   <g id="patch_184">
    <path clip-path="url(#pf8566f135c)" d="M 265.80059 244.317187 
L 266.683444 244.317187 
L 266.683444 160.847492 
L 265.80059 160.847492 
z
" style="fill:#1a89f4;"/>
   </g>
   <g id="patch_185">
    <path clip-path="url(#pf8566f135c)" d="M 266.904157 244.317187 
L 267.78701 244.317187 
L 267.78701 142.362854 
L 266.904157 142.362854 
z
" style="fill:#1a89f4;"/>
   </g>
   <g id="patch_186">
    <path clip-path="url(#pf8566f135c)" d="M 268.007723 244.317187 
L 268.890577 244.317187 
L 268.890577 113.480607 
L 268.007723 113.480607 
z
" style="fill:#1a89f4;"/>
   </g>
   <g id="patch_187">
    <path clip-path="url(#pf8566f135c)" d="M 269.11129 244.317187 
L 269.994143 244.317187 
L 269.994143 90.663631 
L 269.11129 90.663631 
z
" style="fill:#1a89f4;"/>
   </g>
   <g id="patch_188">
    <path clip-path="url(#pf8566f135c)" d="M 270.214856 244.317187 
L 271.09771 244.317187 
L 271.09771 137.741694 
L 270.214856 137.741694 
z
" style="fill:#1a89f4;"/>
   </g>
   <g id="patch_189">
    <path clip-path="url(#pf8566f135c)" d="M 271.318423 244.317187 
L 272.201276 244.317187 
L 272.201276 163.735717 
L 271.318423 163.735717 
z
" style="fill:#1a89f4;"/>
   </g>
   <g id="patch_190">
    <path clip-path="url(#pf8566f135c)" d="M 272.421989 244.317187 
L 273.304843 244.317187 
L 273.304843 37.231473 
L 272.421989 37.231473 
z
" style="fill:#1a89f4;"/>
   </g>
   <g id="patch_191">
    <path clip-path="url(#pf8566f135c)" d="M 273.525556 244.317187 
L 274.408409 244.317187 
L 274.408409 70.157235 
L 273.525556 70.157235 
z
" style="fill:#1a89f4;"/>
   </g>
   <g id="patch_192">
    <path clip-path="url(#pf8566f135c)" d="M 274.629122 244.317187 
L 275.511976 244.317187 
L 275.511976 136.297582 
L 274.629122 136.297582 
z
" style="fill:#1a89f4;"/>
   </g>
   <g id="patch_193">
    <path clip-path="url(#pf8566f135c)" d="M 275.732689 244.317187 
L 276.615542 244.317187 
L 276.615542 59.181981 
L 275.732689 59.181981 
z
" style="fill:#1a89f4;"/>
   </g>
   <g id="patch_194">
    <path clip-path="url(#pf8566f135c)" d="M 276.836255 244.317187 
L 277.719109 244.317187 
L 277.719109 130.23231 
L 276.836255 130.23231 
z
" style="fill:#1a89f4;"/>
   </g>
   <g id="patch_195">
    <path clip-path="url(#pf8566f135c)" d="M 277.939822 244.317187 
L 278.822675 244.317187 
L 278.822675 125.322328 
L 277.939822 125.322328 
z
" style="fill:#1a89f4;"/>
   </g>
   <g id="patch_196">
    <path clip-path="url(#pf8566f135c)" d="M 279.043388 244.317187 
L 279.926241 244.317187 
L 279.926241 38.097941 
L 279.043388 38.097941 
z
" style="fill:#1a89f4;"/>
   </g>
   <g id="patch_197">
    <path clip-path="url(#pf8566f135c)" d="M 280.146955 244.317187 
L 281.029808 244.317187 
L 281.029808 115.213541 
L 280.146955 115.213541 
z
" style="fill:#1a89f4;"/>
   </g>
   <g id="patch_198">
    <path clip-path="url(#pf8566f135c)" d="M 281.250521 244.317187 
L 282.133374 244.317187 
L 282.133374 125.899973 
L 281.250521 125.899973 
z
" style="fill:#1a89f4;"/>
   </g>
   <g id="patch_199">
    <path clip-path="url(#pf8566f135c)" d="M 282.354088 244.317187 
L 283.236941 244.317187 
L 283.236941 121.567636 
L 282.354088 121.567636 
z
" style="fill:#1a89f4;"/>
   </g>
   <g id="patch_200">
    <path clip-path="url(#pf8566f135c)" d="M 283.457654 244.317187 
L 284.340507 244.317187 
L 284.340507 132.831712 
L 283.457654 132.831712 
z
" style="fill:#1a89f4;"/>
   </g>
   <g id="patch_201">
    <path clip-path="url(#pf8566f135c)" d="M 284.561221 244.317187 
L 285.444074 244.317187 
L 285.444074 153.915753 
L 284.561221 153.915753 
z
" style="fill:#1a89f4;"/>
   </g>
   <g id="patch_202">
    <path clip-path="url(#pf8566f135c)" d="M 285.664787 244.317187 
L 286.54764 244.317187 
L 286.54764 152.760463 
L 285.664787 152.760463 
z
" style="fill:#1a89f4;"/>
   </g>
   <g id="patch_203">
    <path clip-path="url(#pf8566f135c)" d="M 286.768354 244.317187 
L 287.651207 244.317187 
L 287.651207 125.033505 
L 286.768354 125.033505 
z
" style="fill:#1a89f4;"/>
   </g>
   <g id="patch_204">
    <path clip-path="url(#pf8566f135c)" d="M 287.87192 244.317187 
L 288.754773 244.317187 
L 288.754773 177.599196 
L 287.87192 177.599196 
z
" style="fill:#1a89f4;"/>
   </g>
   <g id="patch_205">
    <path clip-path="url(#pf8566f135c)" d="M 288.975487 244.317187 
L 289.85834 244.317187 
L 289.85834 133.409357 
L 288.975487 133.409357 
z
" style="fill:#1a89f4;"/>
   </g>
   <g id="patch_206">
    <path clip-path="url(#pf8566f135c)" d="M 290.079053 244.317187 
L 290.961906 244.317187 
L 290.961906 159.692202 
L 290.079053 159.692202 
z
" style="fill:#1a89f4;"/>
   </g>
   <g id="patch_207">
    <path clip-path="url(#pf8566f135c)" d="M 291.18262 244.317187 
L 292.065473 244.317187 
L 292.065473 171.245101 
L 291.18262 171.245101 
z
" style="fill:#1a89f4;"/>
   </g>
   <g id="patch_208">
    <path clip-path="url(#pf8566f135c)" d="M 292.286186 244.317187 
L 293.169039 244.317187 
L 293.169039 166.046297 
L 292.286186 166.046297 
z
" style="fill:#1a89f4;"/>
   </g>
   <g id="patch_209">
    <path clip-path="url(#pf8566f135c)" d="M 293.389753 244.317187 
L 294.272606 244.317187 
L 294.272606 182.509178 
L 293.389753 182.509178 
z
" style="fill:#1a89f4;"/>
   </g>
   <g id="patch_210">
    <path clip-path="url(#pf8566f135c)" d="M 294.493319 244.317187 
L 295.376172 244.317187 
L 295.376172 180.776243 
L 294.493319 180.776243 
z
" style="fill:#1a89f4;"/>
   </g>
   <g id="patch_211">
    <path clip-path="url(#pf8566f135c)" d="M 295.596886 244.317187 
L 296.479739 244.317187 
L 296.479739 174.133326 
L 295.596886 174.133326 
z
" style="fill:#1a89f4;"/>
   </g>
   <g id="patch_212">
    <path clip-path="url(#pf8566f135c)" d="M 296.700452 244.317187 
L 297.583305 244.317187 
L 297.583305 194.928544 
L 296.700452 194.928544 
z
" style="fill:#1a89f4;"/>
   </g>
   <g id="patch_213">
    <path clip-path="url(#pf8566f135c)" d="M 297.804019 244.317187 
L 298.686872 244.317187 
L 298.686872 187.996805 
L 297.804019 187.996805 
z
" style="fill:#1a89f4;"/>
   </g>
   <g id="patch_214">
    <path clip-path="url(#pf8566f135c)" d="M 298.907585 244.317187 
L 299.790438 244.317187 
L 299.790438 183.664468 
L 298.907585 183.664468 
z
" style="fill:#1a89f4;"/>
   </g>
   <g id="patch_215">
    <path clip-path="url(#pf8566f135c)" d="M 300.011151 244.317187 
L 300.894005 244.317187 
L 300.894005 214.27965 
L 300.011151 214.27965 
z
" style="fill:#1a89f4;"/>
   </g>
   <g id="patch_216">
    <path clip-path="url(#pf8566f135c)" d="M 301.114718 244.317187 
L 301.997571 244.317187 
L 301.997571 204.748508 
L 301.114718 204.748508 
z
" style="fill:#1a89f4;"/>
   </g>
   <g id="patch_217">
    <path clip-path="url(#pf8566f135c)" d="M 302.218284 244.317187 
L 303.101138 244.317187 
L 303.101138 200.416171 
L 302.218284 200.416171 
z
" style="fill:#1a89f4;"/>
   </g>
   <g id="patch_218">
    <path clip-path="url(#pf8566f135c)" d="M 303.321851 244.317187 
L 304.204704 244.317187 
L 304.204704 210.524958 
L 303.321851 210.524958 
z
" style="fill:#1a89f4;"/>
   </g>
   <g id="patch_219">
    <path clip-path="url(#pf8566f135c)" d="M 304.425417 244.317187 
L 305.308271 244.317187 
L 305.308271 207.925556 
L 304.425417 207.925556 
z
" style="fill:#1a89f4;"/>
   </g>
   <g id="patch_220">
    <path clip-path="url(#pf8566f135c)" d="M 305.528984 244.317187 
L 306.411837 244.317187 
L 306.411837 215.723763 
L 305.528984 215.723763 
z
" style="fill:#1a89f4;"/>
   </g>
   <g id="patch_221">
    <path clip-path="url(#pf8566f135c)" d="M 306.63255 244.317187 
L 307.515404 244.317187 
L 307.515404 208.792023 
L 306.63255 208.792023 
z
" style="fill:#1a89f4;"/>
   </g>
   <g id="patch_222">
    <path clip-path="url(#pf8566f135c)" d="M 307.736117 244.317187 
L 308.61897 244.317187 
L 308.61897 222.366679 
L 307.736117 222.366679 
z
" style="fill:#1a89f4;"/>
   </g>
   <g id="patch_223">
    <path clip-path="url(#pf8566f135c)" d="M 308.839683 244.317187 
L 309.722537 244.317187 
L 309.722537 223.233147 
L 308.839683 223.233147 
z
" style="fill:#1a89f4;"/>
   </g>
   <g id="patch_224">
    <path clip-path="url(#pf8566f135c)" d="M 309.94325 244.317187 
L 310.826103 244.317187 
L 310.826103 214.27965 
L 309.94325 214.27965 
z
" style="fill:#1a89f4;"/>
   </g>
   <g id="patch_225">
    <path clip-path="url(#pf8566f135c)" d="M 311.046816 244.317187 
L 311.92967 244.317187 
L 311.92967 207.925556 
L 311.046816 207.925556 
z
" style="fill:#1a89f4;"/>
   </g>
   <g id="patch_226">
    <path clip-path="url(#pf8566f135c)" d="M 312.150383 244.317187 
L 313.033236 244.317187 
L 313.033236 219.189632 
L 312.150383 219.189632 
z
" style="fill:#1a89f4;"/>
   </g>
   <g id="patch_227">
    <path clip-path="url(#pf8566f135c)" d="M 313.253949 244.317187 
L 314.136802 244.317187 
L 314.136802 223.810792 
L 313.253949 223.810792 
z
" style="fill:#1a89f4;"/>
   </g>
   <g id="patch_228">
    <path clip-path="url(#pf8566f135c)" d="M 314.357516 244.317187 
L 315.240369 244.317187 
L 315.240369 223.521969 
L 314.357516 223.521969 
z
" style="fill:#1a89f4;"/>
   </g>
   <g id="patch_229">
    <path clip-path="url(#pf8566f135c)" d="M 315.461082 244.317187 
L 316.343935 244.317187 
L 316.343935 231.897821 
L 315.461082 231.897821 
z
" style="fill:#1a89f4;"/>
   </g>
   <g id="patch_230">
    <path clip-path="url(#pf8566f135c)" d="M 316.564649 244.317187 
L 317.447502 244.317187 
L 317.447502 229.298419 
L 316.564649 229.298419 
z
" style="fill:#1a89f4;"/>
   </g>
   <g id="patch_231">
    <path clip-path="url(#pf8566f135c)" d="M 317.668215 244.317187 
L 318.551068 244.317187 
L 318.551068 218.034342 
L 317.668215 218.034342 
z
" style="fill:#1a89f4;"/>
   </g>
   <g id="patch_232">
    <path clip-path="url(#pf8566f135c)" d="M 318.771782 244.317187 
L 319.654635 244.317187 
L 319.654635 230.453709 
L 318.771782 230.453709 
z
" style="fill:#1a89f4;"/>
   </g>
   <g id="patch_233">
    <path clip-path="url(#pf8566f135c)" d="M 319.875348 244.317187 
L 320.758201 244.317187 
L 320.758201 229.298419 
L 319.875348 229.298419 
z
" style="fill:#1a89f4;"/>
   </g>
   <g id="patch_234">
    <path clip-path="url(#pf8566f135c)" d="M 320.978915 244.317187 
L 321.861768 244.317187 
L 321.861768 232.475466 
L 320.978915 232.475466 
z
" style="fill:#1a89f4;"/>
   </g>
   <g id="patch_235">
    <path clip-path="url(#pf8566f135c)" d="M 322.082481 244.317187 
L 322.965334 244.317187 
L 322.965334 231.608999 
L 322.082481 231.608999 
z
" style="fill:#1a89f4;"/>
   </g>
   <g id="patch_236">
    <path clip-path="url(#pf8566f135c)" d="M 323.186048 244.317187 
L 324.068901 244.317187 
L 324.068901 232.475466 
L 323.186048 232.475466 
z
" style="fill:#1a89f4;"/>
   </g>
   <g id="patch_237">
    <path clip-path="url(#pf8566f135c)" d="M 324.289614 244.317187 
L 325.172467 244.317187 
L 325.172467 231.031354 
L 324.289614 231.031354 
z
" style="fill:#1a89f4;"/>
   </g>
   <g id="patch_238">
    <path clip-path="url(#pf8566f135c)" d="M 325.393181 244.317187 
L 326.276034 244.317187 
L 326.276034 232.186644 
L 325.393181 232.186644 
z
" style="fill:#1a89f4;"/>
   </g>
   <g id="patch_239">
    <path clip-path="url(#pf8566f135c)" d="M 326.496747 244.317187 
L 327.3796 244.317187 
L 327.3796 234.497223 
L 326.496747 234.497223 
z
" style="fill:#1a89f4;"/>
   </g>
   <g id="patch_240">
    <path clip-path="url(#pf8566f135c)" d="M 327.600314 244.317187 
L 328.483167 244.317187 
L 328.483167 230.453709 
L 327.600314 230.453709 
z
" style="fill:#1a89f4;"/>
   </g>
   <g id="patch_241">
    <path clip-path="url(#pf8566f135c)" d="M 328.70388 244.317187 
L 329.586733 244.317187 
L 329.586733 237.385448 
L 328.70388 237.385448 
z
" style="fill:#1a89f4;"/>
   </g>
   <g id="patch_242">
    <path clip-path="url(#pf8566f135c)" d="M 329.807447 244.317187 
L 330.6903 244.317187 
L 330.6903 240.562495 
L 329.807447 240.562495 
z
" style="fill:#1a89f4;"/>
   </g>
   <g id="patch_243">
    <path clip-path="url(#pf8566f135c)" d="M 330.911013 244.317187 
L 331.793866 244.317187 
L 331.793866 240.273673 
L 330.911013 240.273673 
z
" style="fill:#1a89f4;"/>
   </g>
   <g id="patch_244">
    <path clip-path="url(#pf8566f135c)" d="M 332.01458 244.317187 
L 332.897433 244.317187 
L 332.897433 235.652513 
L 332.01458 235.652513 
z
" style="fill:#1a89f4;"/>
   </g>
   <g id="patch_245">
    <path clip-path="url(#pf8566f135c)" d="M 333.118146 244.317187 
L 334.000999 244.317187 
L 334.000999 235.074868 
L 333.118146 235.074868 
z
" style="fill:#1a89f4;"/>
   </g>
   <g id="patch_246">
    <path clip-path="url(#pf8566f135c)" d="M 334.221712 244.317187 
L 335.104566 244.317187 
L 335.104566 241.717785 
L 334.221712 241.717785 
z
" style="fill:#1a89f4;"/>
   </g>
   <g id="patch_247">
    <path clip-path="url(#pf8566f135c)" d="M 335.325279 244.317187 
L 336.208132 244.317187 
L 336.208132 239.407205 
L 335.325279 239.407205 
z
" style="fill:#1a89f4;"/>
   </g>
   <g id="patch_248">
    <path clip-path="url(#pf8566f135c)" d="M 336.428845 244.317187 
L 337.311699 244.317187 
L 337.311699 239.696028 
L 336.428845 239.696028 
z
" style="fill:#1a89f4;"/>
   </g>
   <g id="patch_249">
    <path clip-path="url(#pf8566f135c)" d="M 337.532412 244.317187 
L 338.415265 244.317187 
L 338.415265 237.385448 
L 337.532412 237.385448 
z
" style="fill:#1a89f4;"/>
   </g>
   <g id="patch_250">
    <path clip-path="url(#pf8566f135c)" d="M 338.635978 244.317187 
L 339.518832 244.317187 
L 339.518832 243.161898 
L 338.635978 243.161898 
z
" style="fill:#1a89f4;"/>
   </g>
   <g id="patch_251">
    <path clip-path="url(#pf8566f135c)" d="M 339.739545 244.317187 
L 340.622398 244.317187 
L 340.622398 238.82956 
L 339.739545 238.82956 
z
" style="fill:#1a89f4;"/>
   </g>
   <g id="patch_252">
    <path clip-path="url(#pf8566f135c)" d="M 340.843111 244.317187 
L 341.725965 244.317187 
L 341.725965 239.98485 
L 340.843111 239.98485 
z
" style="fill:#1a89f4;"/>
   </g>
   <g id="patch_253">
    <path clip-path="url(#pf8566f135c)" d="M 341.946678 244.317187 
L 342.829531 244.317187 
L 342.829531 239.118383 
L 341.946678 239.118383 
z
" style="fill:#1a89f4;"/>
   </g>
   <g id="patch_254">
    <path clip-path="url(#pf8566f135c)" d="M 343.050244 244.317187 
L 343.933098 244.317187 
L 343.933098 239.407205 
L 343.050244 239.407205 
z
" style="fill:#1a89f4;"/>
   </g>
   <g id="patch_255">
    <path clip-path="url(#pf8566f135c)" d="M 344.153811 244.317187 
L 345.036664 244.317187 
L 345.036664 242.006608 
L 344.153811 242.006608 
z
" style="fill:#1a89f4;"/>
   </g>
   <g id="patch_256">
    <path clip-path="url(#pf8566f135c)" d="M 345.257377 244.317187 
L 346.140231 244.317187 
L 346.140231 239.98485 
L 345.257377 239.98485 
z
" style="fill:#1a89f4;"/>
   </g>
   <g id="patch_257">
    <path clip-path="url(#pf8566f135c)" d="M 346.360944 244.317187 
L 347.243797 244.317187 
L 347.243797 240.562495 
L 346.360944 240.562495 
z
" style="fill:#1a89f4;"/>
   </g>
   <g id="patch_258">
    <path clip-path="url(#pf8566f135c)" d="M 347.46451 244.317187 
L 348.347363 244.317187 
L 348.347363 237.096626 
L 347.46451 237.096626 
z
" style="fill:#1a89f4;"/>
   </g>
   <g id="patch_259">
    <path clip-path="url(#pf8566f135c)" d="M 348.568077 244.317187 
L 349.45093 244.317187 
L 349.45093 242.006608 
L 348.568077 242.006608 
z
" style="fill:#1a89f4;"/>
   </g>
   <g id="patch_260">
    <path clip-path="url(#pf8566f135c)" d="M 349.671643 244.317187 
L 350.554496 244.317187 
L 350.554496 237.385448 
L 349.671643 237.385448 
z
" style="fill:#1a89f4;"/>
   </g>
   <g id="patch_261">
    <path clip-path="url(#pf8566f135c)" d="M 350.77521 244.317187 
L 351.658063 244.317187 
L 351.658063 237.674271 
L 350.77521 237.674271 
z
" style="fill:#1a89f4;"/>
   </g>
   <g id="patch_262">
    <path clip-path="url(#pf8566f135c)" d="M 351.878776 244.317187 
L 352.761629 244.317187 
L 352.761629 239.98485 
L 351.878776 239.98485 
z
" style="fill:#1a89f4;"/>
   </g>
   <g id="patch_263">
    <path clip-path="url(#pf8566f135c)" d="M 352.982343 244.317187 
L 353.865196 244.317187 
L 353.865196 238.540738 
L 352.982343 238.540738 
z
" style="fill:#1a89f4;"/>
   </g>
   <g id="patch_264">
    <path clip-path="url(#pf8566f135c)" d="M 354.085909 244.317187 
L 354.968762 244.317187 
L 354.968762 237.963093 
L 354.085909 237.963093 
z
" style="fill:#1a89f4;"/>
   </g>
   <g id="patch_265">
    <path clip-path="url(#pf8566f135c)" d="M 355.189476 244.317187 
L 356.072329 244.317187 
L 356.072329 235.652513 
L 355.189476 235.652513 
z
" style="fill:#1a89f4;"/>
   </g>
   <g id="patch_266">
    <path clip-path="url(#pf8566f135c)" d="M 356.293042 244.317187 
L 357.175895 244.317187 
L 357.175895 237.096626 
L 356.293042 237.096626 
z
" style="fill:#1a89f4;"/>
   </g>
   <g id="patch_267">
    <path clip-path="url(#pf8566f135c)" d="M 357.396609 244.317187 
L 358.279462 244.317187 
L 358.279462 238.251916 
L 357.396609 238.251916 
z
" style="fill:#1a89f4;"/>
   </g>
   <g id="patch_268">
    <path clip-path="url(#pf8566f135c)" d="M 358.500175 244.317187 
L 359.383028 244.317187 
L 359.383028 241.717785 
L 358.500175 241.717785 
z
" style="fill:#1a89f4;"/>
   </g>
   <g id="patch_269">
    <path clip-path="url(#pf8566f135c)" d="M 359.603742 244.317187 
L 360.486595 244.317187 
L 360.486595 240.851318 
L 359.603742 240.851318 
z
" style="fill:#1a89f4;"/>
   </g>
   <g id="patch_270">
    <path clip-path="url(#pf8566f135c)" d="M 360.707308 244.317187 
L 361.590161 244.317187 
L 361.590161 242.006608 
L 360.707308 242.006608 
z
" style="fill:#1a89f4;"/>
   </g>
   <g id="patch_271">
    <path clip-path="url(#pf8566f135c)" d="M 361.810875 244.317187 
L 362.693728 244.317187 
L 362.693728 242.006608 
L 361.810875 242.006608 
z
" style="fill:#1a89f4;"/>
   </g>
   <g id="patch_272">
    <path clip-path="url(#pf8566f135c)" d="M 362.914441 244.317187 
L 363.797294 244.317187 
L 363.797294 235.363691 
L 362.914441 235.363691 
z
" style="fill:#1a89f4;"/>
   </g>
   <g id="patch_273">
    <path clip-path="url(#pf8566f135c)" d="M 364.018008 244.317187 
L 364.900861 244.317187 
L 364.900861 240.273673 
L 364.018008 240.273673 
z
" style="fill:#1a89f4;"/>
   </g>
   <g id="patch_274">
    <path clip-path="url(#pf8566f135c)" d="M 365.121574 244.317187 
L 366.004427 244.317187 
L 366.004427 237.963093 
L 365.121574 237.963093 
z
" style="fill:#1a89f4;"/>
   </g>
   <g id="patch_275">
    <path clip-path="url(#pf8566f135c)" d="M 366.225141 244.317187 
L 367.107994 244.317187 
L 367.107994 239.118383 
L 366.225141 239.118383 
z
" style="fill:#1a89f4;"/>
   </g>
   <g id="patch_276">
    <path clip-path="url(#pf8566f135c)" d="M 367.328707 244.317187 
L 368.21156 244.317187 
L 368.21156 239.98485 
L 367.328707 239.98485 
z
" style="fill:#1a89f4;"/>
   </g>
   <g id="patch_277">
    <path clip-path="url(#pf8566f135c)" d="M 368.432274 244.317187 
L 369.315127 244.317187 
L 369.315127 238.251916 
L 368.432274 238.251916 
z
" style="fill:#1a89f4;"/>
   </g>
   <g id="patch_278">
    <path clip-path="url(#pf8566f135c)" d="M 369.53584 244.317187 
L 370.418693 244.317187 
L 370.418693 242.29543 
L 369.53584 242.29543 
z
" style="fill:#1a89f4;"/>
   </g>
   <g id="matplotlib.axis_1">
    <g id="xtick_1">
     <g id="line2d_1">
      <defs>
       <path d="M 0 0 
L 0 17 
" id="m2a5cd08825" style="stroke:#000000;"/>
      </defs>
      <g>
       <use style="stroke:#000000;" x="74.221449" xlink:href="#m2a5cd08825" y="244.317187"/>
      </g>
     </g>
    </g>
    <g id="xtick_2">
     <g id="line2d_2">
      <g>
       <use style="stroke:#000000;" x="106.224877" xlink:href="#m2a5cd08825" y="244.317187"/>
      </g>
     </g>
    </g>
    <g id="xtick_3">
     <g id="line2d_3">
      <g>
       <use style="stroke:#000000;" x="140.435438" xlink:href="#m2a5cd08825" y="244.317187"/>
      </g>
     </g>
    </g>
    <g id="xtick_4">
     <g id="line2d_4">
      <g>
       <use style="stroke:#000000;" x="173.542432" xlink:href="#m2a5cd08825" y="244.317187"/>
      </g>
     </g>
    </g>
    <g id="xtick_5">
     <g id="line2d_5">
      <g>
       <use style="stroke:#000000;" x="207.752993" xlink:href="#m2a5cd08825" y="244.317187"/>
      </g>
     </g>
    </g>
    <g id="xtick_6">
     <g id="line2d_6">
      <g>
       <use style="stroke:#000000;" x="240.859988" xlink:href="#m2a5cd08825" y="244.317187"/>
      </g>
     </g>
    </g>
    <g id="xtick_7">
     <g id="line2d_7">
      <g>
       <use style="stroke:#000000;" x="275.070549" xlink:href="#m2a5cd08825" y="244.317187"/>
      </g>
     </g>
    </g>
    <g id="xtick_8">
     <g id="line2d_8">
      <g>
       <use style="stroke:#000000;" x="309.28111" xlink:href="#m2a5cd08825" y="244.317187"/>
      </g>
     </g>
    </g>
    <g id="xtick_9">
     <g id="line2d_9">
      <g>
       <use style="stroke:#000000;" x="342.388104" xlink:href="#m2a5cd08825" y="244.317187"/>
      </g>
     </g>
    </g>
    <g id="xtick_10">
     <g id="line2d_10">
      <g>
       <use style="stroke:#000000;" x="376.598665" xlink:href="#m2a5cd08825" y="244.317187"/>
      </g>
     </g>
    </g>
    <g id="xtick_11">
     <g id="line2d_11">
      <defs>
       <path d="M 0 0 
L 0 3 
" id="m7d37171555" style="stroke:#000000;"/>
      </defs>
      <g>
       <use style="stroke:#000000;" x="55.460819" xlink:href="#m7d37171555" y="244.317187"/>
      </g>
     </g>
     <g id="text_1">
      <!--  -->
      <g transform="translate(52.621287 272.739062)rotate(-90)scale(0.1 -0.1)"/>
      <!-- Jan 2020 -->
      <g transform="translate(63.8191 294.760938)rotate(-90)scale(0.1 -0.1)">
       <defs>
        <path d="M 9.8125 72.90625 
L 19.671875 72.90625 
L 19.671875 5.078125 
Q 19.671875 -8.109375 14.671875 -14.0625 
Q 9.671875 -20.015625 -1.421875 -20.015625 
L -5.171875 -20.015625 
L -5.171875 -11.71875 
L -2.09375 -11.71875 
Q 4.4375 -11.71875 7.125 -8.046875 
Q 9.8125 -4.390625 9.8125 5.078125 
z
" id="DejaVuSans-74"/>
        <path d="M 34.28125 27.484375 
Q 23.390625 27.484375 19.1875 25 
Q 14.984375 22.515625 14.984375 16.5 
Q 14.984375 11.71875 18.140625 8.90625 
Q 21.296875 6.109375 26.703125 6.109375 
Q 34.1875 6.109375 38.703125 11.40625 
Q 43.21875 16.703125 43.21875 25.484375 
L 43.21875 27.484375 
z
M 52.203125 31.203125 
L 52.203125 0 
L 43.21875 0 
L 43.21875 8.296875 
Q 40.140625 3.328125 35.546875 0.953125 
Q 30.953125 -1.421875 24.3125 -1.421875 
Q 15.921875 -1.421875 10.953125 3.296875 
Q 6 8.015625 6 15.921875 
Q 6 25.140625 12.171875 29.828125 
Q 18.359375 34.515625 30.609375 34.515625 
L 43.21875 34.515625 
L 43.21875 35.40625 
Q 43.21875 41.609375 39.140625 45 
Q 35.0625 48.390625 27.6875 48.390625 
Q 23 48.390625 18.546875 47.265625 
Q 14.109375 46.140625 10.015625 43.890625 
L 10.015625 52.203125 
Q 14.9375 54.109375 19.578125 55.046875 
Q 24.21875 56 28.609375 56 
Q 40.484375 56 46.34375 49.84375 
Q 52.203125 43.703125 52.203125 31.203125 
z
" id="DejaVuSans-97"/>
        <path d="M 54.890625 33.015625 
L 54.890625 0 
L 45.90625 0 
L 45.90625 32.71875 
Q 45.90625 40.484375 42.875 44.328125 
Q 39.84375 48.1875 33.796875 48.1875 
Q 26.515625 48.1875 22.3125 43.546875 
Q 18.109375 38.921875 18.109375 30.90625 
L 18.109375 0 
L 9.078125 0 
L 9.078125 54.6875 
L 18.109375 54.6875 
L 18.109375 46.1875 
Q 21.34375 51.125 25.703125 53.5625 
Q 30.078125 56 35.796875 56 
Q 45.21875 56 50.046875 50.171875 
Q 54.890625 44.34375 54.890625 33.015625 
z
" id="DejaVuSans-110"/>
        <path id="DejaVuSans-32"/>
        <path d="M 19.1875 8.296875 
L 53.609375 8.296875 
L 53.609375 0 
L 7.328125 0 
L 7.328125 8.296875 
Q 12.9375 14.109375 22.625 23.890625 
Q 32.328125 33.6875 34.8125 36.53125 
Q 39.546875 41.84375 41.421875 45.53125 
Q 43.3125 49.21875 43.3125 52.78125 
Q 43.3125 58.59375 39.234375 62.25 
Q 35.15625 65.921875 28.609375 65.921875 
Q 23.96875 65.921875 18.8125 64.3125 
Q 13.671875 62.703125 7.8125 59.421875 
L 7.8125 69.390625 
Q 13.765625 71.78125 18.9375 73 
Q 24.125 74.21875 28.421875 74.21875 
Q 39.75 74.21875 46.484375 68.546875 
Q 53.21875 62.890625 53.21875 53.421875 
Q 53.21875 48.921875 51.53125 44.890625 
Q 49.859375 40.875 45.40625 35.40625 
Q 44.1875 33.984375 37.640625 27.21875 
Q 31.109375 20.453125 19.1875 8.296875 
z
" id="DejaVuSans-50"/>
        <path d="M 31.78125 66.40625 
Q 24.171875 66.40625 20.328125 58.90625 
Q 16.5 51.421875 16.5 36.375 
Q 16.5 21.390625 20.328125 13.890625 
Q 24.171875 6.390625 31.78125 6.390625 
Q 39.453125 6.390625 43.28125 13.890625 
Q 47.125 21.390625 47.125 36.375 
Q 47.125 51.421875 43.28125 58.90625 
Q 39.453125 66.40625 31.78125 66.40625 
z
M 31.78125 74.21875 
Q 44.046875 74.21875 50.515625 64.515625 
Q 56.984375 54.828125 56.984375 36.375 
Q 56.984375 17.96875 50.515625 8.265625 
Q 44.046875 -1.421875 31.78125 -1.421875 
Q 19.53125 -1.421875 13.0625 8.265625 
Q 6.59375 17.96875 6.59375 36.375 
Q 6.59375 54.828125 13.0625 64.515625 
Q 19.53125 74.21875 31.78125 74.21875 
z
" id="DejaVuSans-48"/>
       </defs>
       <use xlink:href="#DejaVuSans-74"/>
       <use x="29.492188" xlink:href="#DejaVuSans-97"/>
       <use x="90.771484" xlink:href="#DejaVuSans-110"/>
       <use x="154.150391" xlink:href="#DejaVuSans-32"/>
       <use x="185.9375" xlink:href="#DejaVuSans-50"/>
       <use x="249.560547" xlink:href="#DejaVuSans-48"/>
       <use x="313.183594" xlink:href="#DejaVuSans-50"/>
       <use x="376.806641" xlink:href="#DejaVuSans-48"/>
      </g>
     </g>
    </g>
    <g id="xtick_12">
     <g id="line2d_12">
      <g>
       <use style="stroke:#000000;" x="89.67138" xlink:href="#m7d37171555" y="244.317187"/>
      </g>
     </g>
     <g id="text_2">
      <!--  -->
      <g transform="translate(86.831848 273.882812)rotate(-90)scale(0.1 -0.1)"/>
      <!-- Feb 2020 -->
      <g transform="translate(98.029661 297.048437)rotate(-90)scale(0.1 -0.1)">
       <defs>
        <path d="M 9.8125 72.90625 
L 51.703125 72.90625 
L 51.703125 64.59375 
L 19.671875 64.59375 
L 19.671875 43.109375 
L 48.578125 43.109375 
L 48.578125 34.8125 
L 19.671875 34.8125 
L 19.671875 0 
L 9.8125 0 
z
" id="DejaVuSans-70"/>
        <path d="M 56.203125 29.59375 
L 56.203125 25.203125 
L 14.890625 25.203125 
Q 15.484375 15.921875 20.484375 11.0625 
Q 25.484375 6.203125 34.421875 6.203125 
Q 39.59375 6.203125 44.453125 7.46875 
Q 49.3125 8.734375 54.109375 11.28125 
L 54.109375 2.78125 
Q 49.265625 0.734375 44.1875 -0.34375 
Q 39.109375 -1.421875 33.890625 -1.421875 
Q 20.796875 -1.421875 13.15625 6.1875 
Q 5.515625 13.8125 5.515625 26.8125 
Q 5.515625 40.234375 12.765625 48.109375 
Q 20.015625 56 32.328125 56 
Q 43.359375 56 49.78125 48.890625 
Q 56.203125 41.796875 56.203125 29.59375 
z
M 47.21875 32.234375 
Q 47.125 39.59375 43.09375 43.984375 
Q 39.0625 48.390625 32.421875 48.390625 
Q 24.90625 48.390625 20.390625 44.140625 
Q 15.875 39.890625 15.1875 32.171875 
z
" id="DejaVuSans-101"/>
        <path d="M 48.6875 27.296875 
Q 48.6875 37.203125 44.609375 42.84375 
Q 40.53125 48.484375 33.40625 48.484375 
Q 26.265625 48.484375 22.1875 42.84375 
Q 18.109375 37.203125 18.109375 27.296875 
Q 18.109375 17.390625 22.1875 11.75 
Q 26.265625 6.109375 33.40625 6.109375 
Q 40.53125 6.109375 44.609375 11.75 
Q 48.6875 17.390625 48.6875 27.296875 
z
M 18.109375 46.390625 
Q 20.953125 51.265625 25.265625 53.625 
Q 29.59375 56 35.59375 56 
Q 45.5625 56 51.78125 48.09375 
Q 58.015625 40.1875 58.015625 27.296875 
Q 58.015625 14.40625 51.78125 6.484375 
Q 45.5625 -1.421875 35.59375 -1.421875 
Q 29.59375 -1.421875 25.265625 0.953125 
Q 20.953125 3.328125 18.109375 8.203125 
L 18.109375 0 
L 9.078125 0 
L 9.078125 75.984375 
L 18.109375 75.984375 
z
" id="DejaVuSans-98"/>
       </defs>
       <use xlink:href="#DejaVuSans-70"/>
       <use x="52.019531" xlink:href="#DejaVuSans-101"/>
       <use x="113.542969" xlink:href="#DejaVuSans-98"/>
       <use x="177.019531" xlink:href="#DejaVuSans-32"/>
       <use x="208.806641" xlink:href="#DejaVuSans-50"/>
       <use x="272.429688" xlink:href="#DejaVuSans-48"/>
       <use x="336.052734" xlink:href="#DejaVuSans-50"/>
       <use x="399.675781" xlink:href="#DejaVuSans-48"/>
      </g>
     </g>
    </g>
    <g id="xtick_13">
     <g id="line2d_13">
      <g>
       <use style="stroke:#000000;" x="121.674808" xlink:href="#m7d37171555" y="244.317187"/>
      </g>
     </g>
     <g id="text_3">
      <!--  -->
      <g transform="translate(118.835276 274.464844)rotate(-90)scale(0.1 -0.1)"/>
      <!-- Mar 2020 -->
      <g transform="translate(130.033089 298.2125)rotate(-90)scale(0.1 -0.1)">
       <defs>
        <path d="M 9.8125 72.90625 
L 24.515625 72.90625 
L 43.109375 23.296875 
L 61.8125 72.90625 
L 76.515625 72.90625 
L 76.515625 0 
L 66.890625 0 
L 66.890625 64.015625 
L 48.09375 14.015625 
L 38.1875 14.015625 
L 19.390625 64.015625 
L 19.390625 0 
L 9.8125 0 
z
" id="DejaVuSans-77"/>
        <path d="M 41.109375 46.296875 
Q 39.59375 47.171875 37.8125 47.578125 
Q 36.03125 48 33.890625 48 
Q 26.265625 48 22.1875 43.046875 
Q 18.109375 38.09375 18.109375 28.8125 
L 18.109375 0 
L 9.078125 0 
L 9.078125 54.6875 
L 18.109375 54.6875 
L 18.109375 46.1875 
Q 20.953125 51.171875 25.484375 53.578125 
Q 30.03125 56 36.53125 56 
Q 37.453125 56 38.578125 55.875 
Q 39.703125 55.765625 41.0625 55.515625 
z
" id="DejaVuSans-114"/>
       </defs>
       <use xlink:href="#DejaVuSans-77"/>
       <use x="86.279297" xlink:href="#DejaVuSans-97"/>
       <use x="147.558594" xlink:href="#DejaVuSans-114"/>
       <use x="188.671875" xlink:href="#DejaVuSans-32"/>
       <use x="220.458984" xlink:href="#DejaVuSans-50"/>
       <use x="284.082031" xlink:href="#DejaVuSans-48"/>
       <use x="347.705078" xlink:href="#DejaVuSans-50"/>
       <use x="411.328125" xlink:href="#DejaVuSans-48"/>
      </g>
     </g>
    </g>
    <g id="xtick_14">
     <g id="line2d_14">
      <g>
       <use style="stroke:#000000;" x="155.885369" xlink:href="#m7d37171555" y="244.317187"/>
      </g>
     </g>
     <g id="text_4">
      <!--  -->
      <g transform="translate(153.045837 273.68125)rotate(-90)scale(0.1 -0.1)"/>
      <!-- Apr 2020 -->
      <g transform="translate(164.24365 296.645312)rotate(-90)scale(0.1 -0.1)">
       <defs>
        <path d="M 34.1875 63.1875 
L 20.796875 26.90625 
L 47.609375 26.90625 
z
M 28.609375 72.90625 
L 39.796875 72.90625 
L 67.578125 0 
L 57.328125 0 
L 50.6875 18.703125 
L 17.828125 18.703125 
L 11.1875 0 
L 0.78125 0 
z
" id="DejaVuSans-65"/>
        <path d="M 18.109375 8.203125 
L 18.109375 -20.796875 
L 9.078125 -20.796875 
L 9.078125 54.6875 
L 18.109375 54.6875 
L 18.109375 46.390625 
Q 20.953125 51.265625 25.265625 53.625 
Q 29.59375 56 35.59375 56 
Q 45.5625 56 51.78125 48.09375 
Q 58.015625 40.1875 58.015625 27.296875 
Q 58.015625 14.40625 51.78125 6.484375 
Q 45.5625 -1.421875 35.59375 -1.421875 
Q 29.59375 -1.421875 25.265625 0.953125 
Q 20.953125 3.328125 18.109375 8.203125 
z
M 48.6875 27.296875 
Q 48.6875 37.203125 44.609375 42.84375 
Q 40.53125 48.484375 33.40625 48.484375 
Q 26.265625 48.484375 22.1875 42.84375 
Q 18.109375 37.203125 18.109375 27.296875 
Q 18.109375 17.390625 22.1875 11.75 
Q 26.265625 6.109375 33.40625 6.109375 
Q 40.53125 6.109375 44.609375 11.75 
Q 48.6875 17.390625 48.6875 27.296875 
z
" id="DejaVuSans-112"/>
       </defs>
       <use xlink:href="#DejaVuSans-65"/>
       <use x="68.408203" xlink:href="#DejaVuSans-112"/>
       <use x="131.884766" xlink:href="#DejaVuSans-114"/>
       <use x="172.998047" xlink:href="#DejaVuSans-32"/>
       <use x="204.785156" xlink:href="#DejaVuSans-50"/>
       <use x="268.408203" xlink:href="#DejaVuSans-48"/>
       <use x="332.03125" xlink:href="#DejaVuSans-50"/>
       <use x="395.654297" xlink:href="#DejaVuSans-48"/>
      </g>
     </g>
    </g>
    <g id="xtick_15">
     <g id="line2d_15">
      <g>
       <use style="stroke:#000000;" x="188.992363" xlink:href="#m7d37171555" y="244.317187"/>
      </g>
     </g>
     <g id="text_5">
      <!--  -->
      <g transform="translate(186.152832 275.36875)rotate(-90)scale(0.1 -0.1)"/>
      <!-- May 2020 -->
      <g transform="translate(197.350644 300.020312)rotate(-90)scale(0.1 -0.1)">
       <defs>
        <path d="M 32.171875 -5.078125 
Q 28.375 -14.84375 24.75 -17.8125 
Q 21.140625 -20.796875 15.09375 -20.796875 
L 7.90625 -20.796875 
L 7.90625 -13.28125 
L 13.1875 -13.28125 
Q 16.890625 -13.28125 18.9375 -11.515625 
Q 21 -9.765625 23.484375 -3.21875 
L 25.09375 0.875 
L 2.984375 54.6875 
L 12.5 54.6875 
L 29.59375 11.921875 
L 46.6875 54.6875 
L 56.203125 54.6875 
z
" id="DejaVuSans-121"/>
       </defs>
       <use xlink:href="#DejaVuSans-77"/>
       <use x="86.279297" xlink:href="#DejaVuSans-97"/>
       <use x="147.558594" xlink:href="#DejaVuSans-121"/>
       <use x="206.738281" xlink:href="#DejaVuSans-32"/>
       <use x="238.525391" xlink:href="#DejaVuSans-50"/>
       <use x="302.148438" xlink:href="#DejaVuSans-48"/>
       <use x="365.771484" xlink:href="#DejaVuSans-50"/>
       <use x="429.394531" xlink:href="#DejaVuSans-48"/>
      </g>
     </g>
    </g>
    <g id="xtick_16">
     <g id="line2d_16">
      <g>
       <use style="stroke:#000000;" x="223.202924" xlink:href="#m7d37171555" y="244.317187"/>
      </g>
     </g>
     <g id="text_6">
      <!--  -->
      <g transform="translate(220.363393 272.84375)rotate(-90)scale(0.1 -0.1)"/>
      <!-- Jun 2020 -->
      <g transform="translate(231.561205 294.970312)rotate(-90)scale(0.1 -0.1)">
       <defs>
        <path d="M 8.5 21.578125 
L 8.5 54.6875 
L 17.484375 54.6875 
L 17.484375 21.921875 
Q 17.484375 14.15625 20.5 10.265625 
Q 23.53125 6.390625 29.59375 6.390625 
Q 36.859375 6.390625 41.078125 11.03125 
Q 45.3125 15.671875 45.3125 23.6875 
L 45.3125 54.6875 
L 54.296875 54.6875 
L 54.296875 0 
L 45.3125 0 
L 45.3125 8.40625 
Q 42.046875 3.421875 37.71875 1 
Q 33.40625 -1.421875 27.6875 -1.421875 
Q 18.265625 -1.421875 13.375 4.4375 
Q 8.5 10.296875 8.5 21.578125 
z
M 31.109375 56 
z
" id="DejaVuSans-117"/>
       </defs>
       <use xlink:href="#DejaVuSans-74"/>
       <use x="29.492188" xlink:href="#DejaVuSans-117"/>
       <use x="92.871094" xlink:href="#DejaVuSans-110"/>
       <use x="156.25" xlink:href="#DejaVuSans-32"/>
       <use x="188.037109" xlink:href="#DejaVuSans-50"/>
       <use x="251.660156" xlink:href="#DejaVuSans-48"/>
       <use x="315.283203" xlink:href="#DejaVuSans-50"/>
       <use x="378.90625" xlink:href="#DejaVuSans-48"/>
      </g>
     </g>
    </g>
    <g id="xtick_17">
     <g id="line2d_17">
      <g>
       <use style="stroke:#000000;" x="256.309919" xlink:href="#m7d37171555" y="244.317187"/>
      </g>
     </g>
     <g id="text_7">
      <!--  -->
      <g transform="translate(253.470387 271.064062)rotate(-90)scale(0.1 -0.1)"/>
      <!-- Jul 2020 -->
      <g transform="translate(264.6682 291.410937)rotate(-90)scale(0.1 -0.1)">
       <defs>
        <path d="M 9.421875 75.984375 
L 18.40625 75.984375 
L 18.40625 0 
L 9.421875 0 
z
" id="DejaVuSans-108"/>
       </defs>
       <use xlink:href="#DejaVuSans-74"/>
       <use x="29.492188" xlink:href="#DejaVuSans-117"/>
       <use x="92.871094" xlink:href="#DejaVuSans-108"/>
       <use x="120.654297" xlink:href="#DejaVuSans-32"/>
       <use x="152.441406" xlink:href="#DejaVuSans-50"/>
       <use x="216.064453" xlink:href="#DejaVuSans-48"/>
       <use x="279.6875" xlink:href="#DejaVuSans-50"/>
       <use x="343.310547" xlink:href="#DejaVuSans-48"/>
      </g>
     </g>
    </g>
    <g id="xtick_18">
     <g id="line2d_18">
      <g>
       <use style="stroke:#000000;" x="290.52048" xlink:href="#m7d37171555" y="244.317187"/>
      </g>
     </g>
     <g id="text_8">
      <!--  -->
      <g transform="translate(287.680948 274.794531)rotate(-90)scale(0.1 -0.1)"/>
      <!-- Aug 2020 -->
      <g transform="translate(298.878761 298.871875)rotate(-90)scale(0.1 -0.1)">
       <defs>
        <path d="M 45.40625 27.984375 
Q 45.40625 37.75 41.375 43.109375 
Q 37.359375 48.484375 30.078125 48.484375 
Q 22.859375 48.484375 18.828125 43.109375 
Q 14.796875 37.75 14.796875 27.984375 
Q 14.796875 18.265625 18.828125 12.890625 
Q 22.859375 7.515625 30.078125 7.515625 
Q 37.359375 7.515625 41.375 12.890625 
Q 45.40625 18.265625 45.40625 27.984375 
z
M 54.390625 6.78125 
Q 54.390625 -7.171875 48.1875 -13.984375 
Q 42 -20.796875 29.203125 -20.796875 
Q 24.46875 -20.796875 20.265625 -20.09375 
Q 16.0625 -19.390625 12.109375 -17.921875 
L 12.109375 -9.1875 
Q 16.0625 -11.328125 19.921875 -12.34375 
Q 23.78125 -13.375 27.78125 -13.375 
Q 36.625 -13.375 41.015625 -8.765625 
Q 45.40625 -4.15625 45.40625 5.171875 
L 45.40625 9.625 
Q 42.625 4.78125 38.28125 2.390625 
Q 33.9375 0 27.875 0 
Q 17.828125 0 11.671875 7.65625 
Q 5.515625 15.328125 5.515625 27.984375 
Q 5.515625 40.671875 11.671875 48.328125 
Q 17.828125 56 27.875 56 
Q 33.9375 56 38.28125 53.609375 
Q 42.625 51.21875 45.40625 46.390625 
L 45.40625 54.6875 
L 54.390625 54.6875 
z
" id="DejaVuSans-103"/>
       </defs>
       <use xlink:href="#DejaVuSans-65"/>
       <use x="68.408203" xlink:href="#DejaVuSans-117"/>
       <use x="131.787109" xlink:href="#DejaVuSans-103"/>
       <use x="195.263672" xlink:href="#DejaVuSans-32"/>
       <use x="227.050781" xlink:href="#DejaVuSans-50"/>
       <use x="290.673828" xlink:href="#DejaVuSans-48"/>
       <use x="354.296875" xlink:href="#DejaVuSans-50"/>
       <use x="417.919922" xlink:href="#DejaVuSans-48"/>
      </g>
     </g>
    </g>
    <g id="xtick_19">
     <g id="line2d_19">
      <g>
       <use style="stroke:#000000;" x="324.731041" xlink:href="#m7d37171555" y="244.317187"/>
      </g>
     </g>
     <g id="text_9">
      <!--  -->
      <g transform="translate(321.891509 274.45625)rotate(-90)scale(0.1 -0.1)"/>
      <!-- Sep 2020 -->
      <g transform="translate(333.089322 298.195312)rotate(-90)scale(0.1 -0.1)">
       <defs>
        <path d="M 53.515625 70.515625 
L 53.515625 60.890625 
Q 47.90625 63.578125 42.921875 64.890625 
Q 37.9375 66.21875 33.296875 66.21875 
Q 25.25 66.21875 20.875 63.09375 
Q 16.5 59.96875 16.5 54.203125 
Q 16.5 49.359375 19.40625 46.890625 
Q 22.3125 44.4375 30.421875 42.921875 
L 36.375 41.703125 
Q 47.40625 39.59375 52.65625 34.296875 
Q 57.90625 29 57.90625 20.125 
Q 57.90625 9.515625 50.796875 4.046875 
Q 43.703125 -1.421875 29.984375 -1.421875 
Q 24.8125 -1.421875 18.96875 -0.25 
Q 13.140625 0.921875 6.890625 3.21875 
L 6.890625 13.375 
Q 12.890625 10.015625 18.65625 8.296875 
Q 24.421875 6.59375 29.984375 6.59375 
Q 38.421875 6.59375 43.015625 9.90625 
Q 47.609375 13.234375 47.609375 19.390625 
Q 47.609375 24.75 44.3125 27.78125 
Q 41.015625 30.8125 33.5 32.328125 
L 27.484375 33.5 
Q 16.453125 35.6875 11.515625 40.375 
Q 6.59375 45.0625 6.59375 53.421875 
Q 6.59375 63.09375 13.40625 68.65625 
Q 20.21875 74.21875 32.171875 74.21875 
Q 37.3125 74.21875 42.625 73.28125 
Q 47.953125 72.359375 53.515625 70.515625 
z
" id="DejaVuSans-83"/>
       </defs>
       <use xlink:href="#DejaVuSans-83"/>
       <use x="63.476562" xlink:href="#DejaVuSans-101"/>
       <use x="125" xlink:href="#DejaVuSans-112"/>
       <use x="188.476562" xlink:href="#DejaVuSans-32"/>
       <use x="220.263672" xlink:href="#DejaVuSans-50"/>
       <use x="283.886719" xlink:href="#DejaVuSans-48"/>
       <use x="347.509766" xlink:href="#DejaVuSans-50"/>
       <use x="411.132812" xlink:href="#DejaVuSans-48"/>
      </g>
     </g>
    </g>
    <g id="xtick_20">
     <g id="line2d_20">
      <g>
       <use style="stroke:#000000;" x="357.838035" xlink:href="#m7d37171555" y="244.317187"/>
      </g>
     </g>
     <g id="text_10">
      <!--  -->
      <g transform="translate(354.998504 273.676562)rotate(-90)scale(0.1 -0.1)"/>
      <!-- Oct 2020 -->
      <g transform="translate(366.196317 296.635938)rotate(-90)scale(0.1 -0.1)">
       <defs>
        <path d="M 39.40625 66.21875 
Q 28.65625 66.21875 22.328125 58.203125 
Q 16.015625 50.203125 16.015625 36.375 
Q 16.015625 22.609375 22.328125 14.59375 
Q 28.65625 6.59375 39.40625 6.59375 
Q 50.140625 6.59375 56.421875 14.59375 
Q 62.703125 22.609375 62.703125 36.375 
Q 62.703125 50.203125 56.421875 58.203125 
Q 50.140625 66.21875 39.40625 66.21875 
z
M 39.40625 74.21875 
Q 54.734375 74.21875 63.90625 63.9375 
Q 73.09375 53.65625 73.09375 36.375 
Q 73.09375 19.140625 63.90625 8.859375 
Q 54.734375 -1.421875 39.40625 -1.421875 
Q 24.03125 -1.421875 14.8125 8.828125 
Q 5.609375 19.09375 5.609375 36.375 
Q 5.609375 53.65625 14.8125 63.9375 
Q 24.03125 74.21875 39.40625 74.21875 
z
" id="DejaVuSans-79"/>
        <path d="M 48.78125 52.59375 
L 48.78125 44.1875 
Q 44.96875 46.296875 41.140625 47.34375 
Q 37.3125 48.390625 33.40625 48.390625 
Q 24.65625 48.390625 19.8125 42.84375 
Q 14.984375 37.3125 14.984375 27.296875 
Q 14.984375 17.28125 19.8125 11.734375 
Q 24.65625 6.203125 33.40625 6.203125 
Q 37.3125 6.203125 41.140625 7.25 
Q 44.96875 8.296875 48.78125 10.40625 
L 48.78125 2.09375 
Q 45.015625 0.34375 40.984375 -0.53125 
Q 36.96875 -1.421875 32.421875 -1.421875 
Q 20.0625 -1.421875 12.78125 6.34375 
Q 5.515625 14.109375 5.515625 27.296875 
Q 5.515625 40.671875 12.859375 48.328125 
Q 20.21875 56 33.015625 56 
Q 37.15625 56 41.109375 55.140625 
Q 45.0625 54.296875 48.78125 52.59375 
z
" id="DejaVuSans-99"/>
        <path d="M 18.3125 70.21875 
L 18.3125 54.6875 
L 36.8125 54.6875 
L 36.8125 47.703125 
L 18.3125 47.703125 
L 18.3125 18.015625 
Q 18.3125 11.328125 20.140625 9.421875 
Q 21.96875 7.515625 27.59375 7.515625 
L 36.8125 7.515625 
L 36.8125 0 
L 27.59375 0 
Q 17.1875 0 13.234375 3.875 
Q 9.28125 7.765625 9.28125 18.015625 
L 9.28125 47.703125 
L 2.6875 47.703125 
L 2.6875 54.6875 
L 9.28125 54.6875 
L 9.28125 70.21875 
z
" id="DejaVuSans-116"/>
       </defs>
       <use xlink:href="#DejaVuSans-79"/>
       <use x="78.710938" xlink:href="#DejaVuSans-99"/>
       <use x="133.691406" xlink:href="#DejaVuSans-116"/>
       <use x="172.900391" xlink:href="#DejaVuSans-32"/>
       <use x="204.6875" xlink:href="#DejaVuSans-50"/>
       <use x="268.310547" xlink:href="#DejaVuSans-48"/>
       <use x="331.933594" xlink:href="#DejaVuSans-50"/>
       <use x="395.556641" xlink:href="#DejaVuSans-48"/>
      </g>
     </g>
    </g>
    <g id="text_11">
     <!--  -->
     <g transform="translate(218.236875 314.658125)scale(0.14 -0.14)"/>
     <!-- Date -->
     <g transform="translate(201.505781 330.335062)scale(0.14 -0.14)">
      <defs>
       <path d="M 19.671875 64.796875 
L 19.671875 8.109375 
L 31.59375 8.109375 
Q 46.6875 8.109375 53.6875 14.9375 
Q 60.6875 21.78125 60.6875 36.53125 
Q 60.6875 51.171875 53.6875 57.984375 
Q 46.6875 64.796875 31.59375 64.796875 
z
M 9.8125 72.90625 
L 30.078125 72.90625 
Q 51.265625 72.90625 61.171875 64.09375 
Q 71.09375 55.28125 71.09375 36.53125 
Q 71.09375 17.671875 61.125 8.828125 
Q 51.171875 0 30.078125 0 
L 9.8125 0 
z
" id="DejaVuSans-68"/>
      </defs>
      <use xlink:href="#DejaVuSans-68"/>
      <use x="77.001953" xlink:href="#DejaVuSans-97"/>
      <use x="138.28125" xlink:href="#DejaVuSans-116"/>
      <use x="177.490234" xlink:href="#DejaVuSans-101"/>
     </g>
    </g>
   </g>
   <g id="matplotlib.axis_2">
    <g id="ytick_1">
     <g id="line2d_21">
      <defs>
       <path d="M 0 0 
L -3.5 0 
" id="me94ddee70a" style="stroke:#000000;stroke-width:0.8;"/>
      </defs>
      <g>
       <use style="stroke:#000000;stroke-width:0.8;" x="50.836875" xlink:href="#me94ddee70a" y="244.317187"/>
      </g>
     </g>
     <g id="text_12">
      <!-- 0 -->
      <g transform="translate(37.474375 248.116406)scale(0.1 -0.1)">
       <use xlink:href="#DejaVuSans-48"/>
      </g>
     </g>
    </g>
    <g id="ytick_2">
     <g id="line2d_22">
      <g>
       <use style="stroke:#000000;stroke-width:0.8;" x="50.836875" xlink:href="#me94ddee70a" y="215.43494"/>
      </g>
     </g>
     <g id="text_13">
      <!-- 100 -->
      <g transform="translate(24.749375 219.234159)scale(0.1 -0.1)">
       <defs>
        <path d="M 12.40625 8.296875 
L 28.515625 8.296875 
L 28.515625 63.921875 
L 10.984375 60.40625 
L 10.984375 69.390625 
L 28.421875 72.90625 
L 38.28125 72.90625 
L 38.28125 8.296875 
L 54.390625 8.296875 
L 54.390625 0 
L 12.40625 0 
z
" id="DejaVuSans-49"/>
       </defs>
       <use xlink:href="#DejaVuSans-49"/>
       <use x="63.623047" xlink:href="#DejaVuSans-48"/>
       <use x="127.246094" xlink:href="#DejaVuSans-48"/>
      </g>
     </g>
    </g>
    <g id="ytick_3">
     <g id="line2d_23">
      <g>
       <use style="stroke:#000000;stroke-width:0.8;" x="50.836875" xlink:href="#me94ddee70a" y="186.552693"/>
      </g>
     </g>
     <g id="text_14">
      <!-- 200 -->
      <g transform="translate(24.749375 190.351911)scale(0.1 -0.1)">
       <use xlink:href="#DejaVuSans-50"/>
       <use x="63.623047" xlink:href="#DejaVuSans-48"/>
       <use x="127.246094" xlink:href="#DejaVuSans-48"/>
      </g>
     </g>
    </g>
    <g id="ytick_4">
     <g id="line2d_24">
      <g>
       <use style="stroke:#000000;stroke-width:0.8;" x="50.836875" xlink:href="#me94ddee70a" y="157.670445"/>
      </g>
     </g>
     <g id="text_15">
      <!-- 300 -->
      <g transform="translate(24.749375 161.469664)scale(0.1 -0.1)">
       <defs>
        <path d="M 40.578125 39.3125 
Q 47.65625 37.796875 51.625 33 
Q 55.609375 28.21875 55.609375 21.1875 
Q 55.609375 10.40625 48.1875 4.484375 
Q 40.765625 -1.421875 27.09375 -1.421875 
Q 22.515625 -1.421875 17.65625 -0.515625 
Q 12.796875 0.390625 7.625 2.203125 
L 7.625 11.71875 
Q 11.71875 9.328125 16.59375 8.109375 
Q 21.484375 6.890625 26.8125 6.890625 
Q 36.078125 6.890625 40.9375 10.546875 
Q 45.796875 14.203125 45.796875 21.1875 
Q 45.796875 27.640625 41.28125 31.265625 
Q 36.765625 34.90625 28.71875 34.90625 
L 20.21875 34.90625 
L 20.21875 43.015625 
L 29.109375 43.015625 
Q 36.375 43.015625 40.234375 45.921875 
Q 44.09375 48.828125 44.09375 54.296875 
Q 44.09375 59.90625 40.109375 62.90625 
Q 36.140625 65.921875 28.71875 65.921875 
Q 24.65625 65.921875 20.015625 65.03125 
Q 15.375 64.15625 9.8125 62.3125 
L 9.8125 71.09375 
Q 15.4375 72.65625 20.34375 73.4375 
Q 25.25 74.21875 29.59375 74.21875 
Q 40.828125 74.21875 47.359375 69.109375 
Q 53.90625 64.015625 53.90625 55.328125 
Q 53.90625 49.265625 50.4375 45.09375 
Q 46.96875 40.921875 40.578125 39.3125 
z
" id="DejaVuSans-51"/>
       </defs>
       <use xlink:href="#DejaVuSans-51"/>
       <use x="63.623047" xlink:href="#DejaVuSans-48"/>
       <use x="127.246094" xlink:href="#DejaVuSans-48"/>
      </g>
     </g>
    </g>
    <g id="ytick_5">
     <g id="line2d_25">
      <g>
       <use style="stroke:#000000;stroke-width:0.8;" x="50.836875" xlink:href="#me94ddee70a" y="128.788198"/>
      </g>
     </g>
     <g id="text_16">
      <!-- 400 -->
      <g transform="translate(24.749375 132.587416)scale(0.1 -0.1)">
       <defs>
        <path d="M 37.796875 64.3125 
L 12.890625 25.390625 
L 37.796875 25.390625 
z
M 35.203125 72.90625 
L 47.609375 72.90625 
L 47.609375 25.390625 
L 58.015625 25.390625 
L 58.015625 17.1875 
L 47.609375 17.1875 
L 47.609375 0 
L 37.796875 0 
L 37.796875 17.1875 
L 4.890625 17.1875 
L 4.890625 26.703125 
z
" id="DejaVuSans-52"/>
       </defs>
       <use xlink:href="#DejaVuSans-52"/>
       <use x="63.623047" xlink:href="#DejaVuSans-48"/>
       <use x="127.246094" xlink:href="#DejaVuSans-48"/>
      </g>
     </g>
    </g>
    <g id="ytick_6">
     <g id="line2d_26">
      <g>
       <use style="stroke:#000000;stroke-width:0.8;" x="50.836875" xlink:href="#me94ddee70a" y="99.90595"/>
      </g>
     </g>
     <g id="text_17">
      <!-- 500 -->
      <g transform="translate(24.749375 103.705169)scale(0.1 -0.1)">
       <defs>
        <path d="M 10.796875 72.90625 
L 49.515625 72.90625 
L 49.515625 64.59375 
L 19.828125 64.59375 
L 19.828125 46.734375 
Q 21.96875 47.46875 24.109375 47.828125 
Q 26.265625 48.1875 28.421875 48.1875 
Q 40.625 48.1875 47.75 41.5 
Q 54.890625 34.8125 54.890625 23.390625 
Q 54.890625 11.625 47.5625 5.09375 
Q 40.234375 -1.421875 26.90625 -1.421875 
Q 22.3125 -1.421875 17.546875 -0.640625 
Q 12.796875 0.140625 7.71875 1.703125 
L 7.71875 11.625 
Q 12.109375 9.234375 16.796875 8.0625 
Q 21.484375 6.890625 26.703125 6.890625 
Q 35.15625 6.890625 40.078125 11.328125 
Q 45.015625 15.765625 45.015625 23.390625 
Q 45.015625 31 40.078125 35.4375 
Q 35.15625 39.890625 26.703125 39.890625 
Q 22.75 39.890625 18.8125 39.015625 
Q 14.890625 38.140625 10.796875 36.28125 
z
" id="DejaVuSans-53"/>
       </defs>
       <use xlink:href="#DejaVuSans-53"/>
       <use x="63.623047" xlink:href="#DejaVuSans-48"/>
       <use x="127.246094" xlink:href="#DejaVuSans-48"/>
      </g>
     </g>
    </g>
    <g id="ytick_7">
     <g id="line2d_27">
      <g>
       <use style="stroke:#000000;stroke-width:0.8;" x="50.836875" xlink:href="#me94ddee70a" y="71.023703"/>
      </g>
     </g>
     <g id="text_18">
      <!-- 600 -->
      <g transform="translate(24.749375 74.822921)scale(0.1 -0.1)">
       <defs>
        <path d="M 33.015625 40.375 
Q 26.375 40.375 22.484375 35.828125 
Q 18.609375 31.296875 18.609375 23.390625 
Q 18.609375 15.53125 22.484375 10.953125 
Q 26.375 6.390625 33.015625 6.390625 
Q 39.65625 6.390625 43.53125 10.953125 
Q 47.40625 15.53125 47.40625 23.390625 
Q 47.40625 31.296875 43.53125 35.828125 
Q 39.65625 40.375 33.015625 40.375 
z
M 52.59375 71.296875 
L 52.59375 62.3125 
Q 48.875 64.0625 45.09375 64.984375 
Q 41.3125 65.921875 37.59375 65.921875 
Q 27.828125 65.921875 22.671875 59.328125 
Q 17.53125 52.734375 16.796875 39.40625 
Q 19.671875 43.65625 24.015625 45.921875 
Q 28.375 48.1875 33.59375 48.1875 
Q 44.578125 48.1875 50.953125 41.515625 
Q 57.328125 34.859375 57.328125 23.390625 
Q 57.328125 12.15625 50.6875 5.359375 
Q 44.046875 -1.421875 33.015625 -1.421875 
Q 20.359375 -1.421875 13.671875 8.265625 
Q 6.984375 17.96875 6.984375 36.375 
Q 6.984375 53.65625 15.1875 63.9375 
Q 23.390625 74.21875 37.203125 74.21875 
Q 40.921875 74.21875 44.703125 73.484375 
Q 48.484375 72.75 52.59375 71.296875 
z
" id="DejaVuSans-54"/>
       </defs>
       <use xlink:href="#DejaVuSans-54"/>
       <use x="63.623047" xlink:href="#DejaVuSans-48"/>
       <use x="127.246094" xlink:href="#DejaVuSans-48"/>
      </g>
     </g>
    </g>
    <g id="ytick_8">
     <g id="line2d_28">
      <g>
       <use style="stroke:#000000;stroke-width:0.8;" x="50.836875" xlink:href="#me94ddee70a" y="42.141455"/>
      </g>
     </g>
     <g id="text_19">
      <!-- 700 -->
      <g transform="translate(24.749375 45.940674)scale(0.1 -0.1)">
       <defs>
        <path d="M 8.203125 72.90625 
L 55.078125 72.90625 
L 55.078125 68.703125 
L 28.609375 0 
L 18.3125 0 
L 43.21875 64.59375 
L 8.203125 64.59375 
z
" id="DejaVuSans-55"/>
       </defs>
       <use xlink:href="#DejaVuSans-55"/>
       <use x="63.623047" xlink:href="#DejaVuSans-48"/>
       <use x="127.246094" xlink:href="#DejaVuSans-48"/>
      </g>
     </g>
    </g>
    <g id="text_20">
     <!-- # COVID-19 Cases -->
     <g transform="translate(17.837812 200.6425)rotate(-90)scale(0.14 -0.14)">
      <defs>
       <path d="M 51.125 44 
L 36.921875 44 
L 32.8125 27.6875 
L 47.125 27.6875 
z
M 43.796875 71.78125 
L 38.71875 51.515625 
L 52.984375 51.515625 
L 58.109375 71.78125 
L 65.921875 71.78125 
L 60.890625 51.515625 
L 76.125 51.515625 
L 76.125 44 
L 58.984375 44 
L 54.984375 27.6875 
L 70.515625 27.6875 
L 70.515625 20.21875 
L 53.078125 20.21875 
L 48 0 
L 40.1875 0 
L 45.21875 20.21875 
L 30.90625 20.21875 
L 25.875 0 
L 18.015625 0 
L 23.09375 20.21875 
L 7.71875 20.21875 
L 7.71875 27.6875 
L 24.90625 27.6875 
L 29 44 
L 13.28125 44 
L 13.28125 51.515625 
L 30.90625 51.515625 
L 35.890625 71.78125 
z
" id="DejaVuSans-35"/>
       <path d="M 64.40625 67.28125 
L 64.40625 56.890625 
Q 59.421875 61.53125 53.78125 63.8125 
Q 48.140625 66.109375 41.796875 66.109375 
Q 29.296875 66.109375 22.65625 58.46875 
Q 16.015625 50.828125 16.015625 36.375 
Q 16.015625 21.96875 22.65625 14.328125 
Q 29.296875 6.6875 41.796875 6.6875 
Q 48.140625 6.6875 53.78125 8.984375 
Q 59.421875 11.28125 64.40625 15.921875 
L 64.40625 5.609375 
Q 59.234375 2.09375 53.4375 0.328125 
Q 47.65625 -1.421875 41.21875 -1.421875 
Q 24.65625 -1.421875 15.125 8.703125 
Q 5.609375 18.84375 5.609375 36.375 
Q 5.609375 53.953125 15.125 64.078125 
Q 24.65625 74.21875 41.21875 74.21875 
Q 47.75 74.21875 53.53125 72.484375 
Q 59.328125 70.75 64.40625 67.28125 
z
" id="DejaVuSans-67"/>
       <path d="M 28.609375 0 
L 0.78125 72.90625 
L 11.078125 72.90625 
L 34.1875 11.53125 
L 57.328125 72.90625 
L 67.578125 72.90625 
L 39.796875 0 
z
" id="DejaVuSans-86"/>
       <path d="M 9.8125 72.90625 
L 19.671875 72.90625 
L 19.671875 0 
L 9.8125 0 
z
" id="DejaVuSans-73"/>
       <path d="M 4.890625 31.390625 
L 31.203125 31.390625 
L 31.203125 23.390625 
L 4.890625 23.390625 
z
" id="DejaVuSans-45"/>
       <path d="M 10.984375 1.515625 
L 10.984375 10.5 
Q 14.703125 8.734375 18.5 7.8125 
Q 22.3125 6.890625 25.984375 6.890625 
Q 35.75 6.890625 40.890625 13.453125 
Q 46.046875 20.015625 46.78125 33.40625 
Q 43.953125 29.203125 39.59375 26.953125 
Q 35.25 24.703125 29.984375 24.703125 
Q 19.046875 24.703125 12.671875 31.3125 
Q 6.296875 37.9375 6.296875 49.421875 
Q 6.296875 60.640625 12.9375 67.421875 
Q 19.578125 74.21875 30.609375 74.21875 
Q 43.265625 74.21875 49.921875 64.515625 
Q 56.59375 54.828125 56.59375 36.375 
Q 56.59375 19.140625 48.40625 8.859375 
Q 40.234375 -1.421875 26.421875 -1.421875 
Q 22.703125 -1.421875 18.890625 -0.6875 
Q 15.09375 0.046875 10.984375 1.515625 
z
M 30.609375 32.421875 
Q 37.25 32.421875 41.125 36.953125 
Q 45.015625 41.5 45.015625 49.421875 
Q 45.015625 57.28125 41.125 61.84375 
Q 37.25 66.40625 30.609375 66.40625 
Q 23.96875 66.40625 20.09375 61.84375 
Q 16.21875 57.28125 16.21875 49.421875 
Q 16.21875 41.5 20.09375 36.953125 
Q 23.96875 32.421875 30.609375 32.421875 
z
" id="DejaVuSans-57"/>
       <path d="M 44.28125 53.078125 
L 44.28125 44.578125 
Q 40.484375 46.53125 36.375 47.5 
Q 32.28125 48.484375 27.875 48.484375 
Q 21.1875 48.484375 17.84375 46.4375 
Q 14.5 44.390625 14.5 40.28125 
Q 14.5 37.15625 16.890625 35.375 
Q 19.28125 33.59375 26.515625 31.984375 
L 29.59375 31.296875 
Q 39.15625 29.25 43.1875 25.515625 
Q 47.21875 21.78125 47.21875 15.09375 
Q 47.21875 7.46875 41.1875 3.015625 
Q 35.15625 -1.421875 24.609375 -1.421875 
Q 20.21875 -1.421875 15.453125 -0.5625 
Q 10.6875 0.296875 5.421875 2 
L 5.421875 11.28125 
Q 10.40625 8.6875 15.234375 7.390625 
Q 20.0625 6.109375 24.8125 6.109375 
Q 31.15625 6.109375 34.5625 8.28125 
Q 37.984375 10.453125 37.984375 14.40625 
Q 37.984375 18.0625 35.515625 20.015625 
Q 33.0625 21.96875 24.703125 23.78125 
L 21.578125 24.515625 
Q 13.234375 26.265625 9.515625 29.90625 
Q 5.8125 33.546875 5.8125 39.890625 
Q 5.8125 47.609375 11.28125 51.796875 
Q 16.75 56 26.8125 56 
Q 31.78125 56 36.171875 55.265625 
Q 40.578125 54.546875 44.28125 53.078125 
z
" id="DejaVuSans-115"/>
      </defs>
      <use xlink:href="#DejaVuSans-35"/>
      <use x="83.789062" xlink:href="#DejaVuSans-32"/>
      <use x="115.576172" xlink:href="#DejaVuSans-67"/>
      <use x="185.400391" xlink:href="#DejaVuSans-79"/>
      <use x="262.361328" xlink:href="#DejaVuSans-86"/>
      <use x="330.769531" xlink:href="#DejaVuSans-73"/>
      <use x="360.261719" xlink:href="#DejaVuSans-68"/>
      <use x="437.263672" xlink:href="#DejaVuSans-45"/>
      <use x="473.347656" xlink:href="#DejaVuSans-49"/>
      <use x="536.970703" xlink:href="#DejaVuSans-57"/>
      <use x="600.59375" xlink:href="#DejaVuSans-32"/>
      <use x="632.380859" xlink:href="#DejaVuSans-67"/>
      <use x="702.205078" xlink:href="#DejaVuSans-97"/>
      <use x="763.484375" xlink:href="#DejaVuSans-115"/>
      <use x="815.583984" xlink:href="#DejaVuSans-101"/>
      <use x="877.107422" xlink:href="#DejaVuSans-115"/>
     </g>
    </g>
   </g>
   <g id="patch_279">
    <path d="M 50.836875 244.317187 
L 50.836875 26.877187 
" style="fill:none;stroke:#000000;stroke-linecap:square;stroke-linejoin:miter;stroke-width:0.8;"/>
   </g>
   <g id="patch_280">
    <path d="M 385.636875 244.317187 
L 385.636875 26.877187 
" style="fill:none;stroke:#000000;stroke-linecap:square;stroke-linejoin:miter;stroke-width:0.8;"/>
   </g>
   <g id="patch_281">
    <path d="M 50.836875 244.317187 
L 385.636875 244.317187 
" style="fill:none;stroke:#000000;stroke-linecap:square;stroke-linejoin:miter;stroke-width:0.8;"/>
   </g>
   <g id="patch_282">
    <path d="M 50.836875 26.877187 
L 385.636875 26.877187 
" style="fill:none;stroke:#000000;stroke-linecap:square;stroke-linejoin:miter;stroke-width:0.8;"/>
   </g>
   <g id="text_21">
    <!-- Australia COVID-19 Daily Cases -->
    <g transform="translate(76.707656 20.877187)scale(0.18 -0.18)">
     <defs>
      <path d="M 9.421875 54.6875 
L 18.40625 54.6875 
L 18.40625 0 
L 9.421875 0 
z
M 9.421875 75.984375 
L 18.40625 75.984375 
L 18.40625 64.59375 
L 9.421875 64.59375 
z
" id="DejaVuSans-105"/>
     </defs>
     <use xlink:href="#DejaVuSans-65"/>
     <use x="68.408203" xlink:href="#DejaVuSans-117"/>
     <use x="131.787109" xlink:href="#DejaVuSans-115"/>
     <use x="183.886719" xlink:href="#DejaVuSans-116"/>
     <use x="223.095703" xlink:href="#DejaVuSans-114"/>
     <use x="264.208984" xlink:href="#DejaVuSans-97"/>
     <use x="325.488281" xlink:href="#DejaVuSans-108"/>
     <use x="353.271484" xlink:href="#DejaVuSans-105"/>
     <use x="381.054688" xlink:href="#DejaVuSans-97"/>
     <use x="442.333984" xlink:href="#DejaVuSans-32"/>
     <use x="474.121094" xlink:href="#DejaVuSans-67"/>
     <use x="543.945312" xlink:href="#DejaVuSans-79"/>
     <use x="620.90625" xlink:href="#DejaVuSans-86"/>
     <use x="689.314453" xlink:href="#DejaVuSans-73"/>
     <use x="718.806641" xlink:href="#DejaVuSans-68"/>
     <use x="795.808594" xlink:href="#DejaVuSans-45"/>
     <use x="831.892578" xlink:href="#DejaVuSans-49"/>
     <use x="895.515625" xlink:href="#DejaVuSans-57"/>
     <use x="959.138672" xlink:href="#DejaVuSans-32"/>
     <use x="990.925781" xlink:href="#DejaVuSans-68"/>
     <use x="1067.927734" xlink:href="#DejaVuSans-97"/>
     <use x="1129.207031" xlink:href="#DejaVuSans-105"/>
     <use x="1156.990234" xlink:href="#DejaVuSans-108"/>
     <use x="1184.773438" xlink:href="#DejaVuSans-121"/>
     <use x="1243.953125" xlink:href="#DejaVuSans-32"/>
     <use x="1275.740234" xlink:href="#DejaVuSans-67"/>
     <use x="1345.564453" xlink:href="#DejaVuSans-97"/>
     <use x="1406.84375" xlink:href="#DejaVuSans-115"/>
     <use x="1458.943359" xlink:href="#DejaVuSans-101"/>
     <use x="1520.466797" xlink:href="#DejaVuSans-115"/>
    </g>
   </g>
   <g id="legend_1">
    <g id="patch_283">
     <path d="M 302.405625 49.555312 
L 378.636875 49.555312 
Q 380.636875 49.555312 380.636875 47.555312 
L 380.636875 33.877187 
Q 380.636875 31.877187 378.636875 31.877187 
L 302.405625 31.877187 
Q 300.405625 31.877187 300.405625 33.877187 
L 300.405625 47.555312 
Q 300.405625 49.555312 302.405625 49.555312 
z
" style="fill:#ffffff;opacity:0.8;stroke:#cccccc;stroke-linejoin:miter;"/>
    </g>
    <g id="patch_284">
     <path d="M 304.405625 43.475625 
L 324.405625 43.475625 
L 324.405625 36.475625 
L 304.405625 36.475625 
z
" style="fill:#1a89f4;"/>
    </g>
    <g id="text_22">
     <!-- Australia -->
     <g transform="translate(332.405625 43.475625)scale(0.1 -0.1)">
      <use xlink:href="#DejaVuSans-65"/>
      <use x="68.408203" xlink:href="#DejaVuSans-117"/>
      <use x="131.787109" xlink:href="#DejaVuSans-115"/>
      <use x="183.886719" xlink:href="#DejaVuSans-116"/>
      <use x="223.095703" xlink:href="#DejaVuSans-114"/>
      <use x="264.208984" xlink:href="#DejaVuSans-97"/>
      <use x="325.488281" xlink:href="#DejaVuSans-108"/>
      <use x="353.271484" xlink:href="#DejaVuSans-105"/>
      <use x="381.054688" xlink:href="#DejaVuSans-97"/>
     </g>
    </g>
   </g>
  </g>
 </g>
 <defs>
  <clipPath id="pf8566f135c">
   <rect height="217.44" width="334.8" x="50.836875" y="26.877187"/>
  </clipPath>
 </defs>
</svg>
