<?xml version="1.0" encoding="utf-8" standalone="no"?>
<!DOCTYPE svg PUBLIC "-//W3C//DTD SVG 1.1//EN"
  "http://www.w3.org/Graphics/SVG/1.1/DTD/svg11.dtd">
<!-- Created with matplotlib (https://matplotlib.org/) -->
<svg height="340.446625pt" version="1.1" viewBox="0 0 399.199375 340.446625" width="399.199375pt" xmlns="http://www.w3.org/2000/svg" xmlns:xlink="http://www.w3.org/1999/xlink">
 <metadata>
  <rdf:RDF xmlns:cc="http://creativecommons.org/ns#" xmlns:dc="http://purl.org/dc/elements/1.1/" xmlns:rdf="http://www.w3.org/1999/02/22-rdf-syntax-ns#">
   <cc:Work>
    <dc:type rdf:resource="http://purl.org/dc/dcmitype/StillImage"/>
    <dc:date>2020-10-29T17:25:05.789643</dc:date>
    <dc:format>image/svg+xml</dc:format>
    <dc:creator>
     <cc:Agent>
      <dc:title>Matplotlib v3.3.1, https://matplotlib.org/</dc:title>
     </cc:Agent>
    </dc:creator>
   </cc:Work>
  </rdf:RDF>
 </metadata>
 <defs>
  <style type="text/css">*{stroke-linecap:butt;stroke-linejoin:round;}</style>
 </defs>
 <g id="figure_1">
  <g id="patch_1">
   <path d="M 0 340.446625 
L 399.199375 340.446625 
L 399.199375 0 
L 0 0 
z
" style="fill:none;"/>
  </g>
  <g id="axes_1">
   <g id="patch_2">
    <path d="M 57.199375 244.317187 
L 391.999375 244.317187 
L 391.999375 26.877187 
L 57.199375 26.877187 
z
" style="fill:#ffffff;"/>
   </g>
   <g id="patch_3">
    <path clip-path="url(#pe39492bec3)" d="M 72.417557 244.317187 
L 73.34057 244.317187 
L 73.34057 244.112254 
L 72.417557 244.112254 
z
" style="fill:#a62205;"/>
   </g>
   <g id="patch_4">
    <path clip-path="url(#pe39492bec3)" d="M 81.64769 244.317187 
L 82.570703 244.317187 
L 82.570703 244.163487 
L 81.64769 244.163487 
z
" style="fill:#a62205;"/>
   </g>
   <g id="patch_5">
    <path clip-path="url(#pe39492bec3)" d="M 90.877823 244.317187 
L 91.800836 244.317187 
L 91.800836 244.265954 
L 90.877823 244.265954 
z
" style="fill:#a62205;"/>
   </g>
   <g id="patch_6">
    <path clip-path="url(#pe39492bec3)" d="M 96.646656 244.317187 
L 97.569669 244.317187 
L 97.569669 244.265954 
L 96.646656 244.265954 
z
" style="fill:#a62205;"/>
   </g>
   <g id="patch_7">
    <path clip-path="url(#pe39492bec3)" d="M 100.107956 244.317187 
L 101.030969 244.317187 
L 101.030969 244.265954 
L 100.107956 244.265954 
z
" style="fill:#a62205;"/>
   </g>
   <g id="patch_8">
    <path clip-path="url(#pe39492bec3)" d="M 101.261723 244.317187 
L 102.184736 244.317187 
L 102.184736 244.265954 
L 101.261723 244.265954 
z
" style="fill:#a62205;"/>
   </g>
   <g id="patch_9">
    <path clip-path="url(#pe39492bec3)" d="M 102.415489 244.317187 
L 103.338502 244.317187 
L 103.338502 244.265954 
L 102.415489 244.265954 
z
" style="fill:#a62205;"/>
   </g>
   <g id="patch_10">
    <path clip-path="url(#pe39492bec3)" d="M 103.569256 244.317187 
L 104.492269 244.317187 
L 104.492269 244.265954 
L 103.569256 244.265954 
z
" style="fill:#a62205;"/>
   </g>
   <g id="patch_11">
    <path clip-path="url(#pe39492bec3)" d="M 105.876789 244.317187 
L 106.799802 244.317187 
L 106.799802 244.214721 
L 105.876789 244.214721 
z
" style="fill:#a62205;"/>
   </g>
   <g id="patch_12">
    <path clip-path="url(#pe39492bec3)" d="M 107.030556 244.317187 
L 107.953569 244.317187 
L 107.953569 243.856086 
L 107.030556 243.856086 
z
" style="fill:#a62205;"/>
   </g>
   <g id="patch_13">
    <path clip-path="url(#pe39492bec3)" d="M 109.338089 244.317187 
L 110.261102 244.317187 
L 110.261102 243.856086 
L 109.338089 243.856086 
z
" style="fill:#a62205;"/>
   </g>
   <g id="patch_14">
    <path clip-path="url(#pe39492bec3)" d="M 111.645622 244.317187 
L 112.568635 244.317187 
L 112.568635 243.702386 
L 111.645622 243.702386 
z
" style="fill:#a62205;"/>
   </g>
   <g id="patch_15">
    <path clip-path="url(#pe39492bec3)" d="M 112.799389 244.317187 
L 113.722402 244.317187 
L 113.722402 244.009787 
L 112.799389 244.009787 
z
" style="fill:#a62205;"/>
   </g>
   <g id="patch_16">
    <path clip-path="url(#pe39492bec3)" d="M 113.953155 244.317187 
L 114.876169 244.317187 
L 114.876169 244.009787 
L 113.953155 244.009787 
z
" style="fill:#a62205;"/>
   </g>
   <g id="patch_17">
    <path clip-path="url(#pe39492bec3)" d="M 115.106922 244.317187 
L 116.029935 244.317187 
L 116.029935 244.06102 
L 115.106922 244.06102 
z
" style="fill:#a62205;"/>
   </g>
   <g id="patch_18">
    <path clip-path="url(#pe39492bec3)" d="M 116.260689 244.317187 
L 117.183702 244.317187 
L 117.183702 243.548685 
L 116.260689 243.548685 
z
" style="fill:#a62205;"/>
   </g>
   <g id="patch_19">
    <path clip-path="url(#pe39492bec3)" d="M 118.568222 244.317187 
L 119.491235 244.317187 
L 119.491235 242.985117 
L 118.568222 242.985117 
z
" style="fill:#a62205;"/>
   </g>
   <g id="patch_20">
    <path clip-path="url(#pe39492bec3)" d="M 119.721989 244.317187 
L 120.645002 244.317187 
L 120.645002 242.370315 
L 119.721989 242.370315 
z
" style="fill:#a62205;"/>
   </g>
   <g id="patch_21">
    <path clip-path="url(#pe39492bec3)" d="M 120.875755 244.317187 
L 121.798768 244.317187 
L 121.798768 242.370315 
L 120.875755 242.370315 
z
" style="fill:#a62205;"/>
   </g>
   <g id="patch_22">
    <path clip-path="url(#pe39492bec3)" d="M 122.029522 244.317187 
L 122.952535 244.317187 
L 122.952535 243.292518 
L 122.029522 243.292518 
z
" style="fill:#a62205;"/>
   </g>
   <g id="patch_23">
    <path clip-path="url(#pe39492bec3)" d="M 123.183288 244.317187 
L 124.106302 244.317187 
L 124.106302 241.55058 
L 123.183288 241.55058 
z
" style="fill:#a62205;"/>
   </g>
   <g id="patch_24">
    <path clip-path="url(#pe39492bec3)" d="M 124.337055 244.317187 
L 125.260068 244.317187 
L 125.260068 239.808642 
L 124.337055 239.808642 
z
" style="fill:#a62205;"/>
   </g>
   <g id="patch_25">
    <path clip-path="url(#pe39492bec3)" d="M 125.490822 244.317187 
L 126.413835 244.317187 
L 126.413835 239.245073 
L 125.490822 239.245073 
z
" style="fill:#a62205;"/>
   </g>
   <g id="patch_26">
    <path clip-path="url(#pe39492bec3)" d="M 126.644588 244.317187 
L 127.567602 244.317187 
L 127.567602 236.273532 
L 126.644588 236.273532 
z
" style="fill:#a62205;"/>
   </g>
   <g id="patch_27">
    <path clip-path="url(#pe39492bec3)" d="M 127.798355 244.317187 
L 128.721368 244.317187 
L 128.721368 230.176748 
L 127.798355 230.176748 
z
" style="fill:#a62205;"/>
   </g>
   <g id="patch_28">
    <path clip-path="url(#pe39492bec3)" d="M 128.952122 244.317187 
L 129.875135 244.317187 
L 129.875135 237.605602 
L 128.952122 237.605602 
z
" style="fill:#a62205;"/>
   </g>
   <g id="patch_29">
    <path clip-path="url(#pe39492bec3)" d="M 130.105888 244.317187 
L 131.028902 244.317187 
L 131.028902 225.514501 
L 130.105888 225.514501 
z
" style="fill:#a62205;"/>
   </g>
   <g id="patch_30">
    <path clip-path="url(#pe39492bec3)" d="M 131.259655 244.317187 
L 132.182668 244.317187 
L 132.182668 239.19384 
L 131.259655 239.19384 
z
" style="fill:#a62205;"/>
   </g>
   <g id="patch_31">
    <path clip-path="url(#pe39492bec3)" d="M 132.413421 244.317187 
L 133.336435 244.317187 
L 133.336435 212.552432 
L 132.413421 212.552432 
z
" style="fill:#a62205;"/>
   </g>
   <g id="patch_32">
    <path clip-path="url(#pe39492bec3)" d="M 133.567188 244.317187 
L 134.490201 244.317187 
L 134.490201 208.40252 
L 133.567188 208.40252 
z
" style="fill:#a62205;"/>
   </g>
   <g id="patch_33">
    <path clip-path="url(#pe39492bec3)" d="M 134.720955 244.317187 
L 135.643968 244.317187 
L 135.643968 212.706132 
L 134.720955 212.706132 
z
" style="fill:#a62205;"/>
   </g>
   <g id="patch_34">
    <path clip-path="url(#pe39492bec3)" d="M 135.874721 244.317187 
L 136.797735 244.317187 
L 136.797735 211.835163 
L 135.874721 211.835163 
z
" style="fill:#a62205;"/>
   </g>
   <g id="patch_35">
    <path clip-path="url(#pe39492bec3)" d="M 137.028488 244.317187 
L 137.951501 244.317187 
L 137.951501 211.220361 
L 137.028488 211.220361 
z
" style="fill:#a62205;"/>
   </g>
   <g id="patch_36">
    <path clip-path="url(#pe39492bec3)" d="M 138.182255 244.317187 
L 139.105268 244.317187 
L 139.105268 206.609348 
L 138.182255 206.609348 
z
" style="fill:#a62205;"/>
   </g>
   <g id="patch_37">
    <path clip-path="url(#pe39492bec3)" d="M 139.336021 244.317187 
L 140.259035 244.317187 
L 140.259035 201.639701 
L 139.336021 201.639701 
z
" style="fill:#a62205;"/>
   </g>
   <g id="patch_38">
    <path clip-path="url(#pe39492bec3)" d="M 140.489788 244.317187 
L 141.412801 244.317187 
L 141.412801 183.912918 
L 140.489788 183.912918 
z
" style="fill:#a62205;"/>
   </g>
   <g id="patch_39">
    <path clip-path="url(#pe39492bec3)" d="M 141.643554 244.317187 
L 142.566568 244.317187 
L 142.566568 187.396794 
L 141.643554 187.396794 
z
" style="fill:#a62205;"/>
   </g>
   <g id="patch_40">
    <path clip-path="url(#pe39492bec3)" d="M 142.797321 244.317187 
L 143.720334 244.317187 
L 143.720334 189.753534 
L 142.797321 189.753534 
z
" style="fill:#a62205;"/>
   </g>
   <g id="patch_41">
    <path clip-path="url(#pe39492bec3)" d="M 143.951088 244.317187 
L 144.874101 244.317187 
L 144.874101 158.757281 
L 143.951088 158.757281 
z
" style="fill:#a62205;"/>
   </g>
   <g id="patch_42">
    <path clip-path="url(#pe39492bec3)" d="M 145.104854 244.317187 
L 146.027868 244.317187 
L 146.027868 180.070407 
L 145.104854 180.070407 
z
" style="fill:#a62205;"/>
   </g>
   <g id="patch_43">
    <path clip-path="url(#pe39492bec3)" d="M 146.258621 244.317187 
L 147.181634 244.317187 
L 147.181634 174.281024 
L 146.258621 174.281024 
z
" style="fill:#a62205;"/>
   </g>
   <g id="patch_44">
    <path clip-path="url(#pe39492bec3)" d="M 147.412388 244.317187 
L 148.335401 244.317187 
L 148.335401 161.933756 
L 147.412388 161.933756 
z
" style="fill:#a62205;"/>
   </g>
   <g id="patch_45">
    <path clip-path="url(#pe39492bec3)" d="M 148.566154 244.317187 
L 149.489168 244.317187 
L 149.489168 185.142521 
L 148.566154 185.142521 
z
" style="fill:#a62205;"/>
   </g>
   <g id="patch_46">
    <path clip-path="url(#pe39492bec3)" d="M 149.719921 244.317187 
L 150.642934 244.317187 
L 150.642934 181.300011 
L 149.719921 181.300011 
z
" style="fill:#a62205;"/>
   </g>
   <g id="patch_47">
    <path clip-path="url(#pe39492bec3)" d="M 150.873687 244.317187 
L 151.796701 244.317187 
L 151.796701 173.000187 
L 150.873687 173.000187 
z
" style="fill:#a62205;"/>
   </g>
   <g id="patch_48">
    <path clip-path="url(#pe39492bec3)" d="M 152.027454 244.317187 
L 152.950467 244.317187 
L 152.950467 168.696575 
L 152.027454 168.696575 
z
" style="fill:#a62205;"/>
   </g>
   <g id="patch_49">
    <path clip-path="url(#pe39492bec3)" d="M 153.181221 244.317187 
L 154.104234 244.317187 
L 154.104234 173.461289 
L 153.181221 173.461289 
z
" style="fill:#a62205;"/>
   </g>
   <g id="patch_50">
    <path clip-path="url(#pe39492bec3)" d="M 154.334987 244.317187 
L 155.258001 244.317187 
L 155.258001 184.374019 
L 154.334987 184.374019 
z
" style="fill:#a62205;"/>
   </g>
   <g id="patch_51">
    <path clip-path="url(#pe39492bec3)" d="M 155.488754 244.317187 
L 156.411767 244.317187 
L 156.411767 189.753534 
L 155.488754 189.753534 
z
" style="fill:#a62205;"/>
   </g>
   <g id="patch_52">
    <path clip-path="url(#pe39492bec3)" d="M 156.642521 244.317187 
L 157.565534 244.317187 
L 157.565534 177.867368 
L 156.642521 177.867368 
z
" style="fill:#a62205;"/>
   </g>
   <g id="patch_53">
    <path clip-path="url(#pe39492bec3)" d="M 157.796287 244.317187 
L 158.719301 244.317187 
L 158.719301 173.461289 
L 157.796287 173.461289 
z
" style="fill:#a62205;"/>
   </g>
   <g id="patch_54">
    <path clip-path="url(#pe39492bec3)" d="M 158.950054 244.317187 
L 159.873067 244.317187 
L 159.873067 176.791465 
L 158.950054 176.791465 
z
" style="fill:#a62205;"/>
   </g>
   <g id="patch_55">
    <path clip-path="url(#pe39492bec3)" d="M 160.103821 244.317187 
L 161.026834 244.317187 
L 161.026834 156.656708 
L 160.103821 156.656708 
z
" style="fill:#a62205;"/>
   </g>
   <g id="patch_56">
    <path clip-path="url(#pe39492bec3)" d="M 161.257587 244.317187 
L 162.1806 244.317187 
L 162.1806 152.506797 
L 161.257587 152.506797 
z
" style="fill:#a62205;"/>
   </g>
   <g id="patch_57">
    <path clip-path="url(#pe39492bec3)" d="M 162.411354 244.317187 
L 163.334367 244.317187 
L 163.334367 169.003976 
L 162.411354 169.003976 
z
" style="fill:#a62205;"/>
   </g>
   <g id="patch_58">
    <path clip-path="url(#pe39492bec3)" d="M 163.56512 244.317187 
L 164.488134 244.317187 
L 164.488134 170.950848 
L 163.56512 170.950848 
z
" style="fill:#a62205;"/>
   </g>
   <g id="patch_59">
    <path clip-path="url(#pe39492bec3)" d="M 164.718887 244.317187 
L 165.6419 244.317187 
L 165.6419 139.544727 
L 164.718887 139.544727 
z
" style="fill:#a62205;"/>
   </g>
   <g id="patch_60">
    <path clip-path="url(#pe39492bec3)" d="M 165.872654 244.317187 
L 166.795667 244.317187 
L 166.795667 162.804725 
L 165.872654 162.804725 
z
" style="fill:#a62205;"/>
   </g>
   <g id="patch_61">
    <path clip-path="url(#pe39492bec3)" d="M 167.02642 244.317187 
L 167.949434 244.317187 
L 167.949434 153.7364 
L 167.02642 153.7364 
z
" style="fill:#a62205;"/>
   </g>
   <g id="patch_62">
    <path clip-path="url(#pe39492bec3)" d="M 168.180187 244.317187 
L 169.1032 244.317187 
L 169.1032 145.948912 
L 168.180187 145.948912 
z
" style="fill:#a62205;"/>
   </g>
   <g id="patch_63">
    <path clip-path="url(#pe39492bec3)" d="M 169.333954 244.317187 
L 170.256967 244.317187 
L 170.256967 153.224065 
L 169.333954 153.224065 
z
" style="fill:#a62205;"/>
   </g>
   <g id="patch_64">
    <path clip-path="url(#pe39492bec3)" d="M 170.48772 244.317187 
L 171.410733 244.317187 
L 171.410733 169.20891 
L 170.48772 169.20891 
z
" style="fill:#a62205;"/>
   </g>
   <g id="patch_65">
    <path clip-path="url(#pe39492bec3)" d="M 171.641487 244.317187 
L 172.5645 244.317187 
L 172.5645 165.366399 
L 171.641487 165.366399 
z
" style="fill:#a62205;"/>
   </g>
   <g id="patch_66">
    <path clip-path="url(#pe39492bec3)" d="M 172.795253 244.317187 
L 173.718267 244.317187 
L 173.718267 162.087457 
L 172.795253 162.087457 
z
" style="fill:#a62205;"/>
   </g>
   <g id="patch_67">
    <path clip-path="url(#pe39492bec3)" d="M 173.94902 244.317187 
L 174.872033 244.317187 
L 174.872033 166.134902 
L 173.94902 166.134902 
z
" style="fill:#a62205;"/>
   </g>
   <g id="patch_68">
    <path clip-path="url(#pe39492bec3)" d="M 175.102787 244.317187 
L 176.0258 244.317187 
L 176.0258 163.829395 
L 175.102787 163.829395 
z
" style="fill:#a62205;"/>
   </g>
   <g id="patch_69">
    <path clip-path="url(#pe39492bec3)" d="M 176.256553 244.317187 
L 177.179567 244.317187 
L 177.179567 160.345519 
L 176.256553 160.345519 
z
" style="fill:#a62205;"/>
   </g>
   <g id="patch_70">
    <path clip-path="url(#pe39492bec3)" d="M 177.41032 244.317187 
L 178.333333 244.317187 
L 178.333333 150.816092 
L 177.41032 150.816092 
z
" style="fill:#a62205;"/>
   </g>
   <g id="patch_71">
    <path clip-path="url(#pe39492bec3)" d="M 178.564087 244.317187 
L 179.4871 244.317187 
L 179.4871 159.62825 
L 178.564087 159.62825 
z
" style="fill:#a62205;"/>
   </g>
   <g id="patch_72">
    <path clip-path="url(#pe39492bec3)" d="M 179.717853 244.317187 
L 180.640866 244.317187 
L 180.640866 102.912791 
L 179.717853 102.912791 
z
" style="fill:#a62205;"/>
   </g>
   <g id="patch_73">
    <path clip-path="url(#pe39492bec3)" d="M 180.87162 244.317187 
L 181.794633 244.317187 
L 181.794633 177.816134 
L 180.87162 177.816134 
z
" style="fill:#a62205;"/>
   </g>
   <g id="patch_74">
    <path clip-path="url(#pe39492bec3)" d="M 182.025386 244.317187 
L 182.9484 244.317187 
L 182.9484 179.045738 
L 182.025386 179.045738 
z
" style="fill:#a62205;"/>
   </g>
   <g id="patch_75">
    <path clip-path="url(#pe39492bec3)" d="M 183.179153 244.317187 
L 184.102166 244.317187 
L 184.102166 170.028646 
L 183.179153 170.028646 
z
" style="fill:#a62205;"/>
   </g>
   <g id="patch_76">
    <path clip-path="url(#pe39492bec3)" d="M 184.33292 244.317187 
L 185.255933 244.317187 
L 185.255933 171.258249 
L 184.33292 171.258249 
z
" style="fill:#a62205;"/>
   </g>
   <g id="patch_77">
    <path clip-path="url(#pe39492bec3)" d="M 185.486686 244.317187 
L 186.4097 244.317187 
L 186.4097 166.85217 
L 185.486686 166.85217 
z
" style="fill:#a62205;"/>
   </g>
   <g id="patch_78">
    <path clip-path="url(#pe39492bec3)" d="M 186.640453 244.317187 
L 187.563466 244.317187 
L 187.563466 179.353139 
L 186.640453 179.353139 
z
" style="fill:#a62205;"/>
   </g>
   <g id="patch_79">
    <path clip-path="url(#pe39492bec3)" d="M 187.79422 244.317187 
L 188.717233 244.317187 
L 188.717233 185.603623 
L 187.79422 185.603623 
z
" style="fill:#a62205;"/>
   </g>
   <g id="patch_80">
    <path clip-path="url(#pe39492bec3)" d="M 188.947986 244.317187 
L 189.871 244.317187 
L 189.871 186.269658 
L 188.947986 186.269658 
z
" style="fill:#a62205;"/>
   </g>
   <g id="patch_81">
    <path clip-path="url(#pe39492bec3)" d="M 190.101753 244.317187 
L 191.024766 244.317187 
L 191.024766 184.066618 
L 190.101753 184.066618 
z
" style="fill:#a62205;"/>
   </g>
   <g id="patch_82">
    <path clip-path="url(#pe39492bec3)" d="M 191.255519 244.317187 
L 192.178533 244.317187 
L 192.178533 186.88446 
L 191.255519 186.88446 
z
" style="fill:#a62205;"/>
   </g>
   <g id="patch_83">
    <path clip-path="url(#pe39492bec3)" d="M 192.409286 244.317187 
L 193.332299 244.317187 
L 193.332299 182.32468 
L 192.409286 182.32468 
z
" style="fill:#a62205;"/>
   </g>
   <g id="patch_84">
    <path clip-path="url(#pe39492bec3)" d="M 193.563053 244.317187 
L 194.486066 244.317187 
L 194.486066 186.679526 
L 193.563053 186.679526 
z
" style="fill:#a62205;"/>
   </g>
   <g id="patch_85">
    <path clip-path="url(#pe39492bec3)" d="M 194.716819 244.317187 
L 195.639833 244.317187 
L 195.639833 180.224108 
L 194.716819 180.224108 
z
" style="fill:#a62205;"/>
   </g>
   <g id="patch_86">
    <path clip-path="url(#pe39492bec3)" d="M 195.870586 244.317187 
L 196.793599 244.317187 
L 196.793599 186.013491 
L 195.870586 186.013491 
z
" style="fill:#a62205;"/>
   </g>
   <g id="patch_87">
    <path clip-path="url(#pe39492bec3)" d="M 197.024353 244.317187 
L 197.947366 244.317187 
L 197.947366 189.497367 
L 197.024353 189.497367 
z
" style="fill:#a62205;"/>
   </g>
   <g id="patch_88">
    <path clip-path="url(#pe39492bec3)" d="M 198.178119 244.317187 
L 199.101133 244.317187 
L 199.101133 191.034371 
L 198.178119 191.034371 
z
" style="fill:#a62205;"/>
   </g>
   <g id="patch_89">
    <path clip-path="url(#pe39492bec3)" d="M 199.331886 244.317187 
L 200.254899 244.317187 
L 200.254899 192.520142 
L 199.331886 192.520142 
z
" style="fill:#a62205;"/>
   </g>
   <g id="patch_90">
    <path clip-path="url(#pe39492bec3)" d="M 200.485652 244.317187 
L 201.408666 244.317187 
L 201.408666 182.785782 
L 200.485652 182.785782 
z
" style="fill:#a62205;"/>
   </g>
   <g id="patch_91">
    <path clip-path="url(#pe39492bec3)" d="M 201.639419 244.317187 
L 202.562432 244.317187 
L 202.562432 185.091288 
L 201.639419 185.091288 
z
" style="fill:#a62205;"/>
   </g>
   <g id="patch_92">
    <path clip-path="url(#pe39492bec3)" d="M 202.793186 244.317187 
L 203.716199 244.317187 
L 203.716199 185.85979 
L 202.793186 185.85979 
z
" style="fill:#a62205;"/>
   </g>
   <g id="patch_93">
    <path clip-path="url(#pe39492bec3)" d="M 203.946952 244.317187 
L 204.869966 244.317187 
L 204.869966 189.087499 
L 203.946952 189.087499 
z
" style="fill:#a62205;"/>
   </g>
   <g id="patch_94">
    <path clip-path="url(#pe39492bec3)" d="M 205.100719 244.317187 
L 206.023732 244.317187 
L 206.023732 192.468909 
L 205.100719 192.468909 
z
" style="fill:#a62205;"/>
   </g>
   <g id="patch_95">
    <path clip-path="url(#pe39492bec3)" d="M 206.254486 244.317187 
L 207.177499 244.317187 
L 207.177499 196.362653 
L 206.254486 196.362653 
z
" style="fill:#a62205;"/>
   </g>
   <g id="patch_96">
    <path clip-path="url(#pe39492bec3)" d="M 207.408252 244.317187 
L 208.331266 244.317187 
L 208.331266 199.641596 
L 207.408252 199.641596 
z
" style="fill:#a62205;"/>
   </g>
   <g id="patch_97">
    <path clip-path="url(#pe39492bec3)" d="M 208.562019 244.317187 
L 209.485032 244.317187 
L 209.485032 193.442345 
L 208.562019 193.442345 
z
" style="fill:#a62205;"/>
   </g>
   <g id="patch_98">
    <path clip-path="url(#pe39492bec3)" d="M 209.715786 244.317187 
L 210.638799 244.317187 
L 210.638799 197.899657 
L 209.715786 197.899657 
z
" style="fill:#a62205;"/>
   </g>
   <g id="patch_99">
    <path clip-path="url(#pe39492bec3)" d="M 210.869552 244.317187 
L 211.792565 244.317187 
L 211.792565 204.764943 
L 210.869552 204.764943 
z
" style="fill:#a62205;"/>
   </g>
   <g id="patch_100">
    <path clip-path="url(#pe39492bec3)" d="M 212.023319 244.317187 
L 212.946332 244.317187 
L 212.946332 205.533445 
L 212.023319 205.533445 
z
" style="fill:#a62205;"/>
   </g>
   <g id="patch_101">
    <path clip-path="url(#pe39492bec3)" d="M 213.177085 244.317187 
L 214.100099 244.317187 
L 214.100099 205.482212 
L 213.177085 205.482212 
z
" style="fill:#a62205;"/>
   </g>
   <g id="patch_102">
    <path clip-path="url(#pe39492bec3)" d="M 214.330852 244.317187 
L 215.253865 244.317187 
L 215.253865 208.197586 
L 214.330852 208.197586 
z
" style="fill:#a62205;"/>
   </g>
   <g id="patch_103">
    <path clip-path="url(#pe39492bec3)" d="M 215.484619 244.317187 
L 216.407632 244.317187 
L 216.407632 209.73459 
L 215.484619 209.73459 
z
" style="fill:#a62205;"/>
   </g>
   <g id="patch_104">
    <path clip-path="url(#pe39492bec3)" d="M 216.638385 244.317187 
L 217.561399 244.317187 
L 217.561399 211.476529 
L 216.638385 211.476529 
z
" style="fill:#a62205;"/>
   </g>
   <g id="patch_105">
    <path clip-path="url(#pe39492bec3)" d="M 217.792152 244.317187 
L 218.715165 244.317187 
L 218.715165 213.116 
L 217.792152 213.116 
z
" style="fill:#a62205;"/>
   </g>
   <g id="patch_106">
    <path clip-path="url(#pe39492bec3)" d="M 218.945919 244.317187 
L 219.868932 244.317187 
L 219.868932 207.326617 
L 218.945919 207.326617 
z
" style="fill:#a62205;"/>
   </g>
   <g id="patch_107">
    <path clip-path="url(#pe39492bec3)" d="M 220.099685 244.317187 
L 221.022698 244.317187 
L 221.022698 211.425295 
L 220.099685 211.425295 
z
" style="fill:#a62205;"/>
   </g>
   <g id="patch_108">
    <path clip-path="url(#pe39492bec3)" d="M 221.253452 244.317187 
L 222.176465 244.317187 
L 222.176465 216.394943 
L 221.253452 216.394943 
z
" style="fill:#a62205;"/>
   </g>
   <g id="patch_109">
    <path clip-path="url(#pe39492bec3)" d="M 222.407218 244.317187 
L 223.330232 244.317187 
L 223.330232 223.362695 
L 222.407218 223.362695 
z
" style="fill:#a62205;"/>
   </g>
   <g id="patch_110">
    <path clip-path="url(#pe39492bec3)" d="M 223.560985 244.317187 
L 224.483998 244.317187 
L 224.483998 220.134986 
L 223.560985 220.134986 
z
" style="fill:#a62205;"/>
   </g>
   <g id="patch_111">
    <path clip-path="url(#pe39492bec3)" d="M 224.714752 244.317187 
L 225.637765 244.317187 
L 225.637765 223.567629 
L 224.714752 223.567629 
z
" style="fill:#a62205;"/>
   </g>
   <g id="patch_112">
    <path clip-path="url(#pe39492bec3)" d="M 225.868518 244.317187 
L 226.791532 244.317187 
L 226.791532 223.157761 
L 225.868518 223.157761 
z
" style="fill:#a62205;"/>
   </g>
   <g id="patch_113">
    <path clip-path="url(#pe39492bec3)" d="M 227.022285 244.317187 
L 227.945298 244.317187 
L 227.945298 220.391154 
L 227.022285 220.391154 
z
" style="fill:#a62205;"/>
   </g>
   <g id="patch_114">
    <path clip-path="url(#pe39492bec3)" d="M 228.176052 244.317187 
L 229.099065 244.317187 
L 229.099065 225.002167 
L 228.176052 225.002167 
z
" style="fill:#a62205;"/>
   </g>
   <g id="patch_115">
    <path clip-path="url(#pe39492bec3)" d="M 229.329818 244.317187 
L 230.252831 244.317187 
L 230.252831 225.873136 
L 229.329818 225.873136 
z
" style="fill:#a62205;"/>
   </g>
   <g id="patch_116">
    <path clip-path="url(#pe39492bec3)" d="M 230.483585 244.317187 
L 231.406598 244.317187 
L 231.406598 227.922475 
L 230.483585 227.922475 
z
" style="fill:#a62205;"/>
   </g>
   <g id="patch_117">
    <path clip-path="url(#pe39492bec3)" d="M 231.637351 244.317187 
L 232.560365 244.317187 
L 232.560365 224.541065 
L 231.637351 224.541065 
z
" style="fill:#a62205;"/>
   </g>
   <g id="patch_118">
    <path clip-path="url(#pe39492bec3)" d="M 232.791118 244.317187 
L 233.714131 244.317187 
L 233.714131 225.514501 
L 232.791118 225.514501 
z
" style="fill:#a62205;"/>
   </g>
   <g id="patch_119">
    <path clip-path="url(#pe39492bec3)" d="M 233.944885 244.317187 
L 234.867898 244.317187 
L 234.867898 223.362695 
L 233.944885 223.362695 
z
" style="fill:#a62205;"/>
   </g>
   <g id="patch_120">
    <path clip-path="url(#pe39492bec3)" d="M 235.098651 244.317187 
L 236.021665 244.317187 
L 236.021665 224.336131 
L 235.098651 224.336131 
z
" style="fill:#a62205;"/>
   </g>
   <g id="patch_121">
    <path clip-path="url(#pe39492bec3)" d="M 236.252418 244.317187 
L 237.175431 244.317187 
L 237.175431 228.024942 
L 236.252418 228.024942 
z
" style="fill:#a62205;"/>
   </g>
   <g id="patch_122">
    <path clip-path="url(#pe39492bec3)" d="M 237.406185 244.317187 
L 238.329198 244.317187 
L 238.329198 228.947144 
L 237.406185 228.947144 
z
" style="fill:#a62205;"/>
   </g>
   <g id="patch_123">
    <path clip-path="url(#pe39492bec3)" d="M 238.559951 244.317187 
L 239.482964 244.317187 
L 239.482964 227.615074 
L 238.559951 227.615074 
z
" style="fill:#a62205;"/>
   </g>
   <g id="patch_124">
    <path clip-path="url(#pe39492bec3)" d="M 239.713718 244.317187 
L 240.636731 244.317187 
L 240.636731 230.023047 
L 239.713718 230.023047 
z
" style="fill:#a62205;"/>
   </g>
   <g id="patch_125">
    <path clip-path="url(#pe39492bec3)" d="M 240.867484 244.317187 
L 241.790498 244.317187 
L 241.790498 224.848466 
L 240.867484 224.848466 
z
" style="fill:#a62205;"/>
   </g>
   <g id="patch_126">
    <path clip-path="url(#pe39492bec3)" d="M 242.021251 244.317187 
L 242.944264 244.317187 
L 242.944264 235.505029 
L 242.021251 235.505029 
z
" style="fill:#a62205;"/>
   </g>
   <g id="patch_127">
    <path clip-path="url(#pe39492bec3)" d="M 243.175018 244.317187 
L 244.098031 244.317187 
L 244.098031 232.12362 
L 243.175018 232.12362 
z
" style="fill:#a62205;"/>
   </g>
   <g id="patch_128">
    <path clip-path="url(#pe39492bec3)" d="M 244.328784 244.317187 
L 245.251798 244.317187 
L 245.251798 233.14829 
L 244.328784 233.14829 
z
" style="fill:#a62205;"/>
   </g>
   <g id="patch_129">
    <path clip-path="url(#pe39492bec3)" d="M 245.482551 244.317187 
L 246.405564 244.317187 
L 246.405564 210.093225 
L 245.482551 210.093225 
z
" style="fill:#a62205;"/>
   </g>
   <g id="patch_130">
    <path clip-path="url(#pe39492bec3)" d="M 246.636318 244.317187 
L 247.559331 244.317187 
L 247.559331 229.664413 
L 246.636318 229.664413 
z
" style="fill:#a62205;"/>
   </g>
   <g id="patch_131">
    <path clip-path="url(#pe39492bec3)" d="M 247.790084 244.317187 
L 248.713098 244.317187 
L 248.713098 244.317187 
L 247.790084 244.317187 
z
" style="fill:#a62205;"/>
   </g>
   <g id="patch_132">
    <path clip-path="url(#pe39492bec3)" d="M 248.943851 244.317187 
L 249.866864 244.317187 
L 249.866864 215.267806 
L 248.943851 215.267806 
z
" style="fill:#a62205;"/>
   </g>
   <g id="patch_133">
    <path clip-path="url(#pe39492bec3)" d="M 250.097617 244.317187 
L 251.020631 244.317187 
L 251.020631 227.973708 
L 250.097617 227.973708 
z
" style="fill:#a62205;"/>
   </g>
   <g id="patch_134">
    <path clip-path="url(#pe39492bec3)" d="M 251.251384 244.317187 
L 252.174397 244.317187 
L 252.174397 232.738422 
L 251.251384 232.738422 
z
" style="fill:#a62205;"/>
   </g>
   <g id="patch_135">
    <path clip-path="url(#pe39492bec3)" d="M 252.405151 244.317187 
L 253.328164 244.317187 
L 253.328164 233.097056 
L 252.405151 233.097056 
z
" style="fill:#a62205;"/>
   </g>
   <g id="patch_136">
    <path clip-path="url(#pe39492bec3)" d="M 253.558917 244.317187 
L 254.481931 244.317187 
L 254.481931 223.87503 
L 253.558917 223.87503 
z
" style="fill:#a62205;"/>
   </g>
   <g id="patch_137">
    <path clip-path="url(#pe39492bec3)" d="M 254.712684 244.317187 
L 255.635697 244.317187 
L 255.635697 232.431021 
L 254.712684 232.431021 
z
" style="fill:#a62205;"/>
   </g>
   <g id="patch_138">
    <path clip-path="url(#pe39492bec3)" d="M 255.866451 244.317187 
L 256.789464 244.317187 
L 256.789464 230.637849 
L 255.866451 230.637849 
z
" style="fill:#a62205;"/>
   </g>
   <g id="patch_139">
    <path clip-path="url(#pe39492bec3)" d="M 257.020217 244.317187 
L 257.943231 244.317187 
L 257.943231 225.309568 
L 257.020217 225.309568 
z
" style="fill:#a62205;"/>
   </g>
   <g id="patch_140">
    <path clip-path="url(#pe39492bec3)" d="M 258.173984 244.317187 
L 259.096997 244.317187 
L 259.096997 227.871241 
L 258.173984 227.871241 
z
" style="fill:#a62205;"/>
   </g>
   <g id="patch_141">
    <path clip-path="url(#pe39492bec3)" d="M 259.32775 244.317187 
L 260.250764 244.317187 
L 260.250764 232.994589 
L 259.32775 232.994589 
z
" style="fill:#a62205;"/>
   </g>
   <g id="patch_142">
    <path clip-path="url(#pe39492bec3)" d="M 260.481517 244.317187 
L 261.40453 244.317187 
L 261.40453 231.816219 
L 260.481517 231.816219 
z
" style="fill:#a62205;"/>
   </g>
   <g id="patch_143">
    <path clip-path="url(#pe39492bec3)" d="M 261.635284 244.317187 
L 262.558297 244.317187 
L 262.558297 215.370273 
L 261.635284 215.370273 
z
" style="fill:#a62205;"/>
   </g>
   <g id="patch_144">
    <path clip-path="url(#pe39492bec3)" d="M 262.78905 244.317187 
L 263.712064 244.317187 
L 263.712064 227.358907 
L 262.78905 227.358907 
z
" style="fill:#a62205;"/>
   </g>
   <g id="patch_145">
    <path clip-path="url(#pe39492bec3)" d="M 263.942817 244.317187 
L 264.86583 244.317187 
L 264.86583 226.846572 
L 263.942817 226.846572 
z
" style="fill:#a62205;"/>
   </g>
   <g id="patch_146">
    <path clip-path="url(#pe39492bec3)" d="M 265.096584 244.317187 
L 266.019597 244.317187 
L 266.019597 221.928158 
L 265.096584 221.928158 
z
" style="fill:#a62205;"/>
   </g>
   <g id="patch_147">
    <path clip-path="url(#pe39492bec3)" d="M 266.25035 244.317187 
L 267.173364 244.317187 
L 267.173364 223.567629 
L 266.25035 223.567629 
z
" style="fill:#a62205;"/>
   </g>
   <g id="patch_148">
    <path clip-path="url(#pe39492bec3)" d="M 267.404117 244.317187 
L 268.32713 244.317187 
L 268.32713 227.41014 
L 267.404117 227.41014 
z
" style="fill:#a62205;"/>
   </g>
   <g id="patch_149">
    <path clip-path="url(#pe39492bec3)" d="M 268.557884 244.317187 
L 269.480897 244.317187 
L 269.480897 226.949039 
L 268.557884 226.949039 
z
" style="fill:#a62205;"/>
   </g>
   <g id="patch_150">
    <path clip-path="url(#pe39492bec3)" d="M 269.71165 244.317187 
L 270.634663 244.317187 
L 270.634663 204.047675 
L 269.71165 204.047675 
z
" style="fill:#a62205;"/>
   </g>
   <g id="patch_151">
    <path clip-path="url(#pe39492bec3)" d="M 270.865417 244.317187 
L 271.78843 244.317187 
L 271.78843 214.960405 
L 270.865417 214.960405 
z
" style="fill:#a62205;"/>
   </g>
   <g id="patch_152">
    <path clip-path="url(#pe39492bec3)" d="M 272.019183 244.317187 
L 272.942197 244.317187 
L 272.942197 216.497409 
L 272.019183 216.497409 
z
" style="fill:#a62205;"/>
   </g>
   <g id="patch_153">
    <path clip-path="url(#pe39492bec3)" d="M 273.17295 244.317187 
L 274.095963 244.317187 
L 274.095963 222.184325 
L 273.17295 222.184325 
z
" style="fill:#a62205;"/>
   </g>
   <g id="patch_154">
    <path clip-path="url(#pe39492bec3)" d="M 274.326717 244.317187 
L 275.24973 244.317187 
L 275.24973 216.958511 
L 274.326717 216.958511 
z
" style="fill:#a62205;"/>
   </g>
   <g id="patch_155">
    <path clip-path="url(#pe39492bec3)" d="M 275.480483 244.317187 
L 276.403497 244.317187 
L 276.403497 226.385471 
L 275.480483 226.385471 
z
" style="fill:#a62205;"/>
   </g>
   <g id="patch_156">
    <path clip-path="url(#pe39492bec3)" d="M 276.63425 244.317187 
L 277.557263 244.317187 
L 277.557263 226.129303 
L 276.63425 226.129303 
z
" style="fill:#a62205;"/>
   </g>
   <g id="patch_157">
    <path clip-path="url(#pe39492bec3)" d="M 277.788017 244.317187 
L 278.71103 244.317187 
L 278.71103 209.171022 
L 277.788017 209.171022 
z
" style="fill:#a62205;"/>
   </g>
   <g id="patch_158">
    <path clip-path="url(#pe39492bec3)" d="M 278.941783 244.317187 
L 279.864796 244.317187 
L 279.864796 223.977497 
L 278.941783 223.977497 
z
" style="fill:#a62205;"/>
   </g>
   <g id="patch_159">
    <path clip-path="url(#pe39492bec3)" d="M 280.09555 244.317187 
L 281.018563 244.317187 
L 281.018563 223.208995 
L 280.09555 223.208995 
z
" style="fill:#a62205;"/>
   </g>
   <g id="patch_160">
    <path clip-path="url(#pe39492bec3)" d="M 281.249316 244.317187 
L 282.17233 244.317187 
L 282.17233 224.182431 
L 281.249316 224.182431 
z
" style="fill:#a62205;"/>
   </g>
   <g id="patch_161">
    <path clip-path="url(#pe39492bec3)" d="M 282.403083 244.317187 
L 283.326096 244.317187 
L 283.326096 218.034414 
L 282.403083 218.034414 
z
" style="fill:#a62205;"/>
   </g>
   <g id="patch_162">
    <path clip-path="url(#pe39492bec3)" d="M 283.55685 244.317187 
L 284.479863 244.317187 
L 284.479863 229.61318 
L 283.55685 229.61318 
z
" style="fill:#a62205;"/>
   </g>
   <g id="patch_163">
    <path clip-path="url(#pe39492bec3)" d="M 284.710616 244.317187 
L 285.63363 244.317187 
L 285.63363 229.715647 
L 284.710616 229.715647 
z
" style="fill:#a62205;"/>
   </g>
   <g id="patch_164">
    <path clip-path="url(#pe39492bec3)" d="M 285.864383 244.317187 
L 286.787396 244.317187 
L 286.787396 236.785866 
L 285.864383 236.785866 
z
" style="fill:#a62205;"/>
   </g>
   <g id="patch_165">
    <path clip-path="url(#pe39492bec3)" d="M 287.01815 244.317187 
L 287.941163 244.317187 
L 287.941163 205.328511 
L 287.01815 205.328511 
z
" style="fill:#a62205;"/>
   </g>
   <g id="patch_166">
    <path clip-path="url(#pe39492bec3)" d="M 288.171916 244.317187 
L 289.094929 244.317187 
L 289.094929 224.079964 
L 288.171916 224.079964 
z
" style="fill:#a62205;"/>
   </g>
   <g id="patch_167">
    <path clip-path="url(#pe39492bec3)" d="M 289.325683 244.317187 
L 290.248696 244.317187 
L 290.248696 225.155867 
L 289.325683 225.155867 
z
" style="fill:#a62205;"/>
   </g>
   <g id="patch_168">
    <path clip-path="url(#pe39492bec3)" d="M 290.479449 244.317187 
L 291.402463 244.317187 
L 291.402463 222.594193 
L 290.479449 222.594193 
z
" style="fill:#a62205;"/>
   </g>
   <g id="patch_169">
    <path clip-path="url(#pe39492bec3)" d="M 291.633216 244.317187 
L 292.556229 244.317187 
L 292.556229 232.226087 
L 291.633216 232.226087 
z
" style="fill:#a62205;"/>
   </g>
   <g id="patch_170">
    <path clip-path="url(#pe39492bec3)" d="M 292.786983 244.317187 
L 293.709996 244.317187 
L 293.709996 232.533488 
L 292.786983 232.533488 
z
" style="fill:#a62205;"/>
   </g>
   <g id="patch_171">
    <path clip-path="url(#pe39492bec3)" d="M 293.940749 244.317187 
L 294.863763 244.317187 
L 294.863763 209.42719 
L 293.940749 209.42719 
z
" style="fill:#a62205;"/>
   </g>
   <g id="patch_172">
    <path clip-path="url(#pe39492bec3)" d="M 295.094516 244.317187 
L 296.017529 244.317187 
L 296.017529 229.510713 
L 295.094516 229.510713 
z
" style="fill:#a62205;"/>
   </g>
   <g id="patch_173">
    <path clip-path="url(#pe39492bec3)" d="M 296.248283 244.317187 
L 297.171296 244.317187 
L 297.171296 222.645427 
L 296.248283 222.645427 
z
" style="fill:#a62205;"/>
   </g>
   <g id="patch_174">
    <path clip-path="url(#pe39492bec3)" d="M 297.402049 244.317187 
L 298.325063 244.317187 
L 298.325063 224.336131 
L 297.402049 224.336131 
z
" style="fill:#a62205;"/>
   </g>
   <g id="patch_175">
    <path clip-path="url(#pe39492bec3)" d="M 298.555816 244.317187 
L 299.478829 244.317187 
L 299.478829 222.901594 
L 298.555816 222.901594 
z
" style="fill:#a62205;"/>
   </g>
   <g id="patch_176">
    <path clip-path="url(#pe39492bec3)" d="M 299.709582 244.317187 
L 300.632596 244.317187 
L 300.632596 232.174853 
L 299.709582 232.174853 
z
" style="fill:#a62205;"/>
   </g>
   <g id="patch_177">
    <path clip-path="url(#pe39492bec3)" d="M 300.863349 244.317187 
L 301.786362 244.317187 
L 301.786362 234.172959 
L 300.863349 234.172959 
z
" style="fill:#a62205;"/>
   </g>
   <g id="patch_178">
    <path clip-path="url(#pe39492bec3)" d="M 302.017116 244.317187 
L 302.940129 244.317187 
L 302.940129 204.098908 
L 302.017116 204.098908 
z
" style="fill:#a62205;"/>
   </g>
   <g id="patch_179">
    <path clip-path="url(#pe39492bec3)" d="M 303.170882 244.317187 
L 304.093896 244.317187 
L 304.093896 229.869347 
L 303.170882 229.869347 
z
" style="fill:#a62205;"/>
   </g>
   <g id="patch_180">
    <path clip-path="url(#pe39492bec3)" d="M 304.324649 244.317187 
L 305.247662 244.317187 
L 305.247662 227.102739 
L 304.324649 227.102739 
z
" style="fill:#a62205;"/>
   </g>
   <g id="patch_181">
    <path clip-path="url(#pe39492bec3)" d="M 305.478416 244.317187 
L 306.401429 244.317187 
L 306.401429 224.694766 
L 305.478416 224.694766 
z
" style="fill:#a62205;"/>
   </g>
   <g id="patch_182">
    <path clip-path="url(#pe39492bec3)" d="M 306.632182 244.317187 
L 307.555196 244.317187 
L 307.555196 218.751682 
L 306.632182 218.751682 
z
" style="fill:#a62205;"/>
   </g>
   <g id="patch_183">
    <path clip-path="url(#pe39492bec3)" d="M 307.785949 244.317187 
L 308.708962 244.317187 
L 308.708962 231.150184 
L 307.785949 231.150184 
z
" style="fill:#a62205;"/>
   </g>
   <g id="patch_184">
    <path clip-path="url(#pe39492bec3)" d="M 308.939715 244.317187 
L 309.862729 244.317187 
L 309.862729 230.637849 
L 308.939715 230.637849 
z
" style="fill:#a62205;"/>
   </g>
   <g id="patch_185">
    <path clip-path="url(#pe39492bec3)" d="M 310.093482 244.317187 
L 311.016495 244.317187 
L 311.016495 205.840846 
L 310.093482 205.840846 
z
" style="fill:#a62205;"/>
   </g>
   <g id="patch_186">
    <path clip-path="url(#pe39492bec3)" d="M 311.247249 244.317187 
L 312.170262 244.317187 
L 312.170262 227.820008 
L 311.247249 227.820008 
z
" style="fill:#a62205;"/>
   </g>
   <g id="patch_187">
    <path clip-path="url(#pe39492bec3)" d="M 312.401015 244.317187 
L 313.324029 244.317187 
L 313.324029 221.36459 
L 312.401015 221.36459 
z
" style="fill:#a62205;"/>
   </g>
   <g id="patch_188">
    <path clip-path="url(#pe39492bec3)" d="M 313.554782 244.317187 
L 314.477795 244.317187 
L 314.477795 223.772563 
L 313.554782 223.772563 
z
" style="fill:#a62205;"/>
   </g>
   <g id="patch_189">
    <path clip-path="url(#pe39492bec3)" d="M 314.708549 244.317187 
L 315.631562 244.317187 
L 315.631562 219.110317 
L 314.708549 219.110317 
z
" style="fill:#a62205;"/>
   </g>
   <g id="patch_190">
    <path clip-path="url(#pe39492bec3)" d="M 315.862315 244.317187 
L 316.785329 244.317187 
L 316.785329 225.719435 
L 315.862315 225.719435 
z
" style="fill:#a62205;"/>
   </g>
   <g id="patch_191">
    <path clip-path="url(#pe39492bec3)" d="M 317.016082 244.317187 
L 317.939095 244.317187 
L 317.939095 230.637849 
L 317.016082 230.637849 
z
" style="fill:#a62205;"/>
   </g>
   <g id="patch_192">
    <path clip-path="url(#pe39492bec3)" d="M 318.169848 244.317187 
L 319.092862 244.317187 
L 319.092862 192.673843 
L 318.169848 192.673843 
z
" style="fill:#a62205;"/>
   </g>
   <g id="patch_193">
    <path clip-path="url(#pe39492bec3)" d="M 319.323615 244.317187 
L 320.246628 244.317187 
L 320.246628 219.878819 
L 319.323615 219.878819 
z
" style="fill:#a62205;"/>
   </g>
   <g id="patch_194">
    <path clip-path="url(#pe39492bec3)" d="M 320.477382 244.317187 
L 321.400395 244.317187 
L 321.400395 218.802916 
L 320.477382 218.802916 
z
" style="fill:#a62205;"/>
   </g>
   <g id="patch_195">
    <path clip-path="url(#pe39492bec3)" d="M 321.631148 244.317187 
L 322.554162 244.317187 
L 322.554162 215.114106 
L 321.631148 215.114106 
z
" style="fill:#a62205;"/>
   </g>
   <g id="patch_196">
    <path clip-path="url(#pe39492bec3)" d="M 322.784915 244.317187 
L 323.707928 244.317187 
L 323.707928 211.988863 
L 322.784915 211.988863 
z
" style="fill:#a62205;"/>
   </g>
   <g id="patch_197">
    <path clip-path="url(#pe39492bec3)" d="M 323.938682 244.317187 
L 324.861695 244.317187 
L 324.861695 225.309568 
L 323.938682 225.309568 
z
" style="fill:#a62205;"/>
   </g>
   <g id="patch_198">
    <path clip-path="url(#pe39492bec3)" d="M 325.092448 244.317187 
L 326.015462 244.317187 
L 326.015462 223.823797 
L 325.092448 223.823797 
z
" style="fill:#a62205;"/>
   </g>
   <g id="patch_199">
    <path clip-path="url(#pe39492bec3)" d="M 326.246215 244.317187 
L 327.169228 244.317187 
L 327.169228 231.662519 
L 326.246215 231.662519 
z
" style="fill:#a62205;"/>
   </g>
   <g id="patch_200">
    <path clip-path="url(#pe39492bec3)" d="M 327.399982 244.317187 
L 328.322995 244.317187 
L 328.322995 162.036223 
L 327.399982 162.036223 
z
" style="fill:#a62205;"/>
   </g>
   <g id="patch_201">
    <path clip-path="url(#pe39492bec3)" d="M 328.553748 244.317187 
L 329.476761 244.317187 
L 329.476761 216.343709 
L 328.553748 216.343709 
z
" style="fill:#a62205;"/>
   </g>
   <g id="patch_202">
    <path clip-path="url(#pe39492bec3)" d="M 329.707515 244.317187 
L 330.630528 244.317187 
L 330.630528 212.040097 
L 329.707515 212.040097 
z
" style="fill:#a62205;"/>
   </g>
   <g id="patch_203">
    <path clip-path="url(#pe39492bec3)" d="M 330.861281 244.317187 
L 331.784295 244.317187 
L 331.784295 208.351287 
L 330.861281 208.351287 
z
" style="fill:#a62205;"/>
   </g>
   <g id="patch_204">
    <path clip-path="url(#pe39492bec3)" d="M 332.015048 244.317187 
L 332.938061 244.317187 
L 332.938061 217.931947 
L 332.015048 217.931947 
z
" style="fill:#a62205;"/>
   </g>
   <g id="patch_205">
    <path clip-path="url(#pe39492bec3)" d="M 333.168815 244.317187 
L 334.091828 244.317187 
L 334.091828 217.778246 
L 333.168815 217.778246 
z
" style="fill:#a62205;"/>
   </g>
   <g id="patch_206">
    <path clip-path="url(#pe39492bec3)" d="M 334.322581 244.317187 
L 335.245595 244.317187 
L 335.245595 175.10076 
L 334.322581 175.10076 
z
" style="fill:#a62205;"/>
   </g>
   <g id="patch_207">
    <path clip-path="url(#pe39492bec3)" d="M 335.476348 244.317187 
L 336.399361 244.317187 
L 336.399361 203.68904 
L 335.476348 203.68904 
z
" style="fill:#a62205;"/>
   </g>
   <g id="patch_208">
    <path clip-path="url(#pe39492bec3)" d="M 336.630115 244.317187 
L 337.553128 244.317187 
L 337.553128 195.952785 
L 336.630115 195.952785 
z
" style="fill:#a62205;"/>
   </g>
   <g id="patch_209">
    <path clip-path="url(#pe39492bec3)" d="M 337.783881 244.317187 
L 338.706894 244.317187 
L 338.706894 186.935693 
L 337.783881 186.935693 
z
" style="fill:#a62205;"/>
   </g>
   <g id="patch_210">
    <path clip-path="url(#pe39492bec3)" d="M 338.937648 244.317187 
L 339.860661 244.317187 
L 339.860661 190.829437 
L 338.937648 190.829437 
z
" style="fill:#a62205;"/>
   </g>
   <g id="patch_211">
    <path clip-path="url(#pe39492bec3)" d="M 340.091414 244.317187 
L 341.014428 244.317187 
L 341.014428 200.102697 
L 340.091414 200.102697 
z
" style="fill:#a62205;"/>
   </g>
   <g id="patch_212">
    <path clip-path="url(#pe39492bec3)" d="M 341.245181 244.317187 
L 342.168194 244.317187 
L 342.168194 199.487895 
L 341.245181 199.487895 
z
" style="fill:#a62205;"/>
   </g>
   <g id="patch_213">
    <path clip-path="url(#pe39492bec3)" d="M 342.398948 244.317187 
L 343.321961 244.317187 
L 343.321961 153.838867 
L 342.398948 153.838867 
z
" style="fill:#a62205;"/>
   </g>
   <g id="patch_214">
    <path clip-path="url(#pe39492bec3)" d="M 343.552714 244.317187 
L 344.475728 244.317187 
L 344.475728 180.377808 
L 343.552714 180.377808 
z
" style="fill:#a62205;"/>
   </g>
   <g id="patch_215">
    <path clip-path="url(#pe39492bec3)" d="M 344.706481 244.317187 
L 345.629494 244.317187 
L 345.629494 188.472698 
L 344.706481 188.472698 
z
" style="fill:#a62205;"/>
   </g>
   <g id="patch_216">
    <path clip-path="url(#pe39492bec3)" d="M 345.860248 244.317187 
L 346.783261 244.317187 
L 346.783261 175.613095 
L 345.860248 175.613095 
z
" style="fill:#a62205;"/>
   </g>
   <g id="patch_217">
    <path clip-path="url(#pe39492bec3)" d="M 347.014014 244.317187 
L 347.937027 244.317187 
L 347.937027 174.537192 
L 347.014014 174.537192 
z
" style="fill:#a62205;"/>
   </g>
   <g id="patch_218">
    <path clip-path="url(#pe39492bec3)" d="M 348.167781 244.317187 
L 349.090794 244.317187 
L 349.090794 182.068513 
L 348.167781 182.068513 
z
" style="fill:#a62205;"/>
   </g>
   <g id="patch_219">
    <path clip-path="url(#pe39492bec3)" d="M 349.321547 244.317187 
L 350.244561 244.317187 
L 350.244561 169.823712 
L 349.321547 169.823712 
z
" style="fill:#a62205;"/>
   </g>
   <g id="patch_220">
    <path clip-path="url(#pe39492bec3)" d="M 350.475314 244.317187 
L 351.398327 244.317187 
L 351.398327 132.833141 
L 350.475314 132.833141 
z
" style="fill:#a62205;"/>
   </g>
   <g id="patch_221">
    <path clip-path="url(#pe39492bec3)" d="M 351.629081 244.317187 
L 352.552094 244.317187 
L 352.552094 159.269616 
L 351.629081 159.269616 
z
" style="fill:#a62205;"/>
   </g>
   <g id="patch_222">
    <path clip-path="url(#pe39492bec3)" d="M 352.782847 244.317187 
L 353.705861 244.317187 
L 353.705861 152.250629 
L 352.782847 152.250629 
z
" style="fill:#a62205;"/>
   </g>
   <g id="patch_223">
    <path clip-path="url(#pe39492bec3)" d="M 353.936614 244.317187 
L 354.859627 244.317187 
L 354.859627 153.275299 
L 353.936614 153.275299 
z
" style="fill:#a62205;"/>
   </g>
   <g id="patch_224">
    <path clip-path="url(#pe39492bec3)" d="M 355.090381 244.317187 
L 356.013394 244.317187 
L 356.013394 135.497282 
L 355.090381 135.497282 
z
" style="fill:#a62205;"/>
   </g>
   <g id="patch_225">
    <path clip-path="url(#pe39492bec3)" d="M 356.244147 244.317187 
L 357.167161 244.317187 
L 357.167161 151.482127 
L 356.244147 151.482127 
z
" style="fill:#a62205;"/>
   </g>
   <g id="patch_226">
    <path clip-path="url(#pe39492bec3)" d="M 357.397914 244.317187 
L 358.320927 244.317187 
L 358.320927 157.988779 
L 357.397914 157.988779 
z
" style="fill:#a62205;"/>
   </g>
   <g id="patch_227">
    <path clip-path="url(#pe39492bec3)" d="M 358.55168 244.317187 
L 359.474694 244.317187 
L 359.474694 100.658518 
L 358.55168 100.658518 
z
" style="fill:#a62205;"/>
   </g>
   <g id="patch_228">
    <path clip-path="url(#pe39492bec3)" d="M 359.705447 244.317187 
L 360.62846 244.317187 
L 360.62846 123.252481 
L 359.705447 123.252481 
z
" style="fill:#a62205;"/>
   </g>
   <g id="patch_229">
    <path clip-path="url(#pe39492bec3)" d="M 360.859214 244.317187 
L 361.782227 244.317187 
L 361.782227 152.096929 
L 360.859214 152.096929 
z
" style="fill:#a62205;"/>
   </g>
   <g id="patch_230">
    <path clip-path="url(#pe39492bec3)" d="M 362.01298 244.317187 
L 362.935994 244.317187 
L 362.935994 119.512437 
L 362.01298 119.512437 
z
" style="fill:#a62205;"/>
   </g>
   <g id="patch_231">
    <path clip-path="url(#pe39492bec3)" d="M 363.166747 244.317187 
L 364.08976 244.317187 
L 364.08976 113.261953 
L 363.166747 113.261953 
z
" style="fill:#a62205;"/>
   </g>
   <g id="patch_232">
    <path clip-path="url(#pe39492bec3)" d="M 364.320514 244.317187 
L 365.243527 244.317187 
L 365.243527 138.673758 
L 364.320514 138.673758 
z
" style="fill:#a62205;"/>
   </g>
   <g id="patch_233">
    <path clip-path="url(#pe39492bec3)" d="M 365.47428 244.317187 
L 366.397294 244.317187 
L 366.397294 157.988779 
L 365.47428 157.988779 
z
" style="fill:#a62205;"/>
   </g>
   <g id="patch_234">
    <path clip-path="url(#pe39492bec3)" d="M 366.628047 244.317187 
L 367.55106 244.317187 
L 367.55106 194.364547 
L 366.628047 194.364547 
z
" style="fill:#a62205;"/>
   </g>
   <g id="patch_235">
    <path clip-path="url(#pe39492bec3)" d="M 367.781813 244.317187 
L 368.704827 244.317187 
L 368.704827 37.231473 
L 367.781813 37.231473 
z
" style="fill:#a62205;"/>
   </g>
   <g id="patch_236">
    <path clip-path="url(#pe39492bec3)" d="M 368.93558 244.317187 
L 369.858593 244.317187 
L 369.858593 115.926094 
L 368.93558 115.926094 
z
" style="fill:#a62205;"/>
   </g>
   <g id="patch_237">
    <path clip-path="url(#pe39492bec3)" d="M 370.089347 244.317187 
L 371.01236 244.317187 
L 371.01236 124.174684 
L 370.089347 124.174684 
z
" style="fill:#a62205;"/>
   </g>
   <g id="patch_238">
    <path clip-path="url(#pe39492bec3)" d="M 371.243113 244.317187 
L 372.166127 244.317187 
L 372.166127 122.688913 
L 371.243113 122.688913 
z
" style="fill:#a62205;"/>
   </g>
   <g id="patch_239">
    <path clip-path="url(#pe39492bec3)" d="M 372.39688 244.317187 
L 373.319893 244.317187 
L 373.319893 130.835036 
L 372.39688 130.835036 
z
" style="fill:#a62205;"/>
   </g>
   <g id="patch_240">
    <path clip-path="url(#pe39492bec3)" d="M 373.550647 244.317187 
L 374.47366 244.317187 
L 374.47366 150.713625 
L 373.550647 150.713625 
z
" style="fill:#a62205;"/>
   </g>
   <g id="patch_241">
    <path clip-path="url(#pe39492bec3)" d="M 374.704413 244.317187 
L 375.627427 244.317187 
L 375.627427 75.810281 
L 374.704413 75.810281 
z
" style="fill:#a62205;"/>
   </g>
   <g id="patch_242">
    <path clip-path="url(#pe39492bec3)" d="M 375.85818 244.317187 
L 376.781193 244.317187 
L 376.781193 128.990631 
L 375.85818 128.990631 
z
" style="fill:#a62205;"/>
   </g>
   <g id="matplotlib.axis_1">
    <g id="xtick_1">
     <g id="line2d_1">
      <defs>
       <path d="M 0 0 
L 0 17 
" id="mab9c069d39" style="stroke:#000000;"/>
      </defs>
      <g>
       <use style="stroke:#000000;" x="74.03283" xlink:href="#mab9c069d39" y="244.317187"/>
      </g>
     </g>
    </g>
    <g id="xtick_2">
     <g id="line2d_2">
      <g>
       <use style="stroke:#000000;" x="107.492062" xlink:href="#mab9c069d39" y="244.317187"/>
      </g>
     </g>
    </g>
    <g id="xtick_3">
     <g id="line2d_3">
      <g>
       <use style="stroke:#000000;" x="143.258828" xlink:href="#mab9c069d39" y="244.317187"/>
      </g>
     </g>
    </g>
    <g id="xtick_4">
     <g id="line2d_4">
      <g>
       <use style="stroke:#000000;" x="177.871827" xlink:href="#mab9c069d39" y="244.317187"/>
      </g>
     </g>
    </g>
    <g id="xtick_5">
     <g id="line2d_5">
      <g>
       <use style="stroke:#000000;" x="213.638592" xlink:href="#mab9c069d39" y="244.317187"/>
      </g>
     </g>
    </g>
    <g id="xtick_6">
     <g id="line2d_6">
      <g>
       <use style="stroke:#000000;" x="248.251591" xlink:href="#mab9c069d39" y="244.317187"/>
      </g>
     </g>
    </g>
    <g id="xtick_7">
     <g id="line2d_7">
      <g>
       <use style="stroke:#000000;" x="284.018356" xlink:href="#mab9c069d39" y="244.317187"/>
      </g>
     </g>
    </g>
    <g id="xtick_8">
     <g id="line2d_8">
      <g>
       <use style="stroke:#000000;" x="319.785122" xlink:href="#mab9c069d39" y="244.317187"/>
      </g>
     </g>
    </g>
    <g id="xtick_9">
     <g id="line2d_9">
      <g>
       <use style="stroke:#000000;" x="354.398121" xlink:href="#mab9c069d39" y="244.317187"/>
      </g>
     </g>
    </g>
    <g id="xtick_10">
     <g id="line2d_10">
      <g>
       <use style="stroke:#000000;" x="390.164886" xlink:href="#mab9c069d39" y="244.317187"/>
      </g>
     </g>
    </g>
    <g id="xtick_11">
     <g id="line2d_11">
      <defs>
       <path d="M 0 0 
L 0 3 
" id="m09eac5e992" style="stroke:#000000;"/>
      </defs>
      <g>
       <use style="stroke:#000000;" x="90.185563" xlink:href="#m09eac5e992" y="244.317187"/>
      </g>
     </g>
     <g id="text_1">
      <!--  -->
      <g transform="translate(87.346032 273.882812)rotate(-90)scale(0.1 -0.1)"/>
      <!-- Feb 2020 -->
      <g transform="translate(98.543844 297.048437)rotate(-90)scale(0.1 -0.1)">
       <defs>
        <path d="M 9.8125 72.90625 
L 51.703125 72.90625 
L 51.703125 64.59375 
L 19.671875 64.59375 
L 19.671875 43.109375 
L 48.578125 43.109375 
L 48.578125 34.8125 
L 19.671875 34.8125 
L 19.671875 0 
L 9.8125 0 
z
" id="DejaVuSans-70"/>
        <path d="M 56.203125 29.59375 
L 56.203125 25.203125 
L 14.890625 25.203125 
Q 15.484375 15.921875 20.484375 11.0625 
Q 25.484375 6.203125 34.421875 6.203125 
Q 39.59375 6.203125 44.453125 7.46875 
Q 49.3125 8.734375 54.109375 11.28125 
L 54.109375 2.78125 
Q 49.265625 0.734375 44.1875 -0.34375 
Q 39.109375 -1.421875 33.890625 -1.421875 
Q 20.796875 -1.421875 13.15625 6.1875 
Q 5.515625 13.8125 5.515625 26.8125 
Q 5.515625 40.234375 12.765625 48.109375 
Q 20.015625 56 32.328125 56 
Q 43.359375 56 49.78125 48.890625 
Q 56.203125 41.796875 56.203125 29.59375 
z
M 47.21875 32.234375 
Q 47.125 39.59375 43.09375 43.984375 
Q 39.0625 48.390625 32.421875 48.390625 
Q 24.90625 48.390625 20.390625 44.140625 
Q 15.875 39.890625 15.1875 32.171875 
z
" id="DejaVuSans-101"/>
        <path d="M 48.6875 27.296875 
Q 48.6875 37.203125 44.609375 42.84375 
Q 40.53125 48.484375 33.40625 48.484375 
Q 26.265625 48.484375 22.1875 42.84375 
Q 18.109375 37.203125 18.109375 27.296875 
Q 18.109375 17.390625 22.1875 11.75 
Q 26.265625 6.109375 33.40625 6.109375 
Q 40.53125 6.109375 44.609375 11.75 
Q 48.6875 17.390625 48.6875 27.296875 
z
M 18.109375 46.390625 
Q 20.953125 51.265625 25.265625 53.625 
Q 29.59375 56 35.59375 56 
Q 45.5625 56 51.78125 48.09375 
Q 58.015625 40.1875 58.015625 27.296875 
Q 58.015625 14.40625 51.78125 6.484375 
Q 45.5625 -1.421875 35.59375 -1.421875 
Q 29.59375 -1.421875 25.265625 0.953125 
Q 20.953125 3.328125 18.109375 8.203125 
L 18.109375 0 
L 9.078125 0 
L 9.078125 75.984375 
L 18.109375 75.984375 
z
" id="DejaVuSans-98"/>
        <path id="DejaVuSans-32"/>
        <path d="M 19.1875 8.296875 
L 53.609375 8.296875 
L 53.609375 0 
L 7.328125 0 
L 7.328125 8.296875 
Q 12.9375 14.109375 22.625 23.890625 
Q 32.328125 33.6875 34.8125 36.53125 
Q 39.546875 41.84375 41.421875 45.53125 
Q 43.3125 49.21875 43.3125 52.78125 
Q 43.3125 58.59375 39.234375 62.25 
Q 35.15625 65.921875 28.609375 65.921875 
Q 23.96875 65.921875 18.8125 64.3125 
Q 13.671875 62.703125 7.8125 59.421875 
L 7.8125 69.390625 
Q 13.765625 71.78125 18.9375 73 
Q 24.125 74.21875 28.421875 74.21875 
Q 39.75 74.21875 46.484375 68.546875 
Q 53.21875 62.890625 53.21875 53.421875 
Q 53.21875 48.921875 51.53125 44.890625 
Q 49.859375 40.875 45.40625 35.40625 
Q 44.1875 33.984375 37.640625 27.21875 
Q 31.109375 20.453125 19.1875 8.296875 
z
" id="DejaVuSans-50"/>
        <path d="M 31.78125 66.40625 
Q 24.171875 66.40625 20.328125 58.90625 
Q 16.5 51.421875 16.5 36.375 
Q 16.5 21.390625 20.328125 13.890625 
Q 24.171875 6.390625 31.78125 6.390625 
Q 39.453125 6.390625 43.28125 13.890625 
Q 47.125 21.390625 47.125 36.375 
Q 47.125 51.421875 43.28125 58.90625 
Q 39.453125 66.40625 31.78125 66.40625 
z
M 31.78125 74.21875 
Q 44.046875 74.21875 50.515625 64.515625 
Q 56.984375 54.828125 56.984375 36.375 
Q 56.984375 17.96875 50.515625 8.265625 
Q 44.046875 -1.421875 31.78125 -1.421875 
Q 19.53125 -1.421875 13.0625 8.265625 
Q 6.59375 17.96875 6.59375 36.375 
Q 6.59375 54.828125 13.0625 64.515625 
Q 19.53125 74.21875 31.78125 74.21875 
z
" id="DejaVuSans-48"/>
       </defs>
       <use xlink:href="#DejaVuSans-70"/>
       <use x="52.019531" xlink:href="#DejaVuSans-101"/>
       <use x="113.542969" xlink:href="#DejaVuSans-98"/>
       <use x="177.019531" xlink:href="#DejaVuSans-32"/>
       <use x="208.806641" xlink:href="#DejaVuSans-50"/>
       <use x="272.429688" xlink:href="#DejaVuSans-48"/>
       <use x="336.052734" xlink:href="#DejaVuSans-50"/>
       <use x="399.675781" xlink:href="#DejaVuSans-48"/>
      </g>
     </g>
    </g>
    <g id="xtick_12">
     <g id="line2d_12">
      <g>
       <use style="stroke:#000000;" x="123.644795" xlink:href="#m09eac5e992" y="244.317187"/>
      </g>
     </g>
     <g id="text_2">
      <!--  -->
      <g transform="translate(120.805264 274.464844)rotate(-90)scale(0.1 -0.1)"/>
      <!-- Mar 2020 -->
      <g transform="translate(132.003076 298.2125)rotate(-90)scale(0.1 -0.1)">
       <defs>
        <path d="M 9.8125 72.90625 
L 24.515625 72.90625 
L 43.109375 23.296875 
L 61.8125 72.90625 
L 76.515625 72.90625 
L 76.515625 0 
L 66.890625 0 
L 66.890625 64.015625 
L 48.09375 14.015625 
L 38.1875 14.015625 
L 19.390625 64.015625 
L 19.390625 0 
L 9.8125 0 
z
" id="DejaVuSans-77"/>
        <path d="M 34.28125 27.484375 
Q 23.390625 27.484375 19.1875 25 
Q 14.984375 22.515625 14.984375 16.5 
Q 14.984375 11.71875 18.140625 8.90625 
Q 21.296875 6.109375 26.703125 6.109375 
Q 34.1875 6.109375 38.703125 11.40625 
Q 43.21875 16.703125 43.21875 25.484375 
L 43.21875 27.484375 
z
M 52.203125 31.203125 
L 52.203125 0 
L 43.21875 0 
L 43.21875 8.296875 
Q 40.140625 3.328125 35.546875 0.953125 
Q 30.953125 -1.421875 24.3125 -1.421875 
Q 15.921875 -1.421875 10.953125 3.296875 
Q 6 8.015625 6 15.921875 
Q 6 25.140625 12.171875 29.828125 
Q 18.359375 34.515625 30.609375 34.515625 
L 43.21875 34.515625 
L 43.21875 35.40625 
Q 43.21875 41.609375 39.140625 45 
Q 35.0625 48.390625 27.6875 48.390625 
Q 23 48.390625 18.546875 47.265625 
Q 14.109375 46.140625 10.015625 43.890625 
L 10.015625 52.203125 
Q 14.9375 54.109375 19.578125 55.046875 
Q 24.21875 56 28.609375 56 
Q 40.484375 56 46.34375 49.84375 
Q 52.203125 43.703125 52.203125 31.203125 
z
" id="DejaVuSans-97"/>
        <path d="M 41.109375 46.296875 
Q 39.59375 47.171875 37.8125 47.578125 
Q 36.03125 48 33.890625 48 
Q 26.265625 48 22.1875 43.046875 
Q 18.109375 38.09375 18.109375 28.8125 
L 18.109375 0 
L 9.078125 0 
L 9.078125 54.6875 
L 18.109375 54.6875 
L 18.109375 46.1875 
Q 20.953125 51.171875 25.484375 53.578125 
Q 30.03125 56 36.53125 56 
Q 37.453125 56 38.578125 55.875 
Q 39.703125 55.765625 41.0625 55.515625 
z
" id="DejaVuSans-114"/>
       </defs>
       <use xlink:href="#DejaVuSans-77"/>
       <use x="86.279297" xlink:href="#DejaVuSans-97"/>
       <use x="147.558594" xlink:href="#DejaVuSans-114"/>
       <use x="188.671875" xlink:href="#DejaVuSans-32"/>
       <use x="220.458984" xlink:href="#DejaVuSans-50"/>
       <use x="284.082031" xlink:href="#DejaVuSans-48"/>
       <use x="347.705078" xlink:href="#DejaVuSans-50"/>
       <use x="411.328125" xlink:href="#DejaVuSans-48"/>
      </g>
     </g>
    </g>
    <g id="xtick_13">
     <g id="line2d_13">
      <g>
       <use style="stroke:#000000;" x="159.411561" xlink:href="#m09eac5e992" y="244.317187"/>
      </g>
     </g>
     <g id="text_3">
      <!--  -->
      <g transform="translate(156.572029 273.68125)rotate(-90)scale(0.1 -0.1)"/>
      <!-- Apr 2020 -->
      <g transform="translate(167.769842 296.645312)rotate(-90)scale(0.1 -0.1)">
       <defs>
        <path d="M 34.1875 63.1875 
L 20.796875 26.90625 
L 47.609375 26.90625 
z
M 28.609375 72.90625 
L 39.796875 72.90625 
L 67.578125 0 
L 57.328125 0 
L 50.6875 18.703125 
L 17.828125 18.703125 
L 11.1875 0 
L 0.78125 0 
z
" id="DejaVuSans-65"/>
        <path d="M 18.109375 8.203125 
L 18.109375 -20.796875 
L 9.078125 -20.796875 
L 9.078125 54.6875 
L 18.109375 54.6875 
L 18.109375 46.390625 
Q 20.953125 51.265625 25.265625 53.625 
Q 29.59375 56 35.59375 56 
Q 45.5625 56 51.78125 48.09375 
Q 58.015625 40.1875 58.015625 27.296875 
Q 58.015625 14.40625 51.78125 6.484375 
Q 45.5625 -1.421875 35.59375 -1.421875 
Q 29.59375 -1.421875 25.265625 0.953125 
Q 20.953125 3.328125 18.109375 8.203125 
z
M 48.6875 27.296875 
Q 48.6875 37.203125 44.609375 42.84375 
Q 40.53125 48.484375 33.40625 48.484375 
Q 26.265625 48.484375 22.1875 42.84375 
Q 18.109375 37.203125 18.109375 27.296875 
Q 18.109375 17.390625 22.1875 11.75 
Q 26.265625 6.109375 33.40625 6.109375 
Q 40.53125 6.109375 44.609375 11.75 
Q 48.6875 17.390625 48.6875 27.296875 
z
" id="DejaVuSans-112"/>
       </defs>
       <use xlink:href="#DejaVuSans-65"/>
       <use x="68.408203" xlink:href="#DejaVuSans-112"/>
       <use x="131.884766" xlink:href="#DejaVuSans-114"/>
       <use x="172.998047" xlink:href="#DejaVuSans-32"/>
       <use x="204.785156" xlink:href="#DejaVuSans-50"/>
       <use x="268.408203" xlink:href="#DejaVuSans-48"/>
       <use x="332.03125" xlink:href="#DejaVuSans-50"/>
       <use x="395.654297" xlink:href="#DejaVuSans-48"/>
      </g>
     </g>
    </g>
    <g id="xtick_14">
     <g id="line2d_14">
      <g>
       <use style="stroke:#000000;" x="194.024559" xlink:href="#m09eac5e992" y="244.317187"/>
      </g>
     </g>
     <g id="text_4">
      <!--  -->
      <g transform="translate(191.185028 275.36875)rotate(-90)scale(0.1 -0.1)"/>
      <!-- May 2020 -->
      <g transform="translate(202.382841 300.020312)rotate(-90)scale(0.1 -0.1)">
       <defs>
        <path d="M 32.171875 -5.078125 
Q 28.375 -14.84375 24.75 -17.8125 
Q 21.140625 -20.796875 15.09375 -20.796875 
L 7.90625 -20.796875 
L 7.90625 -13.28125 
L 13.1875 -13.28125 
Q 16.890625 -13.28125 18.9375 -11.515625 
Q 21 -9.765625 23.484375 -3.21875 
L 25.09375 0.875 
L 2.984375 54.6875 
L 12.5 54.6875 
L 29.59375 11.921875 
L 46.6875 54.6875 
L 56.203125 54.6875 
z
" id="DejaVuSans-121"/>
       </defs>
       <use xlink:href="#DejaVuSans-77"/>
       <use x="86.279297" xlink:href="#DejaVuSans-97"/>
       <use x="147.558594" xlink:href="#DejaVuSans-121"/>
       <use x="206.738281" xlink:href="#DejaVuSans-32"/>
       <use x="238.525391" xlink:href="#DejaVuSans-50"/>
       <use x="302.148438" xlink:href="#DejaVuSans-48"/>
       <use x="365.771484" xlink:href="#DejaVuSans-50"/>
       <use x="429.394531" xlink:href="#DejaVuSans-48"/>
      </g>
     </g>
    </g>
    <g id="xtick_15">
     <g id="line2d_15">
      <g>
       <use style="stroke:#000000;" x="229.791325" xlink:href="#m09eac5e992" y="244.317187"/>
      </g>
     </g>
     <g id="text_5">
      <!--  -->
      <g transform="translate(226.951794 272.84375)rotate(-90)scale(0.1 -0.1)"/>
      <!-- Jun 2020 -->
      <g transform="translate(238.149606 294.970312)rotate(-90)scale(0.1 -0.1)">
       <defs>
        <path d="M 9.8125 72.90625 
L 19.671875 72.90625 
L 19.671875 5.078125 
Q 19.671875 -8.109375 14.671875 -14.0625 
Q 9.671875 -20.015625 -1.421875 -20.015625 
L -5.171875 -20.015625 
L -5.171875 -11.71875 
L -2.09375 -11.71875 
Q 4.4375 -11.71875 7.125 -8.046875 
Q 9.8125 -4.390625 9.8125 5.078125 
z
" id="DejaVuSans-74"/>
        <path d="M 8.5 21.578125 
L 8.5 54.6875 
L 17.484375 54.6875 
L 17.484375 21.921875 
Q 17.484375 14.15625 20.5 10.265625 
Q 23.53125 6.390625 29.59375 6.390625 
Q 36.859375 6.390625 41.078125 11.03125 
Q 45.3125 15.671875 45.3125 23.6875 
L 45.3125 54.6875 
L 54.296875 54.6875 
L 54.296875 0 
L 45.3125 0 
L 45.3125 8.40625 
Q 42.046875 3.421875 37.71875 1 
Q 33.40625 -1.421875 27.6875 -1.421875 
Q 18.265625 -1.421875 13.375 4.4375 
Q 8.5 10.296875 8.5 21.578125 
z
M 31.109375 56 
z
" id="DejaVuSans-117"/>
        <path d="M 54.890625 33.015625 
L 54.890625 0 
L 45.90625 0 
L 45.90625 32.71875 
Q 45.90625 40.484375 42.875 44.328125 
Q 39.84375 48.1875 33.796875 48.1875 
Q 26.515625 48.1875 22.3125 43.546875 
Q 18.109375 38.921875 18.109375 30.90625 
L 18.109375 0 
L 9.078125 0 
L 9.078125 54.6875 
L 18.109375 54.6875 
L 18.109375 46.1875 
Q 21.34375 51.125 25.703125 53.5625 
Q 30.078125 56 35.796875 56 
Q 45.21875 56 50.046875 50.171875 
Q 54.890625 44.34375 54.890625 33.015625 
z
" id="DejaVuSans-110"/>
       </defs>
       <use xlink:href="#DejaVuSans-74"/>
       <use x="29.492188" xlink:href="#DejaVuSans-117"/>
       <use x="92.871094" xlink:href="#DejaVuSans-110"/>
       <use x="156.25" xlink:href="#DejaVuSans-32"/>
       <use x="188.037109" xlink:href="#DejaVuSans-50"/>
       <use x="251.660156" xlink:href="#DejaVuSans-48"/>
       <use x="315.283203" xlink:href="#DejaVuSans-50"/>
       <use x="378.90625" xlink:href="#DejaVuSans-48"/>
      </g>
     </g>
    </g>
    <g id="xtick_16">
     <g id="line2d_16">
      <g>
       <use style="stroke:#000000;" x="264.404324" xlink:href="#m09eac5e992" y="244.317187"/>
      </g>
     </g>
     <g id="text_6">
      <!--  -->
      <g transform="translate(261.564792 271.064062)rotate(-90)scale(0.1 -0.1)"/>
      <!-- Jul 2020 -->
      <g transform="translate(272.762605 291.410937)rotate(-90)scale(0.1 -0.1)">
       <defs>
        <path d="M 9.421875 75.984375 
L 18.40625 75.984375 
L 18.40625 0 
L 9.421875 0 
z
" id="DejaVuSans-108"/>
       </defs>
       <use xlink:href="#DejaVuSans-74"/>
       <use x="29.492188" xlink:href="#DejaVuSans-117"/>
       <use x="92.871094" xlink:href="#DejaVuSans-108"/>
       <use x="120.654297" xlink:href="#DejaVuSans-32"/>
       <use x="152.441406" xlink:href="#DejaVuSans-50"/>
       <use x="216.064453" xlink:href="#DejaVuSans-48"/>
       <use x="279.6875" xlink:href="#DejaVuSans-50"/>
       <use x="343.310547" xlink:href="#DejaVuSans-48"/>
      </g>
     </g>
    </g>
    <g id="xtick_17">
     <g id="line2d_17">
      <g>
       <use style="stroke:#000000;" x="300.171089" xlink:href="#m09eac5e992" y="244.317187"/>
      </g>
     </g>
     <g id="text_7">
      <!--  -->
      <g transform="translate(297.331558 274.794531)rotate(-90)scale(0.1 -0.1)"/>
      <!-- Aug 2020 -->
      <g transform="translate(308.52937 298.871875)rotate(-90)scale(0.1 -0.1)">
       <defs>
        <path d="M 45.40625 27.984375 
Q 45.40625 37.75 41.375 43.109375 
Q 37.359375 48.484375 30.078125 48.484375 
Q 22.859375 48.484375 18.828125 43.109375 
Q 14.796875 37.75 14.796875 27.984375 
Q 14.796875 18.265625 18.828125 12.890625 
Q 22.859375 7.515625 30.078125 7.515625 
Q 37.359375 7.515625 41.375 12.890625 
Q 45.40625 18.265625 45.40625 27.984375 
z
M 54.390625 6.78125 
Q 54.390625 -7.171875 48.1875 -13.984375 
Q 42 -20.796875 29.203125 -20.796875 
Q 24.46875 -20.796875 20.265625 -20.09375 
Q 16.0625 -19.390625 12.109375 -17.921875 
L 12.109375 -9.1875 
Q 16.0625 -11.328125 19.921875 -12.34375 
Q 23.78125 -13.375 27.78125 -13.375 
Q 36.625 -13.375 41.015625 -8.765625 
Q 45.40625 -4.15625 45.40625 5.171875 
L 45.40625 9.625 
Q 42.625 4.78125 38.28125 2.390625 
Q 33.9375 0 27.875 0 
Q 17.828125 0 11.671875 7.65625 
Q 5.515625 15.328125 5.515625 27.984375 
Q 5.515625 40.671875 11.671875 48.328125 
Q 17.828125 56 27.875 56 
Q 33.9375 56 38.28125 53.609375 
Q 42.625 51.21875 45.40625 46.390625 
L 45.40625 54.6875 
L 54.390625 54.6875 
z
" id="DejaVuSans-103"/>
       </defs>
       <use xlink:href="#DejaVuSans-65"/>
       <use x="68.408203" xlink:href="#DejaVuSans-117"/>
       <use x="131.787109" xlink:href="#DejaVuSans-103"/>
       <use x="195.263672" xlink:href="#DejaVuSans-32"/>
       <use x="227.050781" xlink:href="#DejaVuSans-50"/>
       <use x="290.673828" xlink:href="#DejaVuSans-48"/>
       <use x="354.296875" xlink:href="#DejaVuSans-50"/>
       <use x="417.919922" xlink:href="#DejaVuSans-48"/>
      </g>
     </g>
    </g>
    <g id="xtick_18">
     <g id="line2d_18">
      <g>
       <use style="stroke:#000000;" x="335.937855" xlink:href="#m09eac5e992" y="244.317187"/>
      </g>
     </g>
     <g id="text_8">
      <!--  -->
      <g transform="translate(333.098323 274.45625)rotate(-90)scale(0.1 -0.1)"/>
      <!-- Sep 2020 -->
      <g transform="translate(344.296136 298.195312)rotate(-90)scale(0.1 -0.1)">
       <defs>
        <path d="M 53.515625 70.515625 
L 53.515625 60.890625 
Q 47.90625 63.578125 42.921875 64.890625 
Q 37.9375 66.21875 33.296875 66.21875 
Q 25.25 66.21875 20.875 63.09375 
Q 16.5 59.96875 16.5 54.203125 
Q 16.5 49.359375 19.40625 46.890625 
Q 22.3125 44.4375 30.421875 42.921875 
L 36.375 41.703125 
Q 47.40625 39.59375 52.65625 34.296875 
Q 57.90625 29 57.90625 20.125 
Q 57.90625 9.515625 50.796875 4.046875 
Q 43.703125 -1.421875 29.984375 -1.421875 
Q 24.8125 -1.421875 18.96875 -0.25 
Q 13.140625 0.921875 6.890625 3.21875 
L 6.890625 13.375 
Q 12.890625 10.015625 18.65625 8.296875 
Q 24.421875 6.59375 29.984375 6.59375 
Q 38.421875 6.59375 43.015625 9.90625 
Q 47.609375 13.234375 47.609375 19.390625 
Q 47.609375 24.75 44.3125 27.78125 
Q 41.015625 30.8125 33.5 32.328125 
L 27.484375 33.5 
Q 16.453125 35.6875 11.515625 40.375 
Q 6.59375 45.0625 6.59375 53.421875 
Q 6.59375 63.09375 13.40625 68.65625 
Q 20.21875 74.21875 32.171875 74.21875 
Q 37.3125 74.21875 42.625 73.28125 
Q 47.953125 72.359375 53.515625 70.515625 
z
" id="DejaVuSans-83"/>
       </defs>
       <use xlink:href="#DejaVuSans-83"/>
       <use x="63.476562" xlink:href="#DejaVuSans-101"/>
       <use x="125" xlink:href="#DejaVuSans-112"/>
       <use x="188.476562" xlink:href="#DejaVuSans-32"/>
       <use x="220.263672" xlink:href="#DejaVuSans-50"/>
       <use x="283.886719" xlink:href="#DejaVuSans-48"/>
       <use x="347.509766" xlink:href="#DejaVuSans-50"/>
       <use x="411.132812" xlink:href="#DejaVuSans-48"/>
      </g>
     </g>
    </g>
    <g id="xtick_19">
     <g id="line2d_19">
      <g>
       <use style="stroke:#000000;" x="370.550853" xlink:href="#m09eac5e992" y="244.317187"/>
      </g>
     </g>
     <g id="text_9">
      <!--  -->
      <g transform="translate(367.711322 273.676562)rotate(-90)scale(0.1 -0.1)"/>
      <!-- Oct 2020 -->
      <g transform="translate(378.909135 296.635938)rotate(-90)scale(0.1 -0.1)">
       <defs>
        <path d="M 39.40625 66.21875 
Q 28.65625 66.21875 22.328125 58.203125 
Q 16.015625 50.203125 16.015625 36.375 
Q 16.015625 22.609375 22.328125 14.59375 
Q 28.65625 6.59375 39.40625 6.59375 
Q 50.140625 6.59375 56.421875 14.59375 
Q 62.703125 22.609375 62.703125 36.375 
Q 62.703125 50.203125 56.421875 58.203125 
Q 50.140625 66.21875 39.40625 66.21875 
z
M 39.40625 74.21875 
Q 54.734375 74.21875 63.90625 63.9375 
Q 73.09375 53.65625 73.09375 36.375 
Q 73.09375 19.140625 63.90625 8.859375 
Q 54.734375 -1.421875 39.40625 -1.421875 
Q 24.03125 -1.421875 14.8125 8.828125 
Q 5.609375 19.09375 5.609375 36.375 
Q 5.609375 53.65625 14.8125 63.9375 
Q 24.03125 74.21875 39.40625 74.21875 
z
" id="DejaVuSans-79"/>
        <path d="M 48.78125 52.59375 
L 48.78125 44.1875 
Q 44.96875 46.296875 41.140625 47.34375 
Q 37.3125 48.390625 33.40625 48.390625 
Q 24.65625 48.390625 19.8125 42.84375 
Q 14.984375 37.3125 14.984375 27.296875 
Q 14.984375 17.28125 19.8125 11.734375 
Q 24.65625 6.203125 33.40625 6.203125 
Q 37.3125 6.203125 41.140625 7.25 
Q 44.96875 8.296875 48.78125 10.40625 
L 48.78125 2.09375 
Q 45.015625 0.34375 40.984375 -0.53125 
Q 36.96875 -1.421875 32.421875 -1.421875 
Q 20.0625 -1.421875 12.78125 6.34375 
Q 5.515625 14.109375 5.515625 27.296875 
Q 5.515625 40.671875 12.859375 48.328125 
Q 20.21875 56 33.015625 56 
Q 37.15625 56 41.109375 55.140625 
Q 45.0625 54.296875 48.78125 52.59375 
z
" id="DejaVuSans-99"/>
        <path d="M 18.3125 70.21875 
L 18.3125 54.6875 
L 36.8125 54.6875 
L 36.8125 47.703125 
L 18.3125 47.703125 
L 18.3125 18.015625 
Q 18.3125 11.328125 20.140625 9.421875 
Q 21.96875 7.515625 27.59375 7.515625 
L 36.8125 7.515625 
L 36.8125 0 
L 27.59375 0 
Q 17.1875 0 13.234375 3.875 
Q 9.28125 7.765625 9.28125 18.015625 
L 9.28125 47.703125 
L 2.6875 47.703125 
L 2.6875 54.6875 
L 9.28125 54.6875 
L 9.28125 70.21875 
z
" id="DejaVuSans-116"/>
       </defs>
       <use xlink:href="#DejaVuSans-79"/>
       <use x="78.710938" xlink:href="#DejaVuSans-99"/>
       <use x="133.691406" xlink:href="#DejaVuSans-116"/>
       <use x="172.900391" xlink:href="#DejaVuSans-32"/>
       <use x="204.6875" xlink:href="#DejaVuSans-50"/>
       <use x="268.310547" xlink:href="#DejaVuSans-48"/>
       <use x="331.933594" xlink:href="#DejaVuSans-50"/>
       <use x="395.556641" xlink:href="#DejaVuSans-48"/>
      </g>
     </g>
    </g>
    <g id="text_10">
     <!--  -->
     <g transform="translate(224.599375 314.658125)scale(0.14 -0.14)"/>
     <!-- Date -->
     <g transform="translate(207.868281 330.335062)scale(0.14 -0.14)">
      <defs>
       <path d="M 19.671875 64.796875 
L 19.671875 8.109375 
L 31.59375 8.109375 
Q 46.6875 8.109375 53.6875 14.9375 
Q 60.6875 21.78125 60.6875 36.53125 
Q 60.6875 51.171875 53.6875 57.984375 
Q 46.6875 64.796875 31.59375 64.796875 
z
M 9.8125 72.90625 
L 30.078125 72.90625 
Q 51.265625 72.90625 61.171875 64.09375 
Q 71.09375 55.28125 71.09375 36.53125 
Q 71.09375 17.671875 61.125 8.828125 
Q 51.171875 0 30.078125 0 
L 9.8125 0 
z
" id="DejaVuSans-68"/>
      </defs>
      <use xlink:href="#DejaVuSans-68"/>
      <use x="77.001953" xlink:href="#DejaVuSans-97"/>
      <use x="138.28125" xlink:href="#DejaVuSans-116"/>
      <use x="177.490234" xlink:href="#DejaVuSans-101"/>
     </g>
    </g>
   </g>
   <g id="matplotlib.axis_2">
    <g id="ytick_1">
     <g id="line2d_20">
      <defs>
       <path d="M 0 0 
L -3.5 0 
" id="m3ba2024fee" style="stroke:#000000;stroke-width:0.8;"/>
      </defs>
      <g>
       <use style="stroke:#000000;stroke-width:0.8;" x="57.199375" xlink:href="#m3ba2024fee" y="244.317187"/>
      </g>
     </g>
     <g id="text_11">
      <!-- 0 -->
      <g transform="translate(43.836875 248.116406)scale(0.1 -0.1)">
       <use xlink:href="#DejaVuSans-48"/>
      </g>
     </g>
    </g>
    <g id="ytick_2">
     <g id="line2d_21">
      <g>
       <use style="stroke:#000000;stroke-width:0.8;" x="57.199375" xlink:href="#m3ba2024fee" y="218.700449"/>
      </g>
     </g>
     <g id="text_12">
      <!-- 500 -->
      <g transform="translate(31.111875 222.499668)scale(0.1 -0.1)">
       <defs>
        <path d="M 10.796875 72.90625 
L 49.515625 72.90625 
L 49.515625 64.59375 
L 19.828125 64.59375 
L 19.828125 46.734375 
Q 21.96875 47.46875 24.109375 47.828125 
Q 26.265625 48.1875 28.421875 48.1875 
Q 40.625 48.1875 47.75 41.5 
Q 54.890625 34.8125 54.890625 23.390625 
Q 54.890625 11.625 47.5625 5.09375 
Q 40.234375 -1.421875 26.90625 -1.421875 
Q 22.3125 -1.421875 17.546875 -0.640625 
Q 12.796875 0.140625 7.71875 1.703125 
L 7.71875 11.625 
Q 12.109375 9.234375 16.796875 8.0625 
Q 21.484375 6.890625 26.703125 6.890625 
Q 35.15625 6.890625 40.078125 11.328125 
Q 45.015625 15.765625 45.015625 23.390625 
Q 45.015625 31 40.078125 35.4375 
Q 35.15625 39.890625 26.703125 39.890625 
Q 22.75 39.890625 18.8125 39.015625 
Q 14.890625 38.140625 10.796875 36.28125 
z
" id="DejaVuSans-53"/>
       </defs>
       <use xlink:href="#DejaVuSans-53"/>
       <use x="63.623047" xlink:href="#DejaVuSans-48"/>
       <use x="127.246094" xlink:href="#DejaVuSans-48"/>
      </g>
     </g>
    </g>
    <g id="ytick_3">
     <g id="line2d_22">
      <g>
       <use style="stroke:#000000;stroke-width:0.8;" x="57.199375" xlink:href="#m3ba2024fee" y="193.08371"/>
      </g>
     </g>
     <g id="text_13">
      <!-- 1000 -->
      <g transform="translate(24.749375 196.882929)scale(0.1 -0.1)">
       <defs>
        <path d="M 12.40625 8.296875 
L 28.515625 8.296875 
L 28.515625 63.921875 
L 10.984375 60.40625 
L 10.984375 69.390625 
L 28.421875 72.90625 
L 38.28125 72.90625 
L 38.28125 8.296875 
L 54.390625 8.296875 
L 54.390625 0 
L 12.40625 0 
z
" id="DejaVuSans-49"/>
       </defs>
       <use xlink:href="#DejaVuSans-49"/>
       <use x="63.623047" xlink:href="#DejaVuSans-48"/>
       <use x="127.246094" xlink:href="#DejaVuSans-48"/>
       <use x="190.869141" xlink:href="#DejaVuSans-48"/>
      </g>
     </g>
    </g>
    <g id="ytick_4">
     <g id="line2d_23">
      <g>
       <use style="stroke:#000000;stroke-width:0.8;" x="57.199375" xlink:href="#m3ba2024fee" y="167.466972"/>
      </g>
     </g>
     <g id="text_14">
      <!-- 1500 -->
      <g transform="translate(24.749375 171.266191)scale(0.1 -0.1)">
       <use xlink:href="#DejaVuSans-49"/>
       <use x="63.623047" xlink:href="#DejaVuSans-53"/>
       <use x="127.246094" xlink:href="#DejaVuSans-48"/>
       <use x="190.869141" xlink:href="#DejaVuSans-48"/>
      </g>
     </g>
    </g>
    <g id="ytick_5">
     <g id="line2d_24">
      <g>
       <use style="stroke:#000000;stroke-width:0.8;" x="57.199375" xlink:href="#m3ba2024fee" y="141.850233"/>
      </g>
     </g>
     <g id="text_15">
      <!-- 2000 -->
      <g transform="translate(24.749375 145.649452)scale(0.1 -0.1)">
       <use xlink:href="#DejaVuSans-50"/>
       <use x="63.623047" xlink:href="#DejaVuSans-48"/>
       <use x="127.246094" xlink:href="#DejaVuSans-48"/>
       <use x="190.869141" xlink:href="#DejaVuSans-48"/>
      </g>
     </g>
    </g>
    <g id="ytick_6">
     <g id="line2d_25">
      <g>
       <use style="stroke:#000000;stroke-width:0.8;" x="57.199375" xlink:href="#m3ba2024fee" y="116.233495"/>
      </g>
     </g>
     <g id="text_16">
      <!-- 2500 -->
      <g transform="translate(24.749375 120.032714)scale(0.1 -0.1)">
       <use xlink:href="#DejaVuSans-50"/>
       <use x="63.623047" xlink:href="#DejaVuSans-53"/>
       <use x="127.246094" xlink:href="#DejaVuSans-48"/>
       <use x="190.869141" xlink:href="#DejaVuSans-48"/>
      </g>
     </g>
    </g>
    <g id="ytick_7">
     <g id="line2d_26">
      <g>
       <use style="stroke:#000000;stroke-width:0.8;" x="57.199375" xlink:href="#m3ba2024fee" y="90.616756"/>
      </g>
     </g>
     <g id="text_17">
      <!-- 3000 -->
      <g transform="translate(24.749375 94.415975)scale(0.1 -0.1)">
       <defs>
        <path d="M 40.578125 39.3125 
Q 47.65625 37.796875 51.625 33 
Q 55.609375 28.21875 55.609375 21.1875 
Q 55.609375 10.40625 48.1875 4.484375 
Q 40.765625 -1.421875 27.09375 -1.421875 
Q 22.515625 -1.421875 17.65625 -0.515625 
Q 12.796875 0.390625 7.625 2.203125 
L 7.625 11.71875 
Q 11.71875 9.328125 16.59375 8.109375 
Q 21.484375 6.890625 26.8125 6.890625 
Q 36.078125 6.890625 40.9375 10.546875 
Q 45.796875 14.203125 45.796875 21.1875 
Q 45.796875 27.640625 41.28125 31.265625 
Q 36.765625 34.90625 28.71875 34.90625 
L 20.21875 34.90625 
L 20.21875 43.015625 
L 29.109375 43.015625 
Q 36.375 43.015625 40.234375 45.921875 
Q 44.09375 48.828125 44.09375 54.296875 
Q 44.09375 59.90625 40.109375 62.90625 
Q 36.140625 65.921875 28.71875 65.921875 
Q 24.65625 65.921875 20.015625 65.03125 
Q 15.375 64.15625 9.8125 62.3125 
L 9.8125 71.09375 
Q 15.4375 72.65625 20.34375 73.4375 
Q 25.25 74.21875 29.59375 74.21875 
Q 40.828125 74.21875 47.359375 69.109375 
Q 53.90625 64.015625 53.90625 55.328125 
Q 53.90625 49.265625 50.4375 45.09375 
Q 46.96875 40.921875 40.578125 39.3125 
z
" id="DejaVuSans-51"/>
       </defs>
       <use xlink:href="#DejaVuSans-51"/>
       <use x="63.623047" xlink:href="#DejaVuSans-48"/>
       <use x="127.246094" xlink:href="#DejaVuSans-48"/>
       <use x="190.869141" xlink:href="#DejaVuSans-48"/>
      </g>
     </g>
    </g>
    <g id="ytick_8">
     <g id="line2d_27">
      <g>
       <use style="stroke:#000000;stroke-width:0.8;" x="57.199375" xlink:href="#m3ba2024fee" y="65.000018"/>
      </g>
     </g>
     <g id="text_18">
      <!-- 3500 -->
      <g transform="translate(24.749375 68.799237)scale(0.1 -0.1)">
       <use xlink:href="#DejaVuSans-51"/>
       <use x="63.623047" xlink:href="#DejaVuSans-53"/>
       <use x="127.246094" xlink:href="#DejaVuSans-48"/>
       <use x="190.869141" xlink:href="#DejaVuSans-48"/>
      </g>
     </g>
    </g>
    <g id="ytick_9">
     <g id="line2d_28">
      <g>
       <use style="stroke:#000000;stroke-width:0.8;" x="57.199375" xlink:href="#m3ba2024fee" y="39.383279"/>
      </g>
     </g>
     <g id="text_19">
      <!-- 4000 -->
      <g transform="translate(24.749375 43.182498)scale(0.1 -0.1)">
       <defs>
        <path d="M 37.796875 64.3125 
L 12.890625 25.390625 
L 37.796875 25.390625 
z
M 35.203125 72.90625 
L 47.609375 72.90625 
L 47.609375 25.390625 
L 58.015625 25.390625 
L 58.015625 17.1875 
L 47.609375 17.1875 
L 47.609375 0 
L 37.796875 0 
L 37.796875 17.1875 
L 4.890625 17.1875 
L 4.890625 26.703125 
z
" id="DejaVuSans-52"/>
       </defs>
       <use xlink:href="#DejaVuSans-52"/>
       <use x="63.623047" xlink:href="#DejaVuSans-48"/>
       <use x="127.246094" xlink:href="#DejaVuSans-48"/>
       <use x="190.869141" xlink:href="#DejaVuSans-48"/>
      </g>
     </g>
    </g>
    <g id="text_20">
     <!-- # COVID-19 Cases -->
     <g transform="translate(17.837813 200.6425)rotate(-90)scale(0.14 -0.14)">
      <defs>
       <path d="M 51.125 44 
L 36.921875 44 
L 32.8125 27.6875 
L 47.125 27.6875 
z
M 43.796875 71.78125 
L 38.71875 51.515625 
L 52.984375 51.515625 
L 58.109375 71.78125 
L 65.921875 71.78125 
L 60.890625 51.515625 
L 76.125 51.515625 
L 76.125 44 
L 58.984375 44 
L 54.984375 27.6875 
L 70.515625 27.6875 
L 70.515625 20.21875 
L 53.078125 20.21875 
L 48 0 
L 40.1875 0 
L 45.21875 20.21875 
L 30.90625 20.21875 
L 25.875 0 
L 18.015625 0 
L 23.09375 20.21875 
L 7.71875 20.21875 
L 7.71875 27.6875 
L 24.90625 27.6875 
L 29 44 
L 13.28125 44 
L 13.28125 51.515625 
L 30.90625 51.515625 
L 35.890625 71.78125 
z
" id="DejaVuSans-35"/>
       <path d="M 64.40625 67.28125 
L 64.40625 56.890625 
Q 59.421875 61.53125 53.78125 63.8125 
Q 48.140625 66.109375 41.796875 66.109375 
Q 29.296875 66.109375 22.65625 58.46875 
Q 16.015625 50.828125 16.015625 36.375 
Q 16.015625 21.96875 22.65625 14.328125 
Q 29.296875 6.6875 41.796875 6.6875 
Q 48.140625 6.6875 53.78125 8.984375 
Q 59.421875 11.28125 64.40625 15.921875 
L 64.40625 5.609375 
Q 59.234375 2.09375 53.4375 0.328125 
Q 47.65625 -1.421875 41.21875 -1.421875 
Q 24.65625 -1.421875 15.125 8.703125 
Q 5.609375 18.84375 5.609375 36.375 
Q 5.609375 53.953125 15.125 64.078125 
Q 24.65625 74.21875 41.21875 74.21875 
Q 47.75 74.21875 53.53125 72.484375 
Q 59.328125 70.75 64.40625 67.28125 
z
" id="DejaVuSans-67"/>
       <path d="M 28.609375 0 
L 0.78125 72.90625 
L 11.078125 72.90625 
L 34.1875 11.53125 
L 57.328125 72.90625 
L 67.578125 72.90625 
L 39.796875 0 
z
" id="DejaVuSans-86"/>
       <path d="M 9.8125 72.90625 
L 19.671875 72.90625 
L 19.671875 0 
L 9.8125 0 
z
" id="DejaVuSans-73"/>
       <path d="M 4.890625 31.390625 
L 31.203125 31.390625 
L 31.203125 23.390625 
L 4.890625 23.390625 
z
" id="DejaVuSans-45"/>
       <path d="M 10.984375 1.515625 
L 10.984375 10.5 
Q 14.703125 8.734375 18.5 7.8125 
Q 22.3125 6.890625 25.984375 6.890625 
Q 35.75 6.890625 40.890625 13.453125 
Q 46.046875 20.015625 46.78125 33.40625 
Q 43.953125 29.203125 39.59375 26.953125 
Q 35.25 24.703125 29.984375 24.703125 
Q 19.046875 24.703125 12.671875 31.3125 
Q 6.296875 37.9375 6.296875 49.421875 
Q 6.296875 60.640625 12.9375 67.421875 
Q 19.578125 74.21875 30.609375 74.21875 
Q 43.265625 74.21875 49.921875 64.515625 
Q 56.59375 54.828125 56.59375 36.375 
Q 56.59375 19.140625 48.40625 8.859375 
Q 40.234375 -1.421875 26.421875 -1.421875 
Q 22.703125 -1.421875 18.890625 -0.6875 
Q 15.09375 0.046875 10.984375 1.515625 
z
M 30.609375 32.421875 
Q 37.25 32.421875 41.125 36.953125 
Q 45.015625 41.5 45.015625 49.421875 
Q 45.015625 57.28125 41.125 61.84375 
Q 37.25 66.40625 30.609375 66.40625 
Q 23.96875 66.40625 20.09375 61.84375 
Q 16.21875 57.28125 16.21875 49.421875 
Q 16.21875 41.5 20.09375 36.953125 
Q 23.96875 32.421875 30.609375 32.421875 
z
" id="DejaVuSans-57"/>
       <path d="M 44.28125 53.078125 
L 44.28125 44.578125 
Q 40.484375 46.53125 36.375 47.5 
Q 32.28125 48.484375 27.875 48.484375 
Q 21.1875 48.484375 17.84375 46.4375 
Q 14.5 44.390625 14.5 40.28125 
Q 14.5 37.15625 16.890625 35.375 
Q 19.28125 33.59375 26.515625 31.984375 
L 29.59375 31.296875 
Q 39.15625 29.25 43.1875 25.515625 
Q 47.21875 21.78125 47.21875 15.09375 
Q 47.21875 7.46875 41.1875 3.015625 
Q 35.15625 -1.421875 24.609375 -1.421875 
Q 20.21875 -1.421875 15.453125 -0.5625 
Q 10.6875 0.296875 5.421875 2 
L 5.421875 11.28125 
Q 10.40625 8.6875 15.234375 7.390625 
Q 20.0625 6.109375 24.8125 6.109375 
Q 31.15625 6.109375 34.5625 8.28125 
Q 37.984375 10.453125 37.984375 14.40625 
Q 37.984375 18.0625 35.515625 20.015625 
Q 33.0625 21.96875 24.703125 23.78125 
L 21.578125 24.515625 
Q 13.234375 26.265625 9.515625 29.90625 
Q 5.8125 33.546875 5.8125 39.890625 
Q 5.8125 47.609375 11.28125 51.796875 
Q 16.75 56 26.8125 56 
Q 31.78125 56 36.171875 55.265625 
Q 40.578125 54.546875 44.28125 53.078125 
z
" id="DejaVuSans-115"/>
      </defs>
      <use xlink:href="#DejaVuSans-35"/>
      <use x="83.789062" xlink:href="#DejaVuSans-32"/>
      <use x="115.576172" xlink:href="#DejaVuSans-67"/>
      <use x="185.400391" xlink:href="#DejaVuSans-79"/>
      <use x="262.361328" xlink:href="#DejaVuSans-86"/>
      <use x="330.769531" xlink:href="#DejaVuSans-73"/>
      <use x="360.261719" xlink:href="#DejaVuSans-68"/>
      <use x="437.263672" xlink:href="#DejaVuSans-45"/>
      <use x="473.347656" xlink:href="#DejaVuSans-49"/>
      <use x="536.970703" xlink:href="#DejaVuSans-57"/>
      <use x="600.59375" xlink:href="#DejaVuSans-32"/>
      <use x="632.380859" xlink:href="#DejaVuSans-67"/>
      <use x="702.205078" xlink:href="#DejaVuSans-97"/>
      <use x="763.484375" xlink:href="#DejaVuSans-115"/>
      <use x="815.583984" xlink:href="#DejaVuSans-101"/>
      <use x="877.107422" xlink:href="#DejaVuSans-115"/>
     </g>
    </g>
   </g>
   <g id="patch_243">
    <path d="M 57.199375 244.317187 
L 57.199375 26.877187 
" style="fill:none;stroke:#000000;stroke-linecap:square;stroke-linejoin:miter;stroke-width:0.8;"/>
   </g>
   <g id="patch_244">
    <path d="M 391.999375 244.317187 
L 391.999375 26.877187 
" style="fill:none;stroke:#000000;stroke-linecap:square;stroke-linejoin:miter;stroke-width:0.8;"/>
   </g>
   <g id="patch_245">
    <path d="M 57.199375 244.317187 
L 391.999375 244.317187 
" style="fill:none;stroke:#000000;stroke-linecap:square;stroke-linejoin:miter;stroke-width:0.8;"/>
   </g>
   <g id="patch_246">
    <path d="M 57.199375 26.877187 
L 391.999375 26.877187 
" style="fill:none;stroke:#000000;stroke-linecap:square;stroke-linejoin:miter;stroke-width:0.8;"/>
   </g>
   <g id="text_21">
    <!-- Canada COVID-19 Daily Cases -->
    <g transform="translate(88.630469 20.877187)scale(0.18 -0.18)">
     <defs>
      <path d="M 45.40625 46.390625 
L 45.40625 75.984375 
L 54.390625 75.984375 
L 54.390625 0 
L 45.40625 0 
L 45.40625 8.203125 
Q 42.578125 3.328125 38.25 0.953125 
Q 33.9375 -1.421875 27.875 -1.421875 
Q 17.96875 -1.421875 11.734375 6.484375 
Q 5.515625 14.40625 5.515625 27.296875 
Q 5.515625 40.1875 11.734375 48.09375 
Q 17.96875 56 27.875 56 
Q 33.9375 56 38.25 53.625 
Q 42.578125 51.265625 45.40625 46.390625 
z
M 14.796875 27.296875 
Q 14.796875 17.390625 18.875 11.75 
Q 22.953125 6.109375 30.078125 6.109375 
Q 37.203125 6.109375 41.296875 11.75 
Q 45.40625 17.390625 45.40625 27.296875 
Q 45.40625 37.203125 41.296875 42.84375 
Q 37.203125 48.484375 30.078125 48.484375 
Q 22.953125 48.484375 18.875 42.84375 
Q 14.796875 37.203125 14.796875 27.296875 
z
" id="DejaVuSans-100"/>
      <path d="M 9.421875 54.6875 
L 18.40625 54.6875 
L 18.40625 0 
L 9.421875 0 
z
M 9.421875 75.984375 
L 18.40625 75.984375 
L 18.40625 64.59375 
L 9.421875 64.59375 
z
" id="DejaVuSans-105"/>
     </defs>
     <use xlink:href="#DejaVuSans-67"/>
     <use x="69.824219" xlink:href="#DejaVuSans-97"/>
     <use x="131.103516" xlink:href="#DejaVuSans-110"/>
     <use x="194.482422" xlink:href="#DejaVuSans-97"/>
     <use x="255.761719" xlink:href="#DejaVuSans-100"/>
     <use x="319.238281" xlink:href="#DejaVuSans-97"/>
     <use x="380.517578" xlink:href="#DejaVuSans-32"/>
     <use x="412.304688" xlink:href="#DejaVuSans-67"/>
     <use x="482.128906" xlink:href="#DejaVuSans-79"/>
     <use x="559.089844" xlink:href="#DejaVuSans-86"/>
     <use x="627.498047" xlink:href="#DejaVuSans-73"/>
     <use x="656.990234" xlink:href="#DejaVuSans-68"/>
     <use x="733.992188" xlink:href="#DejaVuSans-45"/>
     <use x="770.076172" xlink:href="#DejaVuSans-49"/>
     <use x="833.699219" xlink:href="#DejaVuSans-57"/>
     <use x="897.322266" xlink:href="#DejaVuSans-32"/>
     <use x="929.109375" xlink:href="#DejaVuSans-68"/>
     <use x="1006.111328" xlink:href="#DejaVuSans-97"/>
     <use x="1067.390625" xlink:href="#DejaVuSans-105"/>
     <use x="1095.173828" xlink:href="#DejaVuSans-108"/>
     <use x="1122.957031" xlink:href="#DejaVuSans-121"/>
     <use x="1182.136719" xlink:href="#DejaVuSans-32"/>
     <use x="1213.923828" xlink:href="#DejaVuSans-67"/>
     <use x="1283.748047" xlink:href="#DejaVuSans-97"/>
     <use x="1345.027344" xlink:href="#DejaVuSans-115"/>
     <use x="1397.126953" xlink:href="#DejaVuSans-101"/>
     <use x="1458.650391" xlink:href="#DejaVuSans-115"/>
    </g>
   </g>
   <g id="legend_1">
    <g id="patch_247">
     <path d="M 64.199375 49.555312 
L 134.2525 49.555312 
Q 136.2525 49.555312 136.2525 47.555312 
L 136.2525 33.877187 
Q 136.2525 31.877187 134.2525 31.877187 
L 64.199375 31.877187 
Q 62.199375 31.877187 62.199375 33.877187 
L 62.199375 47.555312 
Q 62.199375 49.555312 64.199375 49.555312 
z
" style="fill:#ffffff;opacity:0.8;stroke:#cccccc;stroke-linejoin:miter;"/>
    </g>
    <g id="patch_248">
     <path d="M 66.199375 43.475625 
L 86.199375 43.475625 
L 86.199375 36.475625 
L 66.199375 36.475625 
z
" style="fill:#a62205;"/>
    </g>
    <g id="text_22">
     <!-- Canada -->
     <g transform="translate(94.199375 43.475625)scale(0.1 -0.1)">
      <use xlink:href="#DejaVuSans-67"/>
      <use x="69.824219" xlink:href="#DejaVuSans-97"/>
      <use x="131.103516" xlink:href="#DejaVuSans-110"/>
      <use x="194.482422" xlink:href="#DejaVuSans-97"/>
      <use x="255.761719" xlink:href="#DejaVuSans-100"/>
      <use x="319.238281" xlink:href="#DejaVuSans-97"/>
     </g>
    </g>
   </g>
  </g>
 </g>
 <defs>
  <clipPath id="pe39492bec3">
   <rect height="217.44" width="334.8" x="57.199375" y="26.877187"/>
  </clipPath>
 </defs>
</svg>
