<?xml version="1.0" encoding="utf-8" standalone="no"?>
<!DOCTYPE svg PUBLIC "-//W3C//DTD SVG 1.1//EN"
  "http://www.w3.org/Graphics/SVG/1.1/DTD/svg11.dtd">
<!-- Created with matplotlib (https://matplotlib.org/) -->
<svg height="340.446625pt" version="1.1" viewBox="0 0 399.199375 340.446625" width="399.199375pt" xmlns="http://www.w3.org/2000/svg" xmlns:xlink="http://www.w3.org/1999/xlink">
 <metadata>
  <rdf:RDF xmlns:cc="http://creativecommons.org/ns#" xmlns:dc="http://purl.org/dc/elements/1.1/" xmlns:rdf="http://www.w3.org/1999/02/22-rdf-syntax-ns#">
   <cc:Work>
    <dc:type rdf:resource="http://purl.org/dc/dcmitype/StillImage"/>
    <dc:date>2020-10-29T16:13:16.086855</dc:date>
    <dc:format>image/svg+xml</dc:format>
    <dc:creator>
     <cc:Agent>
      <dc:title>Matplotlib v3.3.1, https://matplotlib.org/</dc:title>
     </cc:Agent>
    </dc:creator>
   </cc:Work>
  </rdf:RDF>
 </metadata>
 <defs>
  <style type="text/css">*{stroke-linecap:butt;stroke-linejoin:round;}</style>
 </defs>
 <g id="figure_1">
  <g id="patch_1">
   <path d="M 0 340.446625 
L 399.199375 340.446625 
L 399.199375 0 
L 0 0 
z
" style="fill:none;"/>
  </g>
  <g id="axes_1">
   <g id="patch_2">
    <path d="M 57.199375 244.317187 
L 391.999375 244.317187 
L 391.999375 26.877187 
L 57.199375 26.877187 
z
" style="fill:#ffffff;"/>
   </g>
   <g id="patch_3">
    <path clip-path="url(#p2f269c1831)" d="M 72.417557 244.317187 
L 73.294054 244.317187 
L 73.294054 244.317187 
L 72.417557 244.317187 
z
" style="fill:#bf00bf;"/>
   </g>
   <g id="patch_4">
    <path clip-path="url(#p2f269c1831)" d="M 73.513178 244.317187 
L 74.389675 244.317187 
L 74.389675 244.317187 
L 73.513178 244.317187 
z
" style="fill:#bf00bf;"/>
   </g>
   <g id="patch_5">
    <path clip-path="url(#p2f269c1831)" d="M 74.6088 244.317187 
L 75.485297 244.317187 
L 75.485297 244.317187 
L 74.6088 244.317187 
z
" style="fill:#bf00bf;"/>
   </g>
   <g id="patch_6">
    <path clip-path="url(#p2f269c1831)" d="M 75.704421 244.317187 
L 76.580918 244.317187 
L 76.580918 244.317187 
L 75.704421 244.317187 
z
" style="fill:#bf00bf;"/>
   </g>
   <g id="patch_7">
    <path clip-path="url(#p2f269c1831)" d="M 76.800043 244.317187 
L 77.67654 244.317187 
L 77.67654 244.317187 
L 76.800043 244.317187 
z
" style="fill:#bf00bf;"/>
   </g>
   <g id="patch_8">
    <path clip-path="url(#p2f269c1831)" d="M 77.895664 244.317187 
L 78.772161 244.317187 
L 78.772161 244.317187 
L 77.895664 244.317187 
z
" style="fill:#bf00bf;"/>
   </g>
   <g id="patch_9">
    <path clip-path="url(#p2f269c1831)" d="M 78.991285 244.317187 
L 79.867783 244.317187 
L 79.867783 244.317187 
L 78.991285 244.317187 
z
" style="fill:#bf00bf;"/>
   </g>
   <g id="patch_10">
    <path clip-path="url(#p2f269c1831)" d="M 80.086907 244.317187 
L 80.963404 244.317187 
L 80.963404 244.317187 
L 80.086907 244.317187 
z
" style="fill:#bf00bf;"/>
   </g>
   <g id="patch_11">
    <path clip-path="url(#p2f269c1831)" d="M 81.182528 244.317187 
L 82.059026 244.317187 
L 82.059026 244.317187 
L 81.182528 244.317187 
z
" style="fill:#bf00bf;"/>
   </g>
   <g id="patch_12">
    <path clip-path="url(#p2f269c1831)" d="M 82.27815 244.317187 
L 83.154647 244.317187 
L 83.154647 244.317187 
L 82.27815 244.317187 
z
" style="fill:#bf00bf;"/>
   </g>
   <g id="patch_13">
    <path clip-path="url(#p2f269c1831)" d="M 83.373771 244.317187 
L 84.250268 244.317187 
L 84.250268 244.317187 
L 83.373771 244.317187 
z
" style="fill:#bf00bf;"/>
   </g>
   <g id="patch_14">
    <path clip-path="url(#p2f269c1831)" d="M 84.469393 244.317187 
L 85.34589 244.317187 
L 85.34589 244.317187 
L 84.469393 244.317187 
z
" style="fill:#bf00bf;"/>
   </g>
   <g id="patch_15">
    <path clip-path="url(#p2f269c1831)" d="M 85.565014 244.317187 
L 86.441511 244.317187 
L 86.441511 244.317187 
L 85.565014 244.317187 
z
" style="fill:#bf00bf;"/>
   </g>
   <g id="patch_16">
    <path clip-path="url(#p2f269c1831)" d="M 86.660636 244.317187 
L 87.537133 244.317187 
L 87.537133 244.317187 
L 86.660636 244.317187 
z
" style="fill:#bf00bf;"/>
   </g>
   <g id="patch_17">
    <path clip-path="url(#p2f269c1831)" d="M 87.756257 244.317187 
L 88.632754 244.317187 
L 88.632754 244.317187 
L 87.756257 244.317187 
z
" style="fill:#bf00bf;"/>
   </g>
   <g id="patch_18">
    <path clip-path="url(#p2f269c1831)" d="M 88.851878 244.317187 
L 89.728376 244.317187 
L 89.728376 244.317187 
L 88.851878 244.317187 
z
" style="fill:#bf00bf;"/>
   </g>
   <g id="patch_19">
    <path clip-path="url(#p2f269c1831)" d="M 89.9475 244.317187 
L 90.823997 244.317187 
L 90.823997 244.317187 
L 89.9475 244.317187 
z
" style="fill:#bf00bf;"/>
   </g>
   <g id="patch_20">
    <path clip-path="url(#p2f269c1831)" d="M 91.043121 244.317187 
L 91.919618 244.317187 
L 91.919618 244.317187 
L 91.043121 244.317187 
z
" style="fill:#bf00bf;"/>
   </g>
   <g id="patch_21">
    <path clip-path="url(#p2f269c1831)" d="M 92.138743 244.317187 
L 93.01524 244.317187 
L 93.01524 244.317187 
L 92.138743 244.317187 
z
" style="fill:#bf00bf;"/>
   </g>
   <g id="patch_22">
    <path clip-path="url(#p2f269c1831)" d="M 93.234364 244.317187 
L 94.110861 244.317187 
L 94.110861 244.317187 
L 93.234364 244.317187 
z
" style="fill:#bf00bf;"/>
   </g>
   <g id="patch_23">
    <path clip-path="url(#p2f269c1831)" d="M 94.329986 244.317187 
L 95.206483 244.317187 
L 95.206483 244.317187 
L 94.329986 244.317187 
z
" style="fill:#bf00bf;"/>
   </g>
   <g id="patch_24">
    <path clip-path="url(#p2f269c1831)" d="M 95.425607 244.317187 
L 96.302104 244.317187 
L 96.302104 244.317187 
L 95.425607 244.317187 
z
" style="fill:#bf00bf;"/>
   </g>
   <g id="patch_25">
    <path clip-path="url(#p2f269c1831)" d="M 96.521229 244.317187 
L 97.397726 244.317187 
L 97.397726 244.317187 
L 96.521229 244.317187 
z
" style="fill:#bf00bf;"/>
   </g>
   <g id="patch_26">
    <path clip-path="url(#p2f269c1831)" d="M 97.61685 244.317187 
L 98.493347 244.317187 
L 98.493347 244.317187 
L 97.61685 244.317187 
z
" style="fill:#bf00bf;"/>
   </g>
   <g id="patch_27">
    <path clip-path="url(#p2f269c1831)" d="M 98.712471 244.317187 
L 99.588969 244.317187 
L 99.588969 244.317187 
L 98.712471 244.317187 
z
" style="fill:#bf00bf;"/>
   </g>
   <g id="patch_28">
    <path clip-path="url(#p2f269c1831)" d="M 99.808093 244.317187 
L 100.68459 244.317187 
L 100.68459 244.317187 
L 99.808093 244.317187 
z
" style="fill:#bf00bf;"/>
   </g>
   <g id="patch_29">
    <path clip-path="url(#p2f269c1831)" d="M 100.903714 244.317187 
L 101.780211 244.317187 
L 101.780211 244.317187 
L 100.903714 244.317187 
z
" style="fill:#bf00bf;"/>
   </g>
   <g id="patch_30">
    <path clip-path="url(#p2f269c1831)" d="M 101.999336 244.317187 
L 102.875833 244.317187 
L 102.875833 244.317187 
L 101.999336 244.317187 
z
" style="fill:#bf00bf;"/>
   </g>
   <g id="patch_31">
    <path clip-path="url(#p2f269c1831)" d="M 103.094957 244.317187 
L 103.971454 244.317187 
L 103.971454 244.317187 
L 103.094957 244.317187 
z
" style="fill:#bf00bf;"/>
   </g>
   <g id="patch_32">
    <path clip-path="url(#p2f269c1831)" d="M 104.190579 244.317187 
L 105.067076 244.317187 
L 105.067076 244.317187 
L 104.190579 244.317187 
z
" style="fill:#bf00bf;"/>
   </g>
   <g id="patch_33">
    <path clip-path="url(#p2f269c1831)" d="M 105.2862 244.317187 
L 106.162697 244.317187 
L 106.162697 244.317187 
L 105.2862 244.317187 
z
" style="fill:#bf00bf;"/>
   </g>
   <g id="patch_34">
    <path clip-path="url(#p2f269c1831)" d="M 106.381821 244.317187 
L 107.258319 244.317187 
L 107.258319 244.317187 
L 106.381821 244.317187 
z
" style="fill:#bf00bf;"/>
   </g>
   <g id="patch_35">
    <path clip-path="url(#p2f269c1831)" d="M 107.477443 244.317187 
L 108.35394 244.317187 
L 108.35394 244.317187 
L 107.477443 244.317187 
z
" style="fill:#bf00bf;"/>
   </g>
   <g id="patch_36">
    <path clip-path="url(#p2f269c1831)" d="M 108.573064 244.317187 
L 109.449562 244.317187 
L 109.449562 244.317187 
L 108.573064 244.317187 
z
" style="fill:#bf00bf;"/>
   </g>
   <g id="patch_37">
    <path clip-path="url(#p2f269c1831)" d="M 109.668686 244.317187 
L 110.545183 244.317187 
L 110.545183 244.317187 
L 109.668686 244.317187 
z
" style="fill:#bf00bf;"/>
   </g>
   <g id="patch_38">
    <path clip-path="url(#p2f269c1831)" d="M 110.764307 244.317187 
L 111.640804 244.317187 
L 111.640804 244.317187 
L 110.764307 244.317187 
z
" style="fill:#bf00bf;"/>
   </g>
   <g id="patch_39">
    <path clip-path="url(#p2f269c1831)" d="M 111.859929 244.317187 
L 112.736426 244.317187 
L 112.736426 244.317187 
L 111.859929 244.317187 
z
" style="fill:#bf00bf;"/>
   </g>
   <g id="patch_40">
    <path clip-path="url(#p2f269c1831)" d="M 112.95555 244.317187 
L 113.832047 244.317187 
L 113.832047 244.317187 
L 112.95555 244.317187 
z
" style="fill:#bf00bf;"/>
   </g>
   <g id="patch_41">
    <path clip-path="url(#p2f269c1831)" d="M 114.051172 244.317187 
L 114.927669 244.317187 
L 114.927669 244.317187 
L 114.051172 244.317187 
z
" style="fill:#bf00bf;"/>
   </g>
   <g id="patch_42">
    <path clip-path="url(#p2f269c1831)" d="M 115.146793 244.317187 
L 116.02329 244.317187 
L 116.02329 244.317187 
L 115.146793 244.317187 
z
" style="fill:#bf00bf;"/>
   </g>
   <g id="patch_43">
    <path clip-path="url(#p2f269c1831)" d="M 116.242414 244.317187 
L 117.118912 244.317187 
L 117.118912 244.317187 
L 116.242414 244.317187 
z
" style="fill:#bf00bf;"/>
   </g>
   <g id="patch_44">
    <path clip-path="url(#p2f269c1831)" d="M 117.338036 244.317187 
L 118.214533 244.317187 
L 118.214533 244.317187 
L 117.338036 244.317187 
z
" style="fill:#bf00bf;"/>
   </g>
   <g id="patch_45">
    <path clip-path="url(#p2f269c1831)" d="M 118.433657 244.317187 
L 119.310155 244.317187 
L 119.310155 244.317187 
L 118.433657 244.317187 
z
" style="fill:#bf00bf;"/>
   </g>
   <g id="patch_46">
    <path clip-path="url(#p2f269c1831)" d="M 119.529279 244.317187 
L 120.405776 244.317187 
L 120.405776 244.203902 
L 119.529279 244.203902 
z
" style="fill:#bf00bf;"/>
   </g>
   <g id="patch_47">
    <path clip-path="url(#p2f269c1831)" d="M 120.6249 244.317187 
L 121.501397 244.317187 
L 121.501397 244.203902 
L 120.6249 244.203902 
z
" style="fill:#bf00bf;"/>
   </g>
   <g id="patch_48">
    <path clip-path="url(#p2f269c1831)" d="M 121.720522 244.317187 
L 122.597019 244.317187 
L 122.597019 243.637475 
L 121.720522 243.637475 
z
" style="fill:#bf00bf;"/>
   </g>
   <g id="patch_49">
    <path clip-path="url(#p2f269c1831)" d="M 122.816143 244.317187 
L 123.69264 244.317187 
L 123.69264 244.317187 
L 122.816143 244.317187 
z
" style="fill:#bf00bf;"/>
   </g>
   <g id="patch_50">
    <path clip-path="url(#p2f269c1831)" d="M 123.911765 244.317187 
L 124.788262 244.317187 
L 124.788262 243.864046 
L 123.911765 243.864046 
z
" style="fill:#bf00bf;"/>
   </g>
   <g id="patch_51">
    <path clip-path="url(#p2f269c1831)" d="M 125.007386 244.317187 
L 125.883883 244.317187 
L 125.883883 243.75076 
L 125.007386 243.75076 
z
" style="fill:#bf00bf;"/>
   </g>
   <g id="patch_52">
    <path clip-path="url(#p2f269c1831)" d="M 126.103007 244.317187 
L 126.979505 244.317187 
L 126.979505 242.391336 
L 126.103007 242.391336 
z
" style="fill:#bf00bf;"/>
   </g>
   <g id="patch_53">
    <path clip-path="url(#p2f269c1831)" d="M 127.198629 244.317187 
L 128.075126 244.317187 
L 128.075126 242.617906 
L 127.198629 242.617906 
z
" style="fill:#bf00bf;"/>
   </g>
   <g id="patch_54">
    <path clip-path="url(#p2f269c1831)" d="M 128.29425 244.317187 
L 129.170747 244.317187 
L 129.170747 244.317187 
L 128.29425 244.317187 
z
" style="fill:#bf00bf;"/>
   </g>
   <g id="patch_55">
    <path clip-path="url(#p2f269c1831)" d="M 129.389872 244.317187 
L 130.266369 244.317187 
L 130.266369 244.317187 
L 129.389872 244.317187 
z
" style="fill:#bf00bf;"/>
   </g>
   <g id="patch_56">
    <path clip-path="url(#p2f269c1831)" d="M 130.485493 244.317187 
L 131.36199 244.317187 
L 131.36199 233.555074 
L 130.485493 233.555074 
z
" style="fill:#bf00bf;"/>
   </g>
   <g id="patch_57">
    <path clip-path="url(#p2f269c1831)" d="M 131.581115 244.317187 
L 132.457612 244.317187 
L 132.457612 242.504621 
L 131.581115 242.504621 
z
" style="fill:#bf00bf;"/>
   </g>
   <g id="patch_58">
    <path clip-path="url(#p2f269c1831)" d="M 132.676736 244.317187 
L 133.553233 244.317187 
L 133.553233 241.711623 
L 132.676736 241.711623 
z
" style="fill:#bf00bf;"/>
   </g>
   <g id="patch_59">
    <path clip-path="url(#p2f269c1831)" d="M 133.772358 244.317187 
L 134.648855 244.317187 
L 134.648855 240.578769 
L 133.772358 240.578769 
z
" style="fill:#bf00bf;"/>
   </g>
   <g id="patch_60">
    <path clip-path="url(#p2f269c1831)" d="M 134.867979 244.317187 
L 135.744476 244.317187 
L 135.744476 237.406778 
L 134.867979 237.406778 
z
" style="fill:#bf00bf;"/>
   </g>
   <g id="patch_61">
    <path clip-path="url(#p2f269c1831)" d="M 135.9636 244.317187 
L 136.840098 244.317187 
L 136.840098 234.574643 
L 135.9636 234.574643 
z
" style="fill:#bf00bf;"/>
   </g>
   <g id="patch_62">
    <path clip-path="url(#p2f269c1831)" d="M 137.059222 244.317187 
L 137.935719 244.317187 
L 137.935719 231.629223 
L 137.059222 231.629223 
z
" style="fill:#bf00bf;"/>
   </g>
   <g id="patch_63">
    <path clip-path="url(#p2f269c1831)" d="M 138.154843 244.317187 
L 139.03134 244.317187 
L 139.03134 231.176081 
L 138.154843 231.176081 
z
" style="fill:#bf00bf;"/>
   </g>
   <g id="patch_64">
    <path clip-path="url(#p2f269c1831)" d="M 139.250465 244.317187 
L 140.126962 244.317187 
L 140.126962 229.703371 
L 139.250465 229.703371 
z
" style="fill:#bf00bf;"/>
   </g>
   <g id="patch_65">
    <path clip-path="url(#p2f269c1831)" d="M 140.346086 244.317187 
L 141.222583 244.317187 
L 141.222583 221.546822 
L 140.346086 221.546822 
z
" style="fill:#bf00bf;"/>
   </g>
   <g id="patch_66">
    <path clip-path="url(#p2f269c1831)" d="M 141.441708 244.317187 
L 142.318205 244.317187 
L 142.318205 225.625096 
L 141.441708 225.625096 
z
" style="fill:#bf00bf;"/>
   </g>
   <g id="patch_67">
    <path clip-path="url(#p2f269c1831)" d="M 142.537329 244.317187 
L 143.413826 244.317187 
L 143.413826 205.347009 
L 142.537329 205.347009 
z
" style="fill:#bf00bf;"/>
   </g>
   <g id="patch_68">
    <path clip-path="url(#p2f269c1831)" d="M 143.63295 244.317187 
L 144.509448 244.317187 
L 144.509448 209.878425 
L 143.63295 209.878425 
z
" style="fill:#bf00bf;"/>
   </g>
   <g id="patch_69">
    <path clip-path="url(#p2f269c1831)" d="M 144.728572 244.317187 
L 145.605069 244.317187 
L 145.605069 207.272861 
L 144.728572 207.272861 
z
" style="fill:#bf00bf;"/>
   </g>
   <g id="patch_70">
    <path clip-path="url(#p2f269c1831)" d="M 145.824193 244.317187 
L 146.700691 244.317187 
L 146.700691 216.448979 
L 145.824193 216.448979 
z
" style="fill:#bf00bf;"/>
   </g>
   <g id="patch_71">
    <path clip-path="url(#p2f269c1831)" d="M 146.919815 244.317187 
L 147.796312 244.317187 
L 147.796312 208.065859 
L 146.919815 208.065859 
z
" style="fill:#bf00bf;"/>
   </g>
   <g id="patch_72">
    <path clip-path="url(#p2f269c1831)" d="M 148.015436 244.317187 
L 148.891933 244.317187 
L 148.891933 205.913436 
L 148.015436 205.913436 
z
" style="fill:#bf00bf;"/>
   </g>
   <g id="patch_73">
    <path clip-path="url(#p2f269c1831)" d="M 149.111058 244.317187 
L 149.987555 244.317187 
L 149.987555 201.721876 
L 149.111058 201.721876 
z
" style="fill:#bf00bf;"/>
   </g>
   <g id="patch_74">
    <path clip-path="url(#p2f269c1831)" d="M 150.206679 244.317187 
L 151.083176 244.317187 
L 151.083176 200.589022 
L 150.206679 200.589022 
z
" style="fill:#bf00bf;"/>
   </g>
   <g id="patch_75">
    <path clip-path="url(#p2f269c1831)" d="M 151.302301 244.317187 
L 152.178798 244.317187 
L 152.178798 193.905184 
L 151.302301 193.905184 
z
" style="fill:#bf00bf;"/>
   </g>
   <g id="patch_76">
    <path clip-path="url(#p2f269c1831)" d="M 152.397922 244.317187 
L 153.274419 244.317187 
L 153.274419 199.90931 
L 152.397922 199.90931 
z
" style="fill:#bf00bf;"/>
   </g>
   <g id="patch_77">
    <path clip-path="url(#p2f269c1831)" d="M 153.493543 244.317187 
L 154.370041 244.317187 
L 154.370041 200.702308 
L 153.493543 200.702308 
z
" style="fill:#bf00bf;"/>
   </g>
   <g id="patch_78">
    <path clip-path="url(#p2f269c1831)" d="M 154.589165 244.317187 
L 155.465662 244.317187 
L 155.465662 219.167828 
L 154.589165 219.167828 
z
" style="fill:#bf00bf;"/>
   </g>
   <g id="patch_79">
    <path clip-path="url(#p2f269c1831)" d="M 155.684786 244.317187 
L 156.561284 244.317187 
L 156.561284 215.202839 
L 155.684786 215.202839 
z
" style="fill:#bf00bf;"/>
   </g>
   <g id="patch_80">
    <path clip-path="url(#p2f269c1831)" d="M 156.780408 244.317187 
L 157.656905 244.317187 
L 157.656905 218.714687 
L 156.780408 218.714687 
z
" style="fill:#bf00bf;"/>
   </g>
   <g id="patch_81">
    <path clip-path="url(#p2f269c1831)" d="M 157.876029 244.317187 
L 158.752526 244.317187 
L 158.752526 182.350073 
L 157.876029 182.350073 
z
" style="fill:#bf00bf;"/>
   </g>
   <g id="patch_82">
    <path clip-path="url(#p2f269c1831)" d="M 158.971651 244.317187 
L 159.848148 244.317187 
L 159.848148 225.851667 
L 158.971651 225.851667 
z
" style="fill:#bf00bf;"/>
   </g>
   <g id="patch_83">
    <path clip-path="url(#p2f269c1831)" d="M 160.067272 244.317187 
L 160.943769 244.317187 
L 160.943769 184.502495 
L 160.067272 184.502495 
z
" style="fill:#bf00bf;"/>
   </g>
   <g id="patch_84">
    <path clip-path="url(#p2f269c1831)" d="M 161.162894 244.317187 
L 162.039391 244.317187 
L 162.039391 197.870173 
L 161.162894 197.870173 
z
" style="fill:#bf00bf;"/>
   </g>
   <g id="patch_85">
    <path clip-path="url(#p2f269c1831)" d="M 162.258515 244.317187 
L 163.135012 244.317187 
L 163.135012 200.362452 
L 162.258515 200.362452 
z
" style="fill:#bf00bf;"/>
   </g>
   <g id="patch_86">
    <path clip-path="url(#p2f269c1831)" d="M 163.354136 244.317187 
L 164.230634 244.317187 
L 164.230634 215.995837 
L 163.354136 215.995837 
z
" style="fill:#bf00bf;"/>
   </g>
   <g id="patch_87">
    <path clip-path="url(#p2f269c1831)" d="M 164.449758 244.317187 
L 165.326255 244.317187 
L 165.326255 205.913436 
L 164.449758 205.913436 
z
" style="fill:#bf00bf;"/>
   </g>
   <g id="patch_88">
    <path clip-path="url(#p2f269c1831)" d="M 165.545379 244.317187 
L 166.421876 244.317187 
L 166.421876 210.104996 
L 165.545379 210.104996 
z
" style="fill:#bf00bf;"/>
   </g>
   <g id="patch_89">
    <path clip-path="url(#p2f269c1831)" d="M 166.641001 244.317187 
L 167.517498 244.317187 
L 167.517498 191.639476 
L 166.641001 191.639476 
z
" style="fill:#bf00bf;"/>
   </g>
   <g id="patch_90">
    <path clip-path="url(#p2f269c1831)" d="M 167.736622 244.317187 
L 168.613119 244.317187 
L 168.613119 200.589022 
L 167.736622 200.589022 
z
" style="fill:#bf00bf;"/>
   </g>
   <g id="patch_91">
    <path clip-path="url(#p2f269c1831)" d="M 168.832244 244.317187 
L 169.708741 244.317187 
L 169.708741 221.546822 
L 168.832244 221.546822 
z
" style="fill:#bf00bf;"/>
   </g>
   <g id="patch_92">
    <path clip-path="url(#p2f269c1831)" d="M 169.927865 244.317187 
L 170.804362 244.317187 
L 170.804362 200.702308 
L 169.927865 200.702308 
z
" style="fill:#bf00bf;"/>
   </g>
   <g id="patch_93">
    <path clip-path="url(#p2f269c1831)" d="M 171.023487 244.317187 
L 171.899984 244.317187 
L 171.899984 204.780582 
L 171.023487 204.780582 
z
" style="fill:#bf00bf;"/>
   </g>
   <g id="patch_94">
    <path clip-path="url(#p2f269c1831)" d="M 172.119108 244.317187 
L 172.995605 244.317187 
L 172.995605 192.545759 
L 172.119108 192.545759 
z
" style="fill:#bf00bf;"/>
   </g>
   <g id="patch_95">
    <path clip-path="url(#p2f269c1831)" d="M 173.214729 244.317187 
L 174.091227 244.317187 
L 174.091227 203.874299 
L 173.214729 203.874299 
z
" style="fill:#bf00bf;"/>
   </g>
   <g id="patch_96">
    <path clip-path="url(#p2f269c1831)" d="M 174.310351 244.317187 
L 175.186848 244.317187 
L 175.186848 130.805215 
L 174.310351 130.805215 
z
" style="fill:#bf00bf;"/>
   </g>
   <g id="patch_97">
    <path clip-path="url(#p2f269c1831)" d="M 175.405972 244.317187 
L 176.282469 244.317187 
L 176.282469 166.829973 
L 175.405972 166.829973 
z
" style="fill:#bf00bf;"/>
   </g>
   <g id="patch_98">
    <path clip-path="url(#p2f269c1831)" d="M 176.501594 244.317187 
L 177.378091 244.317187 
L 177.378091 189.713624 
L 176.501594 189.713624 
z
" style="fill:#bf00bf;"/>
   </g>
   <g id="patch_99">
    <path clip-path="url(#p2f269c1831)" d="M 177.597215 244.317187 
L 178.473712 244.317187 
L 178.473712 193.565328 
L 177.597215 193.565328 
z
" style="fill:#bf00bf;"/>
   </g>
   <g id="patch_100">
    <path clip-path="url(#p2f269c1831)" d="M 178.692837 244.317187 
L 179.569334 244.317187 
L 179.569334 194.471611 
L 178.692837 194.471611 
z
" style="fill:#bf00bf;"/>
   </g>
   <g id="patch_101">
    <path clip-path="url(#p2f269c1831)" d="M 179.788458 244.317187 
L 180.664955 244.317187 
L 180.664955 194.811467 
L 179.788458 194.811467 
z
" style="fill:#bf00bf;"/>
   </g>
   <g id="patch_102">
    <path clip-path="url(#p2f269c1831)" d="M 180.884079 244.317187 
L 181.760577 244.317187 
L 181.760577 186.881489 
L 180.884079 186.881489 
z
" style="fill:#bf00bf;"/>
   </g>
   <g id="patch_103">
    <path clip-path="url(#p2f269c1831)" d="M 181.979701 244.317187 
L 182.856198 244.317187 
L 182.856198 189.260482 
L 181.979701 189.260482 
z
" style="fill:#bf00bf;"/>
   </g>
   <g id="patch_104">
    <path clip-path="url(#p2f269c1831)" d="M 183.075322 244.317187 
L 183.95182 244.317187 
L 183.95182 193.112186 
L 183.075322 193.112186 
z
" style="fill:#bf00bf;"/>
   </g>
   <g id="patch_105">
    <path clip-path="url(#p2f269c1831)" d="M 184.170944 244.317187 
L 185.047441 244.317187 
L 185.047441 197.417031 
L 184.170944 197.417031 
z
" style="fill:#bf00bf;"/>
   </g>
   <g id="patch_106">
    <path clip-path="url(#p2f269c1831)" d="M 185.266565 244.317187 
L 186.143062 244.317187 
L 186.143062 205.347009 
L 185.266565 205.347009 
z
" style="fill:#bf00bf;"/>
   </g>
   <g id="patch_107">
    <path clip-path="url(#p2f269c1831)" d="M 186.362187 244.317187 
L 187.238684 244.317187 
L 187.238684 194.584896 
L 186.362187 194.584896 
z
" style="fill:#bf00bf;"/>
   </g>
   <g id="patch_108">
    <path clip-path="url(#p2f269c1831)" d="M 187.457808 244.317187 
L 188.334305 244.317187 
L 188.334305 196.624033 
L 187.457808 196.624033 
z
" style="fill:#bf00bf;"/>
   </g>
   <g id="patch_109">
    <path clip-path="url(#p2f269c1831)" d="M 188.55343 244.317187 
L 189.429927 244.317187 
L 189.429927 178.611655 
L 188.55343 178.611655 
z
" style="fill:#bf00bf;"/>
   </g>
   <g id="patch_110">
    <path clip-path="url(#p2f269c1831)" d="M 189.649051 244.317187 
L 190.525548 244.317187 
L 190.525548 190.506622 
L 189.649051 190.506622 
z
" style="fill:#bf00bf;"/>
   </g>
   <g id="patch_111">
    <path clip-path="url(#p2f269c1831)" d="M 190.744672 244.317187 
L 191.62117 244.317187 
L 191.62117 185.068922 
L 190.744672 185.068922 
z
" style="fill:#bf00bf;"/>
   </g>
   <g id="patch_112">
    <path clip-path="url(#p2f269c1831)" d="M 191.840294 244.317187 
L 192.716791 244.317187 
L 192.716791 208.519001 
L 191.840294 208.519001 
z
" style="fill:#bf00bf;"/>
   </g>
   <g id="patch_113">
    <path clip-path="url(#p2f269c1831)" d="M 192.935915 244.317187 
L 193.812413 244.317187 
L 193.812413 232.648791 
L 192.935915 232.648791 
z
" style="fill:#bf00bf;"/>
   </g>
   <g id="patch_114">
    <path clip-path="url(#p2f269c1831)" d="M 194.031537 244.317187 
L 194.908034 244.317187 
L 194.908034 203.987584 
L 194.031537 203.987584 
z
" style="fill:#bf00bf;"/>
   </g>
   <g id="patch_115">
    <path clip-path="url(#p2f269c1831)" d="M 195.127158 244.317187 
L 196.003655 244.317187 
L 196.003655 209.198713 
L 195.127158 209.198713 
z
" style="fill:#bf00bf;"/>
   </g>
   <g id="patch_116">
    <path clip-path="url(#p2f269c1831)" d="M 196.22278 244.317187 
L 197.099277 244.317187 
L 197.099277 203.421157 
L 196.22278 203.421157 
z
" style="fill:#bf00bf;"/>
   </g>
   <g id="patch_117">
    <path clip-path="url(#p2f269c1831)" d="M 197.318401 244.317187 
L 198.194898 244.317187 
L 198.194898 202.514874 
L 197.318401 202.514874 
z
" style="fill:#bf00bf;"/>
   </g>
   <g id="patch_118">
    <path clip-path="url(#p2f269c1831)" d="M 198.414023 244.317187 
L 199.29052 244.317187 
L 199.29052 201.268735 
L 198.414023 201.268735 
z
" style="fill:#bf00bf;"/>
   </g>
   <g id="patch_119">
    <path clip-path="url(#p2f269c1831)" d="M 199.509644 244.317187 
L 200.386141 244.317187 
L 200.386141 211.917563 
L 199.509644 211.917563 
z
" style="fill:#bf00bf;"/>
   </g>
   <g id="patch_120">
    <path clip-path="url(#p2f269c1831)" d="M 200.605265 244.317187 
L 201.481763 244.317187 
L 201.481763 210.558138 
L 200.605265 210.558138 
z
" style="fill:#bf00bf;"/>
   </g>
   <g id="patch_121">
    <path clip-path="url(#p2f269c1831)" d="M 201.700887 244.317187 
L 202.577384 244.317187 
L 202.577384 209.878425 
L 201.700887 209.878425 
z
" style="fill:#bf00bf;"/>
   </g>
   <g id="patch_122">
    <path clip-path="url(#p2f269c1831)" d="M 202.796508 244.317187 
L 203.673005 244.317187 
L 203.673005 204.327441 
L 202.796508 204.327441 
z
" style="fill:#bf00bf;"/>
   </g>
   <g id="patch_123">
    <path clip-path="url(#p2f269c1831)" d="M 203.89213 244.317187 
L 204.768627 244.317187 
L 204.768627 202.514874 
L 203.89213 202.514874 
z
" style="fill:#bf00bf;"/>
   </g>
   <g id="patch_124">
    <path clip-path="url(#p2f269c1831)" d="M 204.987751 244.317187 
L 205.864248 244.317187 
L 205.864248 206.479863 
L 204.987751 206.479863 
z
" style="fill:#bf00bf;"/>
   </g>
   <g id="patch_125">
    <path clip-path="url(#p2f269c1831)" d="M 206.083373 244.317187 
L 206.95987 244.317187 
L 206.95987 189.713624 
L 206.083373 189.713624 
z
" style="fill:#bf00bf;"/>
   </g>
   <g id="patch_126">
    <path clip-path="url(#p2f269c1831)" d="M 207.178994 244.317187 
L 208.055491 244.317187 
L 208.055491 221.660107 
L 207.178994 221.660107 
z
" style="fill:#bf00bf;"/>
   </g>
   <g id="patch_127">
    <path clip-path="url(#p2f269c1831)" d="M 208.274616 244.317187 
L 209.151113 244.317187 
L 209.151113 234.234787 
L 208.274616 234.234787 
z
" style="fill:#bf00bf;"/>
   </g>
   <g id="patch_128">
    <path clip-path="url(#p2f269c1831)" d="M 209.370237 244.317187 
L 210.246734 244.317187 
L 210.246734 212.937131 
L 209.370237 212.937131 
z
" style="fill:#bf00bf;"/>
   </g>
   <g id="patch_129">
    <path clip-path="url(#p2f269c1831)" d="M 210.465858 244.317187 
L 211.342356 244.317187 
L 211.342356 188.58077 
L 210.465858 188.58077 
z
" style="fill:#bf00bf;"/>
   </g>
   <g id="patch_130">
    <path clip-path="url(#p2f269c1831)" d="M 211.56148 244.317187 
L 212.437977 244.317187 
L 212.437977 230.043227 
L 211.56148 230.043227 
z
" style="fill:#bf00bf;"/>
   </g>
   <g id="patch_131">
    <path clip-path="url(#p2f269c1831)" d="M 212.657101 244.317187 
L 213.533598 244.317187 
L 213.533598 188.58077 
L 212.657101 188.58077 
z
" style="fill:#bf00bf;"/>
   </g>
   <g id="patch_132">
    <path clip-path="url(#p2f269c1831)" d="M 213.752723 244.317187 
L 214.62922 244.317187 
L 214.62922 189.373768 
L 213.752723 189.373768 
z
" style="fill:#bf00bf;"/>
   </g>
   <g id="patch_133">
    <path clip-path="url(#p2f269c1831)" d="M 214.848344 244.317187 
L 215.724841 244.317187 
L 215.724841 212.597275 
L 214.848344 212.597275 
z
" style="fill:#bf00bf;"/>
   </g>
   <g id="patch_134">
    <path clip-path="url(#p2f269c1831)" d="M 215.943966 244.317187 
L 216.820463 244.317187 
L 216.820463 221.773393 
L 215.943966 221.773393 
z
" style="fill:#bf00bf;"/>
   </g>
   <g id="patch_135">
    <path clip-path="url(#p2f269c1831)" d="M 217.039587 244.317187 
L 217.916084 244.317187 
L 217.916084 220.413968 
L 217.039587 220.413968 
z
" style="fill:#bf00bf;"/>
   </g>
   <g id="patch_136">
    <path clip-path="url(#p2f269c1831)" d="M 218.135208 244.317187 
L 219.011706 244.317187 
L 219.011706 213.503558 
L 218.135208 213.503558 
z
" style="fill:#bf00bf;"/>
   </g>
   <g id="patch_137">
    <path clip-path="url(#p2f269c1831)" d="M 219.23083 244.317187 
L 220.107327 244.317187 
L 220.107327 210.331567 
L 219.23083 210.331567 
z
" style="fill:#bf00bf;"/>
   </g>
   <g id="patch_138">
    <path clip-path="url(#p2f269c1831)" d="M 220.326451 244.317187 
L 221.202949 244.317187 
L 221.202949 215.42941 
L 220.326451 215.42941 
z
" style="fill:#bf00bf;"/>
   </g>
   <g id="patch_139">
    <path clip-path="url(#p2f269c1831)" d="M 221.422073 244.317187 
L 222.29857 244.317187 
L 222.29857 217.921689 
L 221.422073 217.921689 
z
" style="fill:#bf00bf;"/>
   </g>
   <g id="patch_140">
    <path clip-path="url(#p2f269c1831)" d="M 222.517694 244.317187 
L 223.394191 244.317187 
L 223.394191 226.984521 
L 222.517694 226.984521 
z
" style="fill:#bf00bf;"/>
   </g>
   <g id="patch_141">
    <path clip-path="url(#p2f269c1831)" d="M 223.613316 244.317187 
L 224.489813 244.317187 
L 224.489813 223.699244 
L 223.613316 223.699244 
z
" style="fill:#bf00bf;"/>
   </g>
   <g id="patch_142">
    <path clip-path="url(#p2f269c1831)" d="M 224.708937 244.317187 
L 225.585434 244.317187 
L 225.585434 225.738382 
L 224.708937 225.738382 
z
" style="fill:#bf00bf;"/>
   </g>
   <g id="patch_143">
    <path clip-path="url(#p2f269c1831)" d="M 225.804559 244.317187 
L 226.681056 244.317187 
L 226.681056 227.097806 
L 225.804559 227.097806 
z
" style="fill:#bf00bf;"/>
   </g>
   <g id="patch_144">
    <path clip-path="url(#p2f269c1831)" d="M 226.90018 244.317187 
L 227.776677 244.317187 
L 227.776677 227.550948 
L 226.90018 227.550948 
z
" style="fill:#bf00bf;"/>
   </g>
   <g id="patch_145">
    <path clip-path="url(#p2f269c1831)" d="M 227.995801 244.317187 
L 228.872299 244.317187 
L 228.872299 224.492242 
L 227.995801 224.492242 
z
" style="fill:#bf00bf;"/>
   </g>
   <g id="patch_146">
    <path clip-path="url(#p2f269c1831)" d="M 229.091423 244.317187 
L 229.96792 244.317187 
L 229.96792 222.226534 
L 229.091423 222.226534 
z
" style="fill:#bf00bf;"/>
   </g>
   <g id="patch_147">
    <path clip-path="url(#p2f269c1831)" d="M 230.187044 244.317187 
L 231.063542 244.317187 
L 231.063542 231.515937 
L 230.187044 231.515937 
z
" style="fill:#bf00bf;"/>
   </g>
   <g id="patch_148">
    <path clip-path="url(#p2f269c1831)" d="M 231.282666 244.317187 
L 232.159163 244.317187 
L 232.159163 225.171955 
L 231.282666 225.171955 
z
" style="fill:#bf00bf;"/>
   </g>
   <g id="patch_149">
    <path clip-path="url(#p2f269c1831)" d="M 232.378287 244.317187 
L 233.254784 244.317187 
L 233.254784 228.117375 
L 232.378287 228.117375 
z
" style="fill:#bf00bf;"/>
   </g>
   <g id="patch_150">
    <path clip-path="url(#p2f269c1831)" d="M 233.473909 244.317187 
L 234.350406 244.317187 
L 234.350406 218.14826 
L 233.473909 218.14826 
z
" style="fill:#bf00bf;"/>
   </g>
   <g id="patch_151">
    <path clip-path="url(#p2f269c1831)" d="M 234.56953 244.317187 
L 235.446027 244.317187 
L 235.446027 218.488116 
L 234.56953 218.488116 
z
" style="fill:#bf00bf;"/>
   </g>
   <g id="patch_152">
    <path clip-path="url(#p2f269c1831)" d="M 235.665152 244.317187 
L 236.541649 244.317187 
L 236.541649 211.917563 
L 235.665152 211.917563 
z
" style="fill:#bf00bf;"/>
   </g>
   <g id="patch_153">
    <path clip-path="url(#p2f269c1831)" d="M 236.760773 244.317187 
L 237.63727 244.317187 
L 237.63727 225.964952 
L 236.760773 225.964952 
z
" style="fill:#bf00bf;"/>
   </g>
   <g id="patch_154">
    <path clip-path="url(#p2f269c1831)" d="M 237.856394 244.317187 
L 238.732892 244.317187 
L 238.732892 222.792961 
L 237.856394 222.792961 
z
" style="fill:#bf00bf;"/>
   </g>
   <g id="patch_155">
    <path clip-path="url(#p2f269c1831)" d="M 238.952016 244.317187 
L 239.828513 244.317187 
L 239.828513 225.511811 
L 238.952016 225.511811 
z
" style="fill:#bf00bf;"/>
   </g>
   <g id="patch_156">
    <path clip-path="url(#p2f269c1831)" d="M 240.047637 244.317187 
L 240.924134 244.317187 
L 240.924134 223.019532 
L 240.047637 223.019532 
z
" style="fill:#bf00bf;"/>
   </g>
   <g id="patch_157">
    <path clip-path="url(#p2f269c1831)" d="M 241.143259 244.317187 
L 242.019756 244.317187 
L 242.019756 214.636412 
L 241.143259 214.636412 
z
" style="fill:#bf00bf;"/>
   </g>
   <g id="patch_158">
    <path clip-path="url(#p2f269c1831)" d="M 242.23888 244.317187 
L 243.115377 244.317187 
L 243.115377 207.612717 
L 242.23888 207.612717 
z
" style="fill:#bf00bf;"/>
   </g>
   <g id="patch_159">
    <path clip-path="url(#p2f269c1831)" d="M 243.334502 244.317187 
L 244.210999 244.317187 
L 244.210999 208.405715 
L 243.334502 208.405715 
z
" style="fill:#bf00bf;"/>
   </g>
   <g id="patch_160">
    <path clip-path="url(#p2f269c1831)" d="M 244.430123 244.317187 
L 245.30662 244.317187 
L 245.30662 218.714687 
L 244.430123 218.714687 
z
" style="fill:#bf00bf;"/>
   </g>
   <g id="patch_161">
    <path clip-path="url(#p2f269c1831)" d="M 245.525745 244.317187 
L 246.402242 244.317187 
L 246.402242 212.030848 
L 245.525745 212.030848 
z
" style="fill:#bf00bf;"/>
   </g>
   <g id="patch_162">
    <path clip-path="url(#p2f269c1831)" d="M 246.621366 244.317187 
L 247.497863 244.317187 
L 247.497863 221.206966 
L 246.621366 221.206966 
z
" style="fill:#bf00bf;"/>
   </g>
   <g id="patch_163">
    <path clip-path="url(#p2f269c1831)" d="M 247.716987 244.317187 
L 248.593485 244.317187 
L 248.593485 221.206966 
L 247.716987 221.206966 
z
" style="fill:#bf00bf;"/>
   </g>
   <g id="patch_164">
    <path clip-path="url(#p2f269c1831)" d="M 248.812609 244.317187 
L 249.689106 244.317187 
L 249.689106 208.745571 
L 248.812609 208.745571 
z
" style="fill:#bf00bf;"/>
   </g>
   <g id="patch_165">
    <path clip-path="url(#p2f269c1831)" d="M 249.90823 244.317187 
L 250.784727 244.317187 
L 250.784727 207.726003 
L 249.90823 207.726003 
z
" style="fill:#bf00bf;"/>
   </g>
   <g id="patch_166">
    <path clip-path="url(#p2f269c1831)" d="M 251.003852 244.317187 
L 251.880349 244.317187 
L 251.880349 214.862983 
L 251.003852 214.862983 
z
" style="fill:#bf00bf;"/>
   </g>
   <g id="patch_167">
    <path clip-path="url(#p2f269c1831)" d="M 252.099473 244.317187 
L 252.97597 244.317187 
L 252.97597 215.542695 
L 252.099473 215.542695 
z
" style="fill:#bf00bf;"/>
   </g>
   <g id="patch_168">
    <path clip-path="url(#p2f269c1831)" d="M 253.195095 244.317187 
L 254.071592 244.317187 
L 254.071592 221.773393 
L 253.195095 221.773393 
z
" style="fill:#bf00bf;"/>
   </g>
   <g id="patch_169">
    <path clip-path="url(#p2f269c1831)" d="M 254.290716 244.317187 
L 255.167213 244.317187 
L 255.167213 222.56639 
L 254.290716 222.56639 
z
" style="fill:#bf00bf;"/>
   </g>
   <g id="patch_170">
    <path clip-path="url(#p2f269c1831)" d="M 255.386337 244.317187 
L 256.262835 244.317187 
L 256.262835 198.210029 
L 255.386337 198.210029 
z
" style="fill:#bf00bf;"/>
   </g>
   <g id="patch_171">
    <path clip-path="url(#p2f269c1831)" d="M 256.481959 244.317187 
L 257.358456 244.317187 
L 257.358456 193.112186 
L 256.481959 193.112186 
z
" style="fill:#bf00bf;"/>
   </g>
   <g id="patch_172">
    <path clip-path="url(#p2f269c1831)" d="M 257.57758 244.317187 
L 258.454078 244.317187 
L 258.454078 197.983458 
L 257.57758 197.983458 
z
" style="fill:#bf00bf;"/>
   </g>
   <g id="patch_173">
    <path clip-path="url(#p2f269c1831)" d="M 258.673202 244.317187 
L 259.549699 244.317187 
L 259.549699 168.86911 
L 258.673202 168.86911 
z
" style="fill:#bf00bf;"/>
   </g>
   <g id="patch_174">
    <path clip-path="url(#p2f269c1831)" d="M 259.768823 244.317187 
L 260.64532 244.317187 
L 260.64532 199.003027 
L 259.768823 199.003027 
z
" style="fill:#bf00bf;"/>
   </g>
   <g id="patch_175">
    <path clip-path="url(#p2f269c1831)" d="M 260.864445 244.317187 
L 261.740942 244.317187 
L 261.740942 207.839288 
L 260.864445 207.839288 
z
" style="fill:#bf00bf;"/>
   </g>
   <g id="patch_176">
    <path clip-path="url(#p2f269c1831)" d="M 261.960066 244.317187 
L 262.836563 244.317187 
L 262.836563 207.04629 
L 261.960066 207.04629 
z
" style="fill:#bf00bf;"/>
   </g>
   <g id="patch_177">
    <path clip-path="url(#p2f269c1831)" d="M 263.055688 244.317187 
L 263.932185 244.317187 
L 263.932185 194.018469 
L 263.055688 194.018469 
z
" style="fill:#bf00bf;"/>
   </g>
   <g id="patch_178">
    <path clip-path="url(#p2f269c1831)" d="M 264.151309 244.317187 
L 265.027806 244.317187 
L 265.027806 191.186334 
L 264.151309 191.186334 
z
" style="fill:#bf00bf;"/>
   </g>
   <g id="patch_179">
    <path clip-path="url(#p2f269c1831)" d="M 265.24693 244.317187 
L 266.123428 244.317187 
L 266.123428 179.631223 
L 265.24693 179.631223 
z
" style="fill:#bf00bf;"/>
   </g>
   <g id="patch_180">
    <path clip-path="url(#p2f269c1831)" d="M 266.342552 244.317187 
L 267.219049 244.317187 
L 267.219049 174.306809 
L 266.342552 174.306809 
z
" style="fill:#bf00bf;"/>
   </g>
   <g id="patch_181">
    <path clip-path="url(#p2f269c1831)" d="M 267.438173 244.317187 
L 268.314671 244.317187 
L 268.314671 194.018469 
L 267.438173 194.018469 
z
" style="fill:#bf00bf;"/>
   </g>
   <g id="patch_182">
    <path clip-path="url(#p2f269c1831)" d="M 268.533795 244.317187 
L 269.410292 244.317187 
L 269.410292 204.214155 
L 268.533795 204.214155 
z
" style="fill:#bf00bf;"/>
   </g>
   <g id="patch_183">
    <path clip-path="url(#p2f269c1831)" d="M 269.629416 244.317187 
L 270.505913 244.317187 
L 270.505913 196.284177 
L 269.629416 196.284177 
z
" style="fill:#bf00bf;"/>
   </g>
   <g id="patch_184">
    <path clip-path="url(#p2f269c1831)" d="M 270.725038 244.317187 
L 271.601535 244.317187 
L 271.601535 188.467484 
L 270.725038 188.467484 
z
" style="fill:#bf00bf;"/>
   </g>
   <g id="patch_185">
    <path clip-path="url(#p2f269c1831)" d="M 271.820659 244.317187 
L 272.697156 244.317187 
L 272.697156 171.927816 
L 271.820659 171.927816 
z
" style="fill:#bf00bf;"/>
   </g>
   <g id="patch_186">
    <path clip-path="url(#p2f269c1831)" d="M 272.916281 244.317187 
L 273.792778 244.317187 
L 273.792778 174.53338 
L 272.916281 174.53338 
z
" style="fill:#bf00bf;"/>
   </g>
   <g id="patch_187">
    <path clip-path="url(#p2f269c1831)" d="M 274.011902 244.317187 
L 274.888399 244.317187 
L 274.888399 168.86911 
L 274.011902 168.86911 
z
" style="fill:#bf00bf;"/>
   </g>
   <g id="patch_188">
    <path clip-path="url(#p2f269c1831)" d="M 275.107523 244.317187 
L 275.984021 244.317187 
L 275.984021 152.669298 
L 275.107523 152.669298 
z
" style="fill:#bf00bf;"/>
   </g>
   <g id="patch_189">
    <path clip-path="url(#p2f269c1831)" d="M 276.203145 244.317187 
L 277.079642 244.317187 
L 277.079642 182.350073 
L 276.203145 182.350073 
z
" style="fill:#bf00bf;"/>
   </g>
   <g id="patch_190">
    <path clip-path="url(#p2f269c1831)" d="M 277.298766 244.317187 
L 278.175263 244.317187 
L 278.175263 218.374831 
L 277.298766 218.374831 
z
" style="fill:#bf00bf;"/>
   </g>
   <g id="patch_191">
    <path clip-path="url(#p2f269c1831)" d="M 278.394388 244.317187 
L 279.270885 244.317187 
L 279.270885 159.466422 
L 278.394388 159.466422 
z
" style="fill:#bf00bf;"/>
   </g>
   <g id="patch_192">
    <path clip-path="url(#p2f269c1831)" d="M 279.490009 244.317187 
L 280.366506 244.317187 
L 280.366506 189.713624 
L 279.490009 189.713624 
z
" style="fill:#bf00bf;"/>
   </g>
   <g id="patch_193">
    <path clip-path="url(#p2f269c1831)" d="M 280.585631 244.317187 
L 281.462128 244.317187 
L 281.462128 198.096744 
L 280.585631 198.096744 
z
" style="fill:#bf00bf;"/>
   </g>
   <g id="patch_194">
    <path clip-path="url(#p2f269c1831)" d="M 281.681252 244.317187 
L 282.557749 244.317187 
L 282.557749 175.779519 
L 281.681252 175.779519 
z
" style="fill:#bf00bf;"/>
   </g>
   <g id="patch_195">
    <path clip-path="url(#p2f269c1831)" d="M 282.776874 244.317187 
L 283.653371 244.317187 
L 283.653371 192.432474 
L 282.776874 192.432474 
z
" style="fill:#bf00bf;"/>
   </g>
   <g id="patch_196">
    <path clip-path="url(#p2f269c1831)" d="M 283.872495 244.317187 
L 284.748992 244.317187 
L 284.748992 193.452042 
L 283.872495 193.452042 
z
" style="fill:#bf00bf;"/>
   </g>
   <g id="patch_197">
    <path clip-path="url(#p2f269c1831)" d="M 284.968116 244.317187 
L 285.844614 244.317187 
L 285.844614 215.769266 
L 284.968116 215.769266 
z
" style="fill:#bf00bf;"/>
   </g>
   <g id="patch_198">
    <path clip-path="url(#p2f269c1831)" d="M 286.063738 244.317187 
L 286.940235 244.317187 
L 286.940235 196.057606 
L 286.063738 196.057606 
z
" style="fill:#bf00bf;"/>
   </g>
   <g id="patch_199">
    <path clip-path="url(#p2f269c1831)" d="M 287.159359 244.317187 
L 288.035856 244.317187 
L 288.035856 177.025659 
L 287.159359 177.025659 
z
" style="fill:#bf00bf;"/>
   </g>
   <g id="patch_200">
    <path clip-path="url(#p2f269c1831)" d="M 288.254981 244.317187 
L 289.131478 244.317187 
L 289.131478 193.565328 
L 288.254981 193.565328 
z
" style="fill:#bf00bf;"/>
   </g>
   <g id="patch_201">
    <path clip-path="url(#p2f269c1831)" d="M 289.350602 244.317187 
L 290.227099 244.317187 
L 290.227099 192.545759 
L 289.350602 192.545759 
z
" style="fill:#bf00bf;"/>
   </g>
   <g id="patch_202">
    <path clip-path="url(#p2f269c1831)" d="M 290.446224 244.317187 
L 291.322721 244.317187 
L 291.322721 195.491179 
L 290.446224 195.491179 
z
" style="fill:#bf00bf;"/>
   </g>
   <g id="patch_203">
    <path clip-path="url(#p2f269c1831)" d="M 291.541845 244.317187 
L 292.418342 244.317187 
L 292.418342 206.253293 
L 291.541845 206.253293 
z
" style="fill:#bf00bf;"/>
   </g>
   <g id="patch_204">
    <path clip-path="url(#p2f269c1831)" d="M 292.637466 244.317187 
L 293.513964 244.317187 
L 293.513964 201.38202 
L 292.637466 201.38202 
z
" style="fill:#bf00bf;"/>
   </g>
   <g id="patch_205">
    <path clip-path="url(#p2f269c1831)" d="M 293.733088 244.317187 
L 294.609585 244.317187 
L 294.609585 198.776456 
L 293.733088 198.776456 
z
" style="fill:#bf00bf;"/>
   </g>
   <g id="patch_206">
    <path clip-path="url(#p2f269c1831)" d="M 294.828709 244.317187 
L 295.705207 244.317187 
L 295.705207 208.632286 
L 294.828709 208.632286 
z
" style="fill:#bf00bf;"/>
   </g>
   <g id="patch_207">
    <path clip-path="url(#p2f269c1831)" d="M 295.924331 244.317187 
L 296.800828 244.317187 
L 296.800828 202.061733 
L 295.924331 202.061733 
z
" style="fill:#bf00bf;"/>
   </g>
   <g id="patch_208">
    <path clip-path="url(#p2f269c1831)" d="M 297.019952 244.317187 
L 297.896449 244.317187 
L 297.896449 197.983458 
L 297.019952 197.983458 
z
" style="fill:#bf00bf;"/>
   </g>
   <g id="patch_209">
    <path clip-path="url(#p2f269c1831)" d="M 298.115574 244.317187 
L 298.992071 244.317187 
L 298.992071 210.331567 
L 298.115574 210.331567 
z
" style="fill:#bf00bf;"/>
   </g>
   <g id="patch_210">
    <path clip-path="url(#p2f269c1831)" d="M 299.211195 244.317187 
L 300.087692 244.317187 
L 300.087692 206.026722 
L 299.211195 206.026722 
z
" style="fill:#bf00bf;"/>
   </g>
   <g id="patch_211">
    <path clip-path="url(#p2f269c1831)" d="M 300.306817 244.317187 
L 301.183314 244.317187 
L 301.183314 222.33982 
L 300.306817 222.33982 
z
" style="fill:#bf00bf;"/>
   </g>
   <g id="patch_212">
    <path clip-path="url(#p2f269c1831)" d="M 301.402438 244.317187 
L 302.278935 244.317187 
L 302.278935 214.749698 
L 301.402438 214.749698 
z
" style="fill:#bf00bf;"/>
   </g>
   <g id="patch_213">
    <path clip-path="url(#p2f269c1831)" d="M 302.498059 244.317187 
L 303.374557 244.317187 
L 303.374557 213.730129 
L 302.498059 213.730129 
z
" style="fill:#bf00bf;"/>
   </g>
   <g id="patch_214">
    <path clip-path="url(#p2f269c1831)" d="M 303.593681 244.317187 
L 304.470178 244.317187 
L 304.470178 207.04629 
L 303.593681 207.04629 
z
" style="fill:#bf00bf;"/>
   </g>
   <g id="patch_215">
    <path clip-path="url(#p2f269c1831)" d="M 304.689302 244.317187 
L 305.5658 244.317187 
L 305.5658 203.987584 
L 304.689302 203.987584 
z
" style="fill:#bf00bf;"/>
   </g>
   <g id="patch_216">
    <path clip-path="url(#p2f269c1831)" d="M 305.784924 244.317187 
L 306.661421 244.317187 
L 306.661421 210.671423 
L 305.784924 210.671423 
z
" style="fill:#bf00bf;"/>
   </g>
   <g id="patch_217">
    <path clip-path="url(#p2f269c1831)" d="M 306.880545 244.317187 
L 307.757042 244.317187 
L 307.757042 215.995837 
L 306.880545 215.995837 
z
" style="fill:#bf00bf;"/>
   </g>
   <g id="patch_218">
    <path clip-path="url(#p2f269c1831)" d="M 307.976167 244.317187 
L 308.852664 244.317187 
L 308.852664 220.753824 
L 307.976167 220.753824 
z
" style="fill:#bf00bf;"/>
   </g>
   <g id="patch_219">
    <path clip-path="url(#p2f269c1831)" d="M 309.071788 244.317187 
L 309.948285 244.317187 
L 309.948285 192.319188 
L 309.071788 192.319188 
z
" style="fill:#bf00bf;"/>
   </g>
   <g id="patch_220">
    <path clip-path="url(#p2f269c1831)" d="M 310.16741 244.317187 
L 311.043907 244.317187 
L 311.043907 222.33982 
L 310.16741 222.33982 
z
" style="fill:#bf00bf;"/>
   </g>
   <g id="patch_221">
    <path clip-path="url(#p2f269c1831)" d="M 311.263031 244.317187 
L 312.139528 244.317187 
L 312.139528 204.780582 
L 311.263031 204.780582 
z
" style="fill:#bf00bf;"/>
   </g>
   <g id="patch_222">
    <path clip-path="url(#p2f269c1831)" d="M 312.358652 244.317187 
L 313.23515 244.317187 
L 313.23515 195.604465 
L 312.358652 195.604465 
z
" style="fill:#bf00bf;"/>
   </g>
   <g id="patch_223">
    <path clip-path="url(#p2f269c1831)" d="M 313.454274 244.317187 
L 314.330771 244.317187 
L 314.330771 213.9567 
L 313.454274 213.9567 
z
" style="fill:#bf00bf;"/>
   </g>
   <g id="patch_224">
    <path clip-path="url(#p2f269c1831)" d="M 314.549895 244.317187 
L 315.426392 244.317187 
L 315.426392 223.699244 
L 314.549895 223.699244 
z
" style="fill:#bf00bf;"/>
   </g>
   <g id="patch_225">
    <path clip-path="url(#p2f269c1831)" d="M 315.645517 244.317187 
L 316.522014 244.317187 
L 316.522014 221.546822 
L 315.645517 221.546822 
z
" style="fill:#bf00bf;"/>
   </g>
   <g id="patch_226">
    <path clip-path="url(#p2f269c1831)" d="M 316.741138 244.317187 
L 317.617635 244.317187 
L 317.617635 204.554012 
L 316.741138 204.554012 
z
" style="fill:#bf00bf;"/>
   </g>
   <g id="patch_227">
    <path clip-path="url(#p2f269c1831)" d="M 317.83676 244.317187 
L 318.713257 244.317187 
L 318.713257 216.675549 
L 317.83676 216.675549 
z
" style="fill:#bf00bf;"/>
   </g>
   <g id="patch_228">
    <path clip-path="url(#p2f269c1831)" d="M 318.932381 244.317187 
L 319.808878 244.317187 
L 319.808878 213.9567 
L 318.932381 213.9567 
z
" style="fill:#bf00bf;"/>
   </g>
   <g id="patch_229">
    <path clip-path="url(#p2f269c1831)" d="M 320.028003 244.317187 
L 320.9045 244.317187 
L 320.9045 202.62816 
L 320.028003 202.62816 
z
" style="fill:#bf00bf;"/>
   </g>
   <g id="patch_230">
    <path clip-path="url(#p2f269c1831)" d="M 321.123624 244.317187 
L 322.000121 244.317187 
L 322.000121 206.479863 
L 321.123624 206.479863 
z
" style="fill:#bf00bf;"/>
   </g>
   <g id="patch_231">
    <path clip-path="url(#p2f269c1831)" d="M 322.219245 244.317187 
L 323.095743 244.317187 
L 323.095743 212.030848 
L 322.219245 212.030848 
z
" style="fill:#bf00bf;"/>
   </g>
   <g id="patch_232">
    <path clip-path="url(#p2f269c1831)" d="M 323.314867 244.317187 
L 324.191364 244.317187 
L 324.191364 220.187397 
L 323.314867 220.187397 
z
" style="fill:#bf00bf;"/>
   </g>
   <g id="patch_233">
    <path clip-path="url(#p2f269c1831)" d="M 324.410488 244.317187 
L 325.286985 244.317187 
L 325.286985 223.132817 
L 324.410488 223.132817 
z
" style="fill:#bf00bf;"/>
   </g>
   <g id="patch_234">
    <path clip-path="url(#p2f269c1831)" d="M 325.50611 244.317187 
L 326.382607 244.317187 
L 326.382607 216.448979 
L 325.50611 216.448979 
z
" style="fill:#bf00bf;"/>
   </g>
   <g id="patch_235">
    <path clip-path="url(#p2f269c1831)" d="M 326.601731 244.317187 
L 327.478228 244.317187 
L 327.478228 214.296556 
L 326.601731 214.296556 
z
" style="fill:#bf00bf;"/>
   </g>
   <g id="patch_236">
    <path clip-path="url(#p2f269c1831)" d="M 327.697353 244.317187 
L 328.57385 244.317187 
L 328.57385 209.538569 
L 327.697353 209.538569 
z
" style="fill:#bf00bf;"/>
   </g>
   <g id="patch_237">
    <path clip-path="url(#p2f269c1831)" d="M 328.792974 244.317187 
L 329.669471 244.317187 
L 329.669471 197.303746 
L 328.792974 197.303746 
z
" style="fill:#bf00bf;"/>
   </g>
   <g id="patch_238">
    <path clip-path="url(#p2f269c1831)" d="M 329.888595 244.317187 
L 330.765093 244.317187 
L 330.765093 197.077175 
L 329.888595 197.077175 
z
" style="fill:#bf00bf;"/>
   </g>
   <g id="patch_239">
    <path clip-path="url(#p2f269c1831)" d="M 330.984217 244.317187 
L 331.860714 244.317187 
L 331.860714 201.835162 
L 330.984217 201.835162 
z
" style="fill:#bf00bf;"/>
   </g>
   <g id="patch_240">
    <path clip-path="url(#p2f269c1831)" d="M 332.079838 244.317187 
L 332.956336 244.317187 
L 332.956336 199.003027 
L 332.079838 199.003027 
z
" style="fill:#bf00bf;"/>
   </g>
   <g id="patch_241">
    <path clip-path="url(#p2f269c1831)" d="M 333.17546 244.317187 
L 334.051957 244.317187 
L 334.051957 177.818657 
L 333.17546 177.818657 
z
" style="fill:#bf00bf;"/>
   </g>
   <g id="patch_242">
    <path clip-path="url(#p2f269c1831)" d="M 334.271081 244.317187 
L 335.147578 244.317187 
L 335.147578 192.319188 
L 334.271081 192.319188 
z
" style="fill:#bf00bf;"/>
   </g>
   <g id="patch_243">
    <path clip-path="url(#p2f269c1831)" d="M 335.366703 244.317187 
L 336.2432 244.317187 
L 336.2432 175.779519 
L 335.366703 175.779519 
z
" style="fill:#bf00bf;"/>
   </g>
   <g id="patch_244">
    <path clip-path="url(#p2f269c1831)" d="M 336.462324 244.317187 
L 337.338821 244.317187 
L 337.338821 175.666234 
L 336.462324 175.666234 
z
" style="fill:#bf00bf;"/>
   </g>
   <g id="patch_245">
    <path clip-path="url(#p2f269c1831)" d="M 337.557946 244.317187 
L 338.434443 244.317187 
L 338.434443 187.561201 
L 337.557946 187.561201 
z
" style="fill:#bf00bf;"/>
   </g>
   <g id="patch_246">
    <path clip-path="url(#p2f269c1831)" d="M 338.653567 244.317187 
L 339.530064 244.317187 
L 339.530064 182.9165 
L 338.653567 182.9165 
z
" style="fill:#bf00bf;"/>
   </g>
   <g id="patch_247">
    <path clip-path="url(#p2f269c1831)" d="M 339.749188 244.317187 
L 340.625686 244.317187 
L 340.625686 170.228535 
L 339.749188 170.228535 
z
" style="fill:#bf00bf;"/>
   </g>
   <g id="patch_248">
    <path clip-path="url(#p2f269c1831)" d="M 340.84481 244.317187 
L 341.721307 244.317187 
L 341.721307 174.53338 
L 340.84481 174.53338 
z
" style="fill:#bf00bf;"/>
   </g>
   <g id="patch_249">
    <path clip-path="url(#p2f269c1831)" d="M 341.940431 244.317187 
L 342.816929 244.317187 
L 342.816929 182.236787 
L 341.940431 182.236787 
z
" style="fill:#bf00bf;"/>
   </g>
   <g id="patch_250">
    <path clip-path="url(#p2f269c1831)" d="M 343.036053 244.317187 
L 343.91255 244.317187 
L 343.91255 163.997838 
L 343.036053 163.997838 
z
" style="fill:#bf00bf;"/>
   </g>
   <g id="patch_251">
    <path clip-path="url(#p2f269c1831)" d="M 344.131674 244.317187 
L 345.008171 244.317187 
L 345.008171 178.158513 
L 344.131674 178.158513 
z
" style="fill:#bf00bf;"/>
   </g>
   <g id="patch_252">
    <path clip-path="url(#p2f269c1831)" d="M 345.227296 244.317187 
L 346.103793 244.317187 
L 346.103793 179.857794 
L 345.227296 179.857794 
z
" style="fill:#bf00bf;"/>
   </g>
   <g id="patch_253">
    <path clip-path="url(#p2f269c1831)" d="M 346.322917 244.317187 
L 347.199414 244.317187 
L 347.199414 197.756887 
L 346.322917 197.756887 
z
" style="fill:#bf00bf;"/>
   </g>
   <g id="patch_254">
    <path clip-path="url(#p2f269c1831)" d="M 347.418539 244.317187 
L 348.295036 244.317187 
L 348.295036 183.709498 
L 347.418539 183.709498 
z
" style="fill:#bf00bf;"/>
   </g>
   <g id="patch_255">
    <path clip-path="url(#p2f269c1831)" d="M 348.51416 244.317187 
L 349.390657 244.317187 
L 349.390657 186.428347 
L 348.51416 186.428347 
z
" style="fill:#bf00bf;"/>
   </g>
   <g id="patch_256">
    <path clip-path="url(#p2f269c1831)" d="M 349.609781 244.317187 
L 350.486279 244.317187 
L 350.486279 167.056544 
L 349.609781 167.056544 
z
" style="fill:#bf00bf;"/>
   </g>
   <g id="patch_257">
    <path clip-path="url(#p2f269c1831)" d="M 350.705403 244.317187 
L 351.5819 244.317187 
L 351.5819 167.283114 
L 350.705403 167.283114 
z
" style="fill:#bf00bf;"/>
   </g>
   <g id="patch_258">
    <path clip-path="url(#p2f269c1831)" d="M 351.801024 244.317187 
L 352.677521 244.317187 
L 352.677521 244.317187 
L 351.801024 244.317187 
z
" style="fill:#bf00bf;"/>
   </g>
   <g id="patch_259">
    <path clip-path="url(#p2f269c1831)" d="M 352.896646 244.317187 
L 353.773143 244.317187 
L 353.773143 110.866984 
L 352.896646 110.866984 
z
" style="fill:#bf00bf;"/>
   </g>
   <g id="patch_260">
    <path clip-path="url(#p2f269c1831)" d="M 353.992267 244.317187 
L 354.868764 244.317187 
L 354.868764 192.092617 
L 353.992267 192.092617 
z
" style="fill:#bf00bf;"/>
   </g>
   <g id="patch_261">
    <path clip-path="url(#p2f269c1831)" d="M 355.087889 244.317187 
L 355.964386 244.317187 
L 355.964386 170.228535 
L 355.087889 170.228535 
z
" style="fill:#bf00bf;"/>
   </g>
   <g id="patch_262">
    <path clip-path="url(#p2f269c1831)" d="M 356.18351 244.317187 
L 357.060007 244.317187 
L 357.060007 161.505559 
L 356.18351 161.505559 
z
" style="fill:#bf00bf;"/>
   </g>
   <g id="patch_263">
    <path clip-path="url(#p2f269c1831)" d="M 357.279132 244.317187 
L 358.155629 244.317187 
L 358.155629 146.551886 
L 357.279132 146.551886 
z
" style="fill:#bf00bf;"/>
   </g>
   <g id="patch_264">
    <path clip-path="url(#p2f269c1831)" d="M 358.374753 244.317187 
L 359.25125 244.317187 
L 359.25125 149.837162 
L 358.374753 149.837162 
z
" style="fill:#bf00bf;"/>
   </g>
   <g id="patch_265">
    <path clip-path="url(#p2f269c1831)" d="M 359.470374 244.317187 
L 360.346872 244.317187 
L 360.346872 128.426222 
L 359.470374 128.426222 
z
" style="fill:#bf00bf;"/>
   </g>
   <g id="patch_266">
    <path clip-path="url(#p2f269c1831)" d="M 360.565996 244.317187 
L 361.442493 244.317187 
L 361.442493 151.536444 
L 360.565996 151.536444 
z
" style="fill:#bf00bf;"/>
   </g>
   <g id="patch_267">
    <path clip-path="url(#p2f269c1831)" d="M 361.661617 244.317187 
L 362.538114 244.317187 
L 362.538114 179.064796 
L 361.661617 179.064796 
z
" style="fill:#bf00bf;"/>
   </g>
   <g id="patch_268">
    <path clip-path="url(#p2f269c1831)" d="M 362.757239 244.317187 
L 363.633736 244.317187 
L 363.633736 125.594087 
L 362.757239 125.594087 
z
" style="fill:#bf00bf;"/>
   </g>
   <g id="patch_269">
    <path clip-path="url(#p2f269c1831)" d="M 363.85286 244.317187 
L 364.729357 244.317187 
L 364.729357 165.92369 
L 363.85286 165.92369 
z
" style="fill:#bf00bf;"/>
   </g>
   <g id="patch_270">
    <path clip-path="url(#p2f269c1831)" d="M 364.948482 244.317187 
L 365.824979 244.317187 
L 365.824979 115.058544 
L 364.948482 115.058544 
z
" style="fill:#bf00bf;"/>
   </g>
   <g id="patch_271">
    <path clip-path="url(#p2f269c1831)" d="M 366.044103 244.317187 
L 366.9206 244.317187 
L 366.9206 95.68674 
L 366.044103 95.68674 
z
" style="fill:#bf00bf;"/>
   </g>
   <g id="patch_272">
    <path clip-path="url(#p2f269c1831)" d="M 367.139724 244.317187 
L 368.016222 244.317187 
L 368.016222 115.285115 
L 367.139724 115.285115 
z
" style="fill:#bf00bf;"/>
   </g>
   <g id="patch_273">
    <path clip-path="url(#p2f269c1831)" d="M 368.235346 244.317187 
L 369.111843 244.317187 
L 369.111843 138.621908 
L 368.235346 138.621908 
z
" style="fill:#bf00bf;"/>
   </g>
   <g id="patch_274">
    <path clip-path="url(#p2f269c1831)" d="M 369.330967 244.317187 
L 370.207465 244.317187 
L 370.207465 122.875237 
L 369.330967 122.875237 
z
" style="fill:#bf00bf;"/>
   </g>
   <g id="patch_275">
    <path clip-path="url(#p2f269c1831)" d="M 370.426589 244.317187 
L 371.303086 244.317187 
L 371.303086 107.468422 
L 370.426589 107.468422 
z
" style="fill:#bf00bf;"/>
   </g>
   <g id="patch_276">
    <path clip-path="url(#p2f269c1831)" d="M 371.52221 244.317187 
L 372.398707 244.317187 
L 372.398707 100.784584 
L 371.52221 100.784584 
z
" style="fill:#bf00bf;"/>
   </g>
   <g id="patch_277">
    <path clip-path="url(#p2f269c1831)" d="M 372.617832 244.317187 
L 373.494329 244.317187 
L 373.494329 88.776331 
L 372.617832 88.776331 
z
" style="fill:#bf00bf;"/>
   </g>
   <g id="patch_278">
    <path clip-path="url(#p2f269c1831)" d="M 373.713453 244.317187 
L 374.58995 244.317187 
L 374.58995 91.381895 
L 373.713453 91.381895 
z
" style="fill:#bf00bf;"/>
   </g>
   <g id="patch_279">
    <path clip-path="url(#p2f269c1831)" d="M 374.809075 244.317187 
L 375.685572 244.317187 
L 375.685572 37.231473 
L 374.809075 37.231473 
z
" style="fill:#bf00bf;"/>
   </g>
   <g id="patch_280">
    <path clip-path="url(#p2f269c1831)" d="M 375.904696 244.317187 
L 376.781193 244.317187 
L 376.781193 52.978144 
L 375.904696 52.978144 
z
" style="fill:#bf00bf;"/>
   </g>
   <g id="matplotlib.axis_1">
    <g id="xtick_1">
     <g id="line2d_1">
      <defs>
       <path d="M 0 0 
L 0 17 
" id="mc1b9146e89" style="stroke:#000000;"/>
      </defs>
      <g>
       <use style="stroke:#000000;" x="83.81202" xlink:href="#mc1b9146e89" y="244.317187"/>
      </g>
     </g>
    </g>
    <g id="xtick_2">
     <g id="line2d_2">
      <g>
       <use style="stroke:#000000;" x="115.585042" xlink:href="#mc1b9146e89" y="244.317187"/>
      </g>
     </g>
    </g>
    <g id="xtick_3">
     <g id="line2d_3">
      <g>
       <use style="stroke:#000000;" x="149.549306" xlink:href="#mc1b9146e89" y="244.317187"/>
      </g>
     </g>
    </g>
    <g id="xtick_4">
     <g id="line2d_4">
      <g>
       <use style="stroke:#000000;" x="182.41795" xlink:href="#mc1b9146e89" y="244.317187"/>
      </g>
     </g>
    </g>
    <g id="xtick_5">
     <g id="line2d_5">
      <g>
       <use style="stroke:#000000;" x="216.382214" xlink:href="#mc1b9146e89" y="244.317187"/>
      </g>
     </g>
    </g>
    <g id="xtick_6">
     <g id="line2d_6">
      <g>
       <use style="stroke:#000000;" x="249.250857" xlink:href="#mc1b9146e89" y="244.317187"/>
      </g>
     </g>
    </g>
    <g id="xtick_7">
     <g id="line2d_7">
      <g>
       <use style="stroke:#000000;" x="283.215122" xlink:href="#mc1b9146e89" y="244.317187"/>
      </g>
     </g>
    </g>
    <g id="xtick_8">
     <g id="line2d_8">
      <g>
       <use style="stroke:#000000;" x="317.179387" xlink:href="#mc1b9146e89" y="244.317187"/>
      </g>
     </g>
    </g>
    <g id="xtick_9">
     <g id="line2d_9">
      <g>
       <use style="stroke:#000000;" x="350.04803" xlink:href="#mc1b9146e89" y="244.317187"/>
      </g>
     </g>
    </g>
    <g id="xtick_10">
     <g id="line2d_10">
      <g>
       <use style="stroke:#000000;" x="384.012295" xlink:href="#mc1b9146e89" y="244.317187"/>
      </g>
     </g>
    </g>
    <g id="xtick_11">
     <g id="line2d_11">
      <defs>
       <path d="M 0 0 
L 0 3 
" id="m7ccd4fd881" style="stroke:#000000;"/>
      </defs>
      <g>
       <use style="stroke:#000000;" x="65.186455" xlink:href="#m7ccd4fd881" y="244.317187"/>
      </g>
     </g>
     <g id="text_1">
      <!--  -->
      <g transform="translate(62.346924 272.739062)rotate(-90)scale(0.1 -0.1)"/>
      <!-- Jan 2020 -->
      <g transform="translate(73.544737 294.760938)rotate(-90)scale(0.1 -0.1)">
       <defs>
        <path d="M 9.8125 72.90625 
L 19.671875 72.90625 
L 19.671875 5.078125 
Q 19.671875 -8.109375 14.671875 -14.0625 
Q 9.671875 -20.015625 -1.421875 -20.015625 
L -5.171875 -20.015625 
L -5.171875 -11.71875 
L -2.09375 -11.71875 
Q 4.4375 -11.71875 7.125 -8.046875 
Q 9.8125 -4.390625 9.8125 5.078125 
z
" id="DejaVuSans-74"/>
        <path d="M 34.28125 27.484375 
Q 23.390625 27.484375 19.1875 25 
Q 14.984375 22.515625 14.984375 16.5 
Q 14.984375 11.71875 18.140625 8.90625 
Q 21.296875 6.109375 26.703125 6.109375 
Q 34.1875 6.109375 38.703125 11.40625 
Q 43.21875 16.703125 43.21875 25.484375 
L 43.21875 27.484375 
z
M 52.203125 31.203125 
L 52.203125 0 
L 43.21875 0 
L 43.21875 8.296875 
Q 40.140625 3.328125 35.546875 0.953125 
Q 30.953125 -1.421875 24.3125 -1.421875 
Q 15.921875 -1.421875 10.953125 3.296875 
Q 6 8.015625 6 15.921875 
Q 6 25.140625 12.171875 29.828125 
Q 18.359375 34.515625 30.609375 34.515625 
L 43.21875 34.515625 
L 43.21875 35.40625 
Q 43.21875 41.609375 39.140625 45 
Q 35.0625 48.390625 27.6875 48.390625 
Q 23 48.390625 18.546875 47.265625 
Q 14.109375 46.140625 10.015625 43.890625 
L 10.015625 52.203125 
Q 14.9375 54.109375 19.578125 55.046875 
Q 24.21875 56 28.609375 56 
Q 40.484375 56 46.34375 49.84375 
Q 52.203125 43.703125 52.203125 31.203125 
z
" id="DejaVuSans-97"/>
        <path d="M 54.890625 33.015625 
L 54.890625 0 
L 45.90625 0 
L 45.90625 32.71875 
Q 45.90625 40.484375 42.875 44.328125 
Q 39.84375 48.1875 33.796875 48.1875 
Q 26.515625 48.1875 22.3125 43.546875 
Q 18.109375 38.921875 18.109375 30.90625 
L 18.109375 0 
L 9.078125 0 
L 9.078125 54.6875 
L 18.109375 54.6875 
L 18.109375 46.1875 
Q 21.34375 51.125 25.703125 53.5625 
Q 30.078125 56 35.796875 56 
Q 45.21875 56 50.046875 50.171875 
Q 54.890625 44.34375 54.890625 33.015625 
z
" id="DejaVuSans-110"/>
        <path id="DejaVuSans-32"/>
        <path d="M 19.1875 8.296875 
L 53.609375 8.296875 
L 53.609375 0 
L 7.328125 0 
L 7.328125 8.296875 
Q 12.9375 14.109375 22.625 23.890625 
Q 32.328125 33.6875 34.8125 36.53125 
Q 39.546875 41.84375 41.421875 45.53125 
Q 43.3125 49.21875 43.3125 52.78125 
Q 43.3125 58.59375 39.234375 62.25 
Q 35.15625 65.921875 28.609375 65.921875 
Q 23.96875 65.921875 18.8125 64.3125 
Q 13.671875 62.703125 7.8125 59.421875 
L 7.8125 69.390625 
Q 13.765625 71.78125 18.9375 73 
Q 24.125 74.21875 28.421875 74.21875 
Q 39.75 74.21875 46.484375 68.546875 
Q 53.21875 62.890625 53.21875 53.421875 
Q 53.21875 48.921875 51.53125 44.890625 
Q 49.859375 40.875 45.40625 35.40625 
Q 44.1875 33.984375 37.640625 27.21875 
Q 31.109375 20.453125 19.1875 8.296875 
z
" id="DejaVuSans-50"/>
        <path d="M 31.78125 66.40625 
Q 24.171875 66.40625 20.328125 58.90625 
Q 16.5 51.421875 16.5 36.375 
Q 16.5 21.390625 20.328125 13.890625 
Q 24.171875 6.390625 31.78125 6.390625 
Q 39.453125 6.390625 43.28125 13.890625 
Q 47.125 21.390625 47.125 36.375 
Q 47.125 51.421875 43.28125 58.90625 
Q 39.453125 66.40625 31.78125 66.40625 
z
M 31.78125 74.21875 
Q 44.046875 74.21875 50.515625 64.515625 
Q 56.984375 54.828125 56.984375 36.375 
Q 56.984375 17.96875 50.515625 8.265625 
Q 44.046875 -1.421875 31.78125 -1.421875 
Q 19.53125 -1.421875 13.0625 8.265625 
Q 6.59375 17.96875 6.59375 36.375 
Q 6.59375 54.828125 13.0625 64.515625 
Q 19.53125 74.21875 31.78125 74.21875 
z
" id="DejaVuSans-48"/>
       </defs>
       <use xlink:href="#DejaVuSans-74"/>
       <use x="29.492188" xlink:href="#DejaVuSans-97"/>
       <use x="90.771484" xlink:href="#DejaVuSans-110"/>
       <use x="154.150391" xlink:href="#DejaVuSans-32"/>
       <use x="185.9375" xlink:href="#DejaVuSans-50"/>
       <use x="249.560547" xlink:href="#DejaVuSans-48"/>
       <use x="313.183594" xlink:href="#DejaVuSans-50"/>
       <use x="376.806641" xlink:href="#DejaVuSans-48"/>
      </g>
     </g>
    </g>
    <g id="xtick_12">
     <g id="line2d_12">
      <g>
       <use style="stroke:#000000;" x="99.15072" xlink:href="#m7ccd4fd881" y="244.317187"/>
      </g>
     </g>
     <g id="text_2">
      <!--  -->
      <g transform="translate(96.311189 273.882812)rotate(-90)scale(0.1 -0.1)"/>
      <!-- Feb 2020 -->
      <g transform="translate(107.509001 297.048437)rotate(-90)scale(0.1 -0.1)">
       <defs>
        <path d="M 9.8125 72.90625 
L 51.703125 72.90625 
L 51.703125 64.59375 
L 19.671875 64.59375 
L 19.671875 43.109375 
L 48.578125 43.109375 
L 48.578125 34.8125 
L 19.671875 34.8125 
L 19.671875 0 
L 9.8125 0 
z
" id="DejaVuSans-70"/>
        <path d="M 56.203125 29.59375 
L 56.203125 25.203125 
L 14.890625 25.203125 
Q 15.484375 15.921875 20.484375 11.0625 
Q 25.484375 6.203125 34.421875 6.203125 
Q 39.59375 6.203125 44.453125 7.46875 
Q 49.3125 8.734375 54.109375 11.28125 
L 54.109375 2.78125 
Q 49.265625 0.734375 44.1875 -0.34375 
Q 39.109375 -1.421875 33.890625 -1.421875 
Q 20.796875 -1.421875 13.15625 6.1875 
Q 5.515625 13.8125 5.515625 26.8125 
Q 5.515625 40.234375 12.765625 48.109375 
Q 20.015625 56 32.328125 56 
Q 43.359375 56 49.78125 48.890625 
Q 56.203125 41.796875 56.203125 29.59375 
z
M 47.21875 32.234375 
Q 47.125 39.59375 43.09375 43.984375 
Q 39.0625 48.390625 32.421875 48.390625 
Q 24.90625 48.390625 20.390625 44.140625 
Q 15.875 39.890625 15.1875 32.171875 
z
" id="DejaVuSans-101"/>
        <path d="M 48.6875 27.296875 
Q 48.6875 37.203125 44.609375 42.84375 
Q 40.53125 48.484375 33.40625 48.484375 
Q 26.265625 48.484375 22.1875 42.84375 
Q 18.109375 37.203125 18.109375 27.296875 
Q 18.109375 17.390625 22.1875 11.75 
Q 26.265625 6.109375 33.40625 6.109375 
Q 40.53125 6.109375 44.609375 11.75 
Q 48.6875 17.390625 48.6875 27.296875 
z
M 18.109375 46.390625 
Q 20.953125 51.265625 25.265625 53.625 
Q 29.59375 56 35.59375 56 
Q 45.5625 56 51.78125 48.09375 
Q 58.015625 40.1875 58.015625 27.296875 
Q 58.015625 14.40625 51.78125 6.484375 
Q 45.5625 -1.421875 35.59375 -1.421875 
Q 29.59375 -1.421875 25.265625 0.953125 
Q 20.953125 3.328125 18.109375 8.203125 
L 18.109375 0 
L 9.078125 0 
L 9.078125 75.984375 
L 18.109375 75.984375 
z
" id="DejaVuSans-98"/>
       </defs>
       <use xlink:href="#DejaVuSans-70"/>
       <use x="52.019531" xlink:href="#DejaVuSans-101"/>
       <use x="113.542969" xlink:href="#DejaVuSans-98"/>
       <use x="177.019531" xlink:href="#DejaVuSans-32"/>
       <use x="208.806641" xlink:href="#DejaVuSans-50"/>
       <use x="272.429688" xlink:href="#DejaVuSans-48"/>
       <use x="336.052734" xlink:href="#DejaVuSans-50"/>
       <use x="399.675781" xlink:href="#DejaVuSans-48"/>
      </g>
     </g>
    </g>
    <g id="xtick_13">
     <g id="line2d_13">
      <g>
       <use style="stroke:#000000;" x="130.923742" xlink:href="#m7ccd4fd881" y="244.317187"/>
      </g>
     </g>
     <g id="text_3">
      <!--  -->
      <g transform="translate(128.084211 274.464844)rotate(-90)scale(0.1 -0.1)"/>
      <!-- Mar 2020 -->
      <g transform="translate(139.282023 298.2125)rotate(-90)scale(0.1 -0.1)">
       <defs>
        <path d="M 9.8125 72.90625 
L 24.515625 72.90625 
L 43.109375 23.296875 
L 61.8125 72.90625 
L 76.515625 72.90625 
L 76.515625 0 
L 66.890625 0 
L 66.890625 64.015625 
L 48.09375 14.015625 
L 38.1875 14.015625 
L 19.390625 64.015625 
L 19.390625 0 
L 9.8125 0 
z
" id="DejaVuSans-77"/>
        <path d="M 41.109375 46.296875 
Q 39.59375 47.171875 37.8125 47.578125 
Q 36.03125 48 33.890625 48 
Q 26.265625 48 22.1875 43.046875 
Q 18.109375 38.09375 18.109375 28.8125 
L 18.109375 0 
L 9.078125 0 
L 9.078125 54.6875 
L 18.109375 54.6875 
L 18.109375 46.1875 
Q 20.953125 51.171875 25.484375 53.578125 
Q 30.03125 56 36.53125 56 
Q 37.453125 56 38.578125 55.875 
Q 39.703125 55.765625 41.0625 55.515625 
z
" id="DejaVuSans-114"/>
       </defs>
       <use xlink:href="#DejaVuSans-77"/>
       <use x="86.279297" xlink:href="#DejaVuSans-97"/>
       <use x="147.558594" xlink:href="#DejaVuSans-114"/>
       <use x="188.671875" xlink:href="#DejaVuSans-32"/>
       <use x="220.458984" xlink:href="#DejaVuSans-50"/>
       <use x="284.082031" xlink:href="#DejaVuSans-48"/>
       <use x="347.705078" xlink:href="#DejaVuSans-50"/>
       <use x="411.328125" xlink:href="#DejaVuSans-48"/>
      </g>
     </g>
    </g>
    <g id="xtick_14">
     <g id="line2d_14">
      <g>
       <use style="stroke:#000000;" x="164.888006" xlink:href="#m7ccd4fd881" y="244.317187"/>
      </g>
     </g>
     <g id="text_4">
      <!--  -->
      <g transform="translate(162.048475 273.68125)rotate(-90)scale(0.1 -0.1)"/>
      <!-- Apr 2020 -->
      <g transform="translate(173.246288 296.645312)rotate(-90)scale(0.1 -0.1)">
       <defs>
        <path d="M 34.1875 63.1875 
L 20.796875 26.90625 
L 47.609375 26.90625 
z
M 28.609375 72.90625 
L 39.796875 72.90625 
L 67.578125 0 
L 57.328125 0 
L 50.6875 18.703125 
L 17.828125 18.703125 
L 11.1875 0 
L 0.78125 0 
z
" id="DejaVuSans-65"/>
        <path d="M 18.109375 8.203125 
L 18.109375 -20.796875 
L 9.078125 -20.796875 
L 9.078125 54.6875 
L 18.109375 54.6875 
L 18.109375 46.390625 
Q 20.953125 51.265625 25.265625 53.625 
Q 29.59375 56 35.59375 56 
Q 45.5625 56 51.78125 48.09375 
Q 58.015625 40.1875 58.015625 27.296875 
Q 58.015625 14.40625 51.78125 6.484375 
Q 45.5625 -1.421875 35.59375 -1.421875 
Q 29.59375 -1.421875 25.265625 0.953125 
Q 20.953125 3.328125 18.109375 8.203125 
z
M 48.6875 27.296875 
Q 48.6875 37.203125 44.609375 42.84375 
Q 40.53125 48.484375 33.40625 48.484375 
Q 26.265625 48.484375 22.1875 42.84375 
Q 18.109375 37.203125 18.109375 27.296875 
Q 18.109375 17.390625 22.1875 11.75 
Q 26.265625 6.109375 33.40625 6.109375 
Q 40.53125 6.109375 44.609375 11.75 
Q 48.6875 17.390625 48.6875 27.296875 
z
" id="DejaVuSans-112"/>
       </defs>
       <use xlink:href="#DejaVuSans-65"/>
       <use x="68.408203" xlink:href="#DejaVuSans-112"/>
       <use x="131.884766" xlink:href="#DejaVuSans-114"/>
       <use x="172.998047" xlink:href="#DejaVuSans-32"/>
       <use x="204.785156" xlink:href="#DejaVuSans-50"/>
       <use x="268.408203" xlink:href="#DejaVuSans-48"/>
       <use x="332.03125" xlink:href="#DejaVuSans-50"/>
       <use x="395.654297" xlink:href="#DejaVuSans-48"/>
      </g>
     </g>
    </g>
    <g id="xtick_15">
     <g id="line2d_15">
      <g>
       <use style="stroke:#000000;" x="197.75665" xlink:href="#m7ccd4fd881" y="244.317187"/>
      </g>
     </g>
     <g id="text_5">
      <!--  -->
      <g transform="translate(194.917118 275.36875)rotate(-90)scale(0.1 -0.1)"/>
      <!-- May 2020 -->
      <g transform="translate(206.114931 300.020312)rotate(-90)scale(0.1 -0.1)">
       <defs>
        <path d="M 32.171875 -5.078125 
Q 28.375 -14.84375 24.75 -17.8125 
Q 21.140625 -20.796875 15.09375 -20.796875 
L 7.90625 -20.796875 
L 7.90625 -13.28125 
L 13.1875 -13.28125 
Q 16.890625 -13.28125 18.9375 -11.515625 
Q 21 -9.765625 23.484375 -3.21875 
L 25.09375 0.875 
L 2.984375 54.6875 
L 12.5 54.6875 
L 29.59375 11.921875 
L 46.6875 54.6875 
L 56.203125 54.6875 
z
" id="DejaVuSans-121"/>
       </defs>
       <use xlink:href="#DejaVuSans-77"/>
       <use x="86.279297" xlink:href="#DejaVuSans-97"/>
       <use x="147.558594" xlink:href="#DejaVuSans-121"/>
       <use x="206.738281" xlink:href="#DejaVuSans-32"/>
       <use x="238.525391" xlink:href="#DejaVuSans-50"/>
       <use x="302.148438" xlink:href="#DejaVuSans-48"/>
       <use x="365.771484" xlink:href="#DejaVuSans-50"/>
       <use x="429.394531" xlink:href="#DejaVuSans-48"/>
      </g>
     </g>
    </g>
    <g id="xtick_16">
     <g id="line2d_16">
      <g>
       <use style="stroke:#000000;" x="231.720914" xlink:href="#m7ccd4fd881" y="244.317187"/>
      </g>
     </g>
     <g id="text_6">
      <!--  -->
      <g transform="translate(228.881383 272.84375)rotate(-90)scale(0.1 -0.1)"/>
      <!-- Jun 2020 -->
      <g transform="translate(240.079196 294.970312)rotate(-90)scale(0.1 -0.1)">
       <defs>
        <path d="M 8.5 21.578125 
L 8.5 54.6875 
L 17.484375 54.6875 
L 17.484375 21.921875 
Q 17.484375 14.15625 20.5 10.265625 
Q 23.53125 6.390625 29.59375 6.390625 
Q 36.859375 6.390625 41.078125 11.03125 
Q 45.3125 15.671875 45.3125 23.6875 
L 45.3125 54.6875 
L 54.296875 54.6875 
L 54.296875 0 
L 45.3125 0 
L 45.3125 8.40625 
Q 42.046875 3.421875 37.71875 1 
Q 33.40625 -1.421875 27.6875 -1.421875 
Q 18.265625 -1.421875 13.375 4.4375 
Q 8.5 10.296875 8.5 21.578125 
z
M 31.109375 56 
z
" id="DejaVuSans-117"/>
       </defs>
       <use xlink:href="#DejaVuSans-74"/>
       <use x="29.492188" xlink:href="#DejaVuSans-117"/>
       <use x="92.871094" xlink:href="#DejaVuSans-110"/>
       <use x="156.25" xlink:href="#DejaVuSans-32"/>
       <use x="188.037109" xlink:href="#DejaVuSans-50"/>
       <use x="251.660156" xlink:href="#DejaVuSans-48"/>
       <use x="315.283203" xlink:href="#DejaVuSans-50"/>
       <use x="378.90625" xlink:href="#DejaVuSans-48"/>
      </g>
     </g>
    </g>
    <g id="xtick_17">
     <g id="line2d_17">
      <g>
       <use style="stroke:#000000;" x="264.589558" xlink:href="#m7ccd4fd881" y="244.317187"/>
      </g>
     </g>
     <g id="text_7">
      <!--  -->
      <g transform="translate(261.750026 271.064062)rotate(-90)scale(0.1 -0.1)"/>
      <!-- Jul 2020 -->
      <g transform="translate(272.947839 291.410937)rotate(-90)scale(0.1 -0.1)">
       <defs>
        <path d="M 9.421875 75.984375 
L 18.40625 75.984375 
L 18.40625 0 
L 9.421875 0 
z
" id="DejaVuSans-108"/>
       </defs>
       <use xlink:href="#DejaVuSans-74"/>
       <use x="29.492188" xlink:href="#DejaVuSans-117"/>
       <use x="92.871094" xlink:href="#DejaVuSans-108"/>
       <use x="120.654297" xlink:href="#DejaVuSans-32"/>
       <use x="152.441406" xlink:href="#DejaVuSans-50"/>
       <use x="216.064453" xlink:href="#DejaVuSans-48"/>
       <use x="279.6875" xlink:href="#DejaVuSans-50"/>
       <use x="343.310547" xlink:href="#DejaVuSans-48"/>
      </g>
     </g>
    </g>
    <g id="xtick_18">
     <g id="line2d_18">
      <g>
       <use style="stroke:#000000;" x="298.553822" xlink:href="#m7ccd4fd881" y="244.317187"/>
      </g>
     </g>
     <g id="text_8">
      <!--  -->
      <g transform="translate(295.714291 274.794531)rotate(-90)scale(0.1 -0.1)"/>
      <!-- Aug 2020 -->
      <g transform="translate(306.912104 298.871875)rotate(-90)scale(0.1 -0.1)">
       <defs>
        <path d="M 45.40625 27.984375 
Q 45.40625 37.75 41.375 43.109375 
Q 37.359375 48.484375 30.078125 48.484375 
Q 22.859375 48.484375 18.828125 43.109375 
Q 14.796875 37.75 14.796875 27.984375 
Q 14.796875 18.265625 18.828125 12.890625 
Q 22.859375 7.515625 30.078125 7.515625 
Q 37.359375 7.515625 41.375 12.890625 
Q 45.40625 18.265625 45.40625 27.984375 
z
M 54.390625 6.78125 
Q 54.390625 -7.171875 48.1875 -13.984375 
Q 42 -20.796875 29.203125 -20.796875 
Q 24.46875 -20.796875 20.265625 -20.09375 
Q 16.0625 -19.390625 12.109375 -17.921875 
L 12.109375 -9.1875 
Q 16.0625 -11.328125 19.921875 -12.34375 
Q 23.78125 -13.375 27.78125 -13.375 
Q 36.625 -13.375 41.015625 -8.765625 
Q 45.40625 -4.15625 45.40625 5.171875 
L 45.40625 9.625 
Q 42.625 4.78125 38.28125 2.390625 
Q 33.9375 0 27.875 0 
Q 17.828125 0 11.671875 7.65625 
Q 5.515625 15.328125 5.515625 27.984375 
Q 5.515625 40.671875 11.671875 48.328125 
Q 17.828125 56 27.875 56 
Q 33.9375 56 38.28125 53.609375 
Q 42.625 51.21875 45.40625 46.390625 
L 45.40625 54.6875 
L 54.390625 54.6875 
z
" id="DejaVuSans-103"/>
       </defs>
       <use xlink:href="#DejaVuSans-65"/>
       <use x="68.408203" xlink:href="#DejaVuSans-117"/>
       <use x="131.787109" xlink:href="#DejaVuSans-103"/>
       <use x="195.263672" xlink:href="#DejaVuSans-32"/>
       <use x="227.050781" xlink:href="#DejaVuSans-50"/>
       <use x="290.673828" xlink:href="#DejaVuSans-48"/>
       <use x="354.296875" xlink:href="#DejaVuSans-50"/>
       <use x="417.919922" xlink:href="#DejaVuSans-48"/>
      </g>
     </g>
    </g>
    <g id="xtick_19">
     <g id="line2d_19">
      <g>
       <use style="stroke:#000000;" x="332.518087" xlink:href="#m7ccd4fd881" y="244.317187"/>
      </g>
     </g>
     <g id="text_9">
      <!--  -->
      <g transform="translate(329.678556 274.45625)rotate(-90)scale(0.1 -0.1)"/>
      <!-- Sep 2020 -->
      <g transform="translate(340.876368 298.195312)rotate(-90)scale(0.1 -0.1)">
       <defs>
        <path d="M 53.515625 70.515625 
L 53.515625 60.890625 
Q 47.90625 63.578125 42.921875 64.890625 
Q 37.9375 66.21875 33.296875 66.21875 
Q 25.25 66.21875 20.875 63.09375 
Q 16.5 59.96875 16.5 54.203125 
Q 16.5 49.359375 19.40625 46.890625 
Q 22.3125 44.4375 30.421875 42.921875 
L 36.375 41.703125 
Q 47.40625 39.59375 52.65625 34.296875 
Q 57.90625 29 57.90625 20.125 
Q 57.90625 9.515625 50.796875 4.046875 
Q 43.703125 -1.421875 29.984375 -1.421875 
Q 24.8125 -1.421875 18.96875 -0.25 
Q 13.140625 0.921875 6.890625 3.21875 
L 6.890625 13.375 
Q 12.890625 10.015625 18.65625 8.296875 
Q 24.421875 6.59375 29.984375 6.59375 
Q 38.421875 6.59375 43.015625 9.90625 
Q 47.609375 13.234375 47.609375 19.390625 
Q 47.609375 24.75 44.3125 27.78125 
Q 41.015625 30.8125 33.5 32.328125 
L 27.484375 33.5 
Q 16.453125 35.6875 11.515625 40.375 
Q 6.59375 45.0625 6.59375 53.421875 
Q 6.59375 63.09375 13.40625 68.65625 
Q 20.21875 74.21875 32.171875 74.21875 
Q 37.3125 74.21875 42.625 73.28125 
Q 47.953125 72.359375 53.515625 70.515625 
z
" id="DejaVuSans-83"/>
       </defs>
       <use xlink:href="#DejaVuSans-83"/>
       <use x="63.476562" xlink:href="#DejaVuSans-101"/>
       <use x="125" xlink:href="#DejaVuSans-112"/>
       <use x="188.476562" xlink:href="#DejaVuSans-32"/>
       <use x="220.263672" xlink:href="#DejaVuSans-50"/>
       <use x="283.886719" xlink:href="#DejaVuSans-48"/>
       <use x="347.509766" xlink:href="#DejaVuSans-50"/>
       <use x="411.132812" xlink:href="#DejaVuSans-48"/>
      </g>
     </g>
    </g>
    <g id="xtick_20">
     <g id="line2d_20">
      <g>
       <use style="stroke:#000000;" x="365.38673" xlink:href="#m7ccd4fd881" y="244.317187"/>
      </g>
     </g>
     <g id="text_10">
      <!--  -->
      <g transform="translate(362.547199 273.676562)rotate(-90)scale(0.1 -0.1)"/>
      <!-- Oct 2020 -->
      <g transform="translate(373.745011 296.635938)rotate(-90)scale(0.1 -0.1)">
       <defs>
        <path d="M 39.40625 66.21875 
Q 28.65625 66.21875 22.328125 58.203125 
Q 16.015625 50.203125 16.015625 36.375 
Q 16.015625 22.609375 22.328125 14.59375 
Q 28.65625 6.59375 39.40625 6.59375 
Q 50.140625 6.59375 56.421875 14.59375 
Q 62.703125 22.609375 62.703125 36.375 
Q 62.703125 50.203125 56.421875 58.203125 
Q 50.140625 66.21875 39.40625 66.21875 
z
M 39.40625 74.21875 
Q 54.734375 74.21875 63.90625 63.9375 
Q 73.09375 53.65625 73.09375 36.375 
Q 73.09375 19.140625 63.90625 8.859375 
Q 54.734375 -1.421875 39.40625 -1.421875 
Q 24.03125 -1.421875 14.8125 8.828125 
Q 5.609375 19.09375 5.609375 36.375 
Q 5.609375 53.65625 14.8125 63.9375 
Q 24.03125 74.21875 39.40625 74.21875 
z
" id="DejaVuSans-79"/>
        <path d="M 48.78125 52.59375 
L 48.78125 44.1875 
Q 44.96875 46.296875 41.140625 47.34375 
Q 37.3125 48.390625 33.40625 48.390625 
Q 24.65625 48.390625 19.8125 42.84375 
Q 14.984375 37.3125 14.984375 27.296875 
Q 14.984375 17.28125 19.8125 11.734375 
Q 24.65625 6.203125 33.40625 6.203125 
Q 37.3125 6.203125 41.140625 7.25 
Q 44.96875 8.296875 48.78125 10.40625 
L 48.78125 2.09375 
Q 45.015625 0.34375 40.984375 -0.53125 
Q 36.96875 -1.421875 32.421875 -1.421875 
Q 20.0625 -1.421875 12.78125 6.34375 
Q 5.515625 14.109375 5.515625 27.296875 
Q 5.515625 40.671875 12.859375 48.328125 
Q 20.21875 56 33.015625 56 
Q 37.15625 56 41.109375 55.140625 
Q 45.0625 54.296875 48.78125 52.59375 
z
" id="DejaVuSans-99"/>
        <path d="M 18.3125 70.21875 
L 18.3125 54.6875 
L 36.8125 54.6875 
L 36.8125 47.703125 
L 18.3125 47.703125 
L 18.3125 18.015625 
Q 18.3125 11.328125 20.140625 9.421875 
Q 21.96875 7.515625 27.59375 7.515625 
L 36.8125 7.515625 
L 36.8125 0 
L 27.59375 0 
Q 17.1875 0 13.234375 3.875 
Q 9.28125 7.765625 9.28125 18.015625 
L 9.28125 47.703125 
L 2.6875 47.703125 
L 2.6875 54.6875 
L 9.28125 54.6875 
L 9.28125 70.21875 
z
" id="DejaVuSans-116"/>
       </defs>
       <use xlink:href="#DejaVuSans-79"/>
       <use x="78.710938" xlink:href="#DejaVuSans-99"/>
       <use x="133.691406" xlink:href="#DejaVuSans-116"/>
       <use x="172.900391" xlink:href="#DejaVuSans-32"/>
       <use x="204.6875" xlink:href="#DejaVuSans-50"/>
       <use x="268.310547" xlink:href="#DejaVuSans-48"/>
       <use x="331.933594" xlink:href="#DejaVuSans-50"/>
       <use x="395.556641" xlink:href="#DejaVuSans-48"/>
      </g>
     </g>
    </g>
    <g id="text_11">
     <!--  -->
     <g transform="translate(224.599375 314.658125)scale(0.14 -0.14)"/>
     <!-- Date -->
     <g transform="translate(207.868281 330.335062)scale(0.14 -0.14)">
      <defs>
       <path d="M 19.671875 64.796875 
L 19.671875 8.109375 
L 31.59375 8.109375 
Q 46.6875 8.109375 53.6875 14.9375 
Q 60.6875 21.78125 60.6875 36.53125 
Q 60.6875 51.171875 53.6875 57.984375 
Q 46.6875 64.796875 31.59375 64.796875 
z
M 9.8125 72.90625 
L 30.078125 72.90625 
Q 51.265625 72.90625 61.171875 64.09375 
Q 71.09375 55.28125 71.09375 36.53125 
Q 71.09375 17.671875 61.125 8.828125 
Q 51.171875 0 30.078125 0 
L 9.8125 0 
z
" id="DejaVuSans-68"/>
      </defs>
      <use xlink:href="#DejaVuSans-68"/>
      <use x="77.001953" xlink:href="#DejaVuSans-97"/>
      <use x="138.28125" xlink:href="#DejaVuSans-116"/>
      <use x="177.490234" xlink:href="#DejaVuSans-101"/>
     </g>
    </g>
   </g>
   <g id="matplotlib.axis_2">
    <g id="ytick_1">
     <g id="line2d_21">
      <defs>
       <path d="M 0 0 
L -3.5 0 
" id="mfe03bb7f73" style="stroke:#000000;stroke-width:0.8;"/>
      </defs>
      <g>
       <use style="stroke:#000000;stroke-width:0.8;" x="57.199375" xlink:href="#mfe03bb7f73" y="244.317187"/>
      </g>
     </g>
     <g id="text_12">
      <!-- 0 -->
      <g transform="translate(43.836875 248.116406)scale(0.1 -0.1)">
       <use xlink:href="#DejaVuSans-48"/>
      </g>
     </g>
    </g>
    <g id="ytick_2">
     <g id="line2d_22">
      <g>
       <use style="stroke:#000000;stroke-width:0.8;" x="57.199375" xlink:href="#mfe03bb7f73" y="215.995837"/>
      </g>
     </g>
     <g id="text_13">
      <!-- 250 -->
      <g transform="translate(31.111875 219.795056)scale(0.1 -0.1)">
       <defs>
        <path d="M 10.796875 72.90625 
L 49.515625 72.90625 
L 49.515625 64.59375 
L 19.828125 64.59375 
L 19.828125 46.734375 
Q 21.96875 47.46875 24.109375 47.828125 
Q 26.265625 48.1875 28.421875 48.1875 
Q 40.625 48.1875 47.75 41.5 
Q 54.890625 34.8125 54.890625 23.390625 
Q 54.890625 11.625 47.5625 5.09375 
Q 40.234375 -1.421875 26.90625 -1.421875 
Q 22.3125 -1.421875 17.546875 -0.640625 
Q 12.796875 0.140625 7.71875 1.703125 
L 7.71875 11.625 
Q 12.109375 9.234375 16.796875 8.0625 
Q 21.484375 6.890625 26.703125 6.890625 
Q 35.15625 6.890625 40.078125 11.328125 
Q 45.015625 15.765625 45.015625 23.390625 
Q 45.015625 31 40.078125 35.4375 
Q 35.15625 39.890625 26.703125 39.890625 
Q 22.75 39.890625 18.8125 39.015625 
Q 14.890625 38.140625 10.796875 36.28125 
z
" id="DejaVuSans-53"/>
       </defs>
       <use xlink:href="#DejaVuSans-50"/>
       <use x="63.623047" xlink:href="#DejaVuSans-53"/>
       <use x="127.246094" xlink:href="#DejaVuSans-48"/>
      </g>
     </g>
    </g>
    <g id="ytick_3">
     <g id="line2d_23">
      <g>
       <use style="stroke:#000000;stroke-width:0.8;" x="57.199375" xlink:href="#mfe03bb7f73" y="187.674487"/>
      </g>
     </g>
     <g id="text_14">
      <!-- 500 -->
      <g transform="translate(31.111875 191.473705)scale(0.1 -0.1)">
       <use xlink:href="#DejaVuSans-53"/>
       <use x="63.623047" xlink:href="#DejaVuSans-48"/>
       <use x="127.246094" xlink:href="#DejaVuSans-48"/>
      </g>
     </g>
    </g>
    <g id="ytick_4">
     <g id="line2d_24">
      <g>
       <use style="stroke:#000000;stroke-width:0.8;" x="57.199375" xlink:href="#mfe03bb7f73" y="159.353136"/>
      </g>
     </g>
     <g id="text_15">
      <!-- 750 -->
      <g transform="translate(31.111875 163.152355)scale(0.1 -0.1)">
       <defs>
        <path d="M 8.203125 72.90625 
L 55.078125 72.90625 
L 55.078125 68.703125 
L 28.609375 0 
L 18.3125 0 
L 43.21875 64.59375 
L 8.203125 64.59375 
z
" id="DejaVuSans-55"/>
       </defs>
       <use xlink:href="#DejaVuSans-55"/>
       <use x="63.623047" xlink:href="#DejaVuSans-53"/>
       <use x="127.246094" xlink:href="#DejaVuSans-48"/>
      </g>
     </g>
    </g>
    <g id="ytick_5">
     <g id="line2d_25">
      <g>
       <use style="stroke:#000000;stroke-width:0.8;" x="57.199375" xlink:href="#mfe03bb7f73" y="131.031786"/>
      </g>
     </g>
     <g id="text_16">
      <!-- 1000 -->
      <g transform="translate(24.749375 134.831005)scale(0.1 -0.1)">
       <defs>
        <path d="M 12.40625 8.296875 
L 28.515625 8.296875 
L 28.515625 63.921875 
L 10.984375 60.40625 
L 10.984375 69.390625 
L 28.421875 72.90625 
L 38.28125 72.90625 
L 38.28125 8.296875 
L 54.390625 8.296875 
L 54.390625 0 
L 12.40625 0 
z
" id="DejaVuSans-49"/>
       </defs>
       <use xlink:href="#DejaVuSans-49"/>
       <use x="63.623047" xlink:href="#DejaVuSans-48"/>
       <use x="127.246094" xlink:href="#DejaVuSans-48"/>
       <use x="190.869141" xlink:href="#DejaVuSans-48"/>
      </g>
     </g>
    </g>
    <g id="ytick_6">
     <g id="line2d_26">
      <g>
       <use style="stroke:#000000;stroke-width:0.8;" x="57.199375" xlink:href="#mfe03bb7f73" y="102.710435"/>
      </g>
     </g>
     <g id="text_17">
      <!-- 1250 -->
      <g transform="translate(24.749375 106.509654)scale(0.1 -0.1)">
       <use xlink:href="#DejaVuSans-49"/>
       <use x="63.623047" xlink:href="#DejaVuSans-50"/>
       <use x="127.246094" xlink:href="#DejaVuSans-53"/>
       <use x="190.869141" xlink:href="#DejaVuSans-48"/>
      </g>
     </g>
    </g>
    <g id="ytick_7">
     <g id="line2d_27">
      <g>
       <use style="stroke:#000000;stroke-width:0.8;" x="57.199375" xlink:href="#mfe03bb7f73" y="74.389085"/>
      </g>
     </g>
     <g id="text_18">
      <!-- 1500 -->
      <g transform="translate(24.749375 78.188304)scale(0.1 -0.1)">
       <use xlink:href="#DejaVuSans-49"/>
       <use x="63.623047" xlink:href="#DejaVuSans-53"/>
       <use x="127.246094" xlink:href="#DejaVuSans-48"/>
       <use x="190.869141" xlink:href="#DejaVuSans-48"/>
      </g>
     </g>
    </g>
    <g id="ytick_8">
     <g id="line2d_28">
      <g>
       <use style="stroke:#000000;stroke-width:0.8;" x="57.199375" xlink:href="#mfe03bb7f73" y="46.067735"/>
      </g>
     </g>
     <g id="text_19">
      <!-- 1750 -->
      <g transform="translate(24.749375 49.866953)scale(0.1 -0.1)">
       <use xlink:href="#DejaVuSans-49"/>
       <use x="63.623047" xlink:href="#DejaVuSans-55"/>
       <use x="127.246094" xlink:href="#DejaVuSans-53"/>
       <use x="190.869141" xlink:href="#DejaVuSans-48"/>
      </g>
     </g>
    </g>
    <g id="text_20">
     <!-- # COVID-19 Cases -->
     <g transform="translate(17.837813 200.6425)rotate(-90)scale(0.14 -0.14)">
      <defs>
       <path d="M 51.125 44 
L 36.921875 44 
L 32.8125 27.6875 
L 47.125 27.6875 
z
M 43.796875 71.78125 
L 38.71875 51.515625 
L 52.984375 51.515625 
L 58.109375 71.78125 
L 65.921875 71.78125 
L 60.890625 51.515625 
L 76.125 51.515625 
L 76.125 44 
L 58.984375 44 
L 54.984375 27.6875 
L 70.515625 27.6875 
L 70.515625 20.21875 
L 53.078125 20.21875 
L 48 0 
L 40.1875 0 
L 45.21875 20.21875 
L 30.90625 20.21875 
L 25.875 0 
L 18.015625 0 
L 23.09375 20.21875 
L 7.71875 20.21875 
L 7.71875 27.6875 
L 24.90625 27.6875 
L 29 44 
L 13.28125 44 
L 13.28125 51.515625 
L 30.90625 51.515625 
L 35.890625 71.78125 
z
" id="DejaVuSans-35"/>
       <path d="M 64.40625 67.28125 
L 64.40625 56.890625 
Q 59.421875 61.53125 53.78125 63.8125 
Q 48.140625 66.109375 41.796875 66.109375 
Q 29.296875 66.109375 22.65625 58.46875 
Q 16.015625 50.828125 16.015625 36.375 
Q 16.015625 21.96875 22.65625 14.328125 
Q 29.296875 6.6875 41.796875 6.6875 
Q 48.140625 6.6875 53.78125 8.984375 
Q 59.421875 11.28125 64.40625 15.921875 
L 64.40625 5.609375 
Q 59.234375 2.09375 53.4375 0.328125 
Q 47.65625 -1.421875 41.21875 -1.421875 
Q 24.65625 -1.421875 15.125 8.703125 
Q 5.609375 18.84375 5.609375 36.375 
Q 5.609375 53.953125 15.125 64.078125 
Q 24.65625 74.21875 41.21875 74.21875 
Q 47.75 74.21875 53.53125 72.484375 
Q 59.328125 70.75 64.40625 67.28125 
z
" id="DejaVuSans-67"/>
       <path d="M 28.609375 0 
L 0.78125 72.90625 
L 11.078125 72.90625 
L 34.1875 11.53125 
L 57.328125 72.90625 
L 67.578125 72.90625 
L 39.796875 0 
z
" id="DejaVuSans-86"/>
       <path d="M 9.8125 72.90625 
L 19.671875 72.90625 
L 19.671875 0 
L 9.8125 0 
z
" id="DejaVuSans-73"/>
       <path d="M 4.890625 31.390625 
L 31.203125 31.390625 
L 31.203125 23.390625 
L 4.890625 23.390625 
z
" id="DejaVuSans-45"/>
       <path d="M 10.984375 1.515625 
L 10.984375 10.5 
Q 14.703125 8.734375 18.5 7.8125 
Q 22.3125 6.890625 25.984375 6.890625 
Q 35.75 6.890625 40.890625 13.453125 
Q 46.046875 20.015625 46.78125 33.40625 
Q 43.953125 29.203125 39.59375 26.953125 
Q 35.25 24.703125 29.984375 24.703125 
Q 19.046875 24.703125 12.671875 31.3125 
Q 6.296875 37.9375 6.296875 49.421875 
Q 6.296875 60.640625 12.9375 67.421875 
Q 19.578125 74.21875 30.609375 74.21875 
Q 43.265625 74.21875 49.921875 64.515625 
Q 56.59375 54.828125 56.59375 36.375 
Q 56.59375 19.140625 48.40625 8.859375 
Q 40.234375 -1.421875 26.421875 -1.421875 
Q 22.703125 -1.421875 18.890625 -0.6875 
Q 15.09375 0.046875 10.984375 1.515625 
z
M 30.609375 32.421875 
Q 37.25 32.421875 41.125 36.953125 
Q 45.015625 41.5 45.015625 49.421875 
Q 45.015625 57.28125 41.125 61.84375 
Q 37.25 66.40625 30.609375 66.40625 
Q 23.96875 66.40625 20.09375 61.84375 
Q 16.21875 57.28125 16.21875 49.421875 
Q 16.21875 41.5 20.09375 36.953125 
Q 23.96875 32.421875 30.609375 32.421875 
z
" id="DejaVuSans-57"/>
       <path d="M 44.28125 53.078125 
L 44.28125 44.578125 
Q 40.484375 46.53125 36.375 47.5 
Q 32.28125 48.484375 27.875 48.484375 
Q 21.1875 48.484375 17.84375 46.4375 
Q 14.5 44.390625 14.5 40.28125 
Q 14.5 37.15625 16.890625 35.375 
Q 19.28125 33.59375 26.515625 31.984375 
L 29.59375 31.296875 
Q 39.15625 29.25 43.1875 25.515625 
Q 47.21875 21.78125 47.21875 15.09375 
Q 47.21875 7.46875 41.1875 3.015625 
Q 35.15625 -1.421875 24.609375 -1.421875 
Q 20.21875 -1.421875 15.453125 -0.5625 
Q 10.6875 0.296875 5.421875 2 
L 5.421875 11.28125 
Q 10.40625 8.6875 15.234375 7.390625 
Q 20.0625 6.109375 24.8125 6.109375 
Q 31.15625 6.109375 34.5625 8.28125 
Q 37.984375 10.453125 37.984375 14.40625 
Q 37.984375 18.0625 35.515625 20.015625 
Q 33.0625 21.96875 24.703125 23.78125 
L 21.578125 24.515625 
Q 13.234375 26.265625 9.515625 29.90625 
Q 5.8125 33.546875 5.8125 39.890625 
Q 5.8125 47.609375 11.28125 51.796875 
Q 16.75 56 26.8125 56 
Q 31.78125 56 36.171875 55.265625 
Q 40.578125 54.546875 44.28125 53.078125 
z
" id="DejaVuSans-115"/>
      </defs>
      <use xlink:href="#DejaVuSans-35"/>
      <use x="83.789062" xlink:href="#DejaVuSans-32"/>
      <use x="115.576172" xlink:href="#DejaVuSans-67"/>
      <use x="185.400391" xlink:href="#DejaVuSans-79"/>
      <use x="262.361328" xlink:href="#DejaVuSans-86"/>
      <use x="330.769531" xlink:href="#DejaVuSans-73"/>
      <use x="360.261719" xlink:href="#DejaVuSans-68"/>
      <use x="437.263672" xlink:href="#DejaVuSans-45"/>
      <use x="473.347656" xlink:href="#DejaVuSans-49"/>
      <use x="536.970703" xlink:href="#DejaVuSans-57"/>
      <use x="600.59375" xlink:href="#DejaVuSans-32"/>
      <use x="632.380859" xlink:href="#DejaVuSans-67"/>
      <use x="702.205078" xlink:href="#DejaVuSans-97"/>
      <use x="763.484375" xlink:href="#DejaVuSans-115"/>
      <use x="815.583984" xlink:href="#DejaVuSans-101"/>
      <use x="877.107422" xlink:href="#DejaVuSans-115"/>
     </g>
    </g>
   </g>
   <g id="patch_281">
    <path d="M 57.199375 244.317187 
L 57.199375 26.877187 
" style="fill:none;stroke:#000000;stroke-linecap:square;stroke-linejoin:miter;stroke-width:0.8;"/>
   </g>
   <g id="patch_282">
    <path d="M 391.999375 244.317187 
L 391.999375 26.877187 
" style="fill:none;stroke:#000000;stroke-linecap:square;stroke-linejoin:miter;stroke-width:0.8;"/>
   </g>
   <g id="patch_283">
    <path d="M 57.199375 244.317187 
L 391.999375 244.317187 
" style="fill:none;stroke:#000000;stroke-linecap:square;stroke-linejoin:miter;stroke-width:0.8;"/>
   </g>
   <g id="patch_284">
    <path d="M 57.199375 26.877187 
L 391.999375 26.877187 
" style="fill:none;stroke:#000000;stroke-linecap:square;stroke-linejoin:miter;stroke-width:0.8;"/>
   </g>
   <g id="text_21">
    <!-- Colorado COVID-19 Daily Cases -->
    <g transform="translate(82.644063 20.877187)scale(0.18 -0.18)">
     <defs>
      <path d="M 30.609375 48.390625 
Q 23.390625 48.390625 19.1875 42.75 
Q 14.984375 37.109375 14.984375 27.296875 
Q 14.984375 17.484375 19.15625 11.84375 
Q 23.34375 6.203125 30.609375 6.203125 
Q 37.796875 6.203125 41.984375 11.859375 
Q 46.1875 17.53125 46.1875 27.296875 
Q 46.1875 37.015625 41.984375 42.703125 
Q 37.796875 48.390625 30.609375 48.390625 
z
M 30.609375 56 
Q 42.328125 56 49.015625 48.375 
Q 55.71875 40.765625 55.71875 27.296875 
Q 55.71875 13.875 49.015625 6.21875 
Q 42.328125 -1.421875 30.609375 -1.421875 
Q 18.84375 -1.421875 12.171875 6.21875 
Q 5.515625 13.875 5.515625 27.296875 
Q 5.515625 40.765625 12.171875 48.375 
Q 18.84375 56 30.609375 56 
z
" id="DejaVuSans-111"/>
      <path d="M 45.40625 46.390625 
L 45.40625 75.984375 
L 54.390625 75.984375 
L 54.390625 0 
L 45.40625 0 
L 45.40625 8.203125 
Q 42.578125 3.328125 38.25 0.953125 
Q 33.9375 -1.421875 27.875 -1.421875 
Q 17.96875 -1.421875 11.734375 6.484375 
Q 5.515625 14.40625 5.515625 27.296875 
Q 5.515625 40.1875 11.734375 48.09375 
Q 17.96875 56 27.875 56 
Q 33.9375 56 38.25 53.625 
Q 42.578125 51.265625 45.40625 46.390625 
z
M 14.796875 27.296875 
Q 14.796875 17.390625 18.875 11.75 
Q 22.953125 6.109375 30.078125 6.109375 
Q 37.203125 6.109375 41.296875 11.75 
Q 45.40625 17.390625 45.40625 27.296875 
Q 45.40625 37.203125 41.296875 42.84375 
Q 37.203125 48.484375 30.078125 48.484375 
Q 22.953125 48.484375 18.875 42.84375 
Q 14.796875 37.203125 14.796875 27.296875 
z
" id="DejaVuSans-100"/>
      <path d="M 9.421875 54.6875 
L 18.40625 54.6875 
L 18.40625 0 
L 9.421875 0 
z
M 9.421875 75.984375 
L 18.40625 75.984375 
L 18.40625 64.59375 
L 9.421875 64.59375 
z
" id="DejaVuSans-105"/>
     </defs>
     <use xlink:href="#DejaVuSans-67"/>
     <use x="69.824219" xlink:href="#DejaVuSans-111"/>
     <use x="131.005859" xlink:href="#DejaVuSans-108"/>
     <use x="158.789062" xlink:href="#DejaVuSans-111"/>
     <use x="219.970703" xlink:href="#DejaVuSans-114"/>
     <use x="261.083984" xlink:href="#DejaVuSans-97"/>
     <use x="322.363281" xlink:href="#DejaVuSans-100"/>
     <use x="385.839844" xlink:href="#DejaVuSans-111"/>
     <use x="447.021484" xlink:href="#DejaVuSans-32"/>
     <use x="478.808594" xlink:href="#DejaVuSans-67"/>
     <use x="548.632812" xlink:href="#DejaVuSans-79"/>
     <use x="625.59375" xlink:href="#DejaVuSans-86"/>
     <use x="694.001953" xlink:href="#DejaVuSans-73"/>
     <use x="723.494141" xlink:href="#DejaVuSans-68"/>
     <use x="800.496094" xlink:href="#DejaVuSans-45"/>
     <use x="836.580078" xlink:href="#DejaVuSans-49"/>
     <use x="900.203125" xlink:href="#DejaVuSans-57"/>
     <use x="963.826172" xlink:href="#DejaVuSans-32"/>
     <use x="995.613281" xlink:href="#DejaVuSans-68"/>
     <use x="1072.615234" xlink:href="#DejaVuSans-97"/>
     <use x="1133.894531" xlink:href="#DejaVuSans-105"/>
     <use x="1161.677734" xlink:href="#DejaVuSans-108"/>
     <use x="1189.460938" xlink:href="#DejaVuSans-121"/>
     <use x="1248.640625" xlink:href="#DejaVuSans-32"/>
     <use x="1280.427734" xlink:href="#DejaVuSans-67"/>
     <use x="1350.251953" xlink:href="#DejaVuSans-97"/>
     <use x="1411.53125" xlink:href="#DejaVuSans-115"/>
     <use x="1463.630859" xlink:href="#DejaVuSans-101"/>
     <use x="1525.154297" xlink:href="#DejaVuSans-115"/>
    </g>
   </g>
   <g id="legend_1">
    <g id="patch_285">
     <path d="M 64.199375 49.555312 
L 140.904063 49.555312 
Q 142.904063 49.555312 142.904063 47.555312 
L 142.904063 33.877187 
Q 142.904063 31.877187 140.904063 31.877187 
L 64.199375 31.877187 
Q 62.199375 31.877187 62.199375 33.877187 
L 62.199375 47.555312 
Q 62.199375 49.555312 64.199375 49.555312 
z
" style="fill:#ffffff;opacity:0.8;stroke:#cccccc;stroke-linejoin:miter;"/>
    </g>
    <g id="patch_286">
     <path d="M 66.199375 43.475625 
L 86.199375 43.475625 
L 86.199375 36.475625 
L 66.199375 36.475625 
z
" style="fill:#bf00bf;"/>
    </g>
    <g id="text_22">
     <!-- Colorado -->
     <g transform="translate(94.199375 43.475625)scale(0.1 -0.1)">
      <use xlink:href="#DejaVuSans-67"/>
      <use x="69.824219" xlink:href="#DejaVuSans-111"/>
      <use x="131.005859" xlink:href="#DejaVuSans-108"/>
      <use x="158.789062" xlink:href="#DejaVuSans-111"/>
      <use x="219.970703" xlink:href="#DejaVuSans-114"/>
      <use x="261.083984" xlink:href="#DejaVuSans-97"/>
      <use x="322.363281" xlink:href="#DejaVuSans-100"/>
      <use x="385.839844" xlink:href="#DejaVuSans-111"/>
     </g>
    </g>
   </g>
  </g>
 </g>
 <defs>
  <clipPath id="p2f269c1831">
   <rect height="217.44" width="334.8" x="57.199375" y="26.877187"/>
  </clipPath>
 </defs>
</svg>
