<?xml version="1.0" encoding="utf-8" standalone="no"?>
<!DOCTYPE svg PUBLIC "-//W3C//DTD SVG 1.1//EN"
  "http://www.w3.org/Graphics/SVG/1.1/DTD/svg11.dtd">
<!-- Created with matplotlib (https://matplotlib.org/) -->
<svg height="340.446625pt" version="1.1" viewBox="0 0 386.474375 340.446625" width="386.474375pt" xmlns="http://www.w3.org/2000/svg" xmlns:xlink="http://www.w3.org/1999/xlink">
 <metadata>
  <rdf:RDF xmlns:cc="http://creativecommons.org/ns#" xmlns:dc="http://purl.org/dc/elements/1.1/" xmlns:rdf="http://www.w3.org/1999/02/22-rdf-syntax-ns#">
   <cc:Work>
    <dc:type rdf:resource="http://purl.org/dc/dcmitype/StillImage"/>
    <dc:date>2020-10-29T20:42:17.148500</dc:date>
    <dc:format>image/svg+xml</dc:format>
    <dc:creator>
     <cc:Agent>
      <dc:title>Matplotlib v3.3.1, https://matplotlib.org/</dc:title>
     </cc:Agent>
    </dc:creator>
   </cc:Work>
  </rdf:RDF>
 </metadata>
 <defs>
  <style type="text/css">*{stroke-linecap:butt;stroke-linejoin:round;}</style>
 </defs>
 <g id="figure_1">
  <g id="patch_1">
   <path d="M 0 340.446625 
L 386.474375 340.446625 
L 386.474375 0 
L 0 0 
z
" style="fill:none;"/>
  </g>
  <g id="axes_1">
   <g id="patch_2">
    <path d="M 44.474375 244.317187 
L 379.274375 244.317187 
L 379.274375 26.877187 
L 44.474375 26.877187 
z
" style="fill:#ffffff;"/>
   </g>
   <g id="patch_3">
    <path clip-path="url(#p90fd5a0a5f)" d="M 59.692557 244.317187 
L 60.691289 244.317187 
L 60.691289 241.728616 
L 59.692557 241.728616 
z
"/>
   </g>
   <g id="patch_4">
    <path clip-path="url(#p90fd5a0a5f)" d="M 60.940972 244.317187 
L 61.939704 244.317187 
L 61.939704 244.317187 
L 60.940972 244.317187 
z
"/>
   </g>
   <g id="patch_5">
    <path clip-path="url(#p90fd5a0a5f)" d="M 62.189387 244.317187 
L 63.188119 244.317187 
L 63.188119 244.317187 
L 62.189387 244.317187 
z
"/>
   </g>
   <g id="patch_6">
    <path clip-path="url(#p90fd5a0a5f)" d="M 63.437803 244.317187 
L 64.436535 244.317187 
L 64.436535 244.317187 
L 63.437803 244.317187 
z
"/>
   </g>
   <g id="patch_7">
    <path clip-path="url(#p90fd5a0a5f)" d="M 64.686218 244.317187 
L 65.68495 244.317187 
L 65.68495 244.317187 
L 64.686218 244.317187 
z
"/>
   </g>
   <g id="patch_8">
    <path clip-path="url(#p90fd5a0a5f)" d="M 65.934633 244.317187 
L 66.933365 244.317187 
L 66.933365 241.728616 
L 65.934633 241.728616 
z
"/>
   </g>
   <g id="patch_9">
    <path clip-path="url(#p90fd5a0a5f)" d="M 67.183048 244.317187 
L 68.18178 244.317187 
L 68.18178 244.317187 
L 67.183048 244.317187 
z
"/>
   </g>
   <g id="patch_10">
    <path clip-path="url(#p90fd5a0a5f)" d="M 68.431464 244.317187 
L 69.430196 244.317187 
L 69.430196 239.140045 
L 68.431464 239.140045 
z
"/>
   </g>
   <g id="patch_11">
    <path clip-path="url(#p90fd5a0a5f)" d="M 69.679879 244.317187 
L 70.678611 244.317187 
L 70.678611 244.317187 
L 69.679879 244.317187 
z
"/>
   </g>
   <g id="patch_12">
    <path clip-path="url(#p90fd5a0a5f)" d="M 70.928294 244.317187 
L 71.927026 244.317187 
L 71.927026 241.728616 
L 70.928294 241.728616 
z
"/>
   </g>
   <g id="patch_13">
    <path clip-path="url(#p90fd5a0a5f)" d="M 72.176709 244.317187 
L 73.175441 244.317187 
L 73.175441 244.317187 
L 72.176709 244.317187 
z
"/>
   </g>
   <g id="patch_14">
    <path clip-path="url(#p90fd5a0a5f)" d="M 73.425124 244.317187 
L 74.423857 244.317187 
L 74.423857 244.317187 
L 73.425124 244.317187 
z
"/>
   </g>
   <g id="patch_15">
    <path clip-path="url(#p90fd5a0a5f)" d="M 74.67354 244.317187 
L 75.672272 244.317187 
L 75.672272 244.317187 
L 74.67354 244.317187 
z
"/>
   </g>
   <g id="patch_16">
    <path clip-path="url(#p90fd5a0a5f)" d="M 75.921955 244.317187 
L 76.920687 244.317187 
L 76.920687 244.317187 
L 75.921955 244.317187 
z
"/>
   </g>
   <g id="patch_17">
    <path clip-path="url(#p90fd5a0a5f)" d="M 77.17037 244.317187 
L 78.169102 244.317187 
L 78.169102 244.317187 
L 77.17037 244.317187 
z
"/>
   </g>
   <g id="patch_18">
    <path clip-path="url(#p90fd5a0a5f)" d="M 78.418785 244.317187 
L 79.417518 244.317187 
L 79.417518 241.728616 
L 78.418785 241.728616 
z
"/>
   </g>
   <g id="patch_19">
    <path clip-path="url(#p90fd5a0a5f)" d="M 79.667201 244.317187 
L 80.665933 244.317187 
L 80.665933 241.728616 
L 79.667201 241.728616 
z
"/>
   </g>
   <g id="patch_20">
    <path clip-path="url(#p90fd5a0a5f)" d="M 80.915616 244.317187 
L 81.914348 244.317187 
L 81.914348 241.728616 
L 80.915616 241.728616 
z
"/>
   </g>
   <g id="patch_21">
    <path clip-path="url(#p90fd5a0a5f)" d="M 82.164031 244.317187 
L 83.162763 244.317187 
L 83.162763 241.728616 
L 82.164031 241.728616 
z
"/>
   </g>
   <g id="patch_22">
    <path clip-path="url(#p90fd5a0a5f)" d="M 83.412446 244.317187 
L 84.411179 244.317187 
L 84.411179 226.197187 
L 83.412446 226.197187 
z
"/>
   </g>
   <g id="patch_23">
    <path clip-path="url(#p90fd5a0a5f)" d="M 84.660862 244.317187 
L 85.659594 244.317187 
L 85.659594 215.842902 
L 84.660862 215.842902 
z
"/>
   </g>
   <g id="patch_24">
    <path clip-path="url(#p90fd5a0a5f)" d="M 85.909277 244.317187 
L 86.908009 244.317187 
L 86.908009 231.37433 
L 85.909277 231.37433 
z
"/>
   </g>
   <g id="patch_25">
    <path clip-path="url(#p90fd5a0a5f)" d="M 87.157692 244.317187 
L 88.156424 244.317187 
L 88.156424 202.900045 
L 87.157692 202.900045 
z
"/>
   </g>
   <g id="patch_26">
    <path clip-path="url(#p90fd5a0a5f)" d="M 88.406107 244.317187 
L 89.40484 244.317187 
L 89.40484 215.842902 
L 88.406107 215.842902 
z
"/>
   </g>
   <g id="patch_27">
    <path clip-path="url(#p90fd5a0a5f)" d="M 89.654523 244.317187 
L 90.653255 244.317187 
L 90.653255 182.191473 
L 89.654523 182.191473 
z
"/>
   </g>
   <g id="patch_28">
    <path clip-path="url(#p90fd5a0a5f)" d="M 90.902938 244.317187 
L 91.90167 244.317187 
L 91.90167 143.362902 
L 90.902938 143.362902 
z
"/>
   </g>
   <g id="patch_29">
    <path clip-path="url(#p90fd5a0a5f)" d="M 92.151353 244.317187 
L 93.150085 244.317187 
L 93.150085 148.540045 
L 92.151353 148.540045 
z
"/>
   </g>
   <g id="patch_30">
    <path clip-path="url(#p90fd5a0a5f)" d="M 93.399768 244.317187 
L 94.398501 244.317187 
L 94.398501 101.945759 
L 93.399768 101.945759 
z
"/>
   </g>
   <g id="patch_31">
    <path clip-path="url(#p90fd5a0a5f)" d="M 94.648184 244.317187 
L 95.646916 244.317187 
L 95.646916 37.231473 
L 94.648184 37.231473 
z
"/>
   </g>
   <g id="patch_32">
    <path clip-path="url(#p90fd5a0a5f)" d="M 95.896599 244.317187 
L 96.895331 244.317187 
L 96.895331 65.705759 
L 95.896599 65.705759 
z
"/>
   </g>
   <g id="patch_33">
    <path clip-path="url(#p90fd5a0a5f)" d="M 97.145014 244.317187 
L 98.143746 244.317187 
L 98.143746 65.705759 
L 97.145014 65.705759 
z
"/>
   </g>
   <g id="patch_34">
    <path clip-path="url(#p90fd5a0a5f)" d="M 98.393429 244.317187 
L 99.392162 244.317187 
L 99.392162 76.060045 
L 98.393429 76.060045 
z
"/>
   </g>
   <g id="patch_35">
    <path clip-path="url(#p90fd5a0a5f)" d="M 99.641845 244.317187 
L 100.640577 244.317187 
L 100.640577 70.882902 
L 99.641845 70.882902 
z
"/>
   </g>
   <g id="patch_36">
    <path clip-path="url(#p90fd5a0a5f)" d="M 100.89026 244.317187 
L 101.888992 244.317187 
L 101.888992 130.420045 
L 100.89026 130.420045 
z
"/>
   </g>
   <g id="patch_37">
    <path clip-path="url(#p90fd5a0a5f)" d="M 102.138675 244.317187 
L 103.137407 244.317187 
L 103.137407 78.648616 
L 102.138675 78.648616 
z
"/>
   </g>
   <g id="patch_38">
    <path clip-path="url(#p90fd5a0a5f)" d="M 103.38709 244.317187 
L 104.385823 244.317187 
L 104.385823 89.002902 
L 103.38709 89.002902 
z
"/>
   </g>
   <g id="patch_39">
    <path clip-path="url(#p90fd5a0a5f)" d="M 104.635506 244.317187 
L 105.634238 244.317187 
L 105.634238 91.591473 
L 104.635506 91.591473 
z
"/>
   </g>
   <g id="patch_40">
    <path clip-path="url(#p90fd5a0a5f)" d="M 105.883921 244.317187 
L 106.882653 244.317187 
L 106.882653 101.945759 
L 105.883921 101.945759 
z
"/>
   </g>
   <g id="patch_41">
    <path clip-path="url(#p90fd5a0a5f)" d="M 107.132336 244.317187 
L 108.131068 244.317187 
L 108.131068 122.65433 
L 107.132336 122.65433 
z
"/>
   </g>
   <g id="patch_42">
    <path clip-path="url(#p90fd5a0a5f)" d="M 108.380751 244.317187 
L 109.379484 244.317187 
L 109.379484 130.420045 
L 108.380751 130.420045 
z
"/>
   </g>
   <g id="patch_43">
    <path clip-path="url(#p90fd5a0a5f)" d="M 109.629167 244.317187 
L 110.627899 244.317187 
L 110.627899 164.071473 
L 109.629167 164.071473 
z
"/>
   </g>
   <g id="patch_44">
    <path clip-path="url(#p90fd5a0a5f)" d="M 110.877582 244.317187 
L 111.876314 244.317187 
L 111.876314 182.191473 
L 110.877582 182.191473 
z
"/>
   </g>
   <g id="patch_45">
    <path clip-path="url(#p90fd5a0a5f)" d="M 112.125997 244.317187 
L 113.124729 244.317187 
L 113.124729 200.311473 
L 112.125997 200.311473 
z
"/>
   </g>
   <g id="patch_46">
    <path clip-path="url(#p90fd5a0a5f)" d="M 113.374412 244.317187 
L 114.373144 244.317187 
L 114.373144 166.660045 
L 113.374412 166.660045 
z
"/>
   </g>
   <g id="patch_47">
    <path clip-path="url(#p90fd5a0a5f)" d="M 114.622828 244.317187 
L 115.62156 244.317187 
L 115.62156 223.608616 
L 114.622828 223.608616 
z
"/>
   </g>
   <g id="patch_48">
    <path clip-path="url(#p90fd5a0a5f)" d="M 115.871243 244.317187 
L 116.869975 244.317187 
L 116.869975 210.665759 
L 115.871243 210.665759 
z
"/>
   </g>
   <g id="patch_49">
    <path clip-path="url(#p90fd5a0a5f)" d="M 117.119658 244.317187 
L 118.11839 244.317187 
L 118.11839 215.842902 
L 117.119658 215.842902 
z
"/>
   </g>
   <g id="patch_50">
    <path clip-path="url(#p90fd5a0a5f)" d="M 118.368073 244.317187 
L 119.366805 244.317187 
L 119.366805 236.551473 
L 118.368073 236.551473 
z
"/>
   </g>
   <g id="patch_51">
    <path clip-path="url(#p90fd5a0a5f)" d="M 119.616489 244.317187 
L 120.615221 244.317187 
L 120.615221 223.608616 
L 119.616489 223.608616 
z
"/>
   </g>
   <g id="patch_52">
    <path clip-path="url(#p90fd5a0a5f)" d="M 120.864904 244.317187 
L 121.863636 244.317187 
L 121.863636 233.962902 
L 120.864904 233.962902 
z
"/>
   </g>
   <g id="patch_53">
    <path clip-path="url(#p90fd5a0a5f)" d="M 122.113319 244.317187 
L 123.112051 244.317187 
L 123.112051 210.665759 
L 122.113319 210.665759 
z
"/>
   </g>
   <g id="patch_54">
    <path clip-path="url(#p90fd5a0a5f)" d="M 123.361734 244.317187 
L 124.360466 244.317187 
L 124.360466 228.785759 
L 123.361734 228.785759 
z
"/>
   </g>
   <g id="patch_55">
    <path clip-path="url(#p90fd5a0a5f)" d="M 124.610149 244.317187 
L 125.608882 244.317187 
L 125.608882 231.37433 
L 124.610149 231.37433 
z
"/>
   </g>
   <g id="patch_56">
    <path clip-path="url(#p90fd5a0a5f)" d="M 125.858565 244.317187 
L 126.857297 244.317187 
L 126.857297 226.197187 
L 125.858565 226.197187 
z
"/>
   </g>
   <g id="patch_57">
    <path clip-path="url(#p90fd5a0a5f)" d="M 127.10698 244.317187 
L 128.105712 244.317187 
L 128.105712 244.317187 
L 127.10698 244.317187 
z
"/>
   </g>
   <g id="patch_58">
    <path clip-path="url(#p90fd5a0a5f)" d="M 128.355395 244.317187 
L 129.354127 244.317187 
L 129.354127 241.728616 
L 128.355395 241.728616 
z
"/>
   </g>
   <g id="patch_59">
    <path clip-path="url(#p90fd5a0a5f)" d="M 129.60381 244.317187 
L 130.602543 244.317187 
L 130.602543 239.140045 
L 129.60381 239.140045 
z
"/>
   </g>
   <g id="patch_60">
    <path clip-path="url(#p90fd5a0a5f)" d="M 130.852226 244.317187 
L 131.850958 244.317187 
L 131.850958 236.551473 
L 130.852226 236.551473 
z
"/>
   </g>
   <g id="patch_61">
    <path clip-path="url(#p90fd5a0a5f)" d="M 132.100641 244.317187 
L 133.099373 244.317187 
L 133.099373 233.962902 
L 132.100641 233.962902 
z
"/>
   </g>
   <g id="patch_62">
    <path clip-path="url(#p90fd5a0a5f)" d="M 133.349056 244.317187 
L 134.347788 244.317187 
L 134.347788 241.728616 
L 133.349056 241.728616 
z
"/>
   </g>
   <g id="patch_63">
    <path clip-path="url(#p90fd5a0a5f)" d="M 134.597471 244.317187 
L 135.596204 244.317187 
L 135.596204 239.140045 
L 134.597471 239.140045 
z
"/>
   </g>
   <g id="patch_64">
    <path clip-path="url(#p90fd5a0a5f)" d="M 135.845887 244.317187 
L 136.844619 244.317187 
L 136.844619 236.551473 
L 135.845887 236.551473 
z
"/>
   </g>
   <g id="patch_65">
    <path clip-path="url(#p90fd5a0a5f)" d="M 137.094302 244.317187 
L 138.093034 244.317187 
L 138.093034 241.728616 
L 137.094302 241.728616 
z
"/>
   </g>
   <g id="patch_66">
    <path clip-path="url(#p90fd5a0a5f)" d="M 138.342717 244.317187 
L 139.341449 244.317187 
L 139.341449 239.140045 
L 138.342717 239.140045 
z
"/>
   </g>
   <g id="patch_67">
    <path clip-path="url(#p90fd5a0a5f)" d="M 139.591132 244.317187 
L 140.589865 244.317187 
L 140.589865 236.551473 
L 139.591132 236.551473 
z
"/>
   </g>
   <g id="patch_68">
    <path clip-path="url(#p90fd5a0a5f)" d="M 140.839548 244.317187 
L 141.83828 244.317187 
L 141.83828 236.551473 
L 140.839548 236.551473 
z
"/>
   </g>
   <g id="patch_69">
    <path clip-path="url(#p90fd5a0a5f)" d="M 142.087963 244.317187 
L 143.086695 244.317187 
L 143.086695 244.317187 
L 142.087963 244.317187 
z
"/>
   </g>
   <g id="patch_70">
    <path clip-path="url(#p90fd5a0a5f)" d="M 143.336378 244.317187 
L 144.33511 244.317187 
L 144.33511 241.728616 
L 143.336378 241.728616 
z
"/>
   </g>
   <g id="patch_71">
    <path clip-path="url(#p90fd5a0a5f)" d="M 144.584793 244.317187 
L 145.583526 244.317187 
L 145.583526 244.317187 
L 144.584793 244.317187 
z
"/>
   </g>
   <g id="patch_72">
    <path clip-path="url(#p90fd5a0a5f)" d="M 145.833209 244.317187 
L 146.831941 244.317187 
L 146.831941 241.728616 
L 145.833209 241.728616 
z
"/>
   </g>
   <g id="patch_73">
    <path clip-path="url(#p90fd5a0a5f)" d="M 147.081624 244.317187 
L 148.080356 244.317187 
L 148.080356 239.140045 
L 147.081624 239.140045 
z
"/>
   </g>
   <g id="patch_74">
    <path clip-path="url(#p90fd5a0a5f)" d="M 148.330039 244.317187 
L 149.328771 244.317187 
L 149.328771 241.728616 
L 148.330039 241.728616 
z
"/>
   </g>
   <g id="patch_75">
    <path clip-path="url(#p90fd5a0a5f)" d="M 149.578454 244.317187 
L 150.577187 244.317187 
L 150.577187 244.317187 
L 149.578454 244.317187 
z
"/>
   </g>
   <g id="patch_76">
    <path clip-path="url(#p90fd5a0a5f)" d="M 150.82687 244.317187 
L 151.825602 244.317187 
L 151.825602 241.728616 
L 150.82687 241.728616 
z
"/>
   </g>
   <g id="patch_77">
    <path clip-path="url(#p90fd5a0a5f)" d="M 152.075285 244.317187 
L 153.074017 244.317187 
L 153.074017 236.551473 
L 152.075285 236.551473 
z
"/>
   </g>
   <g id="patch_78">
    <path clip-path="url(#p90fd5a0a5f)" d="M 153.3237 244.317187 
L 154.322432 244.317187 
L 154.322432 244.317187 
L 153.3237 244.317187 
z
"/>
   </g>
   <g id="patch_79">
    <path clip-path="url(#p90fd5a0a5f)" d="M 154.572115 244.317187 
L 155.570848 244.317187 
L 155.570848 244.317187 
L 154.572115 244.317187 
z
"/>
   </g>
   <g id="patch_80">
    <path clip-path="url(#p90fd5a0a5f)" d="M 155.820531 244.317187 
L 156.819263 244.317187 
L 156.819263 244.317187 
L 155.820531 244.317187 
z
"/>
   </g>
   <g id="patch_81">
    <path clip-path="url(#p90fd5a0a5f)" d="M 157.068946 244.317187 
L 158.067678 244.317187 
L 158.067678 241.728616 
L 157.068946 241.728616 
z
"/>
   </g>
   <g id="patch_82">
    <path clip-path="url(#p90fd5a0a5f)" d="M 158.317361 244.317187 
L 159.316093 244.317187 
L 159.316093 241.728616 
L 158.317361 241.728616 
z
"/>
   </g>
   <g id="patch_83">
    <path clip-path="url(#p90fd5a0a5f)" d="M 159.565776 244.317187 
L 160.564508 244.317187 
L 160.564508 244.317187 
L 159.565776 244.317187 
z
"/>
   </g>
   <g id="patch_84">
    <path clip-path="url(#p90fd5a0a5f)" d="M 160.814192 244.317187 
L 161.812924 244.317187 
L 161.812924 244.317187 
L 160.814192 244.317187 
z
"/>
   </g>
   <g id="patch_85">
    <path clip-path="url(#p90fd5a0a5f)" d="M 162.062607 244.317187 
L 163.061339 244.317187 
L 163.061339 244.317187 
L 162.062607 244.317187 
z
"/>
   </g>
   <g id="patch_86">
    <path clip-path="url(#p90fd5a0a5f)" d="M 163.311022 244.317187 
L 164.309754 244.317187 
L 164.309754 244.317187 
L 163.311022 244.317187 
z
"/>
   </g>
   <g id="patch_87">
    <path clip-path="url(#p90fd5a0a5f)" d="M 164.559437 244.317187 
L 165.558169 244.317187 
L 165.558169 244.317187 
L 164.559437 244.317187 
z
"/>
   </g>
   <g id="patch_88">
    <path clip-path="url(#p90fd5a0a5f)" d="M 165.807853 244.317187 
L 166.806585 244.317187 
L 166.806585 244.317187 
L 165.807853 244.317187 
z
"/>
   </g>
   <g id="patch_89">
    <path clip-path="url(#p90fd5a0a5f)" d="M 167.056268 244.317187 
L 168.055 244.317187 
L 168.055 241.728616 
L 167.056268 241.728616 
z
"/>
   </g>
   <g id="patch_90">
    <path clip-path="url(#p90fd5a0a5f)" d="M 168.304683 244.317187 
L 169.303415 244.317187 
L 169.303415 244.317187 
L 168.304683 244.317187 
z
"/>
   </g>
   <g id="patch_91">
    <path clip-path="url(#p90fd5a0a5f)" d="M 169.553098 244.317187 
L 170.55183 244.317187 
L 170.55183 244.317187 
L 169.553098 244.317187 
z
"/>
   </g>
   <g id="patch_92">
    <path clip-path="url(#p90fd5a0a5f)" d="M 170.801513 244.317187 
L 171.800246 244.317187 
L 171.800246 244.317187 
L 170.801513 244.317187 
z
"/>
   </g>
   <g id="patch_93">
    <path clip-path="url(#p90fd5a0a5f)" d="M 172.049929 244.317187 
L 173.048661 244.317187 
L 173.048661 244.317187 
L 172.049929 244.317187 
z
"/>
   </g>
   <g id="patch_94">
    <path clip-path="url(#p90fd5a0a5f)" d="M 173.298344 244.317187 
L 174.297076 244.317187 
L 174.297076 244.317187 
L 173.298344 244.317187 
z
"/>
   </g>
   <g id="patch_95">
    <path clip-path="url(#p90fd5a0a5f)" d="M 174.546759 244.317187 
L 175.545491 244.317187 
L 175.545491 244.317187 
L 174.546759 244.317187 
z
"/>
   </g>
   <g id="patch_96">
    <path clip-path="url(#p90fd5a0a5f)" d="M 175.795174 244.317187 
L 176.793907 244.317187 
L 176.793907 244.317187 
L 175.795174 244.317187 
z
"/>
   </g>
   <g id="patch_97">
    <path clip-path="url(#p90fd5a0a5f)" d="M 177.04359 244.317187 
L 178.042322 244.317187 
L 178.042322 244.317187 
L 177.04359 244.317187 
z
"/>
   </g>
   <g id="patch_98">
    <path clip-path="url(#p90fd5a0a5f)" d="M 178.292005 244.317187 
L 179.290737 244.317187 
L 179.290737 244.317187 
L 178.292005 244.317187 
z
"/>
   </g>
   <g id="patch_99">
    <path clip-path="url(#p90fd5a0a5f)" d="M 179.54042 244.317187 
L 180.539152 244.317187 
L 180.539152 244.317187 
L 179.54042 244.317187 
z
"/>
   </g>
   <g id="patch_100">
    <path clip-path="url(#p90fd5a0a5f)" d="M 180.788835 244.317187 
L 181.787568 244.317187 
L 181.787568 244.317187 
L 180.788835 244.317187 
z
"/>
   </g>
   <g id="patch_101">
    <path clip-path="url(#p90fd5a0a5f)" d="M 182.037251 244.317187 
L 183.035983 244.317187 
L 183.035983 244.317187 
L 182.037251 244.317187 
z
"/>
   </g>
   <g id="patch_102">
    <path clip-path="url(#p90fd5a0a5f)" d="M 183.285666 244.317187 
L 184.284398 244.317187 
L 184.284398 244.317187 
L 183.285666 244.317187 
z
"/>
   </g>
   <g id="patch_103">
    <path clip-path="url(#p90fd5a0a5f)" d="M 184.534081 244.317187 
L 185.532813 244.317187 
L 185.532813 244.317187 
L 184.534081 244.317187 
z
"/>
   </g>
   <g id="patch_104">
    <path clip-path="url(#p90fd5a0a5f)" d="M 185.782496 244.317187 
L 186.781229 244.317187 
L 186.781229 244.317187 
L 185.782496 244.317187 
z
"/>
   </g>
   <g id="patch_105">
    <path clip-path="url(#p90fd5a0a5f)" d="M 187.030912 244.317187 
L 188.029644 244.317187 
L 188.029644 244.317187 
L 187.030912 244.317187 
z
"/>
   </g>
   <g id="patch_106">
    <path clip-path="url(#p90fd5a0a5f)" d="M 188.279327 244.317187 
L 189.278059 244.317187 
L 189.278059 244.317187 
L 188.279327 244.317187 
z
"/>
   </g>
   <g id="patch_107">
    <path clip-path="url(#p90fd5a0a5f)" d="M 189.527742 244.317187 
L 190.526474 244.317187 
L 190.526474 244.317187 
L 189.527742 244.317187 
z
"/>
   </g>
   <g id="patch_108">
    <path clip-path="url(#p90fd5a0a5f)" d="M 190.776157 244.317187 
L 191.77489 244.317187 
L 191.77489 244.317187 
L 190.776157 244.317187 
z
"/>
   </g>
   <g id="patch_109">
    <path clip-path="url(#p90fd5a0a5f)" d="M 192.024573 244.317187 
L 193.023305 244.317187 
L 193.023305 244.317187 
L 192.024573 244.317187 
z
"/>
   </g>
   <g id="patch_110">
    <path clip-path="url(#p90fd5a0a5f)" d="M 193.272988 244.317187 
L 194.27172 244.317187 
L 194.27172 244.317187 
L 193.272988 244.317187 
z
"/>
   </g>
   <g id="patch_111">
    <path clip-path="url(#p90fd5a0a5f)" d="M 194.521403 244.317187 
L 195.520135 244.317187 
L 195.520135 244.317187 
L 194.521403 244.317187 
z
"/>
   </g>
   <g id="patch_112">
    <path clip-path="url(#p90fd5a0a5f)" d="M 195.769818 244.317187 
L 196.768551 244.317187 
L 196.768551 244.317187 
L 195.769818 244.317187 
z
"/>
   </g>
   <g id="patch_113">
    <path clip-path="url(#p90fd5a0a5f)" d="M 197.018234 244.317187 
L 198.016966 244.317187 
L 198.016966 244.317187 
L 197.018234 244.317187 
z
"/>
   </g>
   <g id="patch_114">
    <path clip-path="url(#p90fd5a0a5f)" d="M 198.266649 244.317187 
L 199.265381 244.317187 
L 199.265381 244.317187 
L 198.266649 244.317187 
z
"/>
   </g>
   <g id="patch_115">
    <path clip-path="url(#p90fd5a0a5f)" d="M 199.515064 244.317187 
L 200.513796 244.317187 
L 200.513796 244.317187 
L 199.515064 244.317187 
z
"/>
   </g>
   <g id="patch_116">
    <path clip-path="url(#p90fd5a0a5f)" d="M 200.763479 244.317187 
L 201.762212 244.317187 
L 201.762212 244.317187 
L 200.763479 244.317187 
z
"/>
   </g>
   <g id="patch_117">
    <path clip-path="url(#p90fd5a0a5f)" d="M 202.011895 244.317187 
L 203.010627 244.317187 
L 203.010627 244.317187 
L 202.011895 244.317187 
z
"/>
   </g>
   <g id="patch_118">
    <path clip-path="url(#p90fd5a0a5f)" d="M 203.26031 244.317187 
L 204.259042 244.317187 
L 204.259042 244.317187 
L 203.26031 244.317187 
z
"/>
   </g>
   <g id="patch_119">
    <path clip-path="url(#p90fd5a0a5f)" d="M 204.508725 244.317187 
L 205.507457 244.317187 
L 205.507457 244.317187 
L 204.508725 244.317187 
z
"/>
   </g>
   <g id="patch_120">
    <path clip-path="url(#p90fd5a0a5f)" d="M 205.75714 244.317187 
L 206.755873 244.317187 
L 206.755873 244.317187 
L 205.75714 244.317187 
z
"/>
   </g>
   <g id="patch_121">
    <path clip-path="url(#p90fd5a0a5f)" d="M 207.005556 244.317187 
L 208.004288 244.317187 
L 208.004288 244.317187 
L 207.005556 244.317187 
z
"/>
   </g>
   <g id="patch_122">
    <path clip-path="url(#p90fd5a0a5f)" d="M 208.253971 244.317187 
L 209.252703 244.317187 
L 209.252703 244.317187 
L 208.253971 244.317187 
z
"/>
   </g>
   <g id="patch_123">
    <path clip-path="url(#p90fd5a0a5f)" d="M 209.502386 244.317187 
L 210.501118 244.317187 
L 210.501118 244.317187 
L 209.502386 244.317187 
z
"/>
   </g>
   <g id="patch_124">
    <path clip-path="url(#p90fd5a0a5f)" d="M 210.750801 244.317187 
L 211.749533 244.317187 
L 211.749533 244.317187 
L 210.750801 244.317187 
z
"/>
   </g>
   <g id="patch_125">
    <path clip-path="url(#p90fd5a0a5f)" d="M 211.999217 244.317187 
L 212.997949 244.317187 
L 212.997949 244.317187 
L 211.999217 244.317187 
z
"/>
   </g>
   <g id="patch_126">
    <path clip-path="url(#p90fd5a0a5f)" d="M 213.247632 244.317187 
L 214.246364 244.317187 
L 214.246364 244.317187 
L 213.247632 244.317187 
z
"/>
   </g>
   <g id="patch_127">
    <path clip-path="url(#p90fd5a0a5f)" d="M 214.496047 244.317187 
L 215.494779 244.317187 
L 215.494779 244.317187 
L 214.496047 244.317187 
z
"/>
   </g>
   <g id="patch_128">
    <path clip-path="url(#p90fd5a0a5f)" d="M 215.744462 244.317187 
L 216.743194 244.317187 
L 216.743194 244.317187 
L 215.744462 244.317187 
z
"/>
   </g>
   <g id="patch_129">
    <path clip-path="url(#p90fd5a0a5f)" d="M 216.992877 244.317187 
L 217.99161 244.317187 
L 217.99161 244.317187 
L 216.992877 244.317187 
z
"/>
   </g>
   <g id="patch_130">
    <path clip-path="url(#p90fd5a0a5f)" d="M 218.241293 244.317187 
L 219.240025 244.317187 
L 219.240025 244.317187 
L 218.241293 244.317187 
z
"/>
   </g>
   <g id="patch_131">
    <path clip-path="url(#p90fd5a0a5f)" d="M 219.489708 244.317187 
L 220.48844 244.317187 
L 220.48844 244.317187 
L 219.489708 244.317187 
z
"/>
   </g>
   <g id="patch_132">
    <path clip-path="url(#p90fd5a0a5f)" d="M 220.738123 244.317187 
L 221.736855 244.317187 
L 221.736855 244.317187 
L 220.738123 244.317187 
z
"/>
   </g>
   <g id="patch_133">
    <path clip-path="url(#p90fd5a0a5f)" d="M 221.986538 244.317187 
L 222.985271 244.317187 
L 222.985271 244.317187 
L 221.986538 244.317187 
z
"/>
   </g>
   <g id="patch_134">
    <path clip-path="url(#p90fd5a0a5f)" d="M 223.234954 244.317187 
L 224.233686 244.317187 
L 224.233686 244.317187 
L 223.234954 244.317187 
z
"/>
   </g>
   <g id="patch_135">
    <path clip-path="url(#p90fd5a0a5f)" d="M 224.483369 244.317187 
L 225.482101 244.317187 
L 225.482101 244.317187 
L 224.483369 244.317187 
z
"/>
   </g>
   <g id="patch_136">
    <path clip-path="url(#p90fd5a0a5f)" d="M 225.731784 244.317187 
L 226.730516 244.317187 
L 226.730516 244.317187 
L 225.731784 244.317187 
z
"/>
   </g>
   <g id="patch_137">
    <path clip-path="url(#p90fd5a0a5f)" d="M 226.980199 244.317187 
L 227.978932 244.317187 
L 227.978932 244.317187 
L 226.980199 244.317187 
z
"/>
   </g>
   <g id="patch_138">
    <path clip-path="url(#p90fd5a0a5f)" d="M 228.228615 244.317187 
L 229.227347 244.317187 
L 229.227347 244.317187 
L 228.228615 244.317187 
z
"/>
   </g>
   <g id="patch_139">
    <path clip-path="url(#p90fd5a0a5f)" d="M 229.47703 244.317187 
L 230.475762 244.317187 
L 230.475762 244.317187 
L 229.47703 244.317187 
z
"/>
   </g>
   <g id="patch_140">
    <path clip-path="url(#p90fd5a0a5f)" d="M 230.725445 244.317187 
L 231.724177 244.317187 
L 231.724177 244.317187 
L 230.725445 244.317187 
z
"/>
   </g>
   <g id="patch_141">
    <path clip-path="url(#p90fd5a0a5f)" d="M 231.97386 244.317187 
L 232.972593 244.317187 
L 232.972593 244.317187 
L 231.97386 244.317187 
z
"/>
   </g>
   <g id="patch_142">
    <path clip-path="url(#p90fd5a0a5f)" d="M 233.222276 244.317187 
L 234.221008 244.317187 
L 234.221008 244.317187 
L 233.222276 244.317187 
z
"/>
   </g>
   <g id="patch_143">
    <path clip-path="url(#p90fd5a0a5f)" d="M 234.470691 244.317187 
L 235.469423 244.317187 
L 235.469423 244.317187 
L 234.470691 244.317187 
z
"/>
   </g>
   <g id="patch_144">
    <path clip-path="url(#p90fd5a0a5f)" d="M 235.719106 244.317187 
L 236.717838 244.317187 
L 236.717838 244.317187 
L 235.719106 244.317187 
z
"/>
   </g>
   <g id="patch_145">
    <path clip-path="url(#p90fd5a0a5f)" d="M 236.967521 244.317187 
L 237.966254 244.317187 
L 237.966254 244.317187 
L 236.967521 244.317187 
z
"/>
   </g>
   <g id="patch_146">
    <path clip-path="url(#p90fd5a0a5f)" d="M 238.215937 244.317187 
L 239.214669 244.317187 
L 239.214669 244.317187 
L 238.215937 244.317187 
z
"/>
   </g>
   <g id="patch_147">
    <path clip-path="url(#p90fd5a0a5f)" d="M 239.464352 244.317187 
L 240.463084 244.317187 
L 240.463084 244.317187 
L 239.464352 244.317187 
z
"/>
   </g>
   <g id="patch_148">
    <path clip-path="url(#p90fd5a0a5f)" d="M 240.712767 244.317187 
L 241.711499 244.317187 
L 241.711499 244.317187 
L 240.712767 244.317187 
z
"/>
   </g>
   <g id="patch_149">
    <path clip-path="url(#p90fd5a0a5f)" d="M 241.961182 244.317187 
L 242.959915 244.317187 
L 242.959915 244.317187 
L 241.961182 244.317187 
z
"/>
   </g>
   <g id="patch_150">
    <path clip-path="url(#p90fd5a0a5f)" d="M 243.209598 244.317187 
L 244.20833 244.317187 
L 244.20833 244.317187 
L 243.209598 244.317187 
z
"/>
   </g>
   <g id="patch_151">
    <path clip-path="url(#p90fd5a0a5f)" d="M 244.458013 244.317187 
L 245.456745 244.317187 
L 245.456745 244.317187 
L 244.458013 244.317187 
z
"/>
   </g>
   <g id="patch_152">
    <path clip-path="url(#p90fd5a0a5f)" d="M 245.706428 244.317187 
L 246.70516 244.317187 
L 246.70516 244.317187 
L 245.706428 244.317187 
z
"/>
   </g>
   <g id="patch_153">
    <path clip-path="url(#p90fd5a0a5f)" d="M 246.954843 244.317187 
L 247.953576 244.317187 
L 247.953576 244.317187 
L 246.954843 244.317187 
z
"/>
   </g>
   <g id="patch_154">
    <path clip-path="url(#p90fd5a0a5f)" d="M 248.203259 244.317187 
L 249.201991 244.317187 
L 249.201991 244.317187 
L 248.203259 244.317187 
z
"/>
   </g>
   <g id="patch_155">
    <path clip-path="url(#p90fd5a0a5f)" d="M 249.451674 244.317187 
L 250.450406 244.317187 
L 250.450406 244.317187 
L 249.451674 244.317187 
z
"/>
   </g>
   <g id="patch_156">
    <path clip-path="url(#p90fd5a0a5f)" d="M 250.700089 244.317187 
L 251.698821 244.317187 
L 251.698821 244.317187 
L 250.700089 244.317187 
z
"/>
   </g>
   <g id="patch_157">
    <path clip-path="url(#p90fd5a0a5f)" d="M 251.948504 244.317187 
L 252.947237 244.317187 
L 252.947237 244.317187 
L 251.948504 244.317187 
z
"/>
   </g>
   <g id="patch_158">
    <path clip-path="url(#p90fd5a0a5f)" d="M 253.19692 244.317187 
L 254.195652 244.317187 
L 254.195652 244.317187 
L 253.19692 244.317187 
z
"/>
   </g>
   <g id="patch_159">
    <path clip-path="url(#p90fd5a0a5f)" d="M 254.445335 244.317187 
L 255.444067 244.317187 
L 255.444067 244.317187 
L 254.445335 244.317187 
z
"/>
   </g>
   <g id="patch_160">
    <path clip-path="url(#p90fd5a0a5f)" d="M 255.69375 244.317187 
L 256.692482 244.317187 
L 256.692482 244.317187 
L 255.69375 244.317187 
z
"/>
   </g>
   <g id="patch_161">
    <path clip-path="url(#p90fd5a0a5f)" d="M 256.942165 244.317187 
L 257.940897 244.317187 
L 257.940897 244.317187 
L 256.942165 244.317187 
z
"/>
   </g>
   <g id="patch_162">
    <path clip-path="url(#p90fd5a0a5f)" d="M 258.190581 244.317187 
L 259.189313 244.317187 
L 259.189313 244.317187 
L 258.190581 244.317187 
z
"/>
   </g>
   <g id="patch_163">
    <path clip-path="url(#p90fd5a0a5f)" d="M 259.438996 244.317187 
L 260.437728 244.317187 
L 260.437728 244.317187 
L 259.438996 244.317187 
z
"/>
   </g>
   <g id="patch_164">
    <path clip-path="url(#p90fd5a0a5f)" d="M 260.687411 244.317187 
L 261.686143 244.317187 
L 261.686143 244.317187 
L 260.687411 244.317187 
z
"/>
   </g>
   <g id="patch_165">
    <path clip-path="url(#p90fd5a0a5f)" d="M 261.935826 244.317187 
L 262.934558 244.317187 
L 262.934558 244.317187 
L 261.935826 244.317187 
z
"/>
   </g>
   <g id="patch_166">
    <path clip-path="url(#p90fd5a0a5f)" d="M 263.184242 244.317187 
L 264.182974 244.317187 
L 264.182974 244.317187 
L 263.184242 244.317187 
z
"/>
   </g>
   <g id="patch_167">
    <path clip-path="url(#p90fd5a0a5f)" d="M 264.432657 244.317187 
L 265.431389 244.317187 
L 265.431389 244.317187 
L 264.432657 244.317187 
z
"/>
   </g>
   <g id="patch_168">
    <path clip-path="url(#p90fd5a0a5f)" d="M 265.681072 244.317187 
L 266.679804 244.317187 
L 266.679804 244.317187 
L 265.681072 244.317187 
z
"/>
   </g>
   <g id="patch_169">
    <path clip-path="url(#p90fd5a0a5f)" d="M 266.929487 244.317187 
L 267.928219 244.317187 
L 267.928219 244.317187 
L 266.929487 244.317187 
z
"/>
   </g>
   <g id="patch_170">
    <path clip-path="url(#p90fd5a0a5f)" d="M 268.177902 244.317187 
L 269.176635 244.317187 
L 269.176635 244.317187 
L 268.177902 244.317187 
z
"/>
   </g>
   <g id="patch_171">
    <path clip-path="url(#p90fd5a0a5f)" d="M 269.426318 244.317187 
L 270.42505 244.317187 
L 270.42505 244.317187 
L 269.426318 244.317187 
z
"/>
   </g>
   <g id="patch_172">
    <path clip-path="url(#p90fd5a0a5f)" d="M 270.674733 244.317187 
L 271.673465 244.317187 
L 271.673465 244.317187 
L 270.674733 244.317187 
z
"/>
   </g>
   <g id="patch_173">
    <path clip-path="url(#p90fd5a0a5f)" d="M 271.923148 244.317187 
L 272.92188 244.317187 
L 272.92188 244.317187 
L 271.923148 244.317187 
z
"/>
   </g>
   <g id="patch_174">
    <path clip-path="url(#p90fd5a0a5f)" d="M 273.171563 244.317187 
L 274.170296 244.317187 
L 274.170296 244.317187 
L 273.171563 244.317187 
z
"/>
   </g>
   <g id="patch_175">
    <path clip-path="url(#p90fd5a0a5f)" d="M 274.419979 244.317187 
L 275.418711 244.317187 
L 275.418711 244.317187 
L 274.419979 244.317187 
z
"/>
   </g>
   <g id="patch_176">
    <path clip-path="url(#p90fd5a0a5f)" d="M 275.668394 244.317187 
L 276.667126 244.317187 
L 276.667126 244.317187 
L 275.668394 244.317187 
z
"/>
   </g>
   <g id="patch_177">
    <path clip-path="url(#p90fd5a0a5f)" d="M 276.916809 244.317187 
L 277.915541 244.317187 
L 277.915541 244.317187 
L 276.916809 244.317187 
z
"/>
   </g>
   <g id="patch_178">
    <path clip-path="url(#p90fd5a0a5f)" d="M 278.165224 244.317187 
L 279.163957 244.317187 
L 279.163957 244.317187 
L 278.165224 244.317187 
z
"/>
   </g>
   <g id="patch_179">
    <path clip-path="url(#p90fd5a0a5f)" d="M 279.41364 244.317187 
L 280.412372 244.317187 
L 280.412372 244.317187 
L 279.41364 244.317187 
z
"/>
   </g>
   <g id="patch_180">
    <path clip-path="url(#p90fd5a0a5f)" d="M 280.662055 244.317187 
L 281.660787 244.317187 
L 281.660787 244.317187 
L 280.662055 244.317187 
z
"/>
   </g>
   <g id="patch_181">
    <path clip-path="url(#p90fd5a0a5f)" d="M 281.91047 244.317187 
L 282.909202 244.317187 
L 282.909202 244.317187 
L 281.91047 244.317187 
z
"/>
   </g>
   <g id="patch_182">
    <path clip-path="url(#p90fd5a0a5f)" d="M 283.158885 244.317187 
L 284.157618 244.317187 
L 284.157618 244.317187 
L 283.158885 244.317187 
z
"/>
   </g>
   <g id="patch_183">
    <path clip-path="url(#p90fd5a0a5f)" d="M 284.407301 244.317187 
L 285.406033 244.317187 
L 285.406033 244.317187 
L 284.407301 244.317187 
z
"/>
   </g>
   <g id="patch_184">
    <path clip-path="url(#p90fd5a0a5f)" d="M 285.655716 244.317187 
L 286.654448 244.317187 
L 286.654448 244.317187 
L 285.655716 244.317187 
z
"/>
   </g>
   <g id="patch_185">
    <path clip-path="url(#p90fd5a0a5f)" d="M 286.904131 244.317187 
L 287.902863 244.317187 
L 287.902863 244.317187 
L 286.904131 244.317187 
z
"/>
   </g>
   <g id="patch_186">
    <path clip-path="url(#p90fd5a0a5f)" d="M 288.152546 244.317187 
L 289.151279 244.317187 
L 289.151279 244.317187 
L 288.152546 244.317187 
z
"/>
   </g>
   <g id="patch_187">
    <path clip-path="url(#p90fd5a0a5f)" d="M 289.400962 244.317187 
L 290.399694 244.317187 
L 290.399694 244.317187 
L 289.400962 244.317187 
z
"/>
   </g>
   <g id="patch_188">
    <path clip-path="url(#p90fd5a0a5f)" d="M 290.649377 244.317187 
L 291.648109 244.317187 
L 291.648109 244.317187 
L 290.649377 244.317187 
z
"/>
   </g>
   <g id="patch_189">
    <path clip-path="url(#p90fd5a0a5f)" d="M 291.897792 244.317187 
L 292.896524 244.317187 
L 292.896524 244.317187 
L 291.897792 244.317187 
z
"/>
   </g>
   <g id="patch_190">
    <path clip-path="url(#p90fd5a0a5f)" d="M 293.146207 244.317187 
L 294.14494 244.317187 
L 294.14494 244.317187 
L 293.146207 244.317187 
z
"/>
   </g>
   <g id="patch_191">
    <path clip-path="url(#p90fd5a0a5f)" d="M 294.394623 244.317187 
L 295.393355 244.317187 
L 295.393355 244.317187 
L 294.394623 244.317187 
z
"/>
   </g>
   <g id="patch_192">
    <path clip-path="url(#p90fd5a0a5f)" d="M 295.643038 244.317187 
L 296.64177 244.317187 
L 296.64177 244.317187 
L 295.643038 244.317187 
z
"/>
   </g>
   <g id="patch_193">
    <path clip-path="url(#p90fd5a0a5f)" d="M 296.891453 244.317187 
L 297.890185 244.317187 
L 297.890185 244.317187 
L 296.891453 244.317187 
z
"/>
   </g>
   <g id="patch_194">
    <path clip-path="url(#p90fd5a0a5f)" d="M 298.139868 244.317187 
L 299.138601 244.317187 
L 299.138601 244.317187 
L 298.139868 244.317187 
z
"/>
   </g>
   <g id="patch_195">
    <path clip-path="url(#p90fd5a0a5f)" d="M 299.388284 244.317187 
L 300.387016 244.317187 
L 300.387016 244.317187 
L 299.388284 244.317187 
z
"/>
   </g>
   <g id="patch_196">
    <path clip-path="url(#p90fd5a0a5f)" d="M 300.636699 244.317187 
L 301.635431 244.317187 
L 301.635431 244.317187 
L 300.636699 244.317187 
z
"/>
   </g>
   <g id="patch_197">
    <path clip-path="url(#p90fd5a0a5f)" d="M 301.885114 244.317187 
L 302.883846 244.317187 
L 302.883846 244.317187 
L 301.885114 244.317187 
z
"/>
   </g>
   <g id="patch_198">
    <path clip-path="url(#p90fd5a0a5f)" d="M 303.133529 244.317187 
L 304.132261 244.317187 
L 304.132261 244.317187 
L 303.133529 244.317187 
z
"/>
   </g>
   <g id="patch_199">
    <path clip-path="url(#p90fd5a0a5f)" d="M 304.381945 244.317187 
L 305.380677 244.317187 
L 305.380677 244.317187 
L 304.381945 244.317187 
z
"/>
   </g>
   <g id="patch_200">
    <path clip-path="url(#p90fd5a0a5f)" d="M 305.63036 244.317187 
L 306.629092 244.317187 
L 306.629092 244.317187 
L 305.63036 244.317187 
z
"/>
   </g>
   <g id="patch_201">
    <path clip-path="url(#p90fd5a0a5f)" d="M 306.878775 244.317187 
L 307.877507 244.317187 
L 307.877507 244.317187 
L 306.878775 244.317187 
z
"/>
   </g>
   <g id="patch_202">
    <path clip-path="url(#p90fd5a0a5f)" d="M 308.12719 244.317187 
L 309.125922 244.317187 
L 309.125922 244.317187 
L 308.12719 244.317187 
z
"/>
   </g>
   <g id="patch_203">
    <path clip-path="url(#p90fd5a0a5f)" d="M 309.375606 244.317187 
L 310.374338 244.317187 
L 310.374338 244.317187 
L 309.375606 244.317187 
z
"/>
   </g>
   <g id="patch_204">
    <path clip-path="url(#p90fd5a0a5f)" d="M 310.624021 244.317187 
L 311.622753 244.317187 
L 311.622753 244.317187 
L 310.624021 244.317187 
z
"/>
   </g>
   <g id="patch_205">
    <path clip-path="url(#p90fd5a0a5f)" d="M 311.872436 244.317187 
L 312.871168 244.317187 
L 312.871168 244.317187 
L 311.872436 244.317187 
z
"/>
   </g>
   <g id="patch_206">
    <path clip-path="url(#p90fd5a0a5f)" d="M 313.120851 244.317187 
L 314.119583 244.317187 
L 314.119583 244.317187 
L 313.120851 244.317187 
z
"/>
   </g>
   <g id="patch_207">
    <path clip-path="url(#p90fd5a0a5f)" d="M 314.369266 244.317187 
L 315.367999 244.317187 
L 315.367999 244.317187 
L 314.369266 244.317187 
z
"/>
   </g>
   <g id="patch_208">
    <path clip-path="url(#p90fd5a0a5f)" d="M 315.617682 244.317187 
L 316.616414 244.317187 
L 316.616414 244.317187 
L 315.617682 244.317187 
z
"/>
   </g>
   <g id="patch_209">
    <path clip-path="url(#p90fd5a0a5f)" d="M 316.866097 244.317187 
L 317.864829 244.317187 
L 317.864829 244.317187 
L 316.866097 244.317187 
z
"/>
   </g>
   <g id="patch_210">
    <path clip-path="url(#p90fd5a0a5f)" d="M 318.114512 244.317187 
L 319.113244 244.317187 
L 319.113244 244.317187 
L 318.114512 244.317187 
z
"/>
   </g>
   <g id="patch_211">
    <path clip-path="url(#p90fd5a0a5f)" d="M 319.362927 244.317187 
L 320.36166 244.317187 
L 320.36166 244.317187 
L 319.362927 244.317187 
z
"/>
   </g>
   <g id="patch_212">
    <path clip-path="url(#p90fd5a0a5f)" d="M 320.611343 244.317187 
L 321.610075 244.317187 
L 321.610075 244.317187 
L 320.611343 244.317187 
z
"/>
   </g>
   <g id="patch_213">
    <path clip-path="url(#p90fd5a0a5f)" d="M 321.859758 244.317187 
L 322.85849 244.317187 
L 322.85849 244.317187 
L 321.859758 244.317187 
z
"/>
   </g>
   <g id="patch_214">
    <path clip-path="url(#p90fd5a0a5f)" d="M 323.108173 244.317187 
L 324.106905 244.317187 
L 324.106905 244.317187 
L 323.108173 244.317187 
z
"/>
   </g>
   <g id="patch_215">
    <path clip-path="url(#p90fd5a0a5f)" d="M 324.356588 244.317187 
L 325.355321 244.317187 
L 325.355321 244.317187 
L 324.356588 244.317187 
z
"/>
   </g>
   <g id="patch_216">
    <path clip-path="url(#p90fd5a0a5f)" d="M 325.605004 244.317187 
L 326.603736 244.317187 
L 326.603736 244.317187 
L 325.605004 244.317187 
z
"/>
   </g>
   <g id="patch_217">
    <path clip-path="url(#p90fd5a0a5f)" d="M 326.853419 244.317187 
L 327.852151 244.317187 
L 327.852151 244.317187 
L 326.853419 244.317187 
z
"/>
   </g>
   <g id="patch_218">
    <path clip-path="url(#p90fd5a0a5f)" d="M 328.101834 244.317187 
L 329.100566 244.317187 
L 329.100566 244.317187 
L 328.101834 244.317187 
z
"/>
   </g>
   <g id="patch_219">
    <path clip-path="url(#p90fd5a0a5f)" d="M 329.350249 244.317187 
L 330.348982 244.317187 
L 330.348982 244.317187 
L 329.350249 244.317187 
z
"/>
   </g>
   <g id="patch_220">
    <path clip-path="url(#p90fd5a0a5f)" d="M 330.598665 244.317187 
L 331.597397 244.317187 
L 331.597397 244.317187 
L 330.598665 244.317187 
z
"/>
   </g>
   <g id="patch_221">
    <path clip-path="url(#p90fd5a0a5f)" d="M 331.84708 244.317187 
L 332.845812 244.317187 
L 332.845812 244.317187 
L 331.84708 244.317187 
z
"/>
   </g>
   <g id="patch_222">
    <path clip-path="url(#p90fd5a0a5f)" d="M 333.095495 244.317187 
L 334.094227 244.317187 
L 334.094227 244.317187 
L 333.095495 244.317187 
z
"/>
   </g>
   <g id="patch_223">
    <path clip-path="url(#p90fd5a0a5f)" d="M 334.34391 244.317187 
L 335.342643 244.317187 
L 335.342643 244.317187 
L 334.34391 244.317187 
z
"/>
   </g>
   <g id="patch_224">
    <path clip-path="url(#p90fd5a0a5f)" d="M 335.592326 244.317187 
L 336.591058 244.317187 
L 336.591058 244.317187 
L 335.592326 244.317187 
z
"/>
   </g>
   <g id="patch_225">
    <path clip-path="url(#p90fd5a0a5f)" d="M 336.840741 244.317187 
L 337.839473 244.317187 
L 337.839473 244.317187 
L 336.840741 244.317187 
z
"/>
   </g>
   <g id="patch_226">
    <path clip-path="url(#p90fd5a0a5f)" d="M 338.089156 244.317187 
L 339.087888 244.317187 
L 339.087888 244.317187 
L 338.089156 244.317187 
z
"/>
   </g>
   <g id="patch_227">
    <path clip-path="url(#p90fd5a0a5f)" d="M 339.337571 244.317187 
L 340.336304 244.317187 
L 340.336304 244.317187 
L 339.337571 244.317187 
z
"/>
   </g>
   <g id="patch_228">
    <path clip-path="url(#p90fd5a0a5f)" d="M 340.585987 244.317187 
L 341.584719 244.317187 
L 341.584719 244.317187 
L 340.585987 244.317187 
z
"/>
   </g>
   <g id="patch_229">
    <path clip-path="url(#p90fd5a0a5f)" d="M 341.834402 244.317187 
L 342.833134 244.317187 
L 342.833134 244.317187 
L 341.834402 244.317187 
z
"/>
   </g>
   <g id="patch_230">
    <path clip-path="url(#p90fd5a0a5f)" d="M 343.082817 244.317187 
L 344.081549 244.317187 
L 344.081549 244.317187 
L 343.082817 244.317187 
z
"/>
   </g>
   <g id="patch_231">
    <path clip-path="url(#p90fd5a0a5f)" d="M 344.331232 244.317187 
L 345.329965 244.317187 
L 345.329965 244.317187 
L 344.331232 244.317187 
z
"/>
   </g>
   <g id="patch_232">
    <path clip-path="url(#p90fd5a0a5f)" d="M 345.579648 244.317187 
L 346.57838 244.317187 
L 346.57838 244.317187 
L 345.579648 244.317187 
z
"/>
   </g>
   <g id="patch_233">
    <path clip-path="url(#p90fd5a0a5f)" d="M 346.828063 244.317187 
L 347.826795 244.317187 
L 347.826795 244.317187 
L 346.828063 244.317187 
z
"/>
   </g>
   <g id="patch_234">
    <path clip-path="url(#p90fd5a0a5f)" d="M 348.076478 244.317187 
L 349.07521 244.317187 
L 349.07521 244.317187 
L 348.076478 244.317187 
z
"/>
   </g>
   <g id="patch_235">
    <path clip-path="url(#p90fd5a0a5f)" d="M 349.324893 244.317187 
L 350.323626 244.317187 
L 350.323626 244.317187 
L 349.324893 244.317187 
z
"/>
   </g>
   <g id="patch_236">
    <path clip-path="url(#p90fd5a0a5f)" d="M 350.573309 244.317187 
L 351.572041 244.317187 
L 351.572041 244.317187 
L 350.573309 244.317187 
z
"/>
   </g>
   <g id="patch_237">
    <path clip-path="url(#p90fd5a0a5f)" d="M 351.821724 244.317187 
L 352.820456 244.317187 
L 352.820456 244.317187 
L 351.821724 244.317187 
z
"/>
   </g>
   <g id="patch_238">
    <path clip-path="url(#p90fd5a0a5f)" d="M 353.070139 244.317187 
L 354.068871 244.317187 
L 354.068871 244.317187 
L 353.070139 244.317187 
z
"/>
   </g>
   <g id="patch_239">
    <path clip-path="url(#p90fd5a0a5f)" d="M 354.318554 244.317187 
L 355.317286 244.317187 
L 355.317286 244.317187 
L 354.318554 244.317187 
z
"/>
   </g>
   <g id="patch_240">
    <path clip-path="url(#p90fd5a0a5f)" d="M 355.56697 244.317187 
L 356.565702 244.317187 
L 356.565702 244.317187 
L 355.56697 244.317187 
z
"/>
   </g>
   <g id="patch_241">
    <path clip-path="url(#p90fd5a0a5f)" d="M 356.815385 244.317187 
L 357.814117 244.317187 
L 357.814117 244.317187 
L 356.815385 244.317187 
z
"/>
   </g>
   <g id="patch_242">
    <path clip-path="url(#p90fd5a0a5f)" d="M 358.0638 244.317187 
L 359.062532 244.317187 
L 359.062532 244.317187 
L 358.0638 244.317187 
z
"/>
   </g>
   <g id="patch_243">
    <path clip-path="url(#p90fd5a0a5f)" d="M 359.312215 244.317187 
L 360.310947 244.317187 
L 360.310947 244.317187 
L 359.312215 244.317187 
z
"/>
   </g>
   <g id="patch_244">
    <path clip-path="url(#p90fd5a0a5f)" d="M 360.560631 244.317187 
L 361.559363 244.317187 
L 361.559363 244.317187 
L 360.560631 244.317187 
z
"/>
   </g>
   <g id="patch_245">
    <path clip-path="url(#p90fd5a0a5f)" d="M 361.809046 244.317187 
L 362.807778 244.317187 
L 362.807778 244.317187 
L 361.809046 244.317187 
z
"/>
   </g>
   <g id="patch_246">
    <path clip-path="url(#p90fd5a0a5f)" d="M 363.057461 244.317187 
L 364.056193 244.317187 
L 364.056193 244.317187 
L 363.057461 244.317187 
z
"/>
   </g>
   <g id="matplotlib.axis_1">
    <g id="xtick_1">
     <g id="line2d_1">
      <defs>
       <path d="M 0 0 
L 0 17 
" id="m3095d3e4b6" style="stroke:#000000;"/>
      </defs>
      <g>
       <use style="stroke:#000000;" x="65.185584" xlink:href="#m3095d3e4b6" y="244.317187"/>
      </g>
     </g>
    </g>
    <g id="xtick_2">
     <g id="line2d_2">
      <g>
       <use style="stroke:#000000;" x="103.886456" xlink:href="#m3095d3e4b6" y="244.317187"/>
      </g>
     </g>
    </g>
    <g id="xtick_3">
     <g id="line2d_3">
      <g>
       <use style="stroke:#000000;" x="141.338914" xlink:href="#m3095d3e4b6" y="244.317187"/>
      </g>
     </g>
    </g>
    <g id="xtick_4">
     <g id="line2d_4">
      <g>
       <use style="stroke:#000000;" x="180.039786" xlink:href="#m3095d3e4b6" y="244.317187"/>
      </g>
     </g>
    </g>
    <g id="xtick_5">
     <g id="line2d_5">
      <g>
       <use style="stroke:#000000;" x="217.492244" xlink:href="#m3095d3e4b6" y="244.317187"/>
      </g>
     </g>
    </g>
    <g id="xtick_6">
     <g id="line2d_6">
      <g>
       <use style="stroke:#000000;" x="256.193116" xlink:href="#m3095d3e4b6" y="244.317187"/>
      </g>
     </g>
    </g>
    <g id="xtick_7">
     <g id="line2d_7">
      <g>
       <use style="stroke:#000000;" x="294.893989" xlink:href="#m3095d3e4b6" y="244.317187"/>
      </g>
     </g>
    </g>
    <g id="xtick_8">
     <g id="line2d_8">
      <g>
       <use style="stroke:#000000;" x="332.346446" xlink:href="#m3095d3e4b6" y="244.317187"/>
      </g>
     </g>
    </g>
    <g id="xtick_9">
     <g id="line2d_9">
      <g>
       <use style="stroke:#000000;" x="371.047319" xlink:href="#m3095d3e4b6" y="244.317187"/>
      </g>
     </g>
    </g>
    <g id="xtick_10">
     <g id="line2d_10">
      <defs>
       <path d="M 0 0 
L 0 3 
" id="m3c4be08b88" style="stroke:#000000;"/>
      </defs>
      <g>
       <use style="stroke:#000000;" x="46.459355" xlink:href="#m3c4be08b88" y="244.317187"/>
      </g>
     </g>
     <g id="text_1">
      <!--  -->
      <g transform="translate(43.619824 273.882812)rotate(-90)scale(0.1 -0.1)"/>
      <!-- Feb 2020 -->
      <g transform="translate(54.817636 297.048437)rotate(-90)scale(0.1 -0.1)">
       <defs>
        <path d="M 9.8125 72.90625 
L 51.703125 72.90625 
L 51.703125 64.59375 
L 19.671875 64.59375 
L 19.671875 43.109375 
L 48.578125 43.109375 
L 48.578125 34.8125 
L 19.671875 34.8125 
L 19.671875 0 
L 9.8125 0 
z
" id="DejaVuSans-70"/>
        <path d="M 56.203125 29.59375 
L 56.203125 25.203125 
L 14.890625 25.203125 
Q 15.484375 15.921875 20.484375 11.0625 
Q 25.484375 6.203125 34.421875 6.203125 
Q 39.59375 6.203125 44.453125 7.46875 
Q 49.3125 8.734375 54.109375 11.28125 
L 54.109375 2.78125 
Q 49.265625 0.734375 44.1875 -0.34375 
Q 39.109375 -1.421875 33.890625 -1.421875 
Q 20.796875 -1.421875 13.15625 6.1875 
Q 5.515625 13.8125 5.515625 26.8125 
Q 5.515625 40.234375 12.765625 48.109375 
Q 20.015625 56 32.328125 56 
Q 43.359375 56 49.78125 48.890625 
Q 56.203125 41.796875 56.203125 29.59375 
z
M 47.21875 32.234375 
Q 47.125 39.59375 43.09375 43.984375 
Q 39.0625 48.390625 32.421875 48.390625 
Q 24.90625 48.390625 20.390625 44.140625 
Q 15.875 39.890625 15.1875 32.171875 
z
" id="DejaVuSans-101"/>
        <path d="M 48.6875 27.296875 
Q 48.6875 37.203125 44.609375 42.84375 
Q 40.53125 48.484375 33.40625 48.484375 
Q 26.265625 48.484375 22.1875 42.84375 
Q 18.109375 37.203125 18.109375 27.296875 
Q 18.109375 17.390625 22.1875 11.75 
Q 26.265625 6.109375 33.40625 6.109375 
Q 40.53125 6.109375 44.609375 11.75 
Q 48.6875 17.390625 48.6875 27.296875 
z
M 18.109375 46.390625 
Q 20.953125 51.265625 25.265625 53.625 
Q 29.59375 56 35.59375 56 
Q 45.5625 56 51.78125 48.09375 
Q 58.015625 40.1875 58.015625 27.296875 
Q 58.015625 14.40625 51.78125 6.484375 
Q 45.5625 -1.421875 35.59375 -1.421875 
Q 29.59375 -1.421875 25.265625 0.953125 
Q 20.953125 3.328125 18.109375 8.203125 
L 18.109375 0 
L 9.078125 0 
L 9.078125 75.984375 
L 18.109375 75.984375 
z
" id="DejaVuSans-98"/>
        <path id="DejaVuSans-32"/>
        <path d="M 19.1875 8.296875 
L 53.609375 8.296875 
L 53.609375 0 
L 7.328125 0 
L 7.328125 8.296875 
Q 12.9375 14.109375 22.625 23.890625 
Q 32.328125 33.6875 34.8125 36.53125 
Q 39.546875 41.84375 41.421875 45.53125 
Q 43.3125 49.21875 43.3125 52.78125 
Q 43.3125 58.59375 39.234375 62.25 
Q 35.15625 65.921875 28.609375 65.921875 
Q 23.96875 65.921875 18.8125 64.3125 
Q 13.671875 62.703125 7.8125 59.421875 
L 7.8125 69.390625 
Q 13.765625 71.78125 18.9375 73 
Q 24.125 74.21875 28.421875 74.21875 
Q 39.75 74.21875 46.484375 68.546875 
Q 53.21875 62.890625 53.21875 53.421875 
Q 53.21875 48.921875 51.53125 44.890625 
Q 49.859375 40.875 45.40625 35.40625 
Q 44.1875 33.984375 37.640625 27.21875 
Q 31.109375 20.453125 19.1875 8.296875 
z
" id="DejaVuSans-50"/>
        <path d="M 31.78125 66.40625 
Q 24.171875 66.40625 20.328125 58.90625 
Q 16.5 51.421875 16.5 36.375 
Q 16.5 21.390625 20.328125 13.890625 
Q 24.171875 6.390625 31.78125 6.390625 
Q 39.453125 6.390625 43.28125 13.890625 
Q 47.125 21.390625 47.125 36.375 
Q 47.125 51.421875 43.28125 58.90625 
Q 39.453125 66.40625 31.78125 66.40625 
z
M 31.78125 74.21875 
Q 44.046875 74.21875 50.515625 64.515625 
Q 56.984375 54.828125 56.984375 36.375 
Q 56.984375 17.96875 50.515625 8.265625 
Q 44.046875 -1.421875 31.78125 -1.421875 
Q 19.53125 -1.421875 13.0625 8.265625 
Q 6.59375 17.96875 6.59375 36.375 
Q 6.59375 54.828125 13.0625 64.515625 
Q 19.53125 74.21875 31.78125 74.21875 
z
" id="DejaVuSans-48"/>
       </defs>
       <use xlink:href="#DejaVuSans-70"/>
       <use x="52.019531" xlink:href="#DejaVuSans-101"/>
       <use x="113.542969" xlink:href="#DejaVuSans-98"/>
       <use x="177.019531" xlink:href="#DejaVuSans-32"/>
       <use x="208.806641" xlink:href="#DejaVuSans-50"/>
       <use x="272.429688" xlink:href="#DejaVuSans-48"/>
       <use x="336.052734" xlink:href="#DejaVuSans-50"/>
       <use x="399.675781" xlink:href="#DejaVuSans-48"/>
      </g>
     </g>
    </g>
    <g id="xtick_11">
     <g id="line2d_11">
      <g>
       <use style="stroke:#000000;" x="82.663397" xlink:href="#m3c4be08b88" y="244.317187"/>
      </g>
     </g>
     <g id="text_2">
      <!--  -->
      <g transform="translate(79.823866 274.464844)rotate(-90)scale(0.1 -0.1)"/>
      <!-- Mar 2020 -->
      <g transform="translate(91.021679 298.2125)rotate(-90)scale(0.1 -0.1)">
       <defs>
        <path d="M 9.8125 72.90625 
L 24.515625 72.90625 
L 43.109375 23.296875 
L 61.8125 72.90625 
L 76.515625 72.90625 
L 76.515625 0 
L 66.890625 0 
L 66.890625 64.015625 
L 48.09375 14.015625 
L 38.1875 14.015625 
L 19.390625 64.015625 
L 19.390625 0 
L 9.8125 0 
z
" id="DejaVuSans-77"/>
        <path d="M 34.28125 27.484375 
Q 23.390625 27.484375 19.1875 25 
Q 14.984375 22.515625 14.984375 16.5 
Q 14.984375 11.71875 18.140625 8.90625 
Q 21.296875 6.109375 26.703125 6.109375 
Q 34.1875 6.109375 38.703125 11.40625 
Q 43.21875 16.703125 43.21875 25.484375 
L 43.21875 27.484375 
z
M 52.203125 31.203125 
L 52.203125 0 
L 43.21875 0 
L 43.21875 8.296875 
Q 40.140625 3.328125 35.546875 0.953125 
Q 30.953125 -1.421875 24.3125 -1.421875 
Q 15.921875 -1.421875 10.953125 3.296875 
Q 6 8.015625 6 15.921875 
Q 6 25.140625 12.171875 29.828125 
Q 18.359375 34.515625 30.609375 34.515625 
L 43.21875 34.515625 
L 43.21875 35.40625 
Q 43.21875 41.609375 39.140625 45 
Q 35.0625 48.390625 27.6875 48.390625 
Q 23 48.390625 18.546875 47.265625 
Q 14.109375 46.140625 10.015625 43.890625 
L 10.015625 52.203125 
Q 14.9375 54.109375 19.578125 55.046875 
Q 24.21875 56 28.609375 56 
Q 40.484375 56 46.34375 49.84375 
Q 52.203125 43.703125 52.203125 31.203125 
z
" id="DejaVuSans-97"/>
        <path d="M 41.109375 46.296875 
Q 39.59375 47.171875 37.8125 47.578125 
Q 36.03125 48 33.890625 48 
Q 26.265625 48 22.1875 43.046875 
Q 18.109375 38.09375 18.109375 28.8125 
L 18.109375 0 
L 9.078125 0 
L 9.078125 54.6875 
L 18.109375 54.6875 
L 18.109375 46.1875 
Q 20.953125 51.171875 25.484375 53.578125 
Q 30.03125 56 36.53125 56 
Q 37.453125 56 38.578125 55.875 
Q 39.703125 55.765625 41.0625 55.515625 
z
" id="DejaVuSans-114"/>
       </defs>
       <use xlink:href="#DejaVuSans-77"/>
       <use x="86.279297" xlink:href="#DejaVuSans-97"/>
       <use x="147.558594" xlink:href="#DejaVuSans-114"/>
       <use x="188.671875" xlink:href="#DejaVuSans-32"/>
       <use x="220.458984" xlink:href="#DejaVuSans-50"/>
       <use x="284.082031" xlink:href="#DejaVuSans-48"/>
       <use x="347.705078" xlink:href="#DejaVuSans-50"/>
       <use x="411.328125" xlink:href="#DejaVuSans-48"/>
      </g>
     </g>
    </g>
    <g id="xtick_12">
     <g id="line2d_12">
      <g>
       <use style="stroke:#000000;" x="121.36427" xlink:href="#m3c4be08b88" y="244.317187"/>
      </g>
     </g>
     <g id="text_3">
      <!--  -->
      <g transform="translate(118.524739 273.68125)rotate(-90)scale(0.1 -0.1)"/>
      <!-- Apr 2020 -->
      <g transform="translate(129.722551 296.645312)rotate(-90)scale(0.1 -0.1)">
       <defs>
        <path d="M 34.1875 63.1875 
L 20.796875 26.90625 
L 47.609375 26.90625 
z
M 28.609375 72.90625 
L 39.796875 72.90625 
L 67.578125 0 
L 57.328125 0 
L 50.6875 18.703125 
L 17.828125 18.703125 
L 11.1875 0 
L 0.78125 0 
z
" id="DejaVuSans-65"/>
        <path d="M 18.109375 8.203125 
L 18.109375 -20.796875 
L 9.078125 -20.796875 
L 9.078125 54.6875 
L 18.109375 54.6875 
L 18.109375 46.390625 
Q 20.953125 51.265625 25.265625 53.625 
Q 29.59375 56 35.59375 56 
Q 45.5625 56 51.78125 48.09375 
Q 58.015625 40.1875 58.015625 27.296875 
Q 58.015625 14.40625 51.78125 6.484375 
Q 45.5625 -1.421875 35.59375 -1.421875 
Q 29.59375 -1.421875 25.265625 0.953125 
Q 20.953125 3.328125 18.109375 8.203125 
z
M 48.6875 27.296875 
Q 48.6875 37.203125 44.609375 42.84375 
Q 40.53125 48.484375 33.40625 48.484375 
Q 26.265625 48.484375 22.1875 42.84375 
Q 18.109375 37.203125 18.109375 27.296875 
Q 18.109375 17.390625 22.1875 11.75 
Q 26.265625 6.109375 33.40625 6.109375 
Q 40.53125 6.109375 44.609375 11.75 
Q 48.6875 17.390625 48.6875 27.296875 
z
" id="DejaVuSans-112"/>
       </defs>
       <use xlink:href="#DejaVuSans-65"/>
       <use x="68.408203" xlink:href="#DejaVuSans-112"/>
       <use x="131.884766" xlink:href="#DejaVuSans-114"/>
       <use x="172.998047" xlink:href="#DejaVuSans-32"/>
       <use x="204.785156" xlink:href="#DejaVuSans-50"/>
       <use x="268.408203" xlink:href="#DejaVuSans-48"/>
       <use x="332.03125" xlink:href="#DejaVuSans-50"/>
       <use x="395.654297" xlink:href="#DejaVuSans-48"/>
      </g>
     </g>
    </g>
    <g id="xtick_13">
     <g id="line2d_13">
      <g>
       <use style="stroke:#000000;" x="158.816727" xlink:href="#m3c4be08b88" y="244.317187"/>
      </g>
     </g>
     <g id="text_4">
      <!--  -->
      <g transform="translate(155.977196 275.36875)rotate(-90)scale(0.1 -0.1)"/>
      <!-- May 2020 -->
      <g transform="translate(167.175008 300.020312)rotate(-90)scale(0.1 -0.1)">
       <defs>
        <path d="M 32.171875 -5.078125 
Q 28.375 -14.84375 24.75 -17.8125 
Q 21.140625 -20.796875 15.09375 -20.796875 
L 7.90625 -20.796875 
L 7.90625 -13.28125 
L 13.1875 -13.28125 
Q 16.890625 -13.28125 18.9375 -11.515625 
Q 21 -9.765625 23.484375 -3.21875 
L 25.09375 0.875 
L 2.984375 54.6875 
L 12.5 54.6875 
L 29.59375 11.921875 
L 46.6875 54.6875 
L 56.203125 54.6875 
z
" id="DejaVuSans-121"/>
       </defs>
       <use xlink:href="#DejaVuSans-77"/>
       <use x="86.279297" xlink:href="#DejaVuSans-97"/>
       <use x="147.558594" xlink:href="#DejaVuSans-121"/>
       <use x="206.738281" xlink:href="#DejaVuSans-32"/>
       <use x="238.525391" xlink:href="#DejaVuSans-50"/>
       <use x="302.148438" xlink:href="#DejaVuSans-48"/>
       <use x="365.771484" xlink:href="#DejaVuSans-50"/>
       <use x="429.394531" xlink:href="#DejaVuSans-48"/>
      </g>
     </g>
    </g>
    <g id="xtick_14">
     <g id="line2d_14">
      <g>
       <use style="stroke:#000000;" x="197.5176" xlink:href="#m3c4be08b88" y="244.317187"/>
      </g>
     </g>
     <g id="text_5">
      <!--  -->
      <g transform="translate(194.678068 272.84375)rotate(-90)scale(0.1 -0.1)"/>
      <!-- Jun 2020 -->
      <g transform="translate(205.875881 294.970312)rotate(-90)scale(0.1 -0.1)">
       <defs>
        <path d="M 9.8125 72.90625 
L 19.671875 72.90625 
L 19.671875 5.078125 
Q 19.671875 -8.109375 14.671875 -14.0625 
Q 9.671875 -20.015625 -1.421875 -20.015625 
L -5.171875 -20.015625 
L -5.171875 -11.71875 
L -2.09375 -11.71875 
Q 4.4375 -11.71875 7.125 -8.046875 
Q 9.8125 -4.390625 9.8125 5.078125 
z
" id="DejaVuSans-74"/>
        <path d="M 8.5 21.578125 
L 8.5 54.6875 
L 17.484375 54.6875 
L 17.484375 21.921875 
Q 17.484375 14.15625 20.5 10.265625 
Q 23.53125 6.390625 29.59375 6.390625 
Q 36.859375 6.390625 41.078125 11.03125 
Q 45.3125 15.671875 45.3125 23.6875 
L 45.3125 54.6875 
L 54.296875 54.6875 
L 54.296875 0 
L 45.3125 0 
L 45.3125 8.40625 
Q 42.046875 3.421875 37.71875 1 
Q 33.40625 -1.421875 27.6875 -1.421875 
Q 18.265625 -1.421875 13.375 4.4375 
Q 8.5 10.296875 8.5 21.578125 
z
M 31.109375 56 
z
" id="DejaVuSans-117"/>
        <path d="M 54.890625 33.015625 
L 54.890625 0 
L 45.90625 0 
L 45.90625 32.71875 
Q 45.90625 40.484375 42.875 44.328125 
Q 39.84375 48.1875 33.796875 48.1875 
Q 26.515625 48.1875 22.3125 43.546875 
Q 18.109375 38.921875 18.109375 30.90625 
L 18.109375 0 
L 9.078125 0 
L 9.078125 54.6875 
L 18.109375 54.6875 
L 18.109375 46.1875 
Q 21.34375 51.125 25.703125 53.5625 
Q 30.078125 56 35.796875 56 
Q 45.21875 56 50.046875 50.171875 
Q 54.890625 44.34375 54.890625 33.015625 
z
" id="DejaVuSans-110"/>
       </defs>
       <use xlink:href="#DejaVuSans-74"/>
       <use x="29.492188" xlink:href="#DejaVuSans-117"/>
       <use x="92.871094" xlink:href="#DejaVuSans-110"/>
       <use x="156.25" xlink:href="#DejaVuSans-32"/>
       <use x="188.037109" xlink:href="#DejaVuSans-50"/>
       <use x="251.660156" xlink:href="#DejaVuSans-48"/>
       <use x="315.283203" xlink:href="#DejaVuSans-50"/>
       <use x="378.90625" xlink:href="#DejaVuSans-48"/>
      </g>
     </g>
    </g>
    <g id="xtick_15">
     <g id="line2d_15">
      <g>
       <use style="stroke:#000000;" x="234.970057" xlink:href="#m3c4be08b88" y="244.317187"/>
      </g>
     </g>
     <g id="text_6">
      <!--  -->
      <g transform="translate(232.130526 271.064062)rotate(-90)scale(0.1 -0.1)"/>
      <!-- Jul 2020 -->
      <g transform="translate(243.328338 291.410937)rotate(-90)scale(0.1 -0.1)">
       <defs>
        <path d="M 9.421875 75.984375 
L 18.40625 75.984375 
L 18.40625 0 
L 9.421875 0 
z
" id="DejaVuSans-108"/>
       </defs>
       <use xlink:href="#DejaVuSans-74"/>
       <use x="29.492188" xlink:href="#DejaVuSans-117"/>
       <use x="92.871094" xlink:href="#DejaVuSans-108"/>
       <use x="120.654297" xlink:href="#DejaVuSans-32"/>
       <use x="152.441406" xlink:href="#DejaVuSans-50"/>
       <use x="216.064453" xlink:href="#DejaVuSans-48"/>
       <use x="279.6875" xlink:href="#DejaVuSans-50"/>
       <use x="343.310547" xlink:href="#DejaVuSans-48"/>
      </g>
     </g>
    </g>
    <g id="xtick_16">
     <g id="line2d_16">
      <g>
       <use style="stroke:#000000;" x="273.67093" xlink:href="#m3c4be08b88" y="244.317187"/>
      </g>
     </g>
     <g id="text_7">
      <!--  -->
      <g transform="translate(270.831398 274.794531)rotate(-90)scale(0.1 -0.1)"/>
      <!-- Aug 2020 -->
      <g transform="translate(282.029211 298.871875)rotate(-90)scale(0.1 -0.1)">
       <defs>
        <path d="M 45.40625 27.984375 
Q 45.40625 37.75 41.375 43.109375 
Q 37.359375 48.484375 30.078125 48.484375 
Q 22.859375 48.484375 18.828125 43.109375 
Q 14.796875 37.75 14.796875 27.984375 
Q 14.796875 18.265625 18.828125 12.890625 
Q 22.859375 7.515625 30.078125 7.515625 
Q 37.359375 7.515625 41.375 12.890625 
Q 45.40625 18.265625 45.40625 27.984375 
z
M 54.390625 6.78125 
Q 54.390625 -7.171875 48.1875 -13.984375 
Q 42 -20.796875 29.203125 -20.796875 
Q 24.46875 -20.796875 20.265625 -20.09375 
Q 16.0625 -19.390625 12.109375 -17.921875 
L 12.109375 -9.1875 
Q 16.0625 -11.328125 19.921875 -12.34375 
Q 23.78125 -13.375 27.78125 -13.375 
Q 36.625 -13.375 41.015625 -8.765625 
Q 45.40625 -4.15625 45.40625 5.171875 
L 45.40625 9.625 
Q 42.625 4.78125 38.28125 2.390625 
Q 33.9375 0 27.875 0 
Q 17.828125 0 11.671875 7.65625 
Q 5.515625 15.328125 5.515625 27.984375 
Q 5.515625 40.671875 11.671875 48.328125 
Q 17.828125 56 27.875 56 
Q 33.9375 56 38.28125 53.609375 
Q 42.625 51.21875 45.40625 46.390625 
L 45.40625 54.6875 
L 54.390625 54.6875 
z
" id="DejaVuSans-103"/>
       </defs>
       <use xlink:href="#DejaVuSans-65"/>
       <use x="68.408203" xlink:href="#DejaVuSans-117"/>
       <use x="131.787109" xlink:href="#DejaVuSans-103"/>
       <use x="195.263672" xlink:href="#DejaVuSans-32"/>
       <use x="227.050781" xlink:href="#DejaVuSans-50"/>
       <use x="290.673828" xlink:href="#DejaVuSans-48"/>
       <use x="354.296875" xlink:href="#DejaVuSans-50"/>
       <use x="417.919922" xlink:href="#DejaVuSans-48"/>
      </g>
     </g>
    </g>
    <g id="xtick_17">
     <g id="line2d_17">
      <g>
       <use style="stroke:#000000;" x="312.371802" xlink:href="#m3c4be08b88" y="244.317187"/>
      </g>
     </g>
     <g id="text_8">
      <!--  -->
      <g transform="translate(309.532271 274.45625)rotate(-90)scale(0.1 -0.1)"/>
      <!-- Sep 2020 -->
      <g transform="translate(320.730083 298.195312)rotate(-90)scale(0.1 -0.1)">
       <defs>
        <path d="M 53.515625 70.515625 
L 53.515625 60.890625 
Q 47.90625 63.578125 42.921875 64.890625 
Q 37.9375 66.21875 33.296875 66.21875 
Q 25.25 66.21875 20.875 63.09375 
Q 16.5 59.96875 16.5 54.203125 
Q 16.5 49.359375 19.40625 46.890625 
Q 22.3125 44.4375 30.421875 42.921875 
L 36.375 41.703125 
Q 47.40625 39.59375 52.65625 34.296875 
Q 57.90625 29 57.90625 20.125 
Q 57.90625 9.515625 50.796875 4.046875 
Q 43.703125 -1.421875 29.984375 -1.421875 
Q 24.8125 -1.421875 18.96875 -0.25 
Q 13.140625 0.921875 6.890625 3.21875 
L 6.890625 13.375 
Q 12.890625 10.015625 18.65625 8.296875 
Q 24.421875 6.59375 29.984375 6.59375 
Q 38.421875 6.59375 43.015625 9.90625 
Q 47.609375 13.234375 47.609375 19.390625 
Q 47.609375 24.75 44.3125 27.78125 
Q 41.015625 30.8125 33.5 32.328125 
L 27.484375 33.5 
Q 16.453125 35.6875 11.515625 40.375 
Q 6.59375 45.0625 6.59375 53.421875 
Q 6.59375 63.09375 13.40625 68.65625 
Q 20.21875 74.21875 32.171875 74.21875 
Q 37.3125 74.21875 42.625 73.28125 
Q 47.953125 72.359375 53.515625 70.515625 
z
" id="DejaVuSans-83"/>
       </defs>
       <use xlink:href="#DejaVuSans-83"/>
       <use x="63.476562" xlink:href="#DejaVuSans-101"/>
       <use x="125" xlink:href="#DejaVuSans-112"/>
       <use x="188.476562" xlink:href="#DejaVuSans-32"/>
       <use x="220.263672" xlink:href="#DejaVuSans-50"/>
       <use x="283.886719" xlink:href="#DejaVuSans-48"/>
       <use x="347.509766" xlink:href="#DejaVuSans-50"/>
       <use x="411.132812" xlink:href="#DejaVuSans-48"/>
      </g>
     </g>
    </g>
    <g id="xtick_18">
     <g id="line2d_18">
      <g>
       <use style="stroke:#000000;" x="349.824259" xlink:href="#m3c4be08b88" y="244.317187"/>
      </g>
     </g>
     <g id="text_9">
      <!--  -->
      <g transform="translate(346.984728 273.676562)rotate(-90)scale(0.1 -0.1)"/>
      <!-- Oct 2020 -->
      <g transform="translate(358.182541 296.635938)rotate(-90)scale(0.1 -0.1)">
       <defs>
        <path d="M 39.40625 66.21875 
Q 28.65625 66.21875 22.328125 58.203125 
Q 16.015625 50.203125 16.015625 36.375 
Q 16.015625 22.609375 22.328125 14.59375 
Q 28.65625 6.59375 39.40625 6.59375 
Q 50.140625 6.59375 56.421875 14.59375 
Q 62.703125 22.609375 62.703125 36.375 
Q 62.703125 50.203125 56.421875 58.203125 
Q 50.140625 66.21875 39.40625 66.21875 
z
M 39.40625 74.21875 
Q 54.734375 74.21875 63.90625 63.9375 
Q 73.09375 53.65625 73.09375 36.375 
Q 73.09375 19.140625 63.90625 8.859375 
Q 54.734375 -1.421875 39.40625 -1.421875 
Q 24.03125 -1.421875 14.8125 8.828125 
Q 5.609375 19.09375 5.609375 36.375 
Q 5.609375 53.65625 14.8125 63.9375 
Q 24.03125 74.21875 39.40625 74.21875 
z
" id="DejaVuSans-79"/>
        <path d="M 48.78125 52.59375 
L 48.78125 44.1875 
Q 44.96875 46.296875 41.140625 47.34375 
Q 37.3125 48.390625 33.40625 48.390625 
Q 24.65625 48.390625 19.8125 42.84375 
Q 14.984375 37.3125 14.984375 27.296875 
Q 14.984375 17.28125 19.8125 11.734375 
Q 24.65625 6.203125 33.40625 6.203125 
Q 37.3125 6.203125 41.140625 7.25 
Q 44.96875 8.296875 48.78125 10.40625 
L 48.78125 2.09375 
Q 45.015625 0.34375 40.984375 -0.53125 
Q 36.96875 -1.421875 32.421875 -1.421875 
Q 20.0625 -1.421875 12.78125 6.34375 
Q 5.515625 14.109375 5.515625 27.296875 
Q 5.515625 40.671875 12.859375 48.328125 
Q 20.21875 56 33.015625 56 
Q 37.15625 56 41.109375 55.140625 
Q 45.0625 54.296875 48.78125 52.59375 
z
" id="DejaVuSans-99"/>
        <path d="M 18.3125 70.21875 
L 18.3125 54.6875 
L 36.8125 54.6875 
L 36.8125 47.703125 
L 18.3125 47.703125 
L 18.3125 18.015625 
Q 18.3125 11.328125 20.140625 9.421875 
Q 21.96875 7.515625 27.59375 7.515625 
L 36.8125 7.515625 
L 36.8125 0 
L 27.59375 0 
Q 17.1875 0 13.234375 3.875 
Q 9.28125 7.765625 9.28125 18.015625 
L 9.28125 47.703125 
L 2.6875 47.703125 
L 2.6875 54.6875 
L 9.28125 54.6875 
L 9.28125 70.21875 
z
" id="DejaVuSans-116"/>
       </defs>
       <use xlink:href="#DejaVuSans-79"/>
       <use x="78.710938" xlink:href="#DejaVuSans-99"/>
       <use x="133.691406" xlink:href="#DejaVuSans-116"/>
       <use x="172.900391" xlink:href="#DejaVuSans-32"/>
       <use x="204.6875" xlink:href="#DejaVuSans-50"/>
       <use x="268.310547" xlink:href="#DejaVuSans-48"/>
       <use x="331.933594" xlink:href="#DejaVuSans-50"/>
       <use x="395.556641" xlink:href="#DejaVuSans-48"/>
      </g>
     </g>
    </g>
    <g id="text_10">
     <!--  -->
     <g transform="translate(211.874375 314.658125)scale(0.14 -0.14)"/>
     <!-- Date -->
     <g transform="translate(195.143281 330.335062)scale(0.14 -0.14)">
      <defs>
       <path d="M 19.671875 64.796875 
L 19.671875 8.109375 
L 31.59375 8.109375 
Q 46.6875 8.109375 53.6875 14.9375 
Q 60.6875 21.78125 60.6875 36.53125 
Q 60.6875 51.171875 53.6875 57.984375 
Q 46.6875 64.796875 31.59375 64.796875 
z
M 9.8125 72.90625 
L 30.078125 72.90625 
Q 51.265625 72.90625 61.171875 64.09375 
Q 71.09375 55.28125 71.09375 36.53125 
Q 71.09375 17.671875 61.125 8.828125 
Q 51.171875 0 30.078125 0 
L 9.8125 0 
z
" id="DejaVuSans-68"/>
      </defs>
      <use xlink:href="#DejaVuSans-68"/>
      <use x="77.001953" xlink:href="#DejaVuSans-97"/>
      <use x="138.28125" xlink:href="#DejaVuSans-116"/>
      <use x="177.490234" xlink:href="#DejaVuSans-101"/>
     </g>
    </g>
   </g>
   <g id="matplotlib.axis_2">
    <g id="ytick_1">
     <g id="line2d_19">
      <defs>
       <path d="M 0 0 
L -3.5 0 
" id="m38da431d38" style="stroke:#000000;stroke-width:0.8;"/>
      </defs>
      <g>
       <use style="stroke:#000000;stroke-width:0.8;" x="44.474375" xlink:href="#m38da431d38" y="244.317187"/>
      </g>
     </g>
     <g id="text_11">
      <!-- 0 -->
      <g transform="translate(31.111875 248.116406)scale(0.1 -0.1)">
       <use xlink:href="#DejaVuSans-48"/>
      </g>
     </g>
    </g>
    <g id="ytick_2">
     <g id="line2d_20">
      <g>
       <use style="stroke:#000000;stroke-width:0.8;" x="44.474375" xlink:href="#m38da431d38" y="218.431473"/>
      </g>
     </g>
     <g id="text_12">
      <!-- 10 -->
      <g transform="translate(24.749375 222.230692)scale(0.1 -0.1)">
       <defs>
        <path d="M 12.40625 8.296875 
L 28.515625 8.296875 
L 28.515625 63.921875 
L 10.984375 60.40625 
L 10.984375 69.390625 
L 28.421875 72.90625 
L 38.28125 72.90625 
L 38.28125 8.296875 
L 54.390625 8.296875 
L 54.390625 0 
L 12.40625 0 
z
" id="DejaVuSans-49"/>
       </defs>
       <use xlink:href="#DejaVuSans-49"/>
       <use x="63.623047" xlink:href="#DejaVuSans-48"/>
      </g>
     </g>
    </g>
    <g id="ytick_3">
     <g id="line2d_21">
      <g>
       <use style="stroke:#000000;stroke-width:0.8;" x="44.474375" xlink:href="#m38da431d38" y="192.545759"/>
      </g>
     </g>
     <g id="text_13">
      <!-- 20 -->
      <g transform="translate(24.749375 196.344978)scale(0.1 -0.1)">
       <use xlink:href="#DejaVuSans-50"/>
       <use x="63.623047" xlink:href="#DejaVuSans-48"/>
      </g>
     </g>
    </g>
    <g id="ytick_4">
     <g id="line2d_22">
      <g>
       <use style="stroke:#000000;stroke-width:0.8;" x="44.474375" xlink:href="#m38da431d38" y="166.660045"/>
      </g>
     </g>
     <g id="text_14">
      <!-- 30 -->
      <g transform="translate(24.749375 170.459263)scale(0.1 -0.1)">
       <defs>
        <path d="M 40.578125 39.3125 
Q 47.65625 37.796875 51.625 33 
Q 55.609375 28.21875 55.609375 21.1875 
Q 55.609375 10.40625 48.1875 4.484375 
Q 40.765625 -1.421875 27.09375 -1.421875 
Q 22.515625 -1.421875 17.65625 -0.515625 
Q 12.796875 0.390625 7.625 2.203125 
L 7.625 11.71875 
Q 11.71875 9.328125 16.59375 8.109375 
Q 21.484375 6.890625 26.8125 6.890625 
Q 36.078125 6.890625 40.9375 10.546875 
Q 45.796875 14.203125 45.796875 21.1875 
Q 45.796875 27.640625 41.28125 31.265625 
Q 36.765625 34.90625 28.71875 34.90625 
L 20.21875 34.90625 
L 20.21875 43.015625 
L 29.109375 43.015625 
Q 36.375 43.015625 40.234375 45.921875 
Q 44.09375 48.828125 44.09375 54.296875 
Q 44.09375 59.90625 40.109375 62.90625 
Q 36.140625 65.921875 28.71875 65.921875 
Q 24.65625 65.921875 20.015625 65.03125 
Q 15.375 64.15625 9.8125 62.3125 
L 9.8125 71.09375 
Q 15.4375 72.65625 20.34375 73.4375 
Q 25.25 74.21875 29.59375 74.21875 
Q 40.828125 74.21875 47.359375 69.109375 
Q 53.90625 64.015625 53.90625 55.328125 
Q 53.90625 49.265625 50.4375 45.09375 
Q 46.96875 40.921875 40.578125 39.3125 
z
" id="DejaVuSans-51"/>
       </defs>
       <use xlink:href="#DejaVuSans-51"/>
       <use x="63.623047" xlink:href="#DejaVuSans-48"/>
      </g>
     </g>
    </g>
    <g id="ytick_5">
     <g id="line2d_23">
      <g>
       <use style="stroke:#000000;stroke-width:0.8;" x="44.474375" xlink:href="#m38da431d38" y="140.77433"/>
      </g>
     </g>
     <g id="text_15">
      <!-- 40 -->
      <g transform="translate(24.749375 144.573549)scale(0.1 -0.1)">
       <defs>
        <path d="M 37.796875 64.3125 
L 12.890625 25.390625 
L 37.796875 25.390625 
z
M 35.203125 72.90625 
L 47.609375 72.90625 
L 47.609375 25.390625 
L 58.015625 25.390625 
L 58.015625 17.1875 
L 47.609375 17.1875 
L 47.609375 0 
L 37.796875 0 
L 37.796875 17.1875 
L 4.890625 17.1875 
L 4.890625 26.703125 
z
" id="DejaVuSans-52"/>
       </defs>
       <use xlink:href="#DejaVuSans-52"/>
       <use x="63.623047" xlink:href="#DejaVuSans-48"/>
      </g>
     </g>
    </g>
    <g id="ytick_6">
     <g id="line2d_24">
      <g>
       <use style="stroke:#000000;stroke-width:0.8;" x="44.474375" xlink:href="#m38da431d38" y="114.888616"/>
      </g>
     </g>
     <g id="text_16">
      <!-- 50 -->
      <g transform="translate(24.749375 118.687835)scale(0.1 -0.1)">
       <defs>
        <path d="M 10.796875 72.90625 
L 49.515625 72.90625 
L 49.515625 64.59375 
L 19.828125 64.59375 
L 19.828125 46.734375 
Q 21.96875 47.46875 24.109375 47.828125 
Q 26.265625 48.1875 28.421875 48.1875 
Q 40.625 48.1875 47.75 41.5 
Q 54.890625 34.8125 54.890625 23.390625 
Q 54.890625 11.625 47.5625 5.09375 
Q 40.234375 -1.421875 26.90625 -1.421875 
Q 22.3125 -1.421875 17.546875 -0.640625 
Q 12.796875 0.140625 7.71875 1.703125 
L 7.71875 11.625 
Q 12.109375 9.234375 16.796875 8.0625 
Q 21.484375 6.890625 26.703125 6.890625 
Q 35.15625 6.890625 40.078125 11.328125 
Q 45.015625 15.765625 45.015625 23.390625 
Q 45.015625 31 40.078125 35.4375 
Q 35.15625 39.890625 26.703125 39.890625 
Q 22.75 39.890625 18.8125 39.015625 
Q 14.890625 38.140625 10.796875 36.28125 
z
" id="DejaVuSans-53"/>
       </defs>
       <use xlink:href="#DejaVuSans-53"/>
       <use x="63.623047" xlink:href="#DejaVuSans-48"/>
      </g>
     </g>
    </g>
    <g id="ytick_7">
     <g id="line2d_25">
      <g>
       <use style="stroke:#000000;stroke-width:0.8;" x="44.474375" xlink:href="#m38da431d38" y="89.002902"/>
      </g>
     </g>
     <g id="text_17">
      <!-- 60 -->
      <g transform="translate(24.749375 92.802121)scale(0.1 -0.1)">
       <defs>
        <path d="M 33.015625 40.375 
Q 26.375 40.375 22.484375 35.828125 
Q 18.609375 31.296875 18.609375 23.390625 
Q 18.609375 15.53125 22.484375 10.953125 
Q 26.375 6.390625 33.015625 6.390625 
Q 39.65625 6.390625 43.53125 10.953125 
Q 47.40625 15.53125 47.40625 23.390625 
Q 47.40625 31.296875 43.53125 35.828125 
Q 39.65625 40.375 33.015625 40.375 
z
M 52.59375 71.296875 
L 52.59375 62.3125 
Q 48.875 64.0625 45.09375 64.984375 
Q 41.3125 65.921875 37.59375 65.921875 
Q 27.828125 65.921875 22.671875 59.328125 
Q 17.53125 52.734375 16.796875 39.40625 
Q 19.671875 43.65625 24.015625 45.921875 
Q 28.375 48.1875 33.59375 48.1875 
Q 44.578125 48.1875 50.953125 41.515625 
Q 57.328125 34.859375 57.328125 23.390625 
Q 57.328125 12.15625 50.6875 5.359375 
Q 44.046875 -1.421875 33.015625 -1.421875 
Q 20.359375 -1.421875 13.671875 8.265625 
Q 6.984375 17.96875 6.984375 36.375 
Q 6.984375 53.65625 15.1875 63.9375 
Q 23.390625 74.21875 37.203125 74.21875 
Q 40.921875 74.21875 44.703125 73.484375 
Q 48.484375 72.75 52.59375 71.296875 
z
" id="DejaVuSans-54"/>
       </defs>
       <use xlink:href="#DejaVuSans-54"/>
       <use x="63.623047" xlink:href="#DejaVuSans-48"/>
      </g>
     </g>
    </g>
    <g id="ytick_8">
     <g id="line2d_26">
      <g>
       <use style="stroke:#000000;stroke-width:0.8;" x="44.474375" xlink:href="#m38da431d38" y="63.117188"/>
      </g>
     </g>
     <g id="text_18">
      <!-- 70 -->
      <g transform="translate(24.749375 66.916406)scale(0.1 -0.1)">
       <defs>
        <path d="M 8.203125 72.90625 
L 55.078125 72.90625 
L 55.078125 68.703125 
L 28.609375 0 
L 18.3125 0 
L 43.21875 64.59375 
L 8.203125 64.59375 
z
" id="DejaVuSans-55"/>
       </defs>
       <use xlink:href="#DejaVuSans-55"/>
       <use x="63.623047" xlink:href="#DejaVuSans-48"/>
      </g>
     </g>
    </g>
    <g id="ytick_9">
     <g id="line2d_27">
      <g>
       <use style="stroke:#000000;stroke-width:0.8;" x="44.474375" xlink:href="#m38da431d38" y="37.231473"/>
      </g>
     </g>
     <g id="text_19">
      <!-- 80 -->
      <g transform="translate(24.749375 41.030692)scale(0.1 -0.1)">
       <defs>
        <path d="M 31.78125 34.625 
Q 24.75 34.625 20.71875 30.859375 
Q 16.703125 27.09375 16.703125 20.515625 
Q 16.703125 13.921875 20.71875 10.15625 
Q 24.75 6.390625 31.78125 6.390625 
Q 38.8125 6.390625 42.859375 10.171875 
Q 46.921875 13.96875 46.921875 20.515625 
Q 46.921875 27.09375 42.890625 30.859375 
Q 38.875 34.625 31.78125 34.625 
z
M 21.921875 38.8125 
Q 15.578125 40.375 12.03125 44.71875 
Q 8.5 49.078125 8.5 55.328125 
Q 8.5 64.0625 14.71875 69.140625 
Q 20.953125 74.21875 31.78125 74.21875 
Q 42.671875 74.21875 48.875 69.140625 
Q 55.078125 64.0625 55.078125 55.328125 
Q 55.078125 49.078125 51.53125 44.71875 
Q 48 40.375 41.703125 38.8125 
Q 48.828125 37.15625 52.796875 32.3125 
Q 56.78125 27.484375 56.78125 20.515625 
Q 56.78125 9.90625 50.3125 4.234375 
Q 43.84375 -1.421875 31.78125 -1.421875 
Q 19.734375 -1.421875 13.25 4.234375 
Q 6.78125 9.90625 6.78125 20.515625 
Q 6.78125 27.484375 10.78125 32.3125 
Q 14.796875 37.15625 21.921875 38.8125 
z
M 18.3125 54.390625 
Q 18.3125 48.734375 21.84375 45.5625 
Q 25.390625 42.390625 31.78125 42.390625 
Q 38.140625 42.390625 41.71875 45.5625 
Q 45.3125 48.734375 45.3125 54.390625 
Q 45.3125 60.0625 41.71875 63.234375 
Q 38.140625 66.40625 31.78125 66.40625 
Q 25.390625 66.40625 21.84375 63.234375 
Q 18.3125 60.0625 18.3125 54.390625 
z
" id="DejaVuSans-56"/>
       </defs>
       <use xlink:href="#DejaVuSans-56"/>
       <use x="63.623047" xlink:href="#DejaVuSans-48"/>
      </g>
     </g>
    </g>
    <g id="text_20">
     <!-- # COVID-19 Cases -->
     <g transform="translate(17.837813 200.6425)rotate(-90)scale(0.14 -0.14)">
      <defs>
       <path d="M 51.125 44 
L 36.921875 44 
L 32.8125 27.6875 
L 47.125 27.6875 
z
M 43.796875 71.78125 
L 38.71875 51.515625 
L 52.984375 51.515625 
L 58.109375 71.78125 
L 65.921875 71.78125 
L 60.890625 51.515625 
L 76.125 51.515625 
L 76.125 44 
L 58.984375 44 
L 54.984375 27.6875 
L 70.515625 27.6875 
L 70.515625 20.21875 
L 53.078125 20.21875 
L 48 0 
L 40.1875 0 
L 45.21875 20.21875 
L 30.90625 20.21875 
L 25.875 0 
L 18.015625 0 
L 23.09375 20.21875 
L 7.71875 20.21875 
L 7.71875 27.6875 
L 24.90625 27.6875 
L 29 44 
L 13.28125 44 
L 13.28125 51.515625 
L 30.90625 51.515625 
L 35.890625 71.78125 
z
" id="DejaVuSans-35"/>
       <path d="M 64.40625 67.28125 
L 64.40625 56.890625 
Q 59.421875 61.53125 53.78125 63.8125 
Q 48.140625 66.109375 41.796875 66.109375 
Q 29.296875 66.109375 22.65625 58.46875 
Q 16.015625 50.828125 16.015625 36.375 
Q 16.015625 21.96875 22.65625 14.328125 
Q 29.296875 6.6875 41.796875 6.6875 
Q 48.140625 6.6875 53.78125 8.984375 
Q 59.421875 11.28125 64.40625 15.921875 
L 64.40625 5.609375 
Q 59.234375 2.09375 53.4375 0.328125 
Q 47.65625 -1.421875 41.21875 -1.421875 
Q 24.65625 -1.421875 15.125 8.703125 
Q 5.609375 18.84375 5.609375 36.375 
Q 5.609375 53.953125 15.125 64.078125 
Q 24.65625 74.21875 41.21875 74.21875 
Q 47.75 74.21875 53.53125 72.484375 
Q 59.328125 70.75 64.40625 67.28125 
z
" id="DejaVuSans-67"/>
       <path d="M 28.609375 0 
L 0.78125 72.90625 
L 11.078125 72.90625 
L 34.1875 11.53125 
L 57.328125 72.90625 
L 67.578125 72.90625 
L 39.796875 0 
z
" id="DejaVuSans-86"/>
       <path d="M 9.8125 72.90625 
L 19.671875 72.90625 
L 19.671875 0 
L 9.8125 0 
z
" id="DejaVuSans-73"/>
       <path d="M 4.890625 31.390625 
L 31.203125 31.390625 
L 31.203125 23.390625 
L 4.890625 23.390625 
z
" id="DejaVuSans-45"/>
       <path d="M 10.984375 1.515625 
L 10.984375 10.5 
Q 14.703125 8.734375 18.5 7.8125 
Q 22.3125 6.890625 25.984375 6.890625 
Q 35.75 6.890625 40.890625 13.453125 
Q 46.046875 20.015625 46.78125 33.40625 
Q 43.953125 29.203125 39.59375 26.953125 
Q 35.25 24.703125 29.984375 24.703125 
Q 19.046875 24.703125 12.671875 31.3125 
Q 6.296875 37.9375 6.296875 49.421875 
Q 6.296875 60.640625 12.9375 67.421875 
Q 19.578125 74.21875 30.609375 74.21875 
Q 43.265625 74.21875 49.921875 64.515625 
Q 56.59375 54.828125 56.59375 36.375 
Q 56.59375 19.140625 48.40625 8.859375 
Q 40.234375 -1.421875 26.421875 -1.421875 
Q 22.703125 -1.421875 18.890625 -0.6875 
Q 15.09375 0.046875 10.984375 1.515625 
z
M 30.609375 32.421875 
Q 37.25 32.421875 41.125 36.953125 
Q 45.015625 41.5 45.015625 49.421875 
Q 45.015625 57.28125 41.125 61.84375 
Q 37.25 66.40625 30.609375 66.40625 
Q 23.96875 66.40625 20.09375 61.84375 
Q 16.21875 57.28125 16.21875 49.421875 
Q 16.21875 41.5 20.09375 36.953125 
Q 23.96875 32.421875 30.609375 32.421875 
z
" id="DejaVuSans-57"/>
       <path d="M 44.28125 53.078125 
L 44.28125 44.578125 
Q 40.484375 46.53125 36.375 47.5 
Q 32.28125 48.484375 27.875 48.484375 
Q 21.1875 48.484375 17.84375 46.4375 
Q 14.5 44.390625 14.5 40.28125 
Q 14.5 37.15625 16.890625 35.375 
Q 19.28125 33.59375 26.515625 31.984375 
L 29.59375 31.296875 
Q 39.15625 29.25 43.1875 25.515625 
Q 47.21875 21.78125 47.21875 15.09375 
Q 47.21875 7.46875 41.1875 3.015625 
Q 35.15625 -1.421875 24.609375 -1.421875 
Q 20.21875 -1.421875 15.453125 -0.5625 
Q 10.6875 0.296875 5.421875 2 
L 5.421875 11.28125 
Q 10.40625 8.6875 15.234375 7.390625 
Q 20.0625 6.109375 24.8125 6.109375 
Q 31.15625 6.109375 34.5625 8.28125 
Q 37.984375 10.453125 37.984375 14.40625 
Q 37.984375 18.0625 35.515625 20.015625 
Q 33.0625 21.96875 24.703125 23.78125 
L 21.578125 24.515625 
Q 13.234375 26.265625 9.515625 29.90625 
Q 5.8125 33.546875 5.8125 39.890625 
Q 5.8125 47.609375 11.28125 51.796875 
Q 16.75 56 26.8125 56 
Q 31.78125 56 36.171875 55.265625 
Q 40.578125 54.546875 44.28125 53.078125 
z
" id="DejaVuSans-115"/>
      </defs>
      <use xlink:href="#DejaVuSans-35"/>
      <use x="83.789062" xlink:href="#DejaVuSans-32"/>
      <use x="115.576172" xlink:href="#DejaVuSans-67"/>
      <use x="185.400391" xlink:href="#DejaVuSans-79"/>
      <use x="262.361328" xlink:href="#DejaVuSans-86"/>
      <use x="330.769531" xlink:href="#DejaVuSans-73"/>
      <use x="360.261719" xlink:href="#DejaVuSans-68"/>
      <use x="437.263672" xlink:href="#DejaVuSans-45"/>
      <use x="473.347656" xlink:href="#DejaVuSans-49"/>
      <use x="536.970703" xlink:href="#DejaVuSans-57"/>
      <use x="600.59375" xlink:href="#DejaVuSans-32"/>
      <use x="632.380859" xlink:href="#DejaVuSans-67"/>
      <use x="702.205078" xlink:href="#DejaVuSans-97"/>
      <use x="763.484375" xlink:href="#DejaVuSans-115"/>
      <use x="815.583984" xlink:href="#DejaVuSans-101"/>
      <use x="877.107422" xlink:href="#DejaVuSans-115"/>
     </g>
    </g>
   </g>
   <g id="patch_247">
    <path d="M 44.474375 244.317187 
L 44.474375 26.877187 
" style="fill:none;stroke:#000000;stroke-linecap:square;stroke-linejoin:miter;stroke-width:0.8;"/>
   </g>
   <g id="patch_248">
    <path d="M 379.274375 244.317187 
L 379.274375 26.877187 
" style="fill:none;stroke:#000000;stroke-linecap:square;stroke-linejoin:miter;stroke-width:0.8;"/>
   </g>
   <g id="patch_249">
    <path d="M 44.474375 244.317187 
L 379.274375 244.317187 
" style="fill:none;stroke:#000000;stroke-linecap:square;stroke-linejoin:miter;stroke-width:0.8;"/>
   </g>
   <g id="patch_250">
    <path d="M 44.474375 26.877187 
L 379.274375 26.877187 
" style="fill:none;stroke:#000000;stroke-linecap:square;stroke-linejoin:miter;stroke-width:0.8;"/>
   </g>
   <g id="text_21">
    <!-- New Zealand COVID-19 Daily Cases -->
    <g transform="translate(51.010625 20.877187)scale(0.18 -0.18)">
     <defs>
      <path d="M 9.8125 72.90625 
L 23.09375 72.90625 
L 55.421875 11.921875 
L 55.421875 72.90625 
L 64.984375 72.90625 
L 64.984375 0 
L 51.703125 0 
L 19.390625 60.984375 
L 19.390625 0 
L 9.8125 0 
z
" id="DejaVuSans-78"/>
      <path d="M 4.203125 54.6875 
L 13.1875 54.6875 
L 24.421875 12.015625 
L 35.59375 54.6875 
L 46.1875 54.6875 
L 57.421875 12.015625 
L 68.609375 54.6875 
L 77.59375 54.6875 
L 63.28125 0 
L 52.6875 0 
L 40.921875 44.828125 
L 29.109375 0 
L 18.5 0 
z
" id="DejaVuSans-119"/>
      <path d="M 5.609375 72.90625 
L 62.890625 72.90625 
L 62.890625 65.375 
L 16.796875 8.296875 
L 64.015625 8.296875 
L 64.015625 0 
L 4.5 0 
L 4.5 7.515625 
L 50.59375 64.59375 
L 5.609375 64.59375 
z
" id="DejaVuSans-90"/>
      <path d="M 45.40625 46.390625 
L 45.40625 75.984375 
L 54.390625 75.984375 
L 54.390625 0 
L 45.40625 0 
L 45.40625 8.203125 
Q 42.578125 3.328125 38.25 0.953125 
Q 33.9375 -1.421875 27.875 -1.421875 
Q 17.96875 -1.421875 11.734375 6.484375 
Q 5.515625 14.40625 5.515625 27.296875 
Q 5.515625 40.1875 11.734375 48.09375 
Q 17.96875 56 27.875 56 
Q 33.9375 56 38.25 53.625 
Q 42.578125 51.265625 45.40625 46.390625 
z
M 14.796875 27.296875 
Q 14.796875 17.390625 18.875 11.75 
Q 22.953125 6.109375 30.078125 6.109375 
Q 37.203125 6.109375 41.296875 11.75 
Q 45.40625 17.390625 45.40625 27.296875 
Q 45.40625 37.203125 41.296875 42.84375 
Q 37.203125 48.484375 30.078125 48.484375 
Q 22.953125 48.484375 18.875 42.84375 
Q 14.796875 37.203125 14.796875 27.296875 
z
" id="DejaVuSans-100"/>
      <path d="M 9.421875 54.6875 
L 18.40625 54.6875 
L 18.40625 0 
L 9.421875 0 
z
M 9.421875 75.984375 
L 18.40625 75.984375 
L 18.40625 64.59375 
L 9.421875 64.59375 
z
" id="DejaVuSans-105"/>
     </defs>
     <use xlink:href="#DejaVuSans-78"/>
     <use x="74.804688" xlink:href="#DejaVuSans-101"/>
     <use x="136.328125" xlink:href="#DejaVuSans-119"/>
     <use x="218.115234" xlink:href="#DejaVuSans-32"/>
     <use x="249.902344" xlink:href="#DejaVuSans-90"/>
     <use x="318.408203" xlink:href="#DejaVuSans-101"/>
     <use x="379.931641" xlink:href="#DejaVuSans-97"/>
     <use x="441.210938" xlink:href="#DejaVuSans-108"/>
     <use x="468.994141" xlink:href="#DejaVuSans-97"/>
     <use x="530.273438" xlink:href="#DejaVuSans-110"/>
     <use x="593.652344" xlink:href="#DejaVuSans-100"/>
     <use x="657.128906" xlink:href="#DejaVuSans-32"/>
     <use x="688.916016" xlink:href="#DejaVuSans-67"/>
     <use x="758.740234" xlink:href="#DejaVuSans-79"/>
     <use x="835.701172" xlink:href="#DejaVuSans-86"/>
     <use x="904.109375" xlink:href="#DejaVuSans-73"/>
     <use x="933.601562" xlink:href="#DejaVuSans-68"/>
     <use x="1010.603516" xlink:href="#DejaVuSans-45"/>
     <use x="1046.6875" xlink:href="#DejaVuSans-49"/>
     <use x="1110.310547" xlink:href="#DejaVuSans-57"/>
     <use x="1173.933594" xlink:href="#DejaVuSans-32"/>
     <use x="1205.720703" xlink:href="#DejaVuSans-68"/>
     <use x="1282.722656" xlink:href="#DejaVuSans-97"/>
     <use x="1344.001953" xlink:href="#DejaVuSans-105"/>
     <use x="1371.785156" xlink:href="#DejaVuSans-108"/>
     <use x="1399.568359" xlink:href="#DejaVuSans-121"/>
     <use x="1458.748047" xlink:href="#DejaVuSans-32"/>
     <use x="1490.535156" xlink:href="#DejaVuSans-67"/>
     <use x="1560.359375" xlink:href="#DejaVuSans-97"/>
     <use x="1621.638672" xlink:href="#DejaVuSans-115"/>
     <use x="1673.738281" xlink:href="#DejaVuSans-101"/>
     <use x="1735.261719" xlink:href="#DejaVuSans-115"/>
    </g>
   </g>
   <g id="legend_1">
    <g id="patch_251">
     <path d="M 274.560313 49.555312 
L 372.274375 49.555312 
Q 374.274375 49.555312 374.274375 47.555312 
L 374.274375 33.877187 
Q 374.274375 31.877187 372.274375 31.877187 
L 274.560313 31.877187 
Q 272.560313 31.877187 272.560313 33.877187 
L 272.560313 47.555312 
Q 272.560313 49.555312 274.560313 49.555312 
z
" style="fill:#ffffff;opacity:0.8;stroke:#cccccc;stroke-linejoin:miter;"/>
    </g>
    <g id="patch_252">
     <path d="M 276.560313 43.475625 
L 296.560313 43.475625 
L 296.560313 36.475625 
L 276.560313 36.475625 
z
"/>
    </g>
    <g id="text_22">
     <!-- New Zealand -->
     <g transform="translate(304.560313 43.475625)scale(0.1 -0.1)">
      <use xlink:href="#DejaVuSans-78"/>
      <use x="74.804688" xlink:href="#DejaVuSans-101"/>
      <use x="136.328125" xlink:href="#DejaVuSans-119"/>
      <use x="218.115234" xlink:href="#DejaVuSans-32"/>
      <use x="249.902344" xlink:href="#DejaVuSans-90"/>
      <use x="318.408203" xlink:href="#DejaVuSans-101"/>
      <use x="379.931641" xlink:href="#DejaVuSans-97"/>
      <use x="441.210938" xlink:href="#DejaVuSans-108"/>
      <use x="468.994141" xlink:href="#DejaVuSans-97"/>
      <use x="530.273438" xlink:href="#DejaVuSans-110"/>
      <use x="593.652344" xlink:href="#DejaVuSans-100"/>
     </g>
    </g>
   </g>
  </g>
 </g>
 <defs>
  <clipPath id="p90fd5a0a5f">
   <rect height="217.44" width="334.8" x="44.474375" y="26.877187"/>
  </clipPath>
 </defs>
</svg>
